<?xml version="1.0" encoding="utf-8" standalone="no"?>
<!DOCTYPE svg PUBLIC "-//W3C//DTD SVG 1.1//EN"
  "http://www.w3.org/Graphics/SVG/1.1/DTD/svg11.dtd">
<svg xmlns:xlink="http://www.w3.org/1999/xlink" width="432pt" height="288pt" viewBox="0 0 432 288" xmlns="http://www.w3.org/2000/svg" version="1.1">
 <metadata>
  <rdf:RDF xmlns:dc="http://purl.org/dc/elements/1.1/" xmlns:cc="http://creativecommons.org/ns#" xmlns:rdf="http://www.w3.org/1999/02/22-rdf-syntax-ns#">
   <cc:Work>
    <dc:type rdf:resource="http://purl.org/dc/dcmitype/StillImage"/>
    <dc:date>2023-09-03T22:39:48.724241</dc:date>
    <dc:format>image/svg+xml</dc:format>
    <dc:creator>
     <cc:Agent>
      <dc:title>Matplotlib v3.7.1, https://matplotlib.org/</dc:title>
     </cc:Agent>
    </dc:creator>
   </cc:Work>
  </rdf:RDF>
 </metadata>
 <defs>
  <style type="text/css">*{stroke-linejoin: round; stroke-linecap: butt}</style>
 </defs>
 <g id="figure_1">
  <g id="patch_1">
   <path d="M 0 288 
L 432 288 
L 432 0 
L 0 0 
z
" style="fill: #ffffff"/>
  </g>
  <g id="axes_1">
   <g id="patch_2">
    <path d="M 54 256.32 
L 388.8 256.32 
L 388.8 34.56 
L 54 34.56 
z
" style="fill: #ffffff"/>
   </g>
   <g id="PathCollection_1">
    <defs>
     <path id="m6a086bfca2" d="M 0 1.581139 
C 0.419323 1.581139 0.821528 1.41454 1.118034 1.118034 
C 1.41454 0.821528 1.581139 0.419323 1.581139 0 
C 1.581139 -0.419323 1.41454 -0.821528 1.118034 -1.118034 
C 0.821528 -1.41454 0.419323 -1.581139 0 -1.581139 
C -0.419323 -1.581139 -0.821528 -1.41454 -1.118034 -1.118034 
C -1.41454 -0.821528 -1.581139 -0.419323 -1.581139 0 
C -1.581139 0.419323 -1.41454 0.821528 -1.118034 1.118034 
C -0.821528 1.41454 -0.419323 1.581139 0 1.581139 
z
" style="stroke: #d62728; stroke-opacity: 0.5"/>
    </defs>
    <g clip-path="url(#pb21c42485c)">
     <use xlink:href="#m6a086bfca2" x="-1" y="231.621254" style="fill: #d62728; fill-opacity: 0.5; stroke: #d62728; stroke-opacity: 0.5"/>
     <use xlink:href="#m6a086bfca2" x="27.530628" y="232.462178" style="fill: #d62728; fill-opacity: 0.5; stroke: #d62728; stroke-opacity: 0.5"/>
     <use xlink:href="#m6a086bfca2" x="-1" y="230.305811" style="fill: #d62728; fill-opacity: 0.5; stroke: #d62728; stroke-opacity: 0.5"/>
     <use xlink:href="#m6a086bfca2" x="-1" y="249.378827" style="fill: #d62728; fill-opacity: 0.5; stroke: #d62728; stroke-opacity: 0.5"/>
     <use xlink:href="#m6a086bfca2" x="332.734416" y="255.628688" style="fill: #d62728; fill-opacity: 0.5; stroke: #d62728; stroke-opacity: 0.5"/>
     <use xlink:href="#m6a086bfca2" x="332.672986" y="255.705025" style="fill: #d62728; fill-opacity: 0.5; stroke: #d62728; stroke-opacity: 0.5"/>
     <use xlink:href="#m6a086bfca2" x="333.604459" y="255.675663" style="fill: #d62728; fill-opacity: 0.5; stroke: #d62728; stroke-opacity: 0.5"/>
     <use xlink:href="#m6a086bfca2" x="333.151732" y="255.83667" style="fill: #d62728; fill-opacity: 0.5; stroke: #d62728; stroke-opacity: 0.5"/>
     <use xlink:href="#m6a086bfca2" x="328.443613" y="254.106091" style="fill: #d62728; fill-opacity: 0.5; stroke: #d62728; stroke-opacity: 0.5"/>
     <use xlink:href="#m6a086bfca2" x="333.433628" y="255.255155" style="fill: #d62728; fill-opacity: 0.5; stroke: #d62728; stroke-opacity: 0.5"/>
     <use xlink:href="#m6a086bfca2" x="88.681442" y="172.944947" style="fill: #d62728; fill-opacity: 0.5; stroke: #d62728; stroke-opacity: 0.5"/>
     <use xlink:href="#m6a086bfca2" x="333.14631" y="255.963595" style="fill: #d62728; fill-opacity: 0.5; stroke: #d62728; stroke-opacity: 0.5"/>
     <use xlink:href="#m6a086bfca2" x="210.84986" y="245.309078" style="fill: #d62728; fill-opacity: 0.5; stroke: #d62728; stroke-opacity: 0.5"/>
     <use xlink:href="#m6a086bfca2" x="333.216934" y="254.271346" style="fill: #d62728; fill-opacity: 0.5; stroke: #d62728; stroke-opacity: 0.5"/>
     <use xlink:href="#m6a086bfca2" x="324.235715" y="253.875117" style="fill: #d62728; fill-opacity: 0.5; stroke: #d62728; stroke-opacity: 0.5"/>
     <use xlink:href="#m6a086bfca2" x="333.34209" y="255.465309" style="fill: #d62728; fill-opacity: 0.5; stroke: #d62728; stroke-opacity: 0.5"/>
     <use xlink:href="#m6a086bfca2" x="333.718596" y="254.694686" style="fill: #d62728; fill-opacity: 0.5; stroke: #d62728; stroke-opacity: 0.5"/>
     <use xlink:href="#m6a086bfca2" x="332.449537" y="255.360616" style="fill: #d62728; fill-opacity: 0.5; stroke: #d62728; stroke-opacity: 0.5"/>
     <use xlink:href="#m6a086bfca2" x="333.104442" y="252.038218" style="fill: #d62728; fill-opacity: 0.5; stroke: #d62728; stroke-opacity: 0.5"/>
     <use xlink:href="#m6a086bfca2" x="331.548237" y="255.355179" style="fill: #d62728; fill-opacity: 0.5; stroke: #d62728; stroke-opacity: 0.5"/>
     <use xlink:href="#m6a086bfca2" x="313.793674" y="251.962841" style="fill: #d62728; fill-opacity: 0.5; stroke: #d62728; stroke-opacity: 0.5"/>
     <use xlink:href="#m6a086bfca2" x="331.968561" y="255.782137" style="fill: #d62728; fill-opacity: 0.5; stroke: #d62728; stroke-opacity: 0.5"/>
     <use xlink:href="#m6a086bfca2" x="173.516139" y="237.190805" style="fill: #d62728; fill-opacity: 0.5; stroke: #d62728; stroke-opacity: 0.5"/>
     <use xlink:href="#m6a086bfca2" x="330.818367" y="250.560478" style="fill: #d62728; fill-opacity: 0.5; stroke: #d62728; stroke-opacity: 0.5"/>
     <use xlink:href="#m6a086bfca2" x="330.660103" y="254.038651" style="fill: #d62728; fill-opacity: 0.5; stroke: #d62728; stroke-opacity: 0.5"/>
     <use xlink:href="#m6a086bfca2" x="334.054042" y="255.422551" style="fill: #d62728; fill-opacity: 0.5; stroke: #d62728; stroke-opacity: 0.5"/>
     <use xlink:href="#m6a086bfca2" x="332.237196" y="255.140345" style="fill: #d62728; fill-opacity: 0.5; stroke: #d62728; stroke-opacity: 0.5"/>
     <use xlink:href="#m6a086bfca2" x="333.154261" y="255.921066" style="fill: #d62728; fill-opacity: 0.5; stroke: #d62728; stroke-opacity: 0.5"/>
     <use xlink:href="#m6a086bfca2" x="194.992883" y="239.911232" style="fill: #d62728; fill-opacity: 0.5; stroke: #d62728; stroke-opacity: 0.5"/>
     <use xlink:href="#m6a086bfca2" x="333.954158" y="254.029797" style="fill: #d62728; fill-opacity: 0.5; stroke: #d62728; stroke-opacity: 0.5"/>
     <use xlink:href="#m6a086bfca2" x="301.959612" y="247.306927" style="fill: #d62728; fill-opacity: 0.5; stroke: #d62728; stroke-opacity: 0.5"/>
     <use xlink:href="#m6a086bfca2" x="331.169591" y="244.298703" style="fill: #d62728; fill-opacity: 0.5; stroke: #d62728; stroke-opacity: 0.5"/>
     <use xlink:href="#m6a086bfca2" x="-1" y="240.712788" style="fill: #d62728; fill-opacity: 0.5; stroke: #d62728; stroke-opacity: 0.5"/>
    </g>
   </g>
   <g id="PathCollection_2">
    <defs>
     <path id="m6da85f5d63" d="M 0 1.581139 
C 0.419323 1.581139 0.821528 1.41454 1.118034 1.118034 
C 1.41454 0.821528 1.581139 0.419323 1.581139 0 
C 1.581139 -0.419323 1.41454 -0.821528 1.118034 -1.118034 
C 0.821528 -1.41454 0.419323 -1.581139 0 -1.581139 
C -0.419323 -1.581139 -0.821528 -1.41454 -1.118034 -1.118034 
C -1.41454 -0.821528 -1.581139 -0.419323 -1.581139 0 
C -1.581139 0.419323 -1.41454 0.821528 -1.118034 1.118034 
C -0.821528 1.41454 -0.419323 1.581139 0 1.581139 
z
" style="stroke: #d62728"/>
    </defs>
    <g clip-path="url(#pb21c42485c)">
     <use xlink:href="#m6da85f5d63" x="-1" y="251.603237" style="fill: #d62728; stroke: #d62728"/>
     <use xlink:href="#m6da85f5d63" x="313.793674" y="251.962841" style="fill: #d62728; stroke: #d62728"/>
     <use xlink:href="#m6da85f5d63" x="324.235715" y="253.875117" style="fill: #d62728; stroke: #d62728"/>
     <use xlink:href="#m6da85f5d63" x="328.443613" y="254.106091" style="fill: #d62728; stroke: #d62728"/>
     <use xlink:href="#m6da85f5d63" x="331.548237" y="255.355179" style="fill: #d62728; stroke: #d62728"/>
     <use xlink:href="#m6da85f5d63" x="331.968561" y="255.782137" style="fill: #d62728; stroke: #d62728"/>
     <use xlink:href="#m6da85f5d63" x="333.14631" y="255.963595" style="fill: #d62728; stroke: #d62728"/>
     <use xlink:href="#m6da85f5d63" x="333.154261" y="255.921066" style="fill: #d62728; stroke: #d62728"/>
     <use xlink:href="#m6da85f5d63" x="333.604459" y="255.675663" style="fill: #d62728; stroke: #d62728"/>
     <use xlink:href="#m6da85f5d63" x="334.054042" y="255.422551" style="fill: #d62728; stroke: #d62728"/>
    </g>
   </g>
   <g id="PathCollection_3">
    <defs>
     <path id="m2af514283d" d="M 0 1.581139 
C 0.419323 1.581139 0.821528 1.41454 1.118034 1.118034 
C 1.41454 0.821528 1.581139 0.419323 1.581139 0 
C 1.581139 -0.419323 1.41454 -0.821528 1.118034 -1.118034 
C 0.821528 -1.41454 0.419323 -1.581139 0 -1.581139 
C -0.419323 -1.581139 -0.821528 -1.41454 -1.118034 -1.118034 
C -1.41454 -0.821528 -1.581139 -0.419323 -1.581139 0 
C -1.581139 0.419323 -1.41454 0.821528 -1.118034 1.118034 
C -0.821528 1.41454 -0.419323 1.581139 0 1.581139 
z
" style="stroke: #9467bd; stroke-opacity: 0.5"/>
    </defs>
    <g clip-path="url(#pb21c42485c)">
     <use xlink:href="#m2af514283d" x="-1" y="223.702505" style="fill: #9467bd; fill-opacity: 0.5; stroke: #9467bd; stroke-opacity: 0.5"/>
     <use xlink:href="#m2af514283d" x="117.853229" y="223.461017" style="fill: #9467bd; fill-opacity: 0.5; stroke: #9467bd; stroke-opacity: 0.5"/>
     <use xlink:href="#m2af514283d" x="168.827976" y="215.133606" style="fill: #9467bd; fill-opacity: 0.5; stroke: #9467bd; stroke-opacity: 0.5"/>
     <use xlink:href="#m2af514283d" x="204.500163" y="238.876715" style="fill: #9467bd; fill-opacity: 0.5; stroke: #9467bd; stroke-opacity: 0.5"/>
     <use xlink:href="#m2af514283d" x="341.403739" y="178.800247" style="fill: #9467bd; fill-opacity: 0.5; stroke: #9467bd; stroke-opacity: 0.5"/>
     <use xlink:href="#m2af514283d" x="332.251007" y="236.414449" style="fill: #9467bd; fill-opacity: 0.5; stroke: #9467bd; stroke-opacity: 0.5"/>
     <use xlink:href="#m2af514283d" x="-1" y="234.177821" style="fill: #9467bd; fill-opacity: 0.5; stroke: #9467bd; stroke-opacity: 0.5"/>
     <use xlink:href="#m2af514283d" x="-1" y="213.506949" style="fill: #9467bd; fill-opacity: 0.5; stroke: #9467bd; stroke-opacity: 0.5"/>
     <use xlink:href="#m2af514283d" x="315.635618" y="248.469762" style="fill: #9467bd; fill-opacity: 0.5; stroke: #9467bd; stroke-opacity: 0.5"/>
     <use xlink:href="#m2af514283d" x="-1" y="223.534692" style="fill: #9467bd; fill-opacity: 0.5; stroke: #9467bd; stroke-opacity: 0.5"/>
     <use xlink:href="#m2af514283d" x="-1" y="228.050725" style="fill: #9467bd; fill-opacity: 0.5; stroke: #9467bd; stroke-opacity: 0.5"/>
     <use xlink:href="#m2af514283d" x="95.931063" y="235.94892" style="fill: #9467bd; fill-opacity: 0.5; stroke: #9467bd; stroke-opacity: 0.5"/>
     <use xlink:href="#m2af514283d" x="108.290361" y="236.971967" style="fill: #9467bd; fill-opacity: 0.5; stroke: #9467bd; stroke-opacity: 0.5"/>
     <use xlink:href="#m2af514283d" x="340.031836" y="208.710127" style="fill: #9467bd; fill-opacity: 0.5; stroke: #9467bd; stroke-opacity: 0.5"/>
     <use xlink:href="#m2af514283d" x="338.84222" y="158.66918" style="fill: #9467bd; fill-opacity: 0.5; stroke: #9467bd; stroke-opacity: 0.5"/>
     <use xlink:href="#m2af514283d" x="337.002303" y="192.412543" style="fill: #9467bd; fill-opacity: 0.5; stroke: #9467bd; stroke-opacity: 0.5"/>
     <use xlink:href="#m2af514283d" x="-1" y="153.580514" style="fill: #9467bd; fill-opacity: 0.5; stroke: #9467bd; stroke-opacity: 0.5"/>
     <use xlink:href="#m2af514283d" x="-1" y="153.712844" style="fill: #9467bd; fill-opacity: 0.5; stroke: #9467bd; stroke-opacity: 0.5"/>
     <use xlink:href="#m2af514283d" x="352.578389" y="194.435218" style="fill: #9467bd; fill-opacity: 0.5; stroke: #9467bd; stroke-opacity: 0.5"/>
     <use xlink:href="#m2af514283d" x="-1" y="170.825719" style="fill: #9467bd; fill-opacity: 0.5; stroke: #9467bd; stroke-opacity: 0.5"/>
     <use xlink:href="#m2af514283d" x="-1" y="150.355654" style="fill: #9467bd; fill-opacity: 0.5; stroke: #9467bd; stroke-opacity: 0.5"/>
     <use xlink:href="#m2af514283d" x="349.895594" y="209.947103" style="fill: #9467bd; fill-opacity: 0.5; stroke: #9467bd; stroke-opacity: 0.5"/>
     <use xlink:href="#m2af514283d" x="344.096219" y="215.94794" style="fill: #9467bd; fill-opacity: 0.5; stroke: #9467bd; stroke-opacity: 0.5"/>
     <use xlink:href="#m2af514283d" x="347.389521" y="211.690654" style="fill: #9467bd; fill-opacity: 0.5; stroke: #9467bd; stroke-opacity: 0.5"/>
     <use xlink:href="#m2af514283d" x="349.956283" y="210.643843" style="fill: #9467bd; fill-opacity: 0.5; stroke: #9467bd; stroke-opacity: 0.5"/>
     <use xlink:href="#m2af514283d" x="303.680059" y="230.777873" style="fill: #9467bd; fill-opacity: 0.5; stroke: #9467bd; stroke-opacity: 0.5"/>
     <use xlink:href="#m2af514283d" x="350.104976" y="194.209983" style="fill: #9467bd; fill-opacity: 0.5; stroke: #9467bd; stroke-opacity: 0.5"/>
     <use xlink:href="#m2af514283d" x="348.636435" y="189.128097" style="fill: #9467bd; fill-opacity: 0.5; stroke: #9467bd; stroke-opacity: 0.5"/>
     <use xlink:href="#m2af514283d" x="36.510664" y="114.086568" style="fill: #9467bd; fill-opacity: 0.5; stroke: #9467bd; stroke-opacity: 0.5"/>
     <use xlink:href="#m2af514283d" x="49.436216" y="235.314094" style="fill: #9467bd; fill-opacity: 0.5; stroke: #9467bd; stroke-opacity: 0.5"/>
     <use xlink:href="#m2af514283d" x="347.536145" y="196.2035" style="fill: #9467bd; fill-opacity: 0.5; stroke: #9467bd; stroke-opacity: 0.5"/>
     <use xlink:href="#m2af514283d" x="-1" y="116.844877" style="fill: #9467bd; fill-opacity: 0.5; stroke: #9467bd; stroke-opacity: 0.5"/>
     <use xlink:href="#m2af514283d" x="-1" y="117.1408" style="fill: #9467bd; fill-opacity: 0.5; stroke: #9467bd; stroke-opacity: 0.5"/>
     <use xlink:href="#m2af514283d" x="340.694429" y="220.420092" style="fill: #9467bd; fill-opacity: 0.5; stroke: #9467bd; stroke-opacity: 0.5"/>
     <use xlink:href="#m2af514283d" x="350.900688" y="196.762699" style="fill: #9467bd; fill-opacity: 0.5; stroke: #9467bd; stroke-opacity: 0.5"/>
     <use xlink:href="#m2af514283d" x="346.723197" y="179.55736" style="fill: #9467bd; fill-opacity: 0.5; stroke: #9467bd; stroke-opacity: 0.5"/>
     <use xlink:href="#m2af514283d" x="322.027297" y="228.623916" style="fill: #9467bd; fill-opacity: 0.5; stroke: #9467bd; stroke-opacity: 0.5"/>
     <use xlink:href="#m2af514283d" x="348.429111" y="203.198609" style="fill: #9467bd; fill-opacity: 0.5; stroke: #9467bd; stroke-opacity: 0.5"/>
     <use xlink:href="#m2af514283d" x="349.134486" y="199.075334" style="fill: #9467bd; fill-opacity: 0.5; stroke: #9467bd; stroke-opacity: 0.5"/>
     <use xlink:href="#m2af514283d" x="139.334039" y="117.259726" style="fill: #9467bd; fill-opacity: 0.5; stroke: #9467bd; stroke-opacity: 0.5"/>
     <use xlink:href="#m2af514283d" x="333.756584" y="226.507549" style="fill: #9467bd; fill-opacity: 0.5; stroke: #9467bd; stroke-opacity: 0.5"/>
    </g>
   </g>
   <g id="PathCollection_4">
    <defs>
     <path id="mf486d7970c" d="M 0 1.581139 
C 0.419323 1.581139 0.821528 1.41454 1.118034 1.118034 
C 1.41454 0.821528 1.581139 0.419323 1.581139 0 
C 1.581139 -0.419323 1.41454 -0.821528 1.118034 -1.118034 
C 0.821528 -1.41454 0.419323 -1.581139 0 -1.581139 
C -0.419323 -1.581139 -0.821528 -1.41454 -1.118034 -1.118034 
C -1.41454 -0.821528 -1.581139 -0.419323 -1.581139 0 
C -1.581139 0.419323 -1.41454 0.821528 -1.118034 1.118034 
C -0.821528 1.41454 -0.419323 1.581139 0 1.581139 
z
" style="stroke: #9467bd"/>
    </defs>
    <g clip-path="url(#pb21c42485c)">
     <use xlink:href="#mf486d7970c" x="-1" y="235.081084" style="fill: #9467bd; stroke: #9467bd"/>
     <use xlink:href="#mf486d7970c" x="49.436216" y="235.314094" style="fill: #9467bd; stroke: #9467bd"/>
     <use xlink:href="#mf486d7970c" x="95.931063" y="235.94892" style="fill: #9467bd; stroke: #9467bd"/>
     <use xlink:href="#mf486d7970c" x="108.290361" y="236.971967" style="fill: #9467bd; stroke: #9467bd"/>
     <use xlink:href="#mf486d7970c" x="204.500163" y="238.876715" style="fill: #9467bd; stroke: #9467bd"/>
     <use xlink:href="#mf486d7970c" x="315.635618" y="248.469762" style="fill: #9467bd; stroke: #9467bd"/>
     <use xlink:href="#mf486d7970c" x="332.251007" y="236.414449" style="fill: #9467bd; stroke: #9467bd"/>
     <use xlink:href="#mf486d7970c" x="333.756584" y="226.507549" style="fill: #9467bd; stroke: #9467bd"/>
     <use xlink:href="#mf486d7970c" x="340.694429" y="220.420092" style="fill: #9467bd; stroke: #9467bd"/>
     <use xlink:href="#mf486d7970c" x="344.096219" y="215.94794" style="fill: #9467bd; stroke: #9467bd"/>
     <use xlink:href="#mf486d7970c" x="347.389521" y="211.690654" style="fill: #9467bd; stroke: #9467bd"/>
     <use xlink:href="#mf486d7970c" x="349.956283" y="210.643843" style="fill: #9467bd; stroke: #9467bd"/>
     <use xlink:href="#mf486d7970c" x="350.900688" y="196.762699" style="fill: #9467bd; stroke: #9467bd"/>
     <use xlink:href="#mf486d7970c" x="352.578389" y="194.435218" style="fill: #9467bd; stroke: #9467bd"/>
    </g>
   </g>
   <g id="PathCollection_5">
    <defs>
     <path id="madeecf7767" d="M 0 1.581139 
C 0.419323 1.581139 0.821528 1.41454 1.118034 1.118034 
C 1.41454 0.821528 1.581139 0.419323 1.581139 0 
C 1.581139 -0.419323 1.41454 -0.821528 1.118034 -1.118034 
C 0.821528 -1.41454 0.419323 -1.581139 0 -1.581139 
C -0.419323 -1.581139 -0.821528 -1.41454 -1.118034 -1.118034 
C -1.41454 -0.821528 -1.581139 -0.419323 -1.581139 0 
C -1.581139 0.419323 -1.41454 0.821528 -1.118034 1.118034 
C -0.821528 1.41454 -0.419323 1.581139 0 1.581139 
z
" style="stroke: #1f77b4; stroke-opacity: 0.5"/>
    </defs>
    <g clip-path="url(#pb21c42485c)">
     <use xlink:href="#madeecf7767" x="-1" y="167.01148" style="fill: #1f77b4; fill-opacity: 0.5; stroke: #1f77b4; stroke-opacity: 0.5"/>
     <use xlink:href="#madeecf7767" x="335.373979" y="170.037685" style="fill: #1f77b4; fill-opacity: 0.5; stroke: #1f77b4; stroke-opacity: 0.5"/>
     <use xlink:href="#madeecf7767" x="345.586838" y="194.249726" style="fill: #1f77b4; fill-opacity: 0.5; stroke: #1f77b4; stroke-opacity: 0.5"/>
     <use xlink:href="#madeecf7767" x="325.130271" y="147.333843" style="fill: #1f77b4; fill-opacity: 0.5; stroke: #1f77b4; stroke-opacity: 0.5"/>
     <use xlink:href="#madeecf7767" x="288.097308" y="156.254705" style="fill: #1f77b4; fill-opacity: 0.5; stroke: #1f77b4; stroke-opacity: 0.5"/>
     <use xlink:href="#madeecf7767" x="341.560796" y="191.401789" style="fill: #1f77b4; fill-opacity: 0.5; stroke: #1f77b4; stroke-opacity: 0.5"/>
     <use xlink:href="#madeecf7767" x="319.000358" y="157.219391" style="fill: #1f77b4; fill-opacity: 0.5; stroke: #1f77b4; stroke-opacity: 0.5"/>
     <use xlink:href="#madeecf7767" x="332.752358" y="150.539834" style="fill: #1f77b4; fill-opacity: 0.5; stroke: #1f77b4; stroke-opacity: 0.5"/>
     <use xlink:href="#madeecf7767" x="351.196561" y="181.821225" style="fill: #1f77b4; fill-opacity: 0.5; stroke: #1f77b4; stroke-opacity: 0.5"/>
     <use xlink:href="#madeecf7767" x="332.057911" y="169.556389" style="fill: #1f77b4; fill-opacity: 0.5; stroke: #1f77b4; stroke-opacity: 0.5"/>
     <use xlink:href="#madeecf7767" x="347.690237" y="179.391946" style="fill: #1f77b4; fill-opacity: 0.5; stroke: #1f77b4; stroke-opacity: 0.5"/>
     <use xlink:href="#madeecf7767" x="341.033109" y="171.398382" style="fill: #1f77b4; fill-opacity: 0.5; stroke: #1f77b4; stroke-opacity: 0.5"/>
     <use xlink:href="#madeecf7767" x="333.850137" y="195.547099" style="fill: #1f77b4; fill-opacity: 0.5; stroke: #1f77b4; stroke-opacity: 0.5"/>
     <use xlink:href="#madeecf7767" x="338.922022" y="182.713872" style="fill: #1f77b4; fill-opacity: 0.5; stroke: #1f77b4; stroke-opacity: 0.5"/>
     <use xlink:href="#madeecf7767" x="325.644153" y="183.180707" style="fill: #1f77b4; fill-opacity: 0.5; stroke: #1f77b4; stroke-opacity: 0.5"/>
     <use xlink:href="#madeecf7767" x="337.779667" y="196.948656" style="fill: #1f77b4; fill-opacity: 0.5; stroke: #1f77b4; stroke-opacity: 0.5"/>
     <use xlink:href="#madeecf7767" x="344.029241" y="183.561624" style="fill: #1f77b4; fill-opacity: 0.5; stroke: #1f77b4; stroke-opacity: 0.5"/>
     <use xlink:href="#madeecf7767" x="340.373231" y="172.446584" style="fill: #1f77b4; fill-opacity: 0.5; stroke: #1f77b4; stroke-opacity: 0.5"/>
     <use xlink:href="#madeecf7767" x="337.754748" y="174.896852" style="fill: #1f77b4; fill-opacity: 0.5; stroke: #1f77b4; stroke-opacity: 0.5"/>
    </g>
   </g>
   <g id="PathCollection_6">
    <defs>
     <path id="mf15d736644" d="M 0 1.581139 
C 0.419323 1.581139 0.821528 1.41454 1.118034 1.118034 
C 1.41454 0.821528 1.581139 0.419323 1.581139 0 
C 1.581139 -0.419323 1.41454 -0.821528 1.118034 -1.118034 
C 0.821528 -1.41454 0.419323 -1.581139 0 -1.581139 
C -0.419323 -1.581139 -0.821528 -1.41454 -1.118034 -1.118034 
C -1.41454 -0.821528 -1.581139 -0.419323 -1.581139 0 
C -1.581139 0.419323 -1.41454 0.821528 -1.118034 1.118034 
C -0.821528 1.41454 -0.419323 1.581139 0 1.581139 
z
" style="stroke: #1f77b4"/>
    </defs>
    <g clip-path="url(#pb21c42485c)">
     <use xlink:href="#mf15d736644" x="-1" y="176.402575" style="fill: #1f77b4; stroke: #1f77b4"/>
     <use xlink:href="#mf15d736644" x="325.644153" y="183.180707" style="fill: #1f77b4; stroke: #1f77b4"/>
     <use xlink:href="#mf15d736644" x="333.850137" y="195.547099" style="fill: #1f77b4; stroke: #1f77b4"/>
     <use xlink:href="#mf15d736644" x="337.779667" y="196.948656" style="fill: #1f77b4; stroke: #1f77b4"/>
     <use xlink:href="#mf15d736644" x="345.586838" y="194.249726" style="fill: #1f77b4; stroke: #1f77b4"/>
     <use xlink:href="#mf15d736644" x="351.196561" y="181.821225" style="fill: #1f77b4; stroke: #1f77b4"/>
    </g>
   </g>
   <g id="PathCollection_7">
    <defs>
     <path id="m9813f26cb6" d="M 0 1.581139 
C 0.419323 1.581139 0.821528 1.41454 1.118034 1.118034 
C 1.41454 0.821528 1.581139 0.419323 1.581139 0 
C 1.581139 -0.419323 1.41454 -0.821528 1.118034 -1.118034 
C 0.821528 -1.41454 0.419323 -1.581139 0 -1.581139 
C -0.419323 -1.581139 -0.821528 -1.41454 -1.118034 -1.118034 
C -1.41454 -0.821528 -1.581139 -0.419323 -1.581139 0 
C -1.581139 0.419323 -1.41454 0.821528 -1.118034 1.118034 
C -0.821528 1.41454 -0.419323 1.581139 0 1.581139 
z
" style="stroke: #ff7f0e; stroke-opacity: 0.5"/>
    </defs>
    <g clip-path="url(#pb21c42485c)">
     <use xlink:href="#m9813f26cb6" x="268.321987" y="150.374409" style="fill: #ff7f0e; fill-opacity: 0.5; stroke: #ff7f0e; stroke-opacity: 0.5"/>
     <use xlink:href="#m9813f26cb6" x="306.012055" y="138.925045" style="fill: #ff7f0e; fill-opacity: 0.5; stroke: #ff7f0e; stroke-opacity: 0.5"/>
     <use xlink:href="#m9813f26cb6" x="317.060437" y="177.327933" style="fill: #ff7f0e; fill-opacity: 0.5; stroke: #ff7f0e; stroke-opacity: 0.5"/>
     <use xlink:href="#m9813f26cb6" x="312.887681" y="184.187463" style="fill: #ff7f0e; fill-opacity: 0.5; stroke: #ff7f0e; stroke-opacity: 0.5"/>
     <use xlink:href="#m9813f26cb6" x="282.271877" y="189.045643" style="fill: #ff7f0e; fill-opacity: 0.5; stroke: #ff7f0e; stroke-opacity: 0.5"/>
     <use xlink:href="#m9813f26cb6" x="187.003449" y="201.162732" style="fill: #ff7f0e; fill-opacity: 0.5; stroke: #ff7f0e; stroke-opacity: 0.5"/>
     <use xlink:href="#m9813f26cb6" x="202.712301" y="203.988737" style="fill: #ff7f0e; fill-opacity: 0.5; stroke: #ff7f0e; stroke-opacity: 0.5"/>
     <use xlink:href="#m9813f26cb6" x="174.785593" y="209.003448" style="fill: #ff7f0e; fill-opacity: 0.5; stroke: #ff7f0e; stroke-opacity: 0.5"/>
     <use xlink:href="#m9813f26cb6" x="136.514222" y="207.077609" style="fill: #ff7f0e; fill-opacity: 0.5; stroke: #ff7f0e; stroke-opacity: 0.5"/>
     <use xlink:href="#m9813f26cb6" x="83.962155" y="215.727204" style="fill: #ff7f0e; fill-opacity: 0.5; stroke: #ff7f0e; stroke-opacity: 0.5"/>
     <use xlink:href="#m9813f26cb6" x="132.423707" y="225.121316" style="fill: #ff7f0e; fill-opacity: 0.5; stroke: #ff7f0e; stroke-opacity: 0.5"/>
     <use xlink:href="#m9813f26cb6" x="153.793166" y="220.370809" style="fill: #ff7f0e; fill-opacity: 0.5; stroke: #ff7f0e; stroke-opacity: 0.5"/>
     <use xlink:href="#m9813f26cb6" x="115.697153" y="220.739763" style="fill: #ff7f0e; fill-opacity: 0.5; stroke: #ff7f0e; stroke-opacity: 0.5"/>
     <use xlink:href="#m9813f26cb6" x="153.490005" y="217.873174" style="fill: #ff7f0e; fill-opacity: 0.5; stroke: #ff7f0e; stroke-opacity: 0.5"/>
     <use xlink:href="#m9813f26cb6" x="141.920889" y="206.806928" style="fill: #ff7f0e; fill-opacity: 0.5; stroke: #ff7f0e; stroke-opacity: 0.5"/>
     <use xlink:href="#m9813f26cb6" x="195.807978" y="204.829653" style="fill: #ff7f0e; fill-opacity: 0.5; stroke: #ff7f0e; stroke-opacity: 0.5"/>
     <use xlink:href="#m9813f26cb6" x="187.544408" y="209.315072" style="fill: #ff7f0e; fill-opacity: 0.5; stroke: #ff7f0e; stroke-opacity: 0.5"/>
     <use xlink:href="#m9813f26cb6" x="262.83703" y="152.693294" style="fill: #ff7f0e; fill-opacity: 0.5; stroke: #ff7f0e; stroke-opacity: 0.5"/>
     <use xlink:href="#m9813f26cb6" x="172.23786" y="218.921627" style="fill: #ff7f0e; fill-opacity: 0.5; stroke: #ff7f0e; stroke-opacity: 0.5"/>
    </g>
   </g>
   <g id="PathCollection_8">
    <defs>
     <path id="m4693f90fac" d="M 0 1.581139 
C 0.419323 1.581139 0.821528 1.41454 1.118034 1.118034 
C 1.41454 0.821528 1.581139 0.419323 1.581139 0 
C 1.581139 -0.419323 1.41454 -0.821528 1.118034 -1.118034 
C 0.821528 -1.41454 0.419323 -1.581139 0 -1.581139 
C -0.419323 -1.581139 -0.821528 -1.41454 -1.118034 -1.118034 
C -1.41454 -0.821528 -1.581139 -0.419323 -1.581139 0 
C -1.581139 0.419323 -1.41454 0.821528 -1.118034 1.118034 
C -0.821528 1.41454 -0.419323 1.581139 0 1.581139 
z
" style="stroke: #ff7f0e"/>
    </defs>
    <g clip-path="url(#pb21c42485c)">
     <use xlink:href="#m4693f90fac" x="83.962155" y="215.727204" style="fill: #ff7f0e; stroke: #ff7f0e"/>
     <use xlink:href="#m4693f90fac" x="115.697153" y="220.739763" style="fill: #ff7f0e; stroke: #ff7f0e"/>
     <use xlink:href="#m4693f90fac" x="132.423707" y="225.121316" style="fill: #ff7f0e; stroke: #ff7f0e"/>
     <use xlink:href="#m4693f90fac" x="153.793166" y="220.370809" style="fill: #ff7f0e; stroke: #ff7f0e"/>
     <use xlink:href="#m4693f90fac" x="172.23786" y="218.921627" style="fill: #ff7f0e; stroke: #ff7f0e"/>
     <use xlink:href="#m4693f90fac" x="187.544408" y="209.315072" style="fill: #ff7f0e; stroke: #ff7f0e"/>
     <use xlink:href="#m4693f90fac" x="195.807978" y="204.829653" style="fill: #ff7f0e; stroke: #ff7f0e"/>
     <use xlink:href="#m4693f90fac" x="202.712301" y="203.988737" style="fill: #ff7f0e; stroke: #ff7f0e"/>
     <use xlink:href="#m4693f90fac" x="282.271877" y="189.045643" style="fill: #ff7f0e; stroke: #ff7f0e"/>
     <use xlink:href="#m4693f90fac" x="312.887681" y="184.187463" style="fill: #ff7f0e; stroke: #ff7f0e"/>
     <use xlink:href="#m4693f90fac" x="317.060437" y="177.327933" style="fill: #ff7f0e; stroke: #ff7f0e"/>
    </g>
   </g>
   <g id="PathCollection_9">
    <defs>
     <path id="m5614155b2d" d="M 0 1.581139 
C 0.419323 1.581139 0.821528 1.41454 1.118034 1.118034 
C 1.41454 0.821528 1.581139 0.419323 1.581139 0 
C 1.581139 -0.419323 1.41454 -0.821528 1.118034 -1.118034 
C 0.821528 -1.41454 0.419323 -1.581139 0 -1.581139 
C -0.419323 -1.581139 -0.821528 -1.41454 -1.118034 -1.118034 
C -1.41454 -0.821528 -1.581139 -0.419323 -1.581139 0 
C -1.581139 0.419323 -1.41454 0.821528 -1.118034 1.118034 
C -0.821528 1.41454 -0.419323 1.581139 0 1.581139 
z
" style="stroke: #2ca02c; stroke-opacity: 0.5"/>
    </defs>
    <g clip-path="url(#pb21c42485c)">
     <use xlink:href="#m5614155b2d" x="114.517067" y="101.730953" style="fill: #2ca02c; fill-opacity: 0.5; stroke: #2ca02c; stroke-opacity: 0.5"/>
     <use xlink:href="#m5614155b2d" x="309.083737" y="198.373897" style="fill: #2ca02c; fill-opacity: 0.5; stroke: #2ca02c; stroke-opacity: 0.5"/>
     <use xlink:href="#m5614155b2d" x="273.482797" y="211.232923" style="fill: #2ca02c; fill-opacity: 0.5; stroke: #2ca02c; stroke-opacity: 0.5"/>
     <use xlink:href="#m5614155b2d" x="307.864204" y="203.096701" style="fill: #2ca02c; fill-opacity: 0.5; stroke: #2ca02c; stroke-opacity: 0.5"/>
     <use xlink:href="#m5614155b2d" x="265.732865" y="108.252054" style="fill: #2ca02c; fill-opacity: 0.5; stroke: #2ca02c; stroke-opacity: 0.5"/>
     <use xlink:href="#m5614155b2d" x="7.134158" y="147.415989" style="fill: #2ca02c; fill-opacity: 0.5; stroke: #2ca02c; stroke-opacity: 0.5"/>
     <use xlink:href="#m5614155b2d" x="289.177384" y="209.822056" style="fill: #2ca02c; fill-opacity: 0.5; stroke: #2ca02c; stroke-opacity: 0.5"/>
     <use xlink:href="#m5614155b2d" x="279.848152" y="204.785095" style="fill: #2ca02c; fill-opacity: 0.5; stroke: #2ca02c; stroke-opacity: 0.5"/>
     <use xlink:href="#m5614155b2d" x="343.809385" y="178.350395" style="fill: #2ca02c; fill-opacity: 0.5; stroke: #2ca02c; stroke-opacity: 0.5"/>
     <use xlink:href="#m5614155b2d" x="220.48052" y="215.163846" style="fill: #2ca02c; fill-opacity: 0.5; stroke: #2ca02c; stroke-opacity: 0.5"/>
     <use xlink:href="#m5614155b2d" x="250.051299" y="214.50075" style="fill: #2ca02c; fill-opacity: 0.5; stroke: #2ca02c; stroke-opacity: 0.5"/>
     <use xlink:href="#m5614155b2d" x="362.899059" y="166.3526" style="fill: #2ca02c; fill-opacity: 0.5; stroke: #2ca02c; stroke-opacity: 0.5"/>
     <use xlink:href="#m5614155b2d" x="208.895555" y="211.252115" style="fill: #2ca02c; fill-opacity: 0.5; stroke: #2ca02c; stroke-opacity: 0.5"/>
     <use xlink:href="#m5614155b2d" x="271.697757" y="222.820706" style="fill: #2ca02c; fill-opacity: 0.5; stroke: #2ca02c; stroke-opacity: 0.5"/>
     <use xlink:href="#m5614155b2d" x="327.096755" y="172.979668" style="fill: #2ca02c; fill-opacity: 0.5; stroke: #2ca02c; stroke-opacity: 0.5"/>
     <use xlink:href="#m5614155b2d" x="195.174207" y="211.055455" style="fill: #2ca02c; fill-opacity: 0.5; stroke: #2ca02c; stroke-opacity: 0.5"/>
     <use xlink:href="#m5614155b2d" x="246.478421" y="214.615381" style="fill: #2ca02c; fill-opacity: 0.5; stroke: #2ca02c; stroke-opacity: 0.5"/>
     <use xlink:href="#m5614155b2d" x="236.684254" y="218.27304" style="fill: #2ca02c; fill-opacity: 0.5; stroke: #2ca02c; stroke-opacity: 0.5"/>
     <use xlink:href="#m5614155b2d" x="231.289621" y="218.85958" style="fill: #2ca02c; fill-opacity: 0.5; stroke: #2ca02c; stroke-opacity: 0.5"/>
    </g>
   </g>
   <g id="PathCollection_10">
    <defs>
     <path id="m8491dcacf0" d="M 0 1.581139 
C 0.419323 1.581139 0.821528 1.41454 1.118034 1.118034 
C 1.41454 0.821528 1.581139 0.419323 1.581139 0 
C 1.581139 -0.419323 1.41454 -0.821528 1.118034 -1.118034 
C 0.821528 -1.41454 0.419323 -1.581139 0 -1.581139 
C -0.419323 -1.581139 -0.821528 -1.41454 -1.118034 -1.118034 
C -1.41454 -0.821528 -1.581139 -0.419323 -1.581139 0 
C -1.581139 0.419323 -1.41454 0.821528 -1.118034 1.118034 
C -0.821528 1.41454 -0.419323 1.581139 0 1.581139 
z
" style="stroke: #2ca02c"/>
    </defs>
    <g clip-path="url(#pb21c42485c)">
     <use xlink:href="#m8491dcacf0" x="7.134158" y="147.415989" style="fill: #2ca02c; stroke: #2ca02c"/>
     <use xlink:href="#m8491dcacf0" x="195.174207" y="211.055455" style="fill: #2ca02c; stroke: #2ca02c"/>
     <use xlink:href="#m8491dcacf0" x="208.895555" y="211.252115" style="fill: #2ca02c; stroke: #2ca02c"/>
     <use xlink:href="#m8491dcacf0" x="220.48052" y="215.163846" style="fill: #2ca02c; stroke: #2ca02c"/>
     <use xlink:href="#m8491dcacf0" x="231.289621" y="218.85958" style="fill: #2ca02c; stroke: #2ca02c"/>
     <use xlink:href="#m8491dcacf0" x="271.697757" y="222.820706" style="fill: #2ca02c; stroke: #2ca02c"/>
     <use xlink:href="#m8491dcacf0" x="273.482797" y="211.232923" style="fill: #2ca02c; stroke: #2ca02c"/>
     <use xlink:href="#m8491dcacf0" x="289.177384" y="209.822056" style="fill: #2ca02c; stroke: #2ca02c"/>
     <use xlink:href="#m8491dcacf0" x="307.864204" y="203.096701" style="fill: #2ca02c; stroke: #2ca02c"/>
     <use xlink:href="#m8491dcacf0" x="309.083737" y="198.373897" style="fill: #2ca02c; stroke: #2ca02c"/>
     <use xlink:href="#m8491dcacf0" x="343.809385" y="178.350395" style="fill: #2ca02c; stroke: #2ca02c"/>
     <use xlink:href="#m8491dcacf0" x="362.899059" y="166.3526" style="fill: #2ca02c; stroke: #2ca02c"/>
    </g>
   </g>
   <g id="matplotlib.axis_1">
    <g id="xtick_1">
     <g id="line2d_1">
      <defs>
       <path id="m2a56c6f34e" d="M 0 0 
L 0 3.5 
" style="stroke: #000000; stroke-width: 0.8"/>
      </defs>
      <g>
       <use xlink:href="#m2a56c6f34e" x="54" y="256.32" style="stroke: #000000; stroke-width: 0.8"/>
      </g>
     </g>
     <g id="text_1">
      <!-- 50 -->
      <g transform="translate(47.6375 270.918437) scale(0.1 -0.1)">
       <defs>
        <path id="DejaVuSans-35" d="M 691 4666 
L 3169 4666 
L 3169 4134 
L 1269 4134 
L 1269 2991 
Q 1406 3038 1543 3061 
Q 1681 3084 1819 3084 
Q 2600 3084 3056 2656 
Q 3513 2228 3513 1497 
Q 3513 744 3044 326 
Q 2575 -91 1722 -91 
Q 1428 -91 1123 -41 
Q 819 9 494 109 
L 494 744 
Q 775 591 1075 516 
Q 1375 441 1709 441 
Q 2250 441 2565 725 
Q 2881 1009 2881 1497 
Q 2881 1984 2565 2268 
Q 2250 2553 1709 2553 
Q 1456 2553 1204 2497 
Q 953 2441 691 2322 
L 691 4666 
z
" transform="scale(0.015625)"/>
        <path id="DejaVuSans-30" d="M 2034 4250 
Q 1547 4250 1301 3770 
Q 1056 3291 1056 2328 
Q 1056 1369 1301 889 
Q 1547 409 2034 409 
Q 2525 409 2770 889 
Q 3016 1369 3016 2328 
Q 3016 3291 2770 3770 
Q 2525 4250 2034 4250 
z
M 2034 4750 
Q 2819 4750 3233 4129 
Q 3647 3509 3647 2328 
Q 3647 1150 3233 529 
Q 2819 -91 2034 -91 
Q 1250 -91 836 529 
Q 422 1150 422 2328 
Q 422 3509 836 4129 
Q 1250 4750 2034 4750 
z
" transform="scale(0.015625)"/>
       </defs>
       <use xlink:href="#DejaVuSans-35"/>
       <use xlink:href="#DejaVuSans-30" x="63.623047"/>
      </g>
     </g>
    </g>
    <g id="xtick_2">
     <g id="line2d_2">
      <g>
       <use xlink:href="#m2a56c6f34e" x="95.85" y="256.32" style="stroke: #000000; stroke-width: 0.8"/>
      </g>
     </g>
     <g id="text_2">
      <!-- 51 -->
      <g transform="translate(89.4875 270.918437) scale(0.1 -0.1)">
       <defs>
        <path id="DejaVuSans-31" d="M 794 531 
L 1825 531 
L 1825 4091 
L 703 3866 
L 703 4441 
L 1819 4666 
L 2450 4666 
L 2450 531 
L 3481 531 
L 3481 0 
L 794 0 
L 794 531 
z
" transform="scale(0.015625)"/>
       </defs>
       <use xlink:href="#DejaVuSans-35"/>
       <use xlink:href="#DejaVuSans-31" x="63.623047"/>
      </g>
     </g>
    </g>
    <g id="xtick_3">
     <g id="line2d_3">
      <g>
       <use xlink:href="#m2a56c6f34e" x="137.7" y="256.32" style="stroke: #000000; stroke-width: 0.8"/>
      </g>
     </g>
     <g id="text_3">
      <!-- 52 -->
      <g transform="translate(131.3375 270.918437) scale(0.1 -0.1)">
       <defs>
        <path id="DejaVuSans-32" d="M 1228 531 
L 3431 531 
L 3431 0 
L 469 0 
L 469 531 
Q 828 903 1448 1529 
Q 2069 2156 2228 2338 
Q 2531 2678 2651 2914 
Q 2772 3150 2772 3378 
Q 2772 3750 2511 3984 
Q 2250 4219 1831 4219 
Q 1534 4219 1204 4116 
Q 875 4013 500 3803 
L 500 4441 
Q 881 4594 1212 4672 
Q 1544 4750 1819 4750 
Q 2544 4750 2975 4387 
Q 3406 4025 3406 3419 
Q 3406 3131 3298 2873 
Q 3191 2616 2906 2266 
Q 2828 2175 2409 1742 
Q 1991 1309 1228 531 
z
" transform="scale(0.015625)"/>
       </defs>
       <use xlink:href="#DejaVuSans-35"/>
       <use xlink:href="#DejaVuSans-32" x="63.623047"/>
      </g>
     </g>
    </g>
    <g id="xtick_4">
     <g id="line2d_4">
      <g>
       <use xlink:href="#m2a56c6f34e" x="179.55" y="256.32" style="stroke: #000000; stroke-width: 0.8"/>
      </g>
     </g>
     <g id="text_4">
      <!-- 53 -->
      <g transform="translate(173.1875 270.918437) scale(0.1 -0.1)">
       <defs>
        <path id="DejaVuSans-33" d="M 2597 2516 
Q 3050 2419 3304 2112 
Q 3559 1806 3559 1356 
Q 3559 666 3084 287 
Q 2609 -91 1734 -91 
Q 1441 -91 1130 -33 
Q 819 25 488 141 
L 488 750 
Q 750 597 1062 519 
Q 1375 441 1716 441 
Q 2309 441 2620 675 
Q 2931 909 2931 1356 
Q 2931 1769 2642 2001 
Q 2353 2234 1838 2234 
L 1294 2234 
L 1294 2753 
L 1863 2753 
Q 2328 2753 2575 2939 
Q 2822 3125 2822 3475 
Q 2822 3834 2567 4026 
Q 2313 4219 1838 4219 
Q 1578 4219 1281 4162 
Q 984 4106 628 3988 
L 628 4550 
Q 988 4650 1302 4700 
Q 1616 4750 1894 4750 
Q 2613 4750 3031 4423 
Q 3450 4097 3450 3541 
Q 3450 3153 3228 2886 
Q 3006 2619 2597 2516 
z
" transform="scale(0.015625)"/>
       </defs>
       <use xlink:href="#DejaVuSans-35"/>
       <use xlink:href="#DejaVuSans-33" x="63.623047"/>
      </g>
     </g>
    </g>
    <g id="xtick_5">
     <g id="line2d_5">
      <g>
       <use xlink:href="#m2a56c6f34e" x="221.4" y="256.32" style="stroke: #000000; stroke-width: 0.8"/>
      </g>
     </g>
     <g id="text_5">
      <!-- 54 -->
      <g transform="translate(215.0375 270.918437) scale(0.1 -0.1)">
       <defs>
        <path id="DejaVuSans-34" d="M 2419 4116 
L 825 1625 
L 2419 1625 
L 2419 4116 
z
M 2253 4666 
L 3047 4666 
L 3047 1625 
L 3713 1625 
L 3713 1100 
L 3047 1100 
L 3047 0 
L 2419 0 
L 2419 1100 
L 313 1100 
L 313 1709 
L 2253 4666 
z
" transform="scale(0.015625)"/>
       </defs>
       <use xlink:href="#DejaVuSans-35"/>
       <use xlink:href="#DejaVuSans-34" x="63.623047"/>
      </g>
     </g>
    </g>
    <g id="xtick_6">
     <g id="line2d_6">
      <g>
       <use xlink:href="#m2a56c6f34e" x="263.25" y="256.32" style="stroke: #000000; stroke-width: 0.8"/>
      </g>
     </g>
     <g id="text_6">
      <!-- 55 -->
      <g transform="translate(256.8875 270.918437) scale(0.1 -0.1)">
       <use xlink:href="#DejaVuSans-35"/>
       <use xlink:href="#DejaVuSans-35" x="63.623047"/>
      </g>
     </g>
    </g>
    <g id="xtick_7">
     <g id="line2d_7">
      <g>
       <use xlink:href="#m2a56c6f34e" x="305.1" y="256.32" style="stroke: #000000; stroke-width: 0.8"/>
      </g>
     </g>
     <g id="text_7">
      <!-- 56 -->
      <g transform="translate(298.7375 270.918437) scale(0.1 -0.1)">
       <defs>
        <path id="DejaVuSans-36" d="M 2113 2584 
Q 1688 2584 1439 2293 
Q 1191 2003 1191 1497 
Q 1191 994 1439 701 
Q 1688 409 2113 409 
Q 2538 409 2786 701 
Q 3034 994 3034 1497 
Q 3034 2003 2786 2293 
Q 2538 2584 2113 2584 
z
M 3366 4563 
L 3366 3988 
Q 3128 4100 2886 4159 
Q 2644 4219 2406 4219 
Q 1781 4219 1451 3797 
Q 1122 3375 1075 2522 
Q 1259 2794 1537 2939 
Q 1816 3084 2150 3084 
Q 2853 3084 3261 2657 
Q 3669 2231 3669 1497 
Q 3669 778 3244 343 
Q 2819 -91 2113 -91 
Q 1303 -91 875 529 
Q 447 1150 447 2328 
Q 447 3434 972 4092 
Q 1497 4750 2381 4750 
Q 2619 4750 2861 4703 
Q 3103 4656 3366 4563 
z
" transform="scale(0.015625)"/>
       </defs>
       <use xlink:href="#DejaVuSans-35"/>
       <use xlink:href="#DejaVuSans-36" x="63.623047"/>
      </g>
     </g>
    </g>
    <g id="xtick_8">
     <g id="line2d_8">
      <g>
       <use xlink:href="#m2a56c6f34e" x="346.95" y="256.32" style="stroke: #000000; stroke-width: 0.8"/>
      </g>
     </g>
     <g id="text_8">
      <!-- 57 -->
      <g transform="translate(340.5875 270.918437) scale(0.1 -0.1)">
       <defs>
        <path id="DejaVuSans-37" d="M 525 4666 
L 3525 4666 
L 3525 4397 
L 1831 0 
L 1172 0 
L 2766 4134 
L 525 4134 
L 525 4666 
z
" transform="scale(0.015625)"/>
       </defs>
       <use xlink:href="#DejaVuSans-35"/>
       <use xlink:href="#DejaVuSans-37" x="63.623047"/>
      </g>
     </g>
    </g>
    <g id="xtick_9">
     <g id="line2d_9">
      <g>
       <use xlink:href="#m2a56c6f34e" x="388.8" y="256.32" style="stroke: #000000; stroke-width: 0.8"/>
      </g>
     </g>
     <g id="text_9">
      <!-- 58 -->
      <g transform="translate(382.4375 270.918437) scale(0.1 -0.1)">
       <defs>
        <path id="DejaVuSans-38" d="M 2034 2216 
Q 1584 2216 1326 1975 
Q 1069 1734 1069 1313 
Q 1069 891 1326 650 
Q 1584 409 2034 409 
Q 2484 409 2743 651 
Q 3003 894 3003 1313 
Q 3003 1734 2745 1975 
Q 2488 2216 2034 2216 
z
M 1403 2484 
Q 997 2584 770 2862 
Q 544 3141 544 3541 
Q 544 4100 942 4425 
Q 1341 4750 2034 4750 
Q 2731 4750 3128 4425 
Q 3525 4100 3525 3541 
Q 3525 3141 3298 2862 
Q 3072 2584 2669 2484 
Q 3125 2378 3379 2068 
Q 3634 1759 3634 1313 
Q 3634 634 3220 271 
Q 2806 -91 2034 -91 
Q 1263 -91 848 271 
Q 434 634 434 1313 
Q 434 1759 690 2068 
Q 947 2378 1403 2484 
z
M 1172 3481 
Q 1172 3119 1398 2916 
Q 1625 2713 2034 2713 
Q 2441 2713 2670 2916 
Q 2900 3119 2900 3481 
Q 2900 3844 2670 4047 
Q 2441 4250 2034 4250 
Q 1625 4250 1398 4047 
Q 1172 3844 1172 3481 
z
" transform="scale(0.015625)"/>
       </defs>
       <use xlink:href="#DejaVuSans-35"/>
       <use xlink:href="#DejaVuSans-38" x="63.623047"/>
      </g>
     </g>
    </g>
    <g id="text_10">
     <!-- Final Path Distance -->
     <g transform="translate(173.852344 284.596563) scale(0.1 -0.1)">
      <defs>
       <path id="DejaVuSans-46" d="M 628 4666 
L 3309 4666 
L 3309 4134 
L 1259 4134 
L 1259 2759 
L 3109 2759 
L 3109 2228 
L 1259 2228 
L 1259 0 
L 628 0 
L 628 4666 
z
" transform="scale(0.015625)"/>
       <path id="DejaVuSans-69" d="M 603 3500 
L 1178 3500 
L 1178 0 
L 603 0 
L 603 3500 
z
M 603 4863 
L 1178 4863 
L 1178 4134 
L 603 4134 
L 603 4863 
z
" transform="scale(0.015625)"/>
       <path id="DejaVuSans-6e" d="M 3513 2113 
L 3513 0 
L 2938 0 
L 2938 2094 
Q 2938 2591 2744 2837 
Q 2550 3084 2163 3084 
Q 1697 3084 1428 2787 
Q 1159 2491 1159 1978 
L 1159 0 
L 581 0 
L 581 3500 
L 1159 3500 
L 1159 2956 
Q 1366 3272 1645 3428 
Q 1925 3584 2291 3584 
Q 2894 3584 3203 3211 
Q 3513 2838 3513 2113 
z
" transform="scale(0.015625)"/>
       <path id="DejaVuSans-61" d="M 2194 1759 
Q 1497 1759 1228 1600 
Q 959 1441 959 1056 
Q 959 750 1161 570 
Q 1363 391 1709 391 
Q 2188 391 2477 730 
Q 2766 1069 2766 1631 
L 2766 1759 
L 2194 1759 
z
M 3341 1997 
L 3341 0 
L 2766 0 
L 2766 531 
Q 2569 213 2275 61 
Q 1981 -91 1556 -91 
Q 1019 -91 701 211 
Q 384 513 384 1019 
Q 384 1609 779 1909 
Q 1175 2209 1959 2209 
L 2766 2209 
L 2766 2266 
Q 2766 2663 2505 2880 
Q 2244 3097 1772 3097 
Q 1472 3097 1187 3025 
Q 903 2953 641 2809 
L 641 3341 
Q 956 3463 1253 3523 
Q 1550 3584 1831 3584 
Q 2591 3584 2966 3190 
Q 3341 2797 3341 1997 
z
" transform="scale(0.015625)"/>
       <path id="DejaVuSans-6c" d="M 603 4863 
L 1178 4863 
L 1178 0 
L 603 0 
L 603 4863 
z
" transform="scale(0.015625)"/>
       <path id="DejaVuSans-20" transform="scale(0.015625)"/>
       <path id="DejaVuSans-50" d="M 1259 4147 
L 1259 2394 
L 2053 2394 
Q 2494 2394 2734 2622 
Q 2975 2850 2975 3272 
Q 2975 3691 2734 3919 
Q 2494 4147 2053 4147 
L 1259 4147 
z
M 628 4666 
L 2053 4666 
Q 2838 4666 3239 4311 
Q 3641 3956 3641 3272 
Q 3641 2581 3239 2228 
Q 2838 1875 2053 1875 
L 1259 1875 
L 1259 0 
L 628 0 
L 628 4666 
z
" transform="scale(0.015625)"/>
       <path id="DejaVuSans-74" d="M 1172 4494 
L 1172 3500 
L 2356 3500 
L 2356 3053 
L 1172 3053 
L 1172 1153 
Q 1172 725 1289 603 
Q 1406 481 1766 481 
L 2356 481 
L 2356 0 
L 1766 0 
Q 1100 0 847 248 
Q 594 497 594 1153 
L 594 3053 
L 172 3053 
L 172 3500 
L 594 3500 
L 594 4494 
L 1172 4494 
z
" transform="scale(0.015625)"/>
       <path id="DejaVuSans-68" d="M 3513 2113 
L 3513 0 
L 2938 0 
L 2938 2094 
Q 2938 2591 2744 2837 
Q 2550 3084 2163 3084 
Q 1697 3084 1428 2787 
Q 1159 2491 1159 1978 
L 1159 0 
L 581 0 
L 581 4863 
L 1159 4863 
L 1159 2956 
Q 1366 3272 1645 3428 
Q 1925 3584 2291 3584 
Q 2894 3584 3203 3211 
Q 3513 2838 3513 2113 
z
" transform="scale(0.015625)"/>
       <path id="DejaVuSans-44" d="M 1259 4147 
L 1259 519 
L 2022 519 
Q 2988 519 3436 956 
Q 3884 1394 3884 2338 
Q 3884 3275 3436 3711 
Q 2988 4147 2022 4147 
L 1259 4147 
z
M 628 4666 
L 1925 4666 
Q 3281 4666 3915 4102 
Q 4550 3538 4550 2338 
Q 4550 1131 3912 565 
Q 3275 0 1925 0 
L 628 0 
L 628 4666 
z
" transform="scale(0.015625)"/>
       <path id="DejaVuSans-73" d="M 2834 3397 
L 2834 2853 
Q 2591 2978 2328 3040 
Q 2066 3103 1784 3103 
Q 1356 3103 1142 2972 
Q 928 2841 928 2578 
Q 928 2378 1081 2264 
Q 1234 2150 1697 2047 
L 1894 2003 
Q 2506 1872 2764 1633 
Q 3022 1394 3022 966 
Q 3022 478 2636 193 
Q 2250 -91 1575 -91 
Q 1294 -91 989 -36 
Q 684 19 347 128 
L 347 722 
Q 666 556 975 473 
Q 1284 391 1588 391 
Q 1994 391 2212 530 
Q 2431 669 2431 922 
Q 2431 1156 2273 1281 
Q 2116 1406 1581 1522 
L 1381 1569 
Q 847 1681 609 1914 
Q 372 2147 372 2553 
Q 372 3047 722 3315 
Q 1072 3584 1716 3584 
Q 2034 3584 2315 3537 
Q 2597 3491 2834 3397 
z
" transform="scale(0.015625)"/>
       <path id="DejaVuSans-63" d="M 3122 3366 
L 3122 2828 
Q 2878 2963 2633 3030 
Q 2388 3097 2138 3097 
Q 1578 3097 1268 2742 
Q 959 2388 959 1747 
Q 959 1106 1268 751 
Q 1578 397 2138 397 
Q 2388 397 2633 464 
Q 2878 531 3122 666 
L 3122 134 
Q 2881 22 2623 -34 
Q 2366 -91 2075 -91 
Q 1284 -91 818 406 
Q 353 903 353 1747 
Q 353 2603 823 3093 
Q 1294 3584 2113 3584 
Q 2378 3584 2631 3529 
Q 2884 3475 3122 3366 
z
" transform="scale(0.015625)"/>
       <path id="DejaVuSans-65" d="M 3597 1894 
L 3597 1613 
L 953 1613 
Q 991 1019 1311 708 
Q 1631 397 2203 397 
Q 2534 397 2845 478 
Q 3156 559 3463 722 
L 3463 178 
Q 3153 47 2828 -22 
Q 2503 -91 2169 -91 
Q 1331 -91 842 396 
Q 353 884 353 1716 
Q 353 2575 817 3079 
Q 1281 3584 2069 3584 
Q 2775 3584 3186 3129 
Q 3597 2675 3597 1894 
z
M 3022 2063 
Q 3016 2534 2758 2815 
Q 2500 3097 2075 3097 
Q 1594 3097 1305 2825 
Q 1016 2553 972 2059 
L 3022 2063 
z
" transform="scale(0.015625)"/>
      </defs>
      <use xlink:href="#DejaVuSans-46"/>
      <use xlink:href="#DejaVuSans-69" x="50.269531"/>
      <use xlink:href="#DejaVuSans-6e" x="78.052734"/>
      <use xlink:href="#DejaVuSans-61" x="141.431641"/>
      <use xlink:href="#DejaVuSans-6c" x="202.710938"/>
      <use xlink:href="#DejaVuSans-20" x="230.494141"/>
      <use xlink:href="#DejaVuSans-50" x="262.28125"/>
      <use xlink:href="#DejaVuSans-61" x="318.083984"/>
      <use xlink:href="#DejaVuSans-74" x="379.363281"/>
      <use xlink:href="#DejaVuSans-68" x="418.572266"/>
      <use xlink:href="#DejaVuSans-20" x="481.951172"/>
      <use xlink:href="#DejaVuSans-44" x="513.738281"/>
      <use xlink:href="#DejaVuSans-69" x="590.740234"/>
      <use xlink:href="#DejaVuSans-73" x="618.523438"/>
      <use xlink:href="#DejaVuSans-74" x="670.623047"/>
      <use xlink:href="#DejaVuSans-61" x="709.832031"/>
      <use xlink:href="#DejaVuSans-6e" x="771.111328"/>
      <use xlink:href="#DejaVuSans-63" x="834.490234"/>
      <use xlink:href="#DejaVuSans-65" x="889.470703"/>
     </g>
    </g>
   </g>
   <g id="matplotlib.axis_2">
    <g id="ytick_1">
     <g id="line2d_10">
      <defs>
       <path id="me6bad6df40" d="M 0 0 
L -3.5 0 
" style="stroke: #000000; stroke-width: 0.8"/>
      </defs>
      <g>
       <use xlink:href="#me6bad6df40" x="54" y="256.32" style="stroke: #000000; stroke-width: 0.8"/>
      </g>
     </g>
     <g id="text_11">
      <!-- 0 -->
      <g transform="translate(40.6375 260.119219) scale(0.1 -0.1)">
       <use xlink:href="#DejaVuSans-30"/>
      </g>
     </g>
    </g>
    <g id="ytick_2">
     <g id="line2d_11">
      <g>
       <use xlink:href="#me6bad6df40" x="54" y="211.968" style="stroke: #000000; stroke-width: 0.8"/>
      </g>
     </g>
     <g id="text_12">
      <!-- 1 -->
      <g transform="translate(40.6375 215.767219) scale(0.1 -0.1)">
       <use xlink:href="#DejaVuSans-31"/>
      </g>
     </g>
    </g>
    <g id="ytick_3">
     <g id="line2d_12">
      <g>
       <use xlink:href="#me6bad6df40" x="54" y="167.616" style="stroke: #000000; stroke-width: 0.8"/>
      </g>
     </g>
     <g id="text_13">
      <!-- 2 -->
      <g transform="translate(40.6375 171.415219) scale(0.1 -0.1)">
       <use xlink:href="#DejaVuSans-32"/>
      </g>
     </g>
    </g>
    <g id="ytick_4">
     <g id="line2d_13">
      <g>
       <use xlink:href="#me6bad6df40" x="54" y="123.264" style="stroke: #000000; stroke-width: 0.8"/>
      </g>
     </g>
     <g id="text_14">
      <!-- 3 -->
      <g transform="translate(40.6375 127.063219) scale(0.1 -0.1)">
       <use xlink:href="#DejaVuSans-33"/>
      </g>
     </g>
    </g>
    <g id="ytick_5">
     <g id="line2d_14">
      <g>
       <use xlink:href="#me6bad6df40" x="54" y="78.912" style="stroke: #000000; stroke-width: 0.8"/>
      </g>
     </g>
     <g id="text_15">
      <!-- 4 -->
      <g transform="translate(40.6375 82.711219) scale(0.1 -0.1)">
       <use xlink:href="#DejaVuSans-34"/>
      </g>
     </g>
    </g>
    <g id="ytick_6">
     <g id="line2d_15">
      <g>
       <use xlink:href="#me6bad6df40" x="54" y="34.56" style="stroke: #000000; stroke-width: 0.8"/>
      </g>
     </g>
     <g id="text_16">
      <!-- 5 -->
      <g transform="translate(40.6375 38.359219) scale(0.1 -0.1)">
       <use xlink:href="#DejaVuSans-35"/>
      </g>
     </g>
    </g>
    <g id="text_17">
     <!-- XTE -->
     <g transform="translate(34.557813 154.990781) rotate(-90) scale(0.1 -0.1)">
      <defs>
       <path id="DejaVuSans-58" d="M 403 4666 
L 1081 4666 
L 2241 2931 
L 3406 4666 
L 4084 4666 
L 2584 2425 
L 4184 0 
L 3506 0 
L 2194 1984 
L 872 0 
L 191 0 
L 1856 2491 
L 403 4666 
z
" transform="scale(0.015625)"/>
       <path id="DejaVuSans-54" d="M -19 4666 
L 3928 4666 
L 3928 4134 
L 2272 4134 
L 2272 0 
L 1638 0 
L 1638 4134 
L -19 4134 
L -19 4666 
z
" transform="scale(0.015625)"/>
       <path id="DejaVuSans-45" d="M 628 4666 
L 3578 4666 
L 3578 4134 
L 1259 4134 
L 1259 2753 
L 3481 2753 
L 3481 2222 
L 1259 2222 
L 1259 531 
L 3634 531 
L 3634 0 
L 628 0 
L 628 4666 
z
" transform="scale(0.015625)"/>
      </defs>
      <use xlink:href="#DejaVuSans-58"/>
      <use xlink:href="#DejaVuSans-54" x="66.755859"/>
      <use xlink:href="#DejaVuSans-45" x="127.839844"/>
     </g>
    </g>
   </g>
   <g id="line2d_16">
    <path d="M -1 251.603237 
L 313.793674 251.962841 
L 324.235715 253.875117 
L 328.443613 254.106091 
L 331.548237 255.355179 
L 331.968561 255.782137 
L 333.14631 255.963595 
L 333.154261 255.921066 
L 333.604459 255.675663 
L 334.054042 255.422551 
" clip-path="url(#pb21c42485c)" style="fill: none; stroke: #d62728; stroke-width: 1.5; stroke-linecap: square"/>
   </g>
   <g id="line2d_17">
    <path d="M -1 235.081084 
L 49.436216 235.314094 
L 95.931063 235.94892 
L 108.290361 236.971967 
L 204.500163 238.876715 
L 315.635618 248.469762 
L 332.251007 236.414449 
L 333.756584 226.507549 
L 340.694429 220.420092 
L 344.096219 215.94794 
L 347.389521 211.690654 
L 349.956283 210.643843 
L 350.900688 196.762699 
L 352.578389 194.435218 
" clip-path="url(#pb21c42485c)" style="fill: none; stroke: #9467bd; stroke-width: 1.5; stroke-linecap: square"/>
   </g>
   <g id="line2d_18">
    <path d="M -1 176.402575 
L 325.644153 183.180707 
L 333.850137 195.547099 
L 337.779667 196.948656 
L 345.586838 194.249726 
L 351.196561 181.821225 
" clip-path="url(#pb21c42485c)" style="fill: none; stroke: #1f77b4; stroke-width: 1.5; stroke-linecap: square"/>
   </g>
   <g id="line2d_19">
    <path d="M 83.962155 215.727204 
L 115.697153 220.739763 
L 132.423707 225.121316 
L 153.793166 220.370809 
L 172.23786 218.921627 
L 187.544408 209.315072 
L 195.807978 204.829653 
L 202.712301 203.988737 
L 282.271877 189.045643 
L 312.887681 184.187463 
L 317.060437 177.327933 
" clip-path="url(#pb21c42485c)" style="fill: none; stroke: #ff7f0e; stroke-width: 1.5; stroke-linecap: square"/>
   </g>
   <g id="line2d_20">
    <path d="M 7.134158 147.415989 
L 195.174207 211.055455 
L 208.895555 211.252115 
L 220.48052 215.163846 
L 231.289621 218.85958 
L 271.697757 222.820706 
L 273.482797 211.232923 
L 289.177384 209.822056 
L 307.864204 203.096701 
L 309.083737 198.373897 
L 343.809385 178.350395 
L 362.899059 166.3526 
" clip-path="url(#pb21c42485c)" style="fill: none; stroke: #2ca02c; stroke-width: 1.5; stroke-linecap: square"/>
   </g>
   <g id="patch_3">
    <path d="M 54 256.32 
L 54 34.56 
" style="fill: none; stroke: #000000; stroke-width: 0.8; stroke-linejoin: miter; stroke-linecap: square"/>
   </g>
   <g id="patch_4">
    <path d="M 388.8 256.32 
L 388.8 34.56 
" style="fill: none; stroke: #000000; stroke-width: 0.8; stroke-linejoin: miter; stroke-linecap: square"/>
   </g>
   <g id="patch_5">
    <path d="M 54 256.32 
L 388.8 256.32 
" style="fill: none; stroke: #000000; stroke-width: 0.8; stroke-linejoin: miter; stroke-linecap: square"/>
   </g>
   <g id="patch_6">
    <path d="M 54 34.56 
L 388.8 34.56 
" style="fill: none; stroke: #000000; stroke-width: 0.8; stroke-linejoin: miter; stroke-linecap: square"/>
   </g>
   <g id="text_18">
    <!-- Pareto Optimal Line -->
    <g transform="translate(162.270938 28.56) scale(0.12 -0.12)">
     <defs>
      <path id="DejaVuSans-72" d="M 2631 2963 
Q 2534 3019 2420 3045 
Q 2306 3072 2169 3072 
Q 1681 3072 1420 2755 
Q 1159 2438 1159 1844 
L 1159 0 
L 581 0 
L 581 3500 
L 1159 3500 
L 1159 2956 
Q 1341 3275 1631 3429 
Q 1922 3584 2338 3584 
Q 2397 3584 2469 3576 
Q 2541 3569 2628 3553 
L 2631 2963 
z
" transform="scale(0.015625)"/>
      <path id="DejaVuSans-6f" d="M 1959 3097 
Q 1497 3097 1228 2736 
Q 959 2375 959 1747 
Q 959 1119 1226 758 
Q 1494 397 1959 397 
Q 2419 397 2687 759 
Q 2956 1122 2956 1747 
Q 2956 2369 2687 2733 
Q 2419 3097 1959 3097 
z
M 1959 3584 
Q 2709 3584 3137 3096 
Q 3566 2609 3566 1747 
Q 3566 888 3137 398 
Q 2709 -91 1959 -91 
Q 1206 -91 779 398 
Q 353 888 353 1747 
Q 353 2609 779 3096 
Q 1206 3584 1959 3584 
z
" transform="scale(0.015625)"/>
      <path id="DejaVuSans-4f" d="M 2522 4238 
Q 1834 4238 1429 3725 
Q 1025 3213 1025 2328 
Q 1025 1447 1429 934 
Q 1834 422 2522 422 
Q 3209 422 3611 934 
Q 4013 1447 4013 2328 
Q 4013 3213 3611 3725 
Q 3209 4238 2522 4238 
z
M 2522 4750 
Q 3503 4750 4090 4092 
Q 4678 3434 4678 2328 
Q 4678 1225 4090 567 
Q 3503 -91 2522 -91 
Q 1538 -91 948 565 
Q 359 1222 359 2328 
Q 359 3434 948 4092 
Q 1538 4750 2522 4750 
z
" transform="scale(0.015625)"/>
      <path id="DejaVuSans-70" d="M 1159 525 
L 1159 -1331 
L 581 -1331 
L 581 3500 
L 1159 3500 
L 1159 2969 
Q 1341 3281 1617 3432 
Q 1894 3584 2278 3584 
Q 2916 3584 3314 3078 
Q 3713 2572 3713 1747 
Q 3713 922 3314 415 
Q 2916 -91 2278 -91 
Q 1894 -91 1617 61 
Q 1341 213 1159 525 
z
M 3116 1747 
Q 3116 2381 2855 2742 
Q 2594 3103 2138 3103 
Q 1681 3103 1420 2742 
Q 1159 2381 1159 1747 
Q 1159 1113 1420 752 
Q 1681 391 2138 391 
Q 2594 391 2855 752 
Q 3116 1113 3116 1747 
z
" transform="scale(0.015625)"/>
      <path id="DejaVuSans-6d" d="M 3328 2828 
Q 3544 3216 3844 3400 
Q 4144 3584 4550 3584 
Q 5097 3584 5394 3201 
Q 5691 2819 5691 2113 
L 5691 0 
L 5113 0 
L 5113 2094 
Q 5113 2597 4934 2840 
Q 4756 3084 4391 3084 
Q 3944 3084 3684 2787 
Q 3425 2491 3425 1978 
L 3425 0 
L 2847 0 
L 2847 2094 
Q 2847 2600 2669 2842 
Q 2491 3084 2119 3084 
Q 1678 3084 1418 2786 
Q 1159 2488 1159 1978 
L 1159 0 
L 581 0 
L 581 3500 
L 1159 3500 
L 1159 2956 
Q 1356 3278 1631 3431 
Q 1906 3584 2284 3584 
Q 2666 3584 2933 3390 
Q 3200 3197 3328 2828 
z
" transform="scale(0.015625)"/>
      <path id="DejaVuSans-4c" d="M 628 4666 
L 1259 4666 
L 1259 531 
L 3531 531 
L 3531 0 
L 628 0 
L 628 4666 
z
" transform="scale(0.015625)"/>
     </defs>
     <use xlink:href="#DejaVuSans-50"/>
     <use xlink:href="#DejaVuSans-61" x="55.802734"/>
     <use xlink:href="#DejaVuSans-72" x="117.082031"/>
     <use xlink:href="#DejaVuSans-65" x="155.945312"/>
     <use xlink:href="#DejaVuSans-74" x="217.46875"/>
     <use xlink:href="#DejaVuSans-6f" x="256.677734"/>
     <use xlink:href="#DejaVuSans-20" x="317.859375"/>
     <use xlink:href="#DejaVuSans-4f" x="349.646484"/>
     <use xlink:href="#DejaVuSans-70" x="428.357422"/>
     <use xlink:href="#DejaVuSans-74" x="491.833984"/>
     <use xlink:href="#DejaVuSans-69" x="531.042969"/>
     <use xlink:href="#DejaVuSans-6d" x="558.826172"/>
     <use xlink:href="#DejaVuSans-61" x="656.238281"/>
     <use xlink:href="#DejaVuSans-6c" x="717.517578"/>
     <use xlink:href="#DejaVuSans-20" x="745.300781"/>
     <use xlink:href="#DejaVuSans-4c" x="777.087891"/>
     <use xlink:href="#DejaVuSans-69" x="832.800781"/>
     <use xlink:href="#DejaVuSans-6e" x="860.583984"/>
     <use xlink:href="#DejaVuSans-65" x="923.962891"/>
    </g>
   </g>
  </g>
  <g id="legend_1">
   <g id="patch_7">
    <path d="M -66.808594 398.2 
L 498.808594 398.2 
Q 500.808594 398.2 500.808594 396.2 
L 500.808594 382.521875 
Q 500.808594 380.521875 498.808594 380.521875 
L -66.808594 380.521875 
Q -68.808594 380.521875 -68.808594 382.521875 
L -68.808594 396.2 
Q -68.808594 398.2 -66.808594 398.2 
z
" style="fill: #ffffff; opacity: 0.8; stroke: #cccccc; stroke-linejoin: miter"/>
   </g>
   <g id="PathCollection_11">
    <g/>
   </g>
   <g id="text_19">
    <!-- PID XTE -->
    <g transform="translate(-36.808594 392.120313) scale(0.1 -0.1)">
     <defs>
      <path id="DejaVuSans-49" d="M 628 4666 
L 1259 4666 
L 1259 0 
L 628 0 
L 628 4666 
z
" transform="scale(0.015625)"/>
     </defs>
     <use xlink:href="#DejaVuSans-50"/>
     <use xlink:href="#DejaVuSans-49" x="60.302734"/>
     <use xlink:href="#DejaVuSans-44" x="89.794922"/>
     <use xlink:href="#DejaVuSans-20" x="166.796875"/>
     <use xlink:href="#DejaVuSans-58" x="198.583984"/>
     <use xlink:href="#DejaVuSans-54" x="265.339844"/>
     <use xlink:href="#DejaVuSans-45" x="326.423828"/>
    </g>
   </g>
   <g id="PathCollection_12">
    <g>
     <use xlink:href="#m2af514283d" x="32.150781" y="389.495313" style="fill: #9467bd; fill-opacity: 0.5; stroke: #9467bd; stroke-opacity: 0.5"/>
    </g>
   </g>
   <g id="text_20">
    <!-- PID LOS -->
    <g transform="translate(50.150781 392.120313) scale(0.1 -0.1)">
     <defs>
      <path id="DejaVuSans-53" d="M 3425 4513 
L 3425 3897 
Q 3066 4069 2747 4153 
Q 2428 4238 2131 4238 
Q 1616 4238 1336 4038 
Q 1056 3838 1056 3469 
Q 1056 3159 1242 3001 
Q 1428 2844 1947 2747 
L 2328 2669 
Q 3034 2534 3370 2195 
Q 3706 1856 3706 1288 
Q 3706 609 3251 259 
Q 2797 -91 1919 -91 
Q 1588 -91 1214 -16 
Q 841 59 441 206 
L 441 856 
Q 825 641 1194 531 
Q 1563 422 1919 422 
Q 2459 422 2753 634 
Q 3047 847 3047 1241 
Q 3047 1584 2836 1778 
Q 2625 1972 2144 2069 
L 1759 2144 
Q 1053 2284 737 2584 
Q 422 2884 422 3419 
Q 422 4038 858 4394 
Q 1294 4750 2059 4750 
Q 2388 4750 2728 4690 
Q 3069 4631 3425 4513 
z
" transform="scale(0.015625)"/>
     </defs>
     <use xlink:href="#DejaVuSans-50"/>
     <use xlink:href="#DejaVuSans-49" x="60.302734"/>
     <use xlink:href="#DejaVuSans-44" x="89.794922"/>
     <use xlink:href="#DejaVuSans-20" x="166.796875"/>
     <use xlink:href="#DejaVuSans-4c" x="198.583984"/>
     <use xlink:href="#DejaVuSans-4f" x="250.671875"/>
     <use xlink:href="#DejaVuSans-53" x="329.382812"/>
    </g>
   </g>
   <g id="PathCollection_13">
    <g>
     <use xlink:href="#madeecf7767" x="119.438281" y="389.495313" style="fill: #1f77b4; fill-opacity: 0.5; stroke: #1f77b4; stroke-opacity: 0.5"/>
    </g>
   </g>
   <g id="text_21">
    <!-- [Figueiredo and Rejaili, 2018] -->
    <g transform="translate(137.438281 392.120313) scale(0.1 -0.1)">
     <defs>
      <path id="DejaVuSans-5b" d="M 550 4863 
L 1875 4863 
L 1875 4416 
L 1125 4416 
L 1125 -397 
L 1875 -397 
L 1875 -844 
L 550 -844 
L 550 4863 
z
" transform="scale(0.015625)"/>
      <path id="DejaVuSans-67" d="M 2906 1791 
Q 2906 2416 2648 2759 
Q 2391 3103 1925 3103 
Q 1463 3103 1205 2759 
Q 947 2416 947 1791 
Q 947 1169 1205 825 
Q 1463 481 1925 481 
Q 2391 481 2648 825 
Q 2906 1169 2906 1791 
z
M 3481 434 
Q 3481 -459 3084 -895 
Q 2688 -1331 1869 -1331 
Q 1566 -1331 1297 -1286 
Q 1028 -1241 775 -1147 
L 775 -588 
Q 1028 -725 1275 -790 
Q 1522 -856 1778 -856 
Q 2344 -856 2625 -561 
Q 2906 -266 2906 331 
L 2906 616 
Q 2728 306 2450 153 
Q 2172 0 1784 0 
Q 1141 0 747 490 
Q 353 981 353 1791 
Q 353 2603 747 3093 
Q 1141 3584 1784 3584 
Q 2172 3584 2450 3431 
Q 2728 3278 2906 2969 
L 2906 3500 
L 3481 3500 
L 3481 434 
z
" transform="scale(0.015625)"/>
      <path id="DejaVuSans-75" d="M 544 1381 
L 544 3500 
L 1119 3500 
L 1119 1403 
Q 1119 906 1312 657 
Q 1506 409 1894 409 
Q 2359 409 2629 706 
Q 2900 1003 2900 1516 
L 2900 3500 
L 3475 3500 
L 3475 0 
L 2900 0 
L 2900 538 
Q 2691 219 2414 64 
Q 2138 -91 1772 -91 
Q 1169 -91 856 284 
Q 544 659 544 1381 
z
M 1991 3584 
L 1991 3584 
z
" transform="scale(0.015625)"/>
      <path id="DejaVuSans-64" d="M 2906 2969 
L 2906 4863 
L 3481 4863 
L 3481 0 
L 2906 0 
L 2906 525 
Q 2725 213 2448 61 
Q 2172 -91 1784 -91 
Q 1150 -91 751 415 
Q 353 922 353 1747 
Q 353 2572 751 3078 
Q 1150 3584 1784 3584 
Q 2172 3584 2448 3432 
Q 2725 3281 2906 2969 
z
M 947 1747 
Q 947 1113 1208 752 
Q 1469 391 1925 391 
Q 2381 391 2643 752 
Q 2906 1113 2906 1747 
Q 2906 2381 2643 2742 
Q 2381 3103 1925 3103 
Q 1469 3103 1208 2742 
Q 947 2381 947 1747 
z
" transform="scale(0.015625)"/>
      <path id="DejaVuSans-52" d="M 2841 2188 
Q 3044 2119 3236 1894 
Q 3428 1669 3622 1275 
L 4263 0 
L 3584 0 
L 2988 1197 
Q 2756 1666 2539 1819 
Q 2322 1972 1947 1972 
L 1259 1972 
L 1259 0 
L 628 0 
L 628 4666 
L 2053 4666 
Q 2853 4666 3247 4331 
Q 3641 3997 3641 3322 
Q 3641 2881 3436 2590 
Q 3231 2300 2841 2188 
z
M 1259 4147 
L 1259 2491 
L 2053 2491 
Q 2509 2491 2742 2702 
Q 2975 2913 2975 3322 
Q 2975 3731 2742 3939 
Q 2509 4147 2053 4147 
L 1259 4147 
z
" transform="scale(0.015625)"/>
      <path id="DejaVuSans-6a" d="M 603 3500 
L 1178 3500 
L 1178 -63 
Q 1178 -731 923 -1031 
Q 669 -1331 103 -1331 
L -116 -1331 
L -116 -844 
L 38 -844 
Q 366 -844 484 -692 
Q 603 -541 603 -63 
L 603 3500 
z
M 603 4863 
L 1178 4863 
L 1178 4134 
L 603 4134 
L 603 4863 
z
" transform="scale(0.015625)"/>
      <path id="DejaVuSans-2c" d="M 750 794 
L 1409 794 
L 1409 256 
L 897 -744 
L 494 -744 
L 750 256 
L 750 794 
z
" transform="scale(0.015625)"/>
      <path id="DejaVuSans-5d" d="M 1947 4863 
L 1947 -844 
L 622 -844 
L 622 -397 
L 1369 -397 
L 1369 4416 
L 622 4416 
L 622 4863 
L 1947 4863 
z
" transform="scale(0.015625)"/>
     </defs>
     <use xlink:href="#DejaVuSans-5b"/>
     <use xlink:href="#DejaVuSans-46" x="39.013672"/>
     <use xlink:href="#DejaVuSans-69" x="89.283203"/>
     <use xlink:href="#DejaVuSans-67" x="117.066406"/>
     <use xlink:href="#DejaVuSans-75" x="180.542969"/>
     <use xlink:href="#DejaVuSans-65" x="243.921875"/>
     <use xlink:href="#DejaVuSans-69" x="305.445312"/>
     <use xlink:href="#DejaVuSans-72" x="333.228516"/>
     <use xlink:href="#DejaVuSans-65" x="372.091797"/>
     <use xlink:href="#DejaVuSans-64" x="433.615234"/>
     <use xlink:href="#DejaVuSans-6f" x="497.091797"/>
     <use xlink:href="#DejaVuSans-20" x="558.273438"/>
     <use xlink:href="#DejaVuSans-61" x="590.060547"/>
     <use xlink:href="#DejaVuSans-6e" x="651.339844"/>
     <use xlink:href="#DejaVuSans-64" x="714.71875"/>
     <use xlink:href="#DejaVuSans-20" x="778.195312"/>
     <use xlink:href="#DejaVuSans-52" x="809.982422"/>
     <use xlink:href="#DejaVuSans-65" x="874.964844"/>
     <use xlink:href="#DejaVuSans-6a" x="936.488281"/>
     <use xlink:href="#DejaVuSans-61" x="964.271484"/>
     <use xlink:href="#DejaVuSans-69" x="1025.550781"/>
     <use xlink:href="#DejaVuSans-6c" x="1053.333984"/>
     <use xlink:href="#DejaVuSans-69" x="1081.117188"/>
     <use xlink:href="#DejaVuSans-2c" x="1108.900391"/>
     <use xlink:href="#DejaVuSans-20" x="1140.6875"/>
     <use xlink:href="#DejaVuSans-32" x="1172.474609"/>
     <use xlink:href="#DejaVuSans-30" x="1236.097656"/>
     <use xlink:href="#DejaVuSans-31" x="1299.720703"/>
     <use xlink:href="#DejaVuSans-38" x="1363.34375"/>
     <use xlink:href="#DejaVuSans-5d" x="1426.966797"/>
    </g>
   </g>
   <g id="PathCollection_14">
    <g>
     <use xlink:href="#m9813f26cb6" x="314.038281" y="389.495313" style="fill: #ff7f0e; fill-opacity: 0.5; stroke: #ff7f0e; stroke-opacity: 0.5"/>
    </g>
   </g>
   <g id="text_22">
    <!-- [Deraj et al., 2022] -->
    <g transform="translate(332.038281 392.120313) scale(0.1 -0.1)">
     <defs>
      <path id="DejaVuSans-2e" d="M 684 794 
L 1344 794 
L 1344 0 
L 684 0 
L 684 794 
z
" transform="scale(0.015625)"/>
     </defs>
     <use xlink:href="#DejaVuSans-5b"/>
     <use xlink:href="#DejaVuSans-44" x="39.013672"/>
     <use xlink:href="#DejaVuSans-65" x="116.015625"/>
     <use xlink:href="#DejaVuSans-72" x="177.539062"/>
     <use xlink:href="#DejaVuSans-61" x="218.652344"/>
     <use xlink:href="#DejaVuSans-6a" x="279.931641"/>
     <use xlink:href="#DejaVuSans-20" x="307.714844"/>
     <use xlink:href="#DejaVuSans-65" x="339.501953"/>
     <use xlink:href="#DejaVuSans-74" x="401.025391"/>
     <use xlink:href="#DejaVuSans-20" x="440.234375"/>
     <use xlink:href="#DejaVuSans-61" x="472.021484"/>
     <use xlink:href="#DejaVuSans-6c" x="533.300781"/>
     <use xlink:href="#DejaVuSans-2e" x="561.083984"/>
     <use xlink:href="#DejaVuSans-2c" x="592.871094"/>
     <use xlink:href="#DejaVuSans-20" x="624.658203"/>
     <use xlink:href="#DejaVuSans-32" x="656.445312"/>
     <use xlink:href="#DejaVuSans-30" x="720.068359"/>
     <use xlink:href="#DejaVuSans-32" x="783.691406"/>
     <use xlink:href="#DejaVuSans-32" x="847.314453"/>
     <use xlink:href="#DejaVuSans-5d" x="910.9375"/>
    </g>
   </g>
   <g id="PathCollection_15">
    <g>
     <use xlink:href="#m5614155b2d" x="457.032031" y="389.495313" style="fill: #2ca02c; fill-opacity: 0.5; stroke: #2ca02c; stroke-opacity: 0.5"/>
    </g>
   </g>
   <g id="text_23">
    <!-- ours -->
    <g transform="translate(475.032031 392.120313) scale(0.1 -0.1)">
     <use xlink:href="#DejaVuSans-6f"/>
     <use xlink:href="#DejaVuSans-75" x="61.181641"/>
     <use xlink:href="#DejaVuSans-72" x="124.560547"/>
     <use xlink:href="#DejaVuSans-73" x="165.673828"/>
    </g>
   </g>
  </g>
 </g>
 <defs>
  <clipPath id="pb21c42485c">
   <rect x="54" y="34.56" width="334.8" height="221.76"/>
  </clipPath>
 </defs>
</svg>
