<?xml version="1.0" encoding="utf-8" standalone="no"?>
<!DOCTYPE svg PUBLIC "-//W3C//DTD SVG 1.1//EN"
  "http://www.w3.org/Graphics/SVG/1.1/DTD/svg11.dtd">
<svg xmlns:xlink="http://www.w3.org/1999/xlink" width="460.8pt" height="345.6pt" viewBox="0 0 460.8 345.6" xmlns="http://www.w3.org/2000/svg" version="1.1">
 <metadata>
  <rdf:RDF xmlns:dc="http://purl.org/dc/elements/1.1/" xmlns:cc="http://creativecommons.org/ns#" xmlns:rdf="http://www.w3.org/1999/02/22-rdf-syntax-ns#">
   <cc:Work>
    <dc:type rdf:resource="http://purl.org/dc/dcmitype/StillImage"/>
    <dc:date>2023-09-03T12:58:45.975397</dc:date>
    <dc:format>image/svg+xml</dc:format>
    <dc:creator>
     <cc:Agent>
      <dc:title>Matplotlib v3.7.2, https://matplotlib.org/</dc:title>
     </cc:Agent>
    </dc:creator>
   </cc:Work>
  </rdf:RDF>
 </metadata>
 <defs>
  <style type="text/css">*{stroke-linejoin: round; stroke-linecap: butt}</style>
 </defs>
 <g id="figure_1">
  <g id="patch_1">
   <path d="M 0 345.6 
L 460.8 345.6 
L 460.8 0 
L 0 0 
z
" style="fill: #ffffff"/>
  </g>
  <g id="axes_1">
   <g id="patch_2">
    <path d="M 57.6 307.584 
L 414.72 307.584 
L 414.72 41.472 
L 57.6 41.472 
z
" style="fill: #ffffff"/>
   </g>
   <g id="matplotlib.axis_1">
    <g id="xtick_1">
     <g id="line2d_1">
      <defs>
       <path id="meba457efb5" d="M 0 0 
L 0 3.5 
" style="stroke: #000000; stroke-width: 0.8"/>
      </defs>
      <g>
       <use xlink:href="#meba457efb5" x="73.832727" y="307.584" style="stroke: #000000; stroke-width: 0.8"/>
      </g>
     </g>
     <g id="text_1">
      <!-- 0.0 -->
      <g transform="translate(65.881165 322.182437) scale(0.1 -0.1)">
       <defs>
        <path id="DejaVuSans-30" d="M 2034 4250 
Q 1547 4250 1301 3770 
Q 1056 3291 1056 2328 
Q 1056 1369 1301 889 
Q 1547 409 2034 409 
Q 2525 409 2770 889 
Q 3016 1369 3016 2328 
Q 3016 3291 2770 3770 
Q 2525 4250 2034 4250 
z
M 2034 4750 
Q 2819 4750 3233 4129 
Q 3647 3509 3647 2328 
Q 3647 1150 3233 529 
Q 2819 -91 2034 -91 
Q 1250 -91 836 529 
Q 422 1150 422 2328 
Q 422 3509 836 4129 
Q 1250 4750 2034 4750 
z
" transform="scale(0.015625)"/>
        <path id="DejaVuSans-2e" d="M 684 794 
L 1344 794 
L 1344 0 
L 684 0 
L 684 794 
z
" transform="scale(0.015625)"/>
       </defs>
       <use xlink:href="#DejaVuSans-30"/>
       <use xlink:href="#DejaVuSans-2e" x="63.623047"/>
       <use xlink:href="#DejaVuSans-30" x="95.410156"/>
      </g>
     </g>
    </g>
    <g id="xtick_2">
     <g id="line2d_2">
      <g>
       <use xlink:href="#meba457efb5" x="138.763636" y="307.584" style="stroke: #000000; stroke-width: 0.8"/>
      </g>
     </g>
     <g id="text_2">
      <!-- 0.2 -->
      <g transform="translate(130.812074 322.182437) scale(0.1 -0.1)">
       <defs>
        <path id="DejaVuSans-32" d="M 1228 531 
L 3431 531 
L 3431 0 
L 469 0 
L 469 531 
Q 828 903 1448 1529 
Q 2069 2156 2228 2338 
Q 2531 2678 2651 2914 
Q 2772 3150 2772 3378 
Q 2772 3750 2511 3984 
Q 2250 4219 1831 4219 
Q 1534 4219 1204 4116 
Q 875 4013 500 3803 
L 500 4441 
Q 881 4594 1212 4672 
Q 1544 4750 1819 4750 
Q 2544 4750 2975 4387 
Q 3406 4025 3406 3419 
Q 3406 3131 3298 2873 
Q 3191 2616 2906 2266 
Q 2828 2175 2409 1742 
Q 1991 1309 1228 531 
z
" transform="scale(0.015625)"/>
       </defs>
       <use xlink:href="#DejaVuSans-30"/>
       <use xlink:href="#DejaVuSans-2e" x="63.623047"/>
       <use xlink:href="#DejaVuSans-32" x="95.410156"/>
      </g>
     </g>
    </g>
    <g id="xtick_3">
     <g id="line2d_3">
      <g>
       <use xlink:href="#meba457efb5" x="203.694545" y="307.584" style="stroke: #000000; stroke-width: 0.8"/>
      </g>
     </g>
     <g id="text_3">
      <!-- 0.4 -->
      <g transform="translate(195.742983 322.182437) scale(0.1 -0.1)">
       <defs>
        <path id="DejaVuSans-34" d="M 2419 4116 
L 825 1625 
L 2419 1625 
L 2419 4116 
z
M 2253 4666 
L 3047 4666 
L 3047 1625 
L 3713 1625 
L 3713 1100 
L 3047 1100 
L 3047 0 
L 2419 0 
L 2419 1100 
L 313 1100 
L 313 1709 
L 2253 4666 
z
" transform="scale(0.015625)"/>
       </defs>
       <use xlink:href="#DejaVuSans-30"/>
       <use xlink:href="#DejaVuSans-2e" x="63.623047"/>
       <use xlink:href="#DejaVuSans-34" x="95.410156"/>
      </g>
     </g>
    </g>
    <g id="xtick_4">
     <g id="line2d_4">
      <g>
       <use xlink:href="#meba457efb5" x="268.625455" y="307.584" style="stroke: #000000; stroke-width: 0.8"/>
      </g>
     </g>
     <g id="text_4">
      <!-- 0.6 -->
      <g transform="translate(260.673892 322.182437) scale(0.1 -0.1)">
       <defs>
        <path id="DejaVuSans-36" d="M 2113 2584 
Q 1688 2584 1439 2293 
Q 1191 2003 1191 1497 
Q 1191 994 1439 701 
Q 1688 409 2113 409 
Q 2538 409 2786 701 
Q 3034 994 3034 1497 
Q 3034 2003 2786 2293 
Q 2538 2584 2113 2584 
z
M 3366 4563 
L 3366 3988 
Q 3128 4100 2886 4159 
Q 2644 4219 2406 4219 
Q 1781 4219 1451 3797 
Q 1122 3375 1075 2522 
Q 1259 2794 1537 2939 
Q 1816 3084 2150 3084 
Q 2853 3084 3261 2657 
Q 3669 2231 3669 1497 
Q 3669 778 3244 343 
Q 2819 -91 2113 -91 
Q 1303 -91 875 529 
Q 447 1150 447 2328 
Q 447 3434 972 4092 
Q 1497 4750 2381 4750 
Q 2619 4750 2861 4703 
Q 3103 4656 3366 4563 
z
" transform="scale(0.015625)"/>
       </defs>
       <use xlink:href="#DejaVuSans-30"/>
       <use xlink:href="#DejaVuSans-2e" x="63.623047"/>
       <use xlink:href="#DejaVuSans-36" x="95.410156"/>
      </g>
     </g>
    </g>
    <g id="xtick_5">
     <g id="line2d_5">
      <g>
       <use xlink:href="#meba457efb5" x="333.556364" y="307.584" style="stroke: #000000; stroke-width: 0.8"/>
      </g>
     </g>
     <g id="text_5">
      <!-- 0.8 -->
      <g transform="translate(325.604801 322.182437) scale(0.1 -0.1)">
       <defs>
        <path id="DejaVuSans-38" d="M 2034 2216 
Q 1584 2216 1326 1975 
Q 1069 1734 1069 1313 
Q 1069 891 1326 650 
Q 1584 409 2034 409 
Q 2484 409 2743 651 
Q 3003 894 3003 1313 
Q 3003 1734 2745 1975 
Q 2488 2216 2034 2216 
z
M 1403 2484 
Q 997 2584 770 2862 
Q 544 3141 544 3541 
Q 544 4100 942 4425 
Q 1341 4750 2034 4750 
Q 2731 4750 3128 4425 
Q 3525 4100 3525 3541 
Q 3525 3141 3298 2862 
Q 3072 2584 2669 2484 
Q 3125 2378 3379 2068 
Q 3634 1759 3634 1313 
Q 3634 634 3220 271 
Q 2806 -91 2034 -91 
Q 1263 -91 848 271 
Q 434 634 434 1313 
Q 434 1759 690 2068 
Q 947 2378 1403 2484 
z
M 1172 3481 
Q 1172 3119 1398 2916 
Q 1625 2713 2034 2713 
Q 2441 2713 2670 2916 
Q 2900 3119 2900 3481 
Q 2900 3844 2670 4047 
Q 2441 4250 2034 4250 
Q 1625 4250 1398 4047 
Q 1172 3844 1172 3481 
z
" transform="scale(0.015625)"/>
       </defs>
       <use xlink:href="#DejaVuSans-30"/>
       <use xlink:href="#DejaVuSans-2e" x="63.623047"/>
       <use xlink:href="#DejaVuSans-38" x="95.410156"/>
      </g>
     </g>
    </g>
    <g id="xtick_6">
     <g id="line2d_6">
      <g>
       <use xlink:href="#meba457efb5" x="398.487273" y="307.584" style="stroke: #000000; stroke-width: 0.8"/>
      </g>
     </g>
     <g id="text_6">
      <!-- 1.0 -->
      <g transform="translate(390.53571 322.182437) scale(0.1 -0.1)">
       <defs>
        <path id="DejaVuSans-31" d="M 794 531 
L 1825 531 
L 1825 4091 
L 703 3866 
L 703 4441 
L 1819 4666 
L 2450 4666 
L 2450 531 
L 3481 531 
L 3481 0 
L 794 0 
L 794 531 
z
" transform="scale(0.015625)"/>
       </defs>
       <use xlink:href="#DejaVuSans-31"/>
       <use xlink:href="#DejaVuSans-2e" x="63.623047"/>
       <use xlink:href="#DejaVuSans-30" x="95.410156"/>
      </g>
     </g>
    </g>
   </g>
   <g id="matplotlib.axis_2">
    <g id="ytick_1">
     <g id="line2d_7">
      <defs>
       <path id="ma4d755a439" d="M 0 0 
L -3.5 0 
" style="stroke: #000000; stroke-width: 0.8"/>
      </defs>
      <g>
       <use xlink:href="#ma4d755a439" x="57.6" y="295.488" style="stroke: #000000; stroke-width: 0.8"/>
      </g>
     </g>
     <g id="text_7">
      <!-- 0.5 -->
      <g transform="translate(34.696875 299.287219) scale(0.1 -0.1)">
       <defs>
        <path id="DejaVuSans-35" d="M 691 4666 
L 3169 4666 
L 3169 4134 
L 1269 4134 
L 1269 2991 
Q 1406 3038 1543 3061 
Q 1681 3084 1819 3084 
Q 2600 3084 3056 2656 
Q 3513 2228 3513 1497 
Q 3513 744 3044 326 
Q 2575 -91 1722 -91 
Q 1428 -91 1123 -41 
Q 819 9 494 109 
L 494 744 
Q 775 591 1075 516 
Q 1375 441 1709 441 
Q 2250 441 2565 725 
Q 2881 1009 2881 1497 
Q 2881 1984 2565 2268 
Q 2250 2553 1709 2553 
Q 1456 2553 1204 2497 
Q 953 2441 691 2322 
L 691 4666 
z
" transform="scale(0.015625)"/>
       </defs>
       <use xlink:href="#DejaVuSans-30"/>
       <use xlink:href="#DejaVuSans-2e" x="63.623047"/>
       <use xlink:href="#DejaVuSans-35" x="95.410156"/>
      </g>
     </g>
    </g>
    <g id="ytick_2">
     <g id="line2d_8">
      <g>
       <use xlink:href="#ma4d755a439" x="57.6" y="247.104" style="stroke: #000000; stroke-width: 0.8"/>
      </g>
     </g>
     <g id="text_8">
      <!-- 0.6 -->
      <g transform="translate(34.696875 250.903219) scale(0.1 -0.1)">
       <use xlink:href="#DejaVuSans-30"/>
       <use xlink:href="#DejaVuSans-2e" x="63.623047"/>
       <use xlink:href="#DejaVuSans-36" x="95.410156"/>
      </g>
     </g>
    </g>
    <g id="ytick_3">
     <g id="line2d_9">
      <g>
       <use xlink:href="#ma4d755a439" x="57.6" y="198.72" style="stroke: #000000; stroke-width: 0.8"/>
      </g>
     </g>
     <g id="text_9">
      <!-- 0.7 -->
      <g transform="translate(34.696875 202.519219) scale(0.1 -0.1)">
       <defs>
        <path id="DejaVuSans-37" d="M 525 4666 
L 3525 4666 
L 3525 4397 
L 1831 0 
L 1172 0 
L 2766 4134 
L 525 4134 
L 525 4666 
z
" transform="scale(0.015625)"/>
       </defs>
       <use xlink:href="#DejaVuSans-30"/>
       <use xlink:href="#DejaVuSans-2e" x="63.623047"/>
       <use xlink:href="#DejaVuSans-37" x="95.410156"/>
      </g>
     </g>
    </g>
    <g id="ytick_4">
     <g id="line2d_10">
      <g>
       <use xlink:href="#ma4d755a439" x="57.6" y="150.336" style="stroke: #000000; stroke-width: 0.8"/>
      </g>
     </g>
     <g id="text_10">
      <!-- 0.8 -->
      <g transform="translate(34.696875 154.135219) scale(0.1 -0.1)">
       <use xlink:href="#DejaVuSans-30"/>
       <use xlink:href="#DejaVuSans-2e" x="63.623047"/>
       <use xlink:href="#DejaVuSans-38" x="95.410156"/>
      </g>
     </g>
    </g>
    <g id="ytick_5">
     <g id="line2d_11">
      <g>
       <use xlink:href="#ma4d755a439" x="57.6" y="101.952" style="stroke: #000000; stroke-width: 0.8"/>
      </g>
     </g>
     <g id="text_11">
      <!-- 0.9 -->
      <g transform="translate(34.696875 105.751219) scale(0.1 -0.1)">
       <defs>
        <path id="DejaVuSans-39" d="M 703 97 
L 703 672 
Q 941 559 1184 500 
Q 1428 441 1663 441 
Q 2288 441 2617 861 
Q 2947 1281 2994 2138 
Q 2813 1869 2534 1725 
Q 2256 1581 1919 1581 
Q 1219 1581 811 2004 
Q 403 2428 403 3163 
Q 403 3881 828 4315 
Q 1253 4750 1959 4750 
Q 2769 4750 3195 4129 
Q 3622 3509 3622 2328 
Q 3622 1225 3098 567 
Q 2575 -91 1691 -91 
Q 1453 -91 1209 -44 
Q 966 3 703 97 
z
M 1959 2075 
Q 2384 2075 2632 2365 
Q 2881 2656 2881 3163 
Q 2881 3666 2632 3958 
Q 2384 4250 1959 4250 
Q 1534 4250 1286 3958 
Q 1038 3666 1038 3163 
Q 1038 2656 1286 2365 
Q 1534 2075 1959 2075 
z
" transform="scale(0.015625)"/>
       </defs>
       <use xlink:href="#DejaVuSans-30"/>
       <use xlink:href="#DejaVuSans-2e" x="63.623047"/>
       <use xlink:href="#DejaVuSans-39" x="95.410156"/>
      </g>
     </g>
    </g>
    <g id="ytick_6">
     <g id="line2d_12">
      <g>
       <use xlink:href="#ma4d755a439" x="57.6" y="53.568" style="stroke: #000000; stroke-width: 0.8"/>
      </g>
     </g>
     <g id="text_12">
      <!-- 1.0 -->
      <g transform="translate(34.696875 57.367219) scale(0.1 -0.1)">
       <use xlink:href="#DejaVuSans-31"/>
       <use xlink:href="#DejaVuSans-2e" x="63.623047"/>
       <use xlink:href="#DejaVuSans-30" x="95.410156"/>
      </g>
     </g>
    </g>
   </g>
   <g id="line2d_13">
    <path d="M 73.832727 295.488 
L 77.112066 294.266192 
L 80.391405 293.044447 
L 83.670744 291.822826 
L 86.950083 290.601392 
L 90.229421 289.380207 
L 93.50876 288.159334 
L 96.788099 286.938834 
L 100.067438 285.71877 
L 103.346777 284.499203 
L 106.626116 283.280196 
L 109.905455 282.06181 
L 113.184793 280.844107 
L 116.464132 279.627148 
L 119.743471 278.410995 
L 123.02281 277.195708 
L 126.302149 275.98135 
L 129.581488 274.76798 
L 132.860826 273.555659 
L 136.140165 272.344448 
L 139.419504 271.134407 
L 142.698843 269.925596 
L 145.978182 268.718074 
L 149.257521 267.511901 
L 152.53686 266.307136 
L 155.816198 265.103838 
L 159.095537 263.902066 
L 162.374876 262.701877 
L 165.654215 261.503331 
L 168.933554 260.306484 
L 172.212893 259.111393 
L 175.492231 257.918117 
L 178.77157 256.726711 
L 182.050909 255.537231 
L 185.330248 254.349734 
L 188.609587 253.164275 
L 191.888926 251.980909 
L 195.168264 250.799691 
L 198.447603 249.620674 
L 201.726942 248.443914 
L 205.006281 247.269462 
L 208.28562 246.097373 
L 211.564959 244.927698 
L 214.844298 243.76049 
L 218.123636 242.595801 
L 221.402975 241.43368 
L 224.682314 240.274179 
L 227.961653 239.117349 
L 231.240992 237.963237 
L 234.520331 236.811895 
L 237.799669 235.66337 
L 241.079008 234.51771 
L 244.358347 233.374963 
L 247.637686 232.235175 
L 250.917025 231.098394 
L 254.196364 229.964665 
L 257.475702 228.834033 
L 260.755041 227.706544 
L 264.03438 226.582241 
L 267.313719 225.461168 
L 270.593058 224.343368 
L 273.872397 223.228883 
L 277.151736 222.117756 
L 280.431074 221.010028 
L 283.710413 219.905739 
L 286.989752 218.804929 
L 290.269091 217.707639 
L 293.54843 216.613906 
L 296.827769 215.523769 
L 300.107107 214.437265 
L 303.386446 213.354433 
L 306.665785 212.275307 
L 309.945124 211.199924 
L 313.224463 210.128319 
L 316.503802 209.060527 
L 319.78314 207.99658 
L 323.062479 206.936514 
L 326.341818 205.880359 
L 329.621157 204.828149 
L 332.900496 203.779914 
L 336.179835 202.735686 
L 339.459174 201.695493 
L 342.738512 200.659366 
L 346.017851 199.627333 
L 349.29719 198.599423 
L 352.576529 197.575663 
L 355.855868 196.556079 
L 359.135207 195.540699 
L 362.414545 194.529546 
L 365.693884 193.522648 
L 368.973223 192.520027 
L 372.252562 191.521707 
L 375.531901 190.527711 
L 378.81124 189.538062 
L 382.090579 188.552781 
L 385.369917 187.57189 
L 388.649256 186.595408 
L 391.928595 185.623356 
L 395.207934 184.655753 
L 398.487273 183.692617 
" clip-path="url(#p6596fe682c)" style="fill: none; stroke: #1f77b4; stroke-width: 1.5; stroke-linecap: square"/>
   </g>
   <g id="line2d_14">
    <path d="M 73.832727 295.488 
L 77.112066 292.419096 
L 80.391405 289.35118 
L 83.670744 286.285237 
L 86.950083 283.222253 
L 90.229421 280.163205 
L 93.50876 277.109071 
L 96.788099 274.060817 
L 100.067438 271.019405 
L 103.346777 267.985789 
L 106.626116 264.960909 
L 109.905455 261.945698 
L 113.184793 258.941076 
L 116.464132 255.947947 
L 119.743471 252.967205 
L 123.02281 249.999725 
L 126.302149 247.046368 
L 129.581488 244.107976 
L 132.860826 241.185376 
L 136.140165 238.279373 
L 139.419504 235.390752 
L 142.698843 232.520281 
L 145.978182 229.668702 
L 149.257521 226.83674 
L 152.53686 224.025094 
L 155.816198 221.234442 
L 159.095537 218.465437 
L 162.374876 215.718709 
L 165.654215 212.994864 
L 168.933554 210.294483 
L 172.212893 207.618121 
L 175.492231 204.96631 
L 178.77157 202.339555 
L 182.050909 199.738335 
L 185.330248 197.163105 
L 188.609587 194.614295 
L 191.888926 192.092306 
L 195.168264 189.597518 
L 198.447603 187.130281 
L 201.726942 184.690924 
L 205.006281 182.279748 
L 208.28562 179.89703 
L 211.564959 177.543022 
L 214.844298 175.217953 
L 218.123636 172.922027 
L 221.402975 170.655425 
L 224.682314 168.418303 
L 227.961653 166.210797 
L 231.240992 164.033019 
L 234.520331 161.885058 
L 237.799669 159.766984 
L 241.079008 157.678845 
L 244.358347 155.620669 
L 247.637686 153.592463 
L 250.917025 151.594216 
L 254.196364 149.625899 
L 257.475702 147.687463 
L 260.755041 145.778843 
L 264.03438 143.899955 
L 267.313719 142.050703 
L 270.593058 140.23097 
L 273.872397 138.440628 
L 277.151736 136.679532 
L 280.431074 134.947525 
L 283.710413 133.244436 
L 286.989752 131.570081 
L 290.269091 129.924264 
L 293.54843 128.306778 
L 296.827769 126.717405 
L 300.107107 125.155916 
L 303.386446 123.622075 
L 306.665785 122.115632 
L 309.945124 120.636334 
L 313.224463 119.183916 
L 316.503802 117.758107 
L 319.78314 116.358628 
L 323.062479 114.985196 
L 326.341818 113.637519 
L 329.621157 112.315302 
L 332.900496 111.018242 
L 336.179835 109.746036 
L 339.459174 108.498373 
L 342.738512 107.274939 
L 346.017851 106.075418 
L 349.29719 104.899491 
L 352.576529 103.746835 
L 355.855868 102.617128 
L 359.135207 101.510042 
L 362.414545 100.425252 
L 365.693884 99.362428 
L 368.973223 98.321242 
L 372.252562 97.301366 
L 375.531901 96.30247 
L 378.81124 95.324224 
L 382.090579 94.3663 
L 385.369917 93.428371 
L 388.649256 92.510108 
L 391.928595 91.611187 
L 395.207934 90.731283 
L 398.487273 89.870073 
" clip-path="url(#p6596fe682c)" style="fill: none; stroke: #ff7f0e; stroke-width: 1.5; stroke-linecap: square"/>
   </g>
   <g id="line2d_15">
    <path d="M 73.832727 295.488 
L 77.112066 287.781457 
L 80.391405 280.090539 
L 83.670744 272.430745 
L 86.950083 264.817323 
L 90.229421 257.265149 
L 93.50876 249.788618 
L 96.788099 242.40153 
L 100.067438 235.117002 
L 103.346777 227.947379 
L 106.626116 220.90416 
L 109.905455 213.99794 
L 113.184793 207.238361 
L 116.464132 200.634079 
L 119.743471 194.19274 
L 123.02281 187.920973 
L 126.302149 181.824396 
L 129.581488 175.907624 
L 132.860826 170.174296 
L 136.140165 164.62711 
L 139.419504 159.26786 
L 142.698843 154.097483 
L 145.978182 149.116112 
L 149.257521 144.323133 
L 152.53686 139.717241 
L 155.816198 135.296501 
L 159.095537 131.058408 
L 162.374876 126.999951 
L 165.654215 123.117671 
L 168.933554 119.407715 
L 172.212893 115.865899 
L 175.492231 112.487757 
L 178.77157 109.268592 
L 182.050909 106.203524 
L 185.330248 103.287532 
L 188.609587 100.515497 
L 191.888926 97.882237 
L 195.168264 95.382538 
L 198.447603 93.01119 
L 201.726942 90.763007 
L 205.006281 88.632856 
L 208.28562 86.615671 
L 211.564959 84.706478 
L 214.844298 82.900404 
L 218.123636 81.192692 
L 221.402975 79.578712 
L 224.682314 78.053968 
L 227.961653 76.614106 
L 231.240992 75.254915 
L 234.520331 73.972335 
L 237.799669 72.762458 
L 241.079008 71.621526 
L 244.358347 70.545933 
L 247.637686 69.532226 
L 250.917025 68.577099 
L 254.196364 67.677393 
L 257.475702 66.830094 
L 260.755041 66.032326 
L 264.03438 65.281353 
L 267.313719 64.57457 
L 270.593058 63.909499 
L 273.872397 63.28379 
L 277.151736 62.695209 
L 280.431074 62.141639 
L 283.710413 61.621075 
L 286.989752 61.131614 
L 290.269091 60.671458 
L 293.54843 60.238905 
L 296.827769 59.832346 
L 300.107107 59.450259 
L 303.386446 59.091207 
L 306.665785 58.753834 
L 309.945124 58.436859 
L 313.224463 58.139074 
L 316.503802 57.859338 
L 319.78314 57.596577 
L 323.062479 57.349779 
L 326.341818 57.117988 
L 329.621157 56.900305 
L 332.900496 56.695883 
L 336.179835 56.503925 
L 339.459174 56.32368 
L 342.738512 56.154441 
L 346.017851 55.995544 
L 349.29719 55.846362 
L 352.576529 55.706307 
L 355.855868 55.574826 
L 359.135207 55.451398 
L 362.414545 55.335533 
L 365.693884 55.226771 
L 368.973223 55.124681 
L 372.252562 55.028854 
L 375.531901 54.93891 
L 378.81124 54.854489 
L 382.090579 54.775253 
L 385.369917 54.700887 
L 388.649256 54.631091 
L 391.928595 54.565586 
L 395.207934 54.50411 
L 398.487273 54.446415 
" clip-path="url(#p6596fe682c)" style="fill: none; stroke: #2ca02c; stroke-width: 1.5; stroke-linecap: square"/>
   </g>
   <g id="line2d_16">
    <path d="M 73.832727 295.488 
L 77.112066 276.164739 
L 80.391405 257.086477 
L 83.670744 238.485945 
L 86.950083 220.572617 
L 90.229421 203.524062 
L 93.50876 187.480312 
L 96.788099 172.541429 
L 100.067438 158.768067 
L 103.346777 146.184478 
L 106.626116 134.783232 
L 109.905455 124.53092 
L 113.184793 115.37415 
L 116.464132 107.245321 
L 119.743471 100.067811 
L 123.02281 93.760375 
L 126.302149 88.240676 
L 129.581488 83.427988 
L 132.860826 79.245131 
L 136.140165 75.619756 
L 139.419504 72.485116 
L 142.698843 69.780419 
L 145.978182 67.450882 
L 149.257521 65.447569 
L 152.53686 63.727087 
L 155.816198 62.251193 
L 159.095537 60.986356 
L 162.374876 59.903305 
L 165.654215 58.976581 
L 168.933554 58.184106 
L 172.212893 57.50679 
L 175.492231 56.928159 
L 178.77157 56.434025 
L 182.050909 56.012187 
L 185.330248 55.652168 
L 188.609587 55.344983 
L 191.888926 55.082932 
L 195.168264 54.859421 
L 198.447603 54.668812 
L 201.726942 54.506281 
L 205.006281 54.367708 
L 208.28562 54.249571 
L 211.564959 54.148865 
L 214.844298 54.063024 
L 218.123636 53.989857 
L 221.402975 53.927497 
L 224.682314 53.874349 
L 227.961653 53.829055 
L 231.240992 53.790454 
L 234.520331 53.757558 
L 237.799669 53.729526 
L 241.079008 53.705638 
L 244.358347 53.685281 
L 247.637686 53.667935 
L 250.917025 53.653154 
L 254.196364 53.640559 
L 257.475702 53.629826 
L 260.755041 53.620681 
L 264.03438 53.612889 
L 267.313719 53.606249 
L 270.593058 53.600591 
L 273.872397 53.59577 
L 277.151736 53.591662 
L 280.431074 53.588162 
L 283.710413 53.585179 
L 286.989752 53.582638 
L 290.269091 53.580473 
L 293.54843 53.578627 
L 296.827769 53.577055 
L 300.107107 53.575716 
L 303.386446 53.574574 
L 306.665785 53.573602 
L 309.945124 53.572773 
L 313.224463 53.572067 
L 316.503802 53.571465 
L 319.78314 53.570953 
L 323.062479 53.570516 
L 326.341818 53.570144 
L 329.621157 53.569827 
L 332.900496 53.569556 
L 336.179835 53.569326 
L 339.459174 53.56913 
L 342.738512 53.568963 
L 346.017851 53.56882 
L 349.29719 53.568699 
L 352.576529 53.568596 
L 355.855868 53.568508 
L 359.135207 53.568432 
L 362.414545 53.568368 
L 365.693884 53.568314 
L 368.973223 53.568268 
L 372.252562 53.568228 
L 375.531901 53.568194 
L 378.81124 53.568165 
L 382.090579 53.568141 
L 385.369917 53.56812 
L 388.649256 53.568102 
L 391.928595 53.568087 
L 395.207934 53.568074 
L 398.487273 53.568063 
" clip-path="url(#p6596fe682c)" style="fill: none; stroke: #d62728; stroke-width: 1.5; stroke-linecap: square"/>
   </g>
   <g id="line2d_17">
    <path d="M 73.832727 295.488 
L 77.112066 247.491586 
L 80.391405 203.130522 
L 83.670744 165.016307 
L 86.950083 134.270118 
L 90.229421 110.7047 
L 93.50876 93.3416 
L 96.788099 80.916738 
L 100.067438 72.210329 
L 103.346777 66.198896 
L 106.626116 62.090406 
L 109.905455 59.302035 
L 113.184793 57.418575 
L 116.464132 56.150435 
L 119.743471 55.298435 
L 123.02281 54.726852 
L 126.302149 54.343765 
L 129.581488 54.087181 
L 132.860826 53.915401 
L 136.140165 53.80043 
L 139.419504 53.723496 
L 142.698843 53.672021 
L 145.978182 53.637584 
L 149.257521 53.614547 
L 152.53686 53.599136 
L 155.816198 53.588827 
L 159.095537 53.581931 
L 162.374876 53.577319 
L 165.654215 53.574233 
L 168.933554 53.572169 
L 172.212893 53.570789 
L 175.492231 53.569865 
L 178.77157 53.569248 
L 182.050909 53.568835 
L 185.330248 53.568558 
L 188.609587 53.568373 
L 191.888926 53.56825 
L 195.168264 53.568167 
L 198.447603 53.568112 
L 201.726942 53.568075 
L 205.006281 53.56805 
L 208.28562 53.568033 
L 211.564959 53.568022 
L 214.844298 53.568015 
L 218.123636 53.56801 
L 221.402975 53.568007 
L 224.682314 53.568004 
L 227.961653 53.568003 
L 231.240992 53.568002 
L 234.520331 53.568001 
L 237.799669 53.568001 
L 241.079008 53.568001 
L 244.358347 53.568 
L 247.637686 53.568 
L 250.917025 53.568 
L 254.196364 53.568 
L 257.475702 53.568 
L 260.755041 53.568 
L 264.03438 53.568 
L 267.313719 53.568 
L 270.593058 53.568 
L 273.872397 53.568 
L 277.151736 53.568 
L 280.431074 53.568 
L 283.710413 53.568 
L 286.989752 53.568 
L 290.269091 53.568 
L 293.54843 53.568 
L 296.827769 53.568 
L 300.107107 53.568 
L 303.386446 53.568 
L 306.665785 53.568 
L 309.945124 53.568 
L 313.224463 53.568 
L 316.503802 53.568 
L 319.78314 53.568 
L 323.062479 53.568 
L 326.341818 53.568 
L 329.621157 53.568 
L 332.900496 53.568 
L 336.179835 53.568 
L 339.459174 53.568 
L 342.738512 53.568 
L 346.017851 53.568 
L 349.29719 53.568 
L 352.576529 53.568 
L 355.855868 53.568 
L 359.135207 53.568 
L 362.414545 53.568 
L 365.693884 53.568 
L 368.973223 53.568 
L 372.252562 53.568 
L 375.531901 53.568 
L 378.81124 53.568 
L 382.090579 53.568 
L 385.369917 53.568 
L 388.649256 53.568 
L 391.928595 53.568 
L 395.207934 53.568 
L 398.487273 53.568 
" clip-path="url(#p6596fe682c)" style="fill: none; stroke: #9467bd; stroke-width: 1.5; stroke-linecap: square"/>
   </g>
   <g id="line2d_18">
    <path d="M 73.832727 295.488 
L 77.112066 182.733967 
L 80.391405 110.224746 
L 83.670744 75.861173 
L 86.950083 61.931799 
L 90.229421 56.647797 
L 93.50876 54.694165 
L 96.788099 53.978737 
L 100.067438 53.717664 
L 103.346777 53.622516 
L 106.626116 53.587855 
L 109.905455 53.575231 
L 113.184793 53.570633 
L 116.464132 53.568959 
L 119.743471 53.568349 
L 123.02281 53.568127 
L 126.302149 53.568046 
L 129.581488 53.568017 
L 132.860826 53.568006 
L 136.140165 53.568002 
L 139.419504 53.568001 
L 142.698843 53.568 
L 145.978182 53.568 
L 149.257521 53.568 
L 152.53686 53.568 
L 155.816198 53.568 
L 159.095537 53.568 
L 162.374876 53.568 
L 165.654215 53.568 
L 168.933554 53.568 
L 172.212893 53.568 
L 175.492231 53.568 
L 178.77157 53.568 
L 182.050909 53.568 
L 185.330248 53.568 
L 188.609587 53.568 
L 191.888926 53.568 
L 195.168264 53.568 
L 198.447603 53.568 
L 201.726942 53.568 
L 205.006281 53.568 
L 208.28562 53.568 
L 211.564959 53.568 
L 214.844298 53.568 
L 218.123636 53.568 
L 221.402975 53.568 
L 224.682314 53.568 
L 227.961653 53.568 
L 231.240992 53.568 
L 234.520331 53.568 
L 237.799669 53.568 
L 241.079008 53.568 
L 244.358347 53.568 
L 247.637686 53.568 
L 250.917025 53.568 
L 254.196364 53.568 
L 257.475702 53.568 
L 260.755041 53.568 
L 264.03438 53.568 
L 267.313719 53.568 
L 270.593058 53.568 
L 273.872397 53.568 
L 277.151736 53.568 
L 280.431074 53.568 
L 283.710413 53.568 
L 286.989752 53.568 
L 290.269091 53.568 
L 293.54843 53.568 
L 296.827769 53.568 
L 300.107107 53.568 
L 303.386446 53.568 
L 306.665785 53.568 
L 309.945124 53.568 
L 313.224463 53.568 
L 316.503802 53.568 
L 319.78314 53.568 
L 323.062479 53.568 
L 326.341818 53.568 
L 329.621157 53.568 
L 332.900496 53.568 
L 336.179835 53.568 
L 339.459174 53.568 
L 342.738512 53.568 
L 346.017851 53.568 
L 349.29719 53.568 
L 352.576529 53.568 
L 355.855868 53.568 
L 359.135207 53.568 
L 362.414545 53.568 
L 365.693884 53.568 
L 368.973223 53.568 
L 372.252562 53.568 
L 375.531901 53.568 
L 378.81124 53.568 
L 382.090579 53.568 
L 385.369917 53.568 
L 388.649256 53.568 
L 391.928595 53.568 
L 395.207934 53.568 
L 398.487273 53.568 
" clip-path="url(#p6596fe682c)" style="fill: none; stroke: #8c564b; stroke-width: 1.5; stroke-linecap: square"/>
   </g>
   <g id="patch_3">
    <path d="M 57.6 307.584 
L 57.6 41.472 
" style="fill: none; stroke: #000000; stroke-width: 0.8; stroke-linejoin: miter; stroke-linecap: square"/>
   </g>
   <g id="patch_4">
    <path d="M 414.72 307.584 
L 414.72 41.472 
" style="fill: none; stroke: #000000; stroke-width: 0.8; stroke-linejoin: miter; stroke-linecap: square"/>
   </g>
   <g id="patch_5">
    <path d="M 57.6 307.584 
L 414.72 307.584 
" style="fill: none; stroke: #000000; stroke-width: 0.8; stroke-linejoin: miter; stroke-linecap: square"/>
   </g>
   <g id="patch_6">
    <path d="M 57.6 41.472 
L 414.72 41.472 
" style="fill: none; stroke: #000000; stroke-width: 0.8; stroke-linejoin: miter; stroke-linecap: square"/>
   </g>
   <g id="legend_1">
    <g id="patch_7">
     <path d="M 338.52 302.584 
L 407.72 302.584 
Q 409.72 302.584 409.72 300.584 
L 409.72 213.51525 
Q 409.72 211.51525 407.72 211.51525 
L 338.52 211.51525 
Q 336.52 211.51525 336.52 213.51525 
L 336.52 300.584 
Q 336.52 302.584 338.52 302.584 
z
" style="fill: #ffffff; opacity: 0.8; stroke: #cccccc; stroke-linejoin: miter"/>
    </g>
    <g id="line2d_19">
     <path d="M 340.52 219.613687 
L 350.52 219.613687 
L 360.52 219.613687 
" style="fill: none; stroke: #1f77b4; stroke-width: 1.5; stroke-linecap: square"/>
    </g>
    <g id="text_13">
     <!-- $k=1$ -->
     <g transform="translate(368.52 223.113687) scale(0.1 -0.1)">
      <defs>
       <path id="DejaVuSans-Oblique-6b" d="M 1172 4863 
L 1747 4863 
L 1197 2028 
L 3169 3500 
L 3916 3500 
L 1716 1825 
L 3322 0 
L 2625 0 
L 1131 1709 
L 800 0 
L 225 0 
L 1172 4863 
z
" transform="scale(0.015625)"/>
       <path id="DejaVuSans-3d" d="M 678 2906 
L 4684 2906 
L 4684 2381 
L 678 2381 
L 678 2906 
z
M 678 1631 
L 4684 1631 
L 4684 1100 
L 678 1100 
L 678 1631 
z
" transform="scale(0.015625)"/>
      </defs>
      <use xlink:href="#DejaVuSans-Oblique-6b" transform="translate(0 0.015625)"/>
      <use xlink:href="#DejaVuSans-3d" transform="translate(77.392578 0.015625)"/>
      <use xlink:href="#DejaVuSans-31" transform="translate(180.664062 0.015625)"/>
     </g>
    </g>
    <g id="line2d_20">
     <path d="M 340.52 234.291812 
L 350.52 234.291812 
L 360.52 234.291812 
" style="fill: none; stroke: #ff7f0e; stroke-width: 1.5; stroke-linecap: square"/>
    </g>
    <g id="text_14">
     <!-- $k=3$ -->
     <g transform="translate(368.52 237.791812) scale(0.1 -0.1)">
      <defs>
       <path id="DejaVuSans-33" d="M 2597 2516 
Q 3050 2419 3304 2112 
Q 3559 1806 3559 1356 
Q 3559 666 3084 287 
Q 2609 -91 1734 -91 
Q 1441 -91 1130 -33 
Q 819 25 488 141 
L 488 750 
Q 750 597 1062 519 
Q 1375 441 1716 441 
Q 2309 441 2620 675 
Q 2931 909 2931 1356 
Q 2931 1769 2642 2001 
Q 2353 2234 1838 2234 
L 1294 2234 
L 1294 2753 
L 1863 2753 
Q 2328 2753 2575 2939 
Q 2822 3125 2822 3475 
Q 2822 3834 2567 4026 
Q 2313 4219 1838 4219 
Q 1578 4219 1281 4162 
Q 984 4106 628 3988 
L 628 4550 
Q 988 4650 1302 4700 
Q 1616 4750 1894 4750 
Q 2613 4750 3031 4423 
Q 3450 4097 3450 3541 
Q 3450 3153 3228 2886 
Q 3006 2619 2597 2516 
z
" transform="scale(0.015625)"/>
      </defs>
      <use xlink:href="#DejaVuSans-Oblique-6b" transform="translate(0 0.015625)"/>
      <use xlink:href="#DejaVuSans-3d" transform="translate(77.392578 0.015625)"/>
      <use xlink:href="#DejaVuSans-33" transform="translate(180.664062 0.015625)"/>
     </g>
    </g>
    <g id="line2d_21">
     <path d="M 340.52 248.969937 
L 350.52 248.969937 
L 360.52 248.969937 
" style="fill: none; stroke: #2ca02c; stroke-width: 1.5; stroke-linecap: square"/>
    </g>
    <g id="text_15">
     <!-- $k=6$ -->
     <g transform="translate(368.52 252.469937) scale(0.1 -0.1)">
      <use xlink:href="#DejaVuSans-Oblique-6b" transform="translate(0 0.015625)"/>
      <use xlink:href="#DejaVuSans-3d" transform="translate(77.392578 0.015625)"/>
      <use xlink:href="#DejaVuSans-36" transform="translate(180.664062 0.015625)"/>
     </g>
    </g>
    <g id="line2d_22">
     <path d="M 340.52 263.648062 
L 350.52 263.648062 
L 360.52 263.648062 
" style="fill: none; stroke: #d62728; stroke-width: 1.5; stroke-linecap: square"/>
    </g>
    <g id="text_16">
     <!-- $k=16$ -->
     <g transform="translate(368.52 267.148062) scale(0.1 -0.1)">
      <use xlink:href="#DejaVuSans-Oblique-6b" transform="translate(0 0.015625)"/>
      <use xlink:href="#DejaVuSans-3d" transform="translate(77.392578 0.015625)"/>
      <use xlink:href="#DejaVuSans-31" transform="translate(180.664062 0.015625)"/>
      <use xlink:href="#DejaVuSans-36" transform="translate(244.287109 0.015625)"/>
     </g>
    </g>
    <g id="line2d_23">
     <path d="M 340.52 278.326188 
L 350.52 278.326188 
L 360.52 278.326188 
" style="fill: none; stroke: #9467bd; stroke-width: 1.5; stroke-linecap: square"/>
    </g>
    <g id="text_17">
     <!-- $k=40$ -->
     <g transform="translate(368.52 281.826188) scale(0.1 -0.1)">
      <use xlink:href="#DejaVuSans-Oblique-6b" transform="translate(0 0.015625)"/>
      <use xlink:href="#DejaVuSans-3d" transform="translate(77.392578 0.015625)"/>
      <use xlink:href="#DejaVuSans-34" transform="translate(180.664062 0.015625)"/>
      <use xlink:href="#DejaVuSans-30" transform="translate(244.287109 0.015625)"/>
     </g>
    </g>
    <g id="line2d_24">
     <path d="M 340.52 293.004312 
L 350.52 293.004312 
L 360.52 293.004312 
" style="fill: none; stroke: #8c564b; stroke-width: 1.5; stroke-linecap: square"/>
    </g>
    <g id="text_18">
     <!-- $k=100$ -->
     <g transform="translate(368.52 296.504312) scale(0.1 -0.1)">
      <use xlink:href="#DejaVuSans-Oblique-6b" transform="translate(0 0.015625)"/>
      <use xlink:href="#DejaVuSans-3d" transform="translate(77.392578 0.015625)"/>
      <use xlink:href="#DejaVuSans-31" transform="translate(180.664062 0.015625)"/>
      <use xlink:href="#DejaVuSans-30" transform="translate(244.287109 0.015625)"/>
      <use xlink:href="#DejaVuSans-30" transform="translate(307.910156 0.015625)"/>
     </g>
    </g>
   </g>
  </g>
 </g>
 <defs>
  <clipPath id="p6596fe682c">
   <rect x="57.6" y="41.472" width="357.12" height="266.112"/>
  </clipPath>
 </defs>
</svg>
