<?xml version="1.0" encoding="utf-8" standalone="no"?>
<!DOCTYPE svg PUBLIC "-//W3C//DTD SVG 1.1//EN"
  "http://www.w3.org/Graphics/SVG/1.1/DTD/svg11.dtd">
<svg xmlns:xlink="http://www.w3.org/1999/xlink" width="460.8pt" height="345.6pt" viewBox="0 0 460.8 345.6" xmlns="http://www.w3.org/2000/svg" version="1.1">
 <metadata>
  <rdf:RDF xmlns:dc="http://purl.org/dc/elements/1.1/" xmlns:cc="http://creativecommons.org/ns#" xmlns:rdf="http://www.w3.org/1999/02/22-rdf-syntax-ns#">
   <cc:Work>
    <dc:type rdf:resource="http://purl.org/dc/dcmitype/StillImage"/>
    <dc:date>2023-09-03T14:33:41.014205</dc:date>
    <dc:format>image/svg+xml</dc:format>
    <dc:creator>
     <cc:Agent>
      <dc:title>Matplotlib v3.7.2, https://matplotlib.org/</dc:title>
     </cc:Agent>
    </dc:creator>
   </cc:Work>
  </rdf:RDF>
 </metadata>
 <defs>
  <style type="text/css">*{stroke-linejoin: round; stroke-linecap: butt}</style>
 </defs>
 <g id="figure_1">
  <g id="patch_1">
   <path d="M 0 345.6 
L 460.8 345.6 
L 460.8 0 
L 0 0 
z
" style="fill: #ffffff"/>
  </g>
  <g id="axes_1">
   <g id="patch_2">
    <path d="M 57.6 307.584 
L 414.72 307.584 
L 414.72 41.472 
L 57.6 41.472 
z
" style="fill: #ffffff"/>
   </g>
   <g id="matplotlib.axis_1">
    <g id="xtick_1">
     <g id="line2d_1">
      <defs>
       <path id="m3ef5edd0e4" d="M 0 0 
L 0 3.5 
" style="stroke: #000000; stroke-width: 0.8"/>
      </defs>
      <g>
       <use xlink:href="#m3ef5edd0e4" x="73.832727" y="307.584" style="stroke: #000000; stroke-width: 0.8"/>
      </g>
     </g>
     <g id="text_1">
      <!-- 0.0 -->
      <g transform="translate(65.881165 322.182437) scale(0.1 -0.1)">
       <defs>
        <path id="DejaVuSans-30" d="M 2034 4250 
Q 1547 4250 1301 3770 
Q 1056 3291 1056 2328 
Q 1056 1369 1301 889 
Q 1547 409 2034 409 
Q 2525 409 2770 889 
Q 3016 1369 3016 2328 
Q 3016 3291 2770 3770 
Q 2525 4250 2034 4250 
z
M 2034 4750 
Q 2819 4750 3233 4129 
Q 3647 3509 3647 2328 
Q 3647 1150 3233 529 
Q 2819 -91 2034 -91 
Q 1250 -91 836 529 
Q 422 1150 422 2328 
Q 422 3509 836 4129 
Q 1250 4750 2034 4750 
z
" transform="scale(0.015625)"/>
        <path id="DejaVuSans-2e" d="M 684 794 
L 1344 794 
L 1344 0 
L 684 0 
L 684 794 
z
" transform="scale(0.015625)"/>
       </defs>
       <use xlink:href="#DejaVuSans-30"/>
       <use xlink:href="#DejaVuSans-2e" x="63.623047"/>
       <use xlink:href="#DejaVuSans-30" x="95.410156"/>
      </g>
     </g>
    </g>
    <g id="xtick_2">
     <g id="line2d_2">
      <g>
       <use xlink:href="#m3ef5edd0e4" x="138.763636" y="307.584" style="stroke: #000000; stroke-width: 0.8"/>
      </g>
     </g>
     <g id="text_2">
      <!-- 0.2 -->
      <g transform="translate(130.812074 322.182437) scale(0.1 -0.1)">
       <defs>
        <path id="DejaVuSans-32" d="M 1228 531 
L 3431 531 
L 3431 0 
L 469 0 
L 469 531 
Q 828 903 1448 1529 
Q 2069 2156 2228 2338 
Q 2531 2678 2651 2914 
Q 2772 3150 2772 3378 
Q 2772 3750 2511 3984 
Q 2250 4219 1831 4219 
Q 1534 4219 1204 4116 
Q 875 4013 500 3803 
L 500 4441 
Q 881 4594 1212 4672 
Q 1544 4750 1819 4750 
Q 2544 4750 2975 4387 
Q 3406 4025 3406 3419 
Q 3406 3131 3298 2873 
Q 3191 2616 2906 2266 
Q 2828 2175 2409 1742 
Q 1991 1309 1228 531 
z
" transform="scale(0.015625)"/>
       </defs>
       <use xlink:href="#DejaVuSans-30"/>
       <use xlink:href="#DejaVuSans-2e" x="63.623047"/>
       <use xlink:href="#DejaVuSans-32" x="95.410156"/>
      </g>
     </g>
    </g>
    <g id="xtick_3">
     <g id="line2d_3">
      <g>
       <use xlink:href="#m3ef5edd0e4" x="203.694545" y="307.584" style="stroke: #000000; stroke-width: 0.8"/>
      </g>
     </g>
     <g id="text_3">
      <!-- 0.4 -->
      <g transform="translate(195.742983 322.182437) scale(0.1 -0.1)">
       <defs>
        <path id="DejaVuSans-34" d="M 2419 4116 
L 825 1625 
L 2419 1625 
L 2419 4116 
z
M 2253 4666 
L 3047 4666 
L 3047 1625 
L 3713 1625 
L 3713 1100 
L 3047 1100 
L 3047 0 
L 2419 0 
L 2419 1100 
L 313 1100 
L 313 1709 
L 2253 4666 
z
" transform="scale(0.015625)"/>
       </defs>
       <use xlink:href="#DejaVuSans-30"/>
       <use xlink:href="#DejaVuSans-2e" x="63.623047"/>
       <use xlink:href="#DejaVuSans-34" x="95.410156"/>
      </g>
     </g>
    </g>
    <g id="xtick_4">
     <g id="line2d_4">
      <g>
       <use xlink:href="#m3ef5edd0e4" x="268.625455" y="307.584" style="stroke: #000000; stroke-width: 0.8"/>
      </g>
     </g>
     <g id="text_4">
      <!-- 0.6 -->
      <g transform="translate(260.673892 322.182437) scale(0.1 -0.1)">
       <defs>
        <path id="DejaVuSans-36" d="M 2113 2584 
Q 1688 2584 1439 2293 
Q 1191 2003 1191 1497 
Q 1191 994 1439 701 
Q 1688 409 2113 409 
Q 2538 409 2786 701 
Q 3034 994 3034 1497 
Q 3034 2003 2786 2293 
Q 2538 2584 2113 2584 
z
M 3366 4563 
L 3366 3988 
Q 3128 4100 2886 4159 
Q 2644 4219 2406 4219 
Q 1781 4219 1451 3797 
Q 1122 3375 1075 2522 
Q 1259 2794 1537 2939 
Q 1816 3084 2150 3084 
Q 2853 3084 3261 2657 
Q 3669 2231 3669 1497 
Q 3669 778 3244 343 
Q 2819 -91 2113 -91 
Q 1303 -91 875 529 
Q 447 1150 447 2328 
Q 447 3434 972 4092 
Q 1497 4750 2381 4750 
Q 2619 4750 2861 4703 
Q 3103 4656 3366 4563 
z
" transform="scale(0.015625)"/>
       </defs>
       <use xlink:href="#DejaVuSans-30"/>
       <use xlink:href="#DejaVuSans-2e" x="63.623047"/>
       <use xlink:href="#DejaVuSans-36" x="95.410156"/>
      </g>
     </g>
    </g>
    <g id="xtick_5">
     <g id="line2d_5">
      <g>
       <use xlink:href="#m3ef5edd0e4" x="333.556364" y="307.584" style="stroke: #000000; stroke-width: 0.8"/>
      </g>
     </g>
     <g id="text_5">
      <!-- 0.8 -->
      <g transform="translate(325.604801 322.182437) scale(0.1 -0.1)">
       <defs>
        <path id="DejaVuSans-38" d="M 2034 2216 
Q 1584 2216 1326 1975 
Q 1069 1734 1069 1313 
Q 1069 891 1326 650 
Q 1584 409 2034 409 
Q 2484 409 2743 651 
Q 3003 894 3003 1313 
Q 3003 1734 2745 1975 
Q 2488 2216 2034 2216 
z
M 1403 2484 
Q 997 2584 770 2862 
Q 544 3141 544 3541 
Q 544 4100 942 4425 
Q 1341 4750 2034 4750 
Q 2731 4750 3128 4425 
Q 3525 4100 3525 3541 
Q 3525 3141 3298 2862 
Q 3072 2584 2669 2484 
Q 3125 2378 3379 2068 
Q 3634 1759 3634 1313 
Q 3634 634 3220 271 
Q 2806 -91 2034 -91 
Q 1263 -91 848 271 
Q 434 634 434 1313 
Q 434 1759 690 2068 
Q 947 2378 1403 2484 
z
M 1172 3481 
Q 1172 3119 1398 2916 
Q 1625 2713 2034 2713 
Q 2441 2713 2670 2916 
Q 2900 3119 2900 3481 
Q 2900 3844 2670 4047 
Q 2441 4250 2034 4250 
Q 1625 4250 1398 4047 
Q 1172 3844 1172 3481 
z
" transform="scale(0.015625)"/>
       </defs>
       <use xlink:href="#DejaVuSans-30"/>
       <use xlink:href="#DejaVuSans-2e" x="63.623047"/>
       <use xlink:href="#DejaVuSans-38" x="95.410156"/>
      </g>
     </g>
    </g>
    <g id="xtick_6">
     <g id="line2d_6">
      <g>
       <use xlink:href="#m3ef5edd0e4" x="398.487273" y="307.584" style="stroke: #000000; stroke-width: 0.8"/>
      </g>
     </g>
     <g id="text_6">
      <!-- 1.0 -->
      <g transform="translate(390.53571 322.182437) scale(0.1 -0.1)">
       <defs>
        <path id="DejaVuSans-31" d="M 794 531 
L 1825 531 
L 1825 4091 
L 703 3866 
L 703 4441 
L 1819 4666 
L 2450 4666 
L 2450 531 
L 3481 531 
L 3481 0 
L 794 0 
L 794 531 
z
" transform="scale(0.015625)"/>
       </defs>
       <use xlink:href="#DejaVuSans-31"/>
       <use xlink:href="#DejaVuSans-2e" x="63.623047"/>
       <use xlink:href="#DejaVuSans-30" x="95.410156"/>
      </g>
     </g>
    </g>
   </g>
   <g id="matplotlib.axis_2">
    <g id="ytick_1">
     <g id="line2d_7">
      <defs>
       <path id="mf61ca200ce" d="M 0 0 
L -3.5 0 
" style="stroke: #000000; stroke-width: 0.8"/>
      </defs>
      <g>
       <use xlink:href="#mf61ca200ce" x="57.6" y="295.488" style="stroke: #000000; stroke-width: 0.8"/>
      </g>
     </g>
     <g id="text_7">
      <!-- 0.0 -->
      <g transform="translate(34.696875 299.287219) scale(0.1 -0.1)">
       <use xlink:href="#DejaVuSans-30"/>
       <use xlink:href="#DejaVuSans-2e" x="63.623047"/>
       <use xlink:href="#DejaVuSans-30" x="95.410156"/>
      </g>
     </g>
    </g>
    <g id="ytick_2">
     <g id="line2d_8">
      <g>
       <use xlink:href="#mf61ca200ce" x="57.6" y="247.104" style="stroke: #000000; stroke-width: 0.8"/>
      </g>
     </g>
     <g id="text_8">
      <!-- 0.2 -->
      <g transform="translate(34.696875 250.903219) scale(0.1 -0.1)">
       <use xlink:href="#DejaVuSans-30"/>
       <use xlink:href="#DejaVuSans-2e" x="63.623047"/>
       <use xlink:href="#DejaVuSans-32" x="95.410156"/>
      </g>
     </g>
    </g>
    <g id="ytick_3">
     <g id="line2d_9">
      <g>
       <use xlink:href="#mf61ca200ce" x="57.6" y="198.72" style="stroke: #000000; stroke-width: 0.8"/>
      </g>
     </g>
     <g id="text_9">
      <!-- 0.4 -->
      <g transform="translate(34.696875 202.519219) scale(0.1 -0.1)">
       <use xlink:href="#DejaVuSans-30"/>
       <use xlink:href="#DejaVuSans-2e" x="63.623047"/>
       <use xlink:href="#DejaVuSans-34" x="95.410156"/>
      </g>
     </g>
    </g>
    <g id="ytick_4">
     <g id="line2d_10">
      <g>
       <use xlink:href="#mf61ca200ce" x="57.6" y="150.336" style="stroke: #000000; stroke-width: 0.8"/>
      </g>
     </g>
     <g id="text_10">
      <!-- 0.6 -->
      <g transform="translate(34.696875 154.135219) scale(0.1 -0.1)">
       <use xlink:href="#DejaVuSans-30"/>
       <use xlink:href="#DejaVuSans-2e" x="63.623047"/>
       <use xlink:href="#DejaVuSans-36" x="95.410156"/>
      </g>
     </g>
    </g>
    <g id="ytick_5">
     <g id="line2d_11">
      <g>
       <use xlink:href="#mf61ca200ce" x="57.6" y="101.952" style="stroke: #000000; stroke-width: 0.8"/>
      </g>
     </g>
     <g id="text_11">
      <!-- 0.8 -->
      <g transform="translate(34.696875 105.751219) scale(0.1 -0.1)">
       <use xlink:href="#DejaVuSans-30"/>
       <use xlink:href="#DejaVuSans-2e" x="63.623047"/>
       <use xlink:href="#DejaVuSans-38" x="95.410156"/>
      </g>
     </g>
    </g>
    <g id="ytick_6">
     <g id="line2d_12">
      <g>
       <use xlink:href="#mf61ca200ce" x="57.6" y="53.568" style="stroke: #000000; stroke-width: 0.8"/>
      </g>
     </g>
     <g id="text_12">
      <!-- 1.0 -->
      <g transform="translate(34.696875 57.367219) scale(0.1 -0.1)">
       <use xlink:href="#DejaVuSans-31"/>
       <use xlink:href="#DejaVuSans-2e" x="63.623047"/>
       <use xlink:href="#DejaVuSans-30" x="95.410156"/>
      </g>
     </g>
    </g>
   </g>
   <g id="line2d_13">
    <path d="M 73.832727 295.488 
L 77.112066 292.844065 
L 80.391405 290.200265 
L 83.670744 287.556734 
L 86.950083 284.913608 
L 90.229421 282.271021 
L 93.50876 279.629108 
L 96.788099 276.988004 
L 100.067438 274.347841 
L 103.346777 271.708756 
L 106.626116 269.070881 
L 109.905455 266.434351 
L 113.184793 263.799298 
L 116.464132 261.165855 
L 119.743471 258.534156 
L 123.02281 255.904333 
L 126.302149 253.276518 
L 129.581488 250.650842 
L 132.860826 248.027436 
L 136.140165 245.406432 
L 139.419504 242.787959 
L 142.698843 240.172148 
L 145.978182 237.559127 
L 149.257521 234.949025 
L 152.53686 232.34197 
L 155.816198 229.738089 
L 159.095537 227.13751 
L 162.374876 224.540358 
L 165.654215 221.946759 
L 168.933554 219.356838 
L 172.212893 216.770718 
L 175.492231 214.188523 
L 178.77157 211.610376 
L 182.050909 209.036398 
L 185.330248 206.466709 
L 188.609587 203.901431 
L 191.888926 201.340682 
L 195.168264 198.784581 
L 198.447603 196.233244 
L 201.726942 193.686789 
L 205.006281 191.145331 
L 208.28562 188.608984 
L 211.564959 186.077863 
L 214.844298 183.552079 
L 218.123636 181.031744 
L 221.402975 178.51697 
L 224.682314 176.007864 
L 227.961653 173.504536 
L 231.240992 171.007094 
L 234.520331 168.515642 
L 237.799669 166.030287 
L 241.079008 163.551132 
L 244.358347 161.078281 
L 247.637686 158.611834 
L 250.917025 156.151893 
L 254.196364 153.698556 
L 257.475702 151.251922 
L 260.755041 148.812087 
L 264.03438 146.379148 
L 267.313719 143.953198 
L 270.593058 141.534331 
L 273.872397 139.122638 
L 277.151736 136.718211 
L 280.431074 134.321138 
L 283.710413 131.931508 
L 286.989752 129.549407 
L 290.269091 127.174921 
L 293.54843 124.808134 
L 296.827769 122.449128 
L 300.107107 120.097986 
L 303.386446 117.754786 
L 306.665785 115.419609 
L 309.945124 113.09253 
L 313.224463 110.773627 
L 316.503802 108.462974 
L 319.78314 106.160644 
L 323.062479 103.866709 
L 326.341818 101.58124 
L 329.621157 99.304306 
L 332.900496 97.035975 
L 336.179835 94.776312 
L 339.459174 92.525384 
L 342.738512 90.283254 
L 346.017851 88.049983 
L 349.29719 85.825633 
L 352.576529 83.610264 
L 355.855868 81.403932 
L 359.135207 79.206696 
L 362.414545 77.01861 
L 365.693884 74.839728 
L 368.973223 72.670102 
L 372.252562 70.509785 
L 375.531901 68.358824 
L 378.81124 66.21727 
L 382.090579 64.085168 
L 385.369917 61.962565 
L 388.649256 59.849504 
L 391.928595 57.746029 
L 395.207934 55.652181 
L 398.487273 53.568 
" clip-path="url(#pb9d4c97f5c)" style="fill: none; stroke: #1f77b4; stroke-width: 1.5; stroke-linecap: square"/>
   </g>
   <g id="line2d_14">
    <path d="M 73.832727 295.488 
L 77.112066 291.877278 
L 80.391405 288.267717 
L 83.670744 284.660479 
L 86.950083 281.056721 
L 90.229421 277.457596 
L 93.50876 273.86425 
L 96.788099 270.277824 
L 100.067438 266.699448 
L 103.346777 263.130243 
L 106.626116 259.571317 
L 109.905455 256.023768 
L 113.184793 252.488676 
L 116.464132 248.967107 
L 119.743471 245.460111 
L 123.02281 241.968719 
L 126.302149 238.493944 
L 129.581488 235.036776 
L 132.860826 231.598188 
L 136.140165 228.179126 
L 139.419504 224.780516 
L 142.698843 221.40326 
L 145.978182 218.048232 
L 149.257521 214.716284 
L 152.53686 211.408239 
L 155.816198 208.124894 
L 159.095537 204.867018 
L 162.374876 201.635353 
L 165.654215 198.43061 
L 168.933554 195.253473 
L 172.212893 192.104597 
L 175.492231 188.984605 
L 178.77157 185.894093 
L 182.050909 182.833625 
L 185.330248 179.803736 
L 188.609587 176.80493 
L 191.888926 173.837682 
L 195.168264 170.902435 
L 198.447603 167.999606 
L 201.726942 165.129577 
L 205.006281 162.292705 
L 208.28562 159.489315 
L 211.564959 156.719705 
L 214.844298 153.984143 
L 218.123636 151.282869 
L 221.402975 148.616095 
L 224.682314 145.984007 
L 227.961653 143.386763 
L 231.240992 140.824496 
L 234.520331 138.29731 
L 237.799669 135.805288 
L 241.079008 133.348486 
L 244.358347 130.926936 
L 247.637686 128.540648 
L 250.917025 126.189609 
L 254.196364 123.873783 
L 257.475702 121.593114 
L 260.755041 119.347525 
L 264.03438 117.136918 
L 267.313719 114.961177 
L 270.593058 112.820169 
L 273.872397 110.71374 
L 277.151736 108.641721 
L 280.431074 106.603926 
L 283.710413 104.600155 
L 286.989752 102.63019 
L 290.269091 100.693802 
L 293.54843 98.790747 
L 296.827769 96.920768 
L 300.107107 95.083598 
L 303.386446 93.278955 
L 306.665785 91.506548 
L 309.945124 89.766078 
L 313.224463 88.057234 
L 316.503802 86.379697 
L 319.78314 84.733139 
L 323.062479 83.117226 
L 326.341818 81.531615 
L 329.621157 79.975958 
L 332.900496 78.449902 
L 336.179835 76.953086 
L 339.459174 75.485146 
L 342.738512 74.045714 
L 346.017851 72.634416 
L 349.29719 71.250878 
L 352.576529 69.89472 
L 355.855868 68.565561 
L 359.135207 67.263018 
L 362.414545 65.986707 
L 365.693884 64.73624 
L 368.973223 63.511232 
L 372.252562 62.311296 
L 375.531901 61.136043 
L 378.81124 59.985087 
L 382.090579 58.858041 
L 385.369917 57.754519 
L 388.649256 56.674136 
L 391.928595 55.61651 
L 395.207934 54.581257 
L 398.487273 53.568 
" clip-path="url(#pb9d4c97f5c)" style="fill: none; stroke: #ff7f0e; stroke-width: 1.5; stroke-linecap: square"/>
   </g>
   <g id="line2d_15">
    <path d="M 73.832727 295.488 
L 77.112066 287.753372 
L 80.391405 280.034427 
L 83.670744 272.346719 
L 86.950083 264.705551 
L 90.229421 257.125856 
L 93.50876 249.622078 
L 96.788099 242.20807 
L 100.067438 234.896995 
L 103.346777 227.701244 
L 106.626116 220.632358 
L 109.905455 213.70097 
L 113.184793 206.916758 
L 116.464132 200.288408 
L 119.743471 193.823595 
L 123.02281 187.528973 
L 126.302149 181.410178 
L 129.581488 175.471843 
L 132.860826 169.717622 
L 136.140165 164.150221 
L 139.419504 158.77144 
L 142.698843 153.582221 
L 145.978182 148.582697 
L 149.257521 143.772251 
L 152.53686 139.149574 
L 155.816198 134.712723 
L 159.095537 130.459186 
L 162.374876 126.38594 
L 165.654215 122.489511 
L 168.933554 118.766035 
L 172.212893 115.211312 
L 175.492231 111.820859 
L 178.77157 108.589963 
L 182.050909 105.513725 
L 185.330248 102.587106 
L 188.609587 99.804969 
L 191.888926 97.162113 
L 195.168264 94.653304 
L 198.447603 92.273315 
L 201.726942 90.016939 
L 205.006281 87.879025 
L 208.28562 85.854489 
L 211.564959 83.938338 
L 214.844298 82.125682 
L 218.123636 80.411747 
L 221.402975 78.791885 
L 224.682314 77.261585 
L 227.961653 75.816475 
L 231.240992 74.452331 
L 234.520331 73.165078 
L 237.799669 71.950791 
L 241.079008 70.805701 
L 244.358347 69.726189 
L 247.637686 68.708788 
L 250.917025 67.75018 
L 254.196364 66.847195 
L 257.475702 65.996808 
L 260.755041 65.196133 
L 264.03438 64.442424 
L 267.313719 63.733064 
L 270.593058 63.06557 
L 273.872397 62.43758 
L 277.151736 61.846855 
L 280.431074 61.291268 
L 283.710413 60.768806 
L 286.989752 60.277562 
L 290.269091 59.815729 
L 293.54843 59.3816 
L 296.827769 58.973559 
L 300.107107 58.590079 
L 303.386446 58.229719 
L 306.665785 57.891117 
L 309.945124 57.572987 
L 313.224463 57.274116 
L 316.503802 56.993361 
L 319.78314 56.729642 
L 323.062479 56.481944 
L 326.341818 56.249309 
L 329.621157 56.030832 
L 332.900496 55.825666 
L 336.179835 55.633008 
L 339.459174 55.452107 
L 342.738512 55.282251 
L 346.017851 55.122774 
L 349.29719 54.973049 
L 352.576529 54.832484 
L 355.855868 54.700523 
L 359.135207 54.576645 
L 362.414545 54.460358 
L 365.693884 54.3512 
L 368.973223 54.248738 
L 372.252562 54.152562 
L 375.531901 54.06229 
L 378.81124 53.977561 
L 382.090579 53.898037 
L 385.369917 53.823399 
L 388.649256 53.753349 
L 391.928595 53.687605 
L 395.207934 53.625905 
L 398.487273 53.568 
" clip-path="url(#pb9d4c97f5c)" style="fill: none; stroke: #2ca02c; stroke-width: 1.5; stroke-linecap: square"/>
   </g>
   <g id="line2d_16">
    <path d="M 73.832727 295.488 
L 77.112066 276.164734 
L 80.391405 257.086467 
L 83.670744 238.48593 
L 86.950083 220.572597 
L 90.229421 203.524038 
L 93.50876 187.480284 
L 96.788099 172.541396 
L 100.067438 158.768031 
L 103.346777 146.184439 
L 106.626116 134.78319 
L 109.905455 124.530875 
L 113.184793 115.374102 
L 116.464132 107.245272 
L 119.743471 100.06776 
L 123.02281 93.760322 
L 126.302149 88.240622 
L 129.581488 83.427933 
L 132.860826 79.245074 
L 136.140165 75.619698 
L 139.419504 72.485058 
L 142.698843 69.78036 
L 145.978182 67.450822 
L 149.257521 65.447509 
L 152.53686 63.727027 
L 155.816198 62.251132 
L 159.095537 60.986295 
L 162.374876 59.903244 
L 165.654215 58.976519 
L 168.933554 58.184044 
L 172.212893 57.506728 
L 175.492231 56.928097 
L 178.77157 56.433962 
L 182.050909 56.012124 
L 185.330248 55.652106 
L 188.609587 55.34492 
L 191.888926 55.082869 
L 195.168264 54.859358 
L 198.447603 54.668749 
L 201.726942 54.506218 
L 205.006281 54.367645 
L 208.28562 54.249508 
L 211.564959 54.148802 
L 214.844298 54.062961 
L 218.123636 53.989794 
L 221.402975 53.927434 
L 224.682314 53.874286 
L 227.961653 53.828991 
L 231.240992 53.79039 
L 234.520331 53.757495 
L 237.799669 53.729462 
L 241.079008 53.705574 
L 244.358347 53.685218 
L 247.637686 53.667872 
L 250.917025 53.653091 
L 254.196364 53.640495 
L 257.475702 53.629763 
L 260.755041 53.620618 
L 264.03438 53.612825 
L 267.313719 53.606185 
L 270.593058 53.600527 
L 273.872397 53.595706 
L 277.151736 53.591599 
L 280.431074 53.588098 
L 283.710413 53.585116 
L 286.989752 53.582575 
L 290.269091 53.580409 
L 293.54843 53.578564 
L 296.827769 53.576992 
L 300.107107 53.575652 
L 303.386446 53.574511 
L 306.665785 53.573538 
L 309.945124 53.57271 
L 313.224463 53.572004 
L 316.503802 53.571402 
L 319.78314 53.570889 
L 323.062479 53.570453 
L 326.341818 53.57008 
L 329.621157 53.569763 
L 332.900496 53.569493 
L 336.179835 53.569263 
L 339.459174 53.569067 
L 342.738512 53.568899 
L 346.017851 53.568757 
L 349.29719 53.568636 
L 352.576529 53.568532 
L 355.855868 53.568444 
L 359.135207 53.568369 
L 362.414545 53.568305 
L 365.693884 53.568251 
L 368.973223 53.568204 
L 372.252562 53.568165 
L 375.531901 53.568131 
L 378.81124 53.568102 
L 382.090579 53.568078 
L 385.369917 53.568057 
L 388.649256 53.568039 
L 391.928595 53.568024 
L 395.207934 53.568011 
L 398.487273 53.568 
" clip-path="url(#pb9d4c97f5c)" style="fill: none; stroke: #d62728; stroke-width: 1.5; stroke-linecap: square"/>
   </g>
   <g id="line2d_17">
    <path d="M 73.832727 295.488 
L 77.112066 247.491586 
L 80.391405 203.130522 
L 83.670744 165.016307 
L 86.950083 134.270118 
L 90.229421 110.7047 
L 93.50876 93.3416 
L 96.788099 80.916738 
L 100.067438 72.210329 
L 103.346777 66.198896 
L 106.626116 62.090406 
L 109.905455 59.302035 
L 113.184793 57.418575 
L 116.464132 56.150435 
L 119.743471 55.298435 
L 123.02281 54.726852 
L 126.302149 54.343765 
L 129.581488 54.087181 
L 132.860826 53.915401 
L 136.140165 53.80043 
L 139.419504 53.723496 
L 142.698843 53.672021 
L 145.978182 53.637584 
L 149.257521 53.614547 
L 152.53686 53.599136 
L 155.816198 53.588827 
L 159.095537 53.581931 
L 162.374876 53.577319 
L 165.654215 53.574233 
L 168.933554 53.572169 
L 172.212893 53.570789 
L 175.492231 53.569865 
L 178.77157 53.569248 
L 182.050909 53.568835 
L 185.330248 53.568558 
L 188.609587 53.568373 
L 191.888926 53.56825 
L 195.168264 53.568167 
L 198.447603 53.568112 
L 201.726942 53.568075 
L 205.006281 53.56805 
L 208.28562 53.568033 
L 211.564959 53.568022 
L 214.844298 53.568015 
L 218.123636 53.56801 
L 221.402975 53.568007 
L 224.682314 53.568004 
L 227.961653 53.568003 
L 231.240992 53.568002 
L 234.520331 53.568001 
L 237.799669 53.568001 
L 241.079008 53.568001 
L 244.358347 53.568 
L 247.637686 53.568 
L 250.917025 53.568 
L 254.196364 53.568 
L 257.475702 53.568 
L 260.755041 53.568 
L 264.03438 53.568 
L 267.313719 53.568 
L 270.593058 53.568 
L 273.872397 53.568 
L 277.151736 53.568 
L 280.431074 53.568 
L 283.710413 53.568 
L 286.989752 53.568 
L 290.269091 53.568 
L 293.54843 53.568 
L 296.827769 53.568 
L 300.107107 53.568 
L 303.386446 53.568 
L 306.665785 53.568 
L 309.945124 53.568 
L 313.224463 53.568 
L 316.503802 53.568 
L 319.78314 53.568 
L 323.062479 53.568 
L 326.341818 53.568 
L 329.621157 53.568 
L 332.900496 53.568 
L 336.179835 53.568 
L 339.459174 53.568 
L 342.738512 53.568 
L 346.017851 53.568 
L 349.29719 53.568 
L 352.576529 53.568 
L 355.855868 53.568 
L 359.135207 53.568 
L 362.414545 53.568 
L 365.693884 53.568 
L 368.973223 53.568 
L 372.252562 53.568 
L 375.531901 53.568 
L 378.81124 53.568 
L 382.090579 53.568 
L 385.369917 53.568 
L 388.649256 53.568 
L 391.928595 53.568 
L 395.207934 53.568 
L 398.487273 53.568 
" clip-path="url(#pb9d4c97f5c)" style="fill: none; stroke: #9467bd; stroke-width: 1.5; stroke-linecap: square"/>
   </g>
   <g id="line2d_18">
    <path d="M 73.832727 295.488 
L 77.112066 182.733967 
L 80.391405 110.224746 
L 83.670744 75.861173 
L 86.950083 61.931799 
L 90.229421 56.647797 
L 93.50876 54.694165 
L 96.788099 53.978737 
L 100.067438 53.717664 
L 103.346777 53.622516 
L 106.626116 53.587855 
L 109.905455 53.575231 
L 113.184793 53.570633 
L 116.464132 53.568959 
L 119.743471 53.568349 
L 123.02281 53.568127 
L 126.302149 53.568046 
L 129.581488 53.568017 
L 132.860826 53.568006 
L 136.140165 53.568002 
L 139.419504 53.568001 
L 142.698843 53.568 
L 145.978182 53.568 
L 149.257521 53.568 
L 152.53686 53.568 
L 155.816198 53.568 
L 159.095537 53.568 
L 162.374876 53.568 
L 165.654215 53.568 
L 168.933554 53.568 
L 172.212893 53.568 
L 175.492231 53.568 
L 178.77157 53.568 
L 182.050909 53.568 
L 185.330248 53.568 
L 188.609587 53.568 
L 191.888926 53.568 
L 195.168264 53.568 
L 198.447603 53.568 
L 201.726942 53.568 
L 205.006281 53.568 
L 208.28562 53.568 
L 211.564959 53.568 
L 214.844298 53.568 
L 218.123636 53.568 
L 221.402975 53.568 
L 224.682314 53.568 
L 227.961653 53.568 
L 231.240992 53.568 
L 234.520331 53.568 
L 237.799669 53.568 
L 241.079008 53.568 
L 244.358347 53.568 
L 247.637686 53.568 
L 250.917025 53.568 
L 254.196364 53.568 
L 257.475702 53.568 
L 260.755041 53.568 
L 264.03438 53.568 
L 267.313719 53.568 
L 270.593058 53.568 
L 273.872397 53.568 
L 277.151736 53.568 
L 280.431074 53.568 
L 283.710413 53.568 
L 286.989752 53.568 
L 290.269091 53.568 
L 293.54843 53.568 
L 296.827769 53.568 
L 300.107107 53.568 
L 303.386446 53.568 
L 306.665785 53.568 
L 309.945124 53.568 
L 313.224463 53.568 
L 316.503802 53.568 
L 319.78314 53.568 
L 323.062479 53.568 
L 326.341818 53.568 
L 329.621157 53.568 
L 332.900496 53.568 
L 336.179835 53.568 
L 339.459174 53.568 
L 342.738512 53.568 
L 346.017851 53.568 
L 349.29719 53.568 
L 352.576529 53.568 
L 355.855868 53.568 
L 359.135207 53.568 
L 362.414545 53.568 
L 365.693884 53.568 
L 368.973223 53.568 
L 372.252562 53.568 
L 375.531901 53.568 
L 378.81124 53.568 
L 382.090579 53.568 
L 385.369917 53.568 
L 388.649256 53.568 
L 391.928595 53.568 
L 395.207934 53.568 
L 398.487273 53.568 
" clip-path="url(#pb9d4c97f5c)" style="fill: none; stroke: #8c564b; stroke-width: 1.5; stroke-linecap: square"/>
   </g>
   <g id="patch_3">
    <path d="M 57.6 307.584 
L 57.6 41.472 
" style="fill: none; stroke: #000000; stroke-width: 0.8; stroke-linejoin: miter; stroke-linecap: square"/>
   </g>
   <g id="patch_4">
    <path d="M 414.72 307.584 
L 414.72 41.472 
" style="fill: none; stroke: #000000; stroke-width: 0.8; stroke-linejoin: miter; stroke-linecap: square"/>
   </g>
   <g id="patch_5">
    <path d="M 57.6 307.584 
L 414.72 307.584 
" style="fill: none; stroke: #000000; stroke-width: 0.8; stroke-linejoin: miter; stroke-linecap: square"/>
   </g>
   <g id="patch_6">
    <path d="M 57.6 41.472 
L 414.72 41.472 
" style="fill: none; stroke: #000000; stroke-width: 0.8; stroke-linejoin: miter; stroke-linecap: square"/>
   </g>
   <g id="legend_1">
    <g id="patch_7">
     <path d="M 338.22 302.584 
L 407.72 302.584 
Q 409.72 302.584 409.72 300.584 
L 409.72 213.51525 
Q 409.72 211.51525 407.72 211.51525 
L 338.22 211.51525 
Q 336.22 211.51525 336.22 213.51525 
L 336.22 300.584 
Q 336.22 302.584 338.22 302.584 
z
" style="fill: #ffffff; opacity: 0.8; stroke: #cccccc; stroke-linejoin: miter"/>
    </g>
    <g id="line2d_19">
     <path d="M 340.22 219.613687 
L 350.22 219.613687 
L 360.22 219.613687 
" style="fill: none; stroke: #1f77b4; stroke-width: 1.5; stroke-linecap: square"/>
    </g>
    <g id="text_13">
     <!-- $a=1$ -->
     <g transform="translate(368.22 223.113687) scale(0.1 -0.1)">
      <defs>
       <path id="DejaVuSans-Oblique-61" d="M 3438 1997 
L 3047 0 
L 2472 0 
L 2578 531 
Q 2325 219 2001 64 
Q 1678 -91 1281 -91 
Q 834 -91 548 182 
Q 263 456 263 884 
Q 263 1497 752 1853 
Q 1241 2209 2100 2209 
L 2900 2209 
L 2931 2363 
Q 2938 2388 2941 2417 
Q 2944 2447 2944 2509 
Q 2944 2788 2717 2942 
Q 2491 3097 2081 3097 
Q 1800 3097 1504 3025 
Q 1209 2953 897 2809 
L 997 3341 
Q 1322 3463 1633 3523 
Q 1944 3584 2234 3584 
Q 2853 3584 3176 3315 
Q 3500 3047 3500 2534 
Q 3500 2431 3484 2292 
Q 3469 2153 3438 1997 
z
M 2816 1759 
L 2241 1759 
Q 1534 1759 1195 1570 
Q 856 1381 856 984 
Q 856 709 1029 553 
Q 1203 397 1509 397 
Q 1978 397 2328 733 
Q 2678 1069 2791 1631 
L 2816 1759 
z
" transform="scale(0.015625)"/>
       <path id="DejaVuSans-3d" d="M 678 2906 
L 4684 2906 
L 4684 2381 
L 678 2381 
L 678 2906 
z
M 678 1631 
L 4684 1631 
L 4684 1100 
L 678 1100 
L 678 1631 
z
" transform="scale(0.015625)"/>
      </defs>
      <use xlink:href="#DejaVuSans-Oblique-61" transform="translate(0 0.09375)"/>
      <use xlink:href="#DejaVuSans-3d" transform="translate(80.761719 0.09375)"/>
      <use xlink:href="#DejaVuSans-31" transform="translate(184.033203 0.09375)"/>
     </g>
    </g>
    <g id="line2d_20">
     <path d="M 340.22 234.291812 
L 350.22 234.291812 
L 360.22 234.291812 
" style="fill: none; stroke: #ff7f0e; stroke-width: 1.5; stroke-linecap: square"/>
    </g>
    <g id="text_14">
     <!-- $a=3$ -->
     <g transform="translate(368.22 237.791812) scale(0.1 -0.1)">
      <defs>
       <path id="DejaVuSans-33" d="M 2597 2516 
Q 3050 2419 3304 2112 
Q 3559 1806 3559 1356 
Q 3559 666 3084 287 
Q 2609 -91 1734 -91 
Q 1441 -91 1130 -33 
Q 819 25 488 141 
L 488 750 
Q 750 597 1062 519 
Q 1375 441 1716 441 
Q 2309 441 2620 675 
Q 2931 909 2931 1356 
Q 2931 1769 2642 2001 
Q 2353 2234 1838 2234 
L 1294 2234 
L 1294 2753 
L 1863 2753 
Q 2328 2753 2575 2939 
Q 2822 3125 2822 3475 
Q 2822 3834 2567 4026 
Q 2313 4219 1838 4219 
Q 1578 4219 1281 4162 
Q 984 4106 628 3988 
L 628 4550 
Q 988 4650 1302 4700 
Q 1616 4750 1894 4750 
Q 2613 4750 3031 4423 
Q 3450 4097 3450 3541 
Q 3450 3153 3228 2886 
Q 3006 2619 2597 2516 
z
" transform="scale(0.015625)"/>
      </defs>
      <use xlink:href="#DejaVuSans-Oblique-61" transform="translate(0 0.78125)"/>
      <use xlink:href="#DejaVuSans-3d" transform="translate(80.761719 0.78125)"/>
      <use xlink:href="#DejaVuSans-33" transform="translate(184.033203 0.78125)"/>
     </g>
    </g>
    <g id="line2d_21">
     <path d="M 340.22 248.969937 
L 350.22 248.969937 
L 360.22 248.969937 
" style="fill: none; stroke: #2ca02c; stroke-width: 1.5; stroke-linecap: square"/>
    </g>
    <g id="text_15">
     <!-- $a=6$ -->
     <g transform="translate(368.22 252.469937) scale(0.1 -0.1)">
      <use xlink:href="#DejaVuSans-Oblique-61" transform="translate(0 0.78125)"/>
      <use xlink:href="#DejaVuSans-3d" transform="translate(80.761719 0.78125)"/>
      <use xlink:href="#DejaVuSans-36" transform="translate(184.033203 0.78125)"/>
     </g>
    </g>
    <g id="line2d_22">
     <path d="M 340.22 263.648062 
L 350.22 263.648062 
L 360.22 263.648062 
" style="fill: none; stroke: #d62728; stroke-width: 1.5; stroke-linecap: square"/>
    </g>
    <g id="text_16">
     <!-- $a=16$ -->
     <g transform="translate(368.22 267.148062) scale(0.1 -0.1)">
      <use xlink:href="#DejaVuSans-Oblique-61" transform="translate(0 0.78125)"/>
      <use xlink:href="#DejaVuSans-3d" transform="translate(80.761719 0.78125)"/>
      <use xlink:href="#DejaVuSans-31" transform="translate(184.033203 0.78125)"/>
      <use xlink:href="#DejaVuSans-36" transform="translate(247.65625 0.78125)"/>
     </g>
    </g>
    <g id="line2d_23">
     <path d="M 340.22 278.326188 
L 350.22 278.326188 
L 360.22 278.326188 
" style="fill: none; stroke: #9467bd; stroke-width: 1.5; stroke-linecap: square"/>
    </g>
    <g id="text_17">
     <!-- $a=40$ -->
     <g transform="translate(368.22 281.826188) scale(0.1 -0.1)">
      <use xlink:href="#DejaVuSans-Oblique-61" transform="translate(0 0.78125)"/>
      <use xlink:href="#DejaVuSans-3d" transform="translate(80.761719 0.78125)"/>
      <use xlink:href="#DejaVuSans-34" transform="translate(184.033203 0.78125)"/>
      <use xlink:href="#DejaVuSans-30" transform="translate(247.65625 0.78125)"/>
     </g>
    </g>
    <g id="line2d_24">
     <path d="M 340.22 293.004312 
L 350.22 293.004312 
L 360.22 293.004312 
" style="fill: none; stroke: #8c564b; stroke-width: 1.5; stroke-linecap: square"/>
    </g>
    <g id="text_18">
     <!-- $a=100$ -->
     <g transform="translate(368.22 296.504312) scale(0.1 -0.1)">
      <use xlink:href="#DejaVuSans-Oblique-61" transform="translate(0 0.78125)"/>
      <use xlink:href="#DejaVuSans-3d" transform="translate(80.761719 0.78125)"/>
      <use xlink:href="#DejaVuSans-31" transform="translate(184.033203 0.78125)"/>
      <use xlink:href="#DejaVuSans-30" transform="translate(247.65625 0.78125)"/>
      <use xlink:href="#DejaVuSans-30" transform="translate(311.279297 0.78125)"/>
     </g>
    </g>
   </g>
  </g>
 </g>
 <defs>
  <clipPath id="pb9d4c97f5c">
   <rect x="57.6" y="41.472" width="357.12" height="266.112"/>
  </clipPath>
 </defs>
</svg>
