<?xml version="1.0" encoding="utf-8" standalone="no"?>
<!DOCTYPE svg PUBLIC "-//W3C//DTD SVG 1.1//EN"
  "http://www.w3.org/Graphics/SVG/1.1/DTD/svg11.dtd">
<svg xmlns:xlink="http://www.w3.org/1999/xlink" width="460.8pt" height="345.6pt" viewBox="0 0 460.8 345.6" xmlns="http://www.w3.org/2000/svg" version="1.1">
 <metadata>
  <rdf:RDF xmlns:dc="http://purl.org/dc/elements/1.1/" xmlns:cc="http://creativecommons.org/ns#" xmlns:rdf="http://www.w3.org/1999/02/22-rdf-syntax-ns#">
   <cc:Work>
    <dc:type rdf:resource="http://purl.org/dc/dcmitype/StillImage"/>
    <dc:date>2023-09-03T14:33:41.357557</dc:date>
    <dc:format>image/svg+xml</dc:format>
    <dc:creator>
     <cc:Agent>
      <dc:title>Matplotlib v3.7.2, https://matplotlib.org/</dc:title>
     </cc:Agent>
    </dc:creator>
   </cc:Work>
  </rdf:RDF>
 </metadata>
 <defs>
  <style type="text/css">*{stroke-linejoin: round; stroke-linecap: butt}</style>
 </defs>
 <g id="figure_1">
  <g id="patch_1">
   <path d="M 0 345.6 
L 460.8 345.6 
L 460.8 0 
L 0 0 
z
" style="fill: #ffffff"/>
  </g>
  <g id="axes_1">
   <g id="patch_2">
    <path d="M 57.6 307.584 
L 414.72 307.584 
L 414.72 41.472 
L 57.6 41.472 
z
" style="fill: #ffffff"/>
   </g>
   <g id="matplotlib.axis_1">
    <g id="xtick_1">
     <g id="line2d_1">
      <defs>
       <path id="m63412f41e3" d="M 0 0 
L 0 3.5 
" style="stroke: #000000; stroke-width: 0.8"/>
      </defs>
      <g>
       <use xlink:href="#m63412f41e3" x="73.832727" y="307.584" style="stroke: #000000; stroke-width: 0.8"/>
      </g>
     </g>
     <g id="text_1">
      <!-- 0.0 -->
      <g transform="translate(65.881165 322.182437) scale(0.1 -0.1)">
       <defs>
        <path id="DejaVuSans-30" d="M 2034 4250 
Q 1547 4250 1301 3770 
Q 1056 3291 1056 2328 
Q 1056 1369 1301 889 
Q 1547 409 2034 409 
Q 2525 409 2770 889 
Q 3016 1369 3016 2328 
Q 3016 3291 2770 3770 
Q 2525 4250 2034 4250 
z
M 2034 4750 
Q 2819 4750 3233 4129 
Q 3647 3509 3647 2328 
Q 3647 1150 3233 529 
Q 2819 -91 2034 -91 
Q 1250 -91 836 529 
Q 422 1150 422 2328 
Q 422 3509 836 4129 
Q 1250 4750 2034 4750 
z
" transform="scale(0.015625)"/>
        <path id="DejaVuSans-2e" d="M 684 794 
L 1344 794 
L 1344 0 
L 684 0 
L 684 794 
z
" transform="scale(0.015625)"/>
       </defs>
       <use xlink:href="#DejaVuSans-30"/>
       <use xlink:href="#DejaVuSans-2e" x="63.623047"/>
       <use xlink:href="#DejaVuSans-30" x="95.410156"/>
      </g>
     </g>
    </g>
    <g id="xtick_2">
     <g id="line2d_2">
      <g>
       <use xlink:href="#m63412f41e3" x="138.763636" y="307.584" style="stroke: #000000; stroke-width: 0.8"/>
      </g>
     </g>
     <g id="text_2">
      <!-- 0.2 -->
      <g transform="translate(130.812074 322.182437) scale(0.1 -0.1)">
       <defs>
        <path id="DejaVuSans-32" d="M 1228 531 
L 3431 531 
L 3431 0 
L 469 0 
L 469 531 
Q 828 903 1448 1529 
Q 2069 2156 2228 2338 
Q 2531 2678 2651 2914 
Q 2772 3150 2772 3378 
Q 2772 3750 2511 3984 
Q 2250 4219 1831 4219 
Q 1534 4219 1204 4116 
Q 875 4013 500 3803 
L 500 4441 
Q 881 4594 1212 4672 
Q 1544 4750 1819 4750 
Q 2544 4750 2975 4387 
Q 3406 4025 3406 3419 
Q 3406 3131 3298 2873 
Q 3191 2616 2906 2266 
Q 2828 2175 2409 1742 
Q 1991 1309 1228 531 
z
" transform="scale(0.015625)"/>
       </defs>
       <use xlink:href="#DejaVuSans-30"/>
       <use xlink:href="#DejaVuSans-2e" x="63.623047"/>
       <use xlink:href="#DejaVuSans-32" x="95.410156"/>
      </g>
     </g>
    </g>
    <g id="xtick_3">
     <g id="line2d_3">
      <g>
       <use xlink:href="#m63412f41e3" x="203.694545" y="307.584" style="stroke: #000000; stroke-width: 0.8"/>
      </g>
     </g>
     <g id="text_3">
      <!-- 0.4 -->
      <g transform="translate(195.742983 322.182437) scale(0.1 -0.1)">
       <defs>
        <path id="DejaVuSans-34" d="M 2419 4116 
L 825 1625 
L 2419 1625 
L 2419 4116 
z
M 2253 4666 
L 3047 4666 
L 3047 1625 
L 3713 1625 
L 3713 1100 
L 3047 1100 
L 3047 0 
L 2419 0 
L 2419 1100 
L 313 1100 
L 313 1709 
L 2253 4666 
z
" transform="scale(0.015625)"/>
       </defs>
       <use xlink:href="#DejaVuSans-30"/>
       <use xlink:href="#DejaVuSans-2e" x="63.623047"/>
       <use xlink:href="#DejaVuSans-34" x="95.410156"/>
      </g>
     </g>
    </g>
    <g id="xtick_4">
     <g id="line2d_4">
      <g>
       <use xlink:href="#m63412f41e3" x="268.625455" y="307.584" style="stroke: #000000; stroke-width: 0.8"/>
      </g>
     </g>
     <g id="text_4">
      <!-- 0.6 -->
      <g transform="translate(260.673892 322.182437) scale(0.1 -0.1)">
       <defs>
        <path id="DejaVuSans-36" d="M 2113 2584 
Q 1688 2584 1439 2293 
Q 1191 2003 1191 1497 
Q 1191 994 1439 701 
Q 1688 409 2113 409 
Q 2538 409 2786 701 
Q 3034 994 3034 1497 
Q 3034 2003 2786 2293 
Q 2538 2584 2113 2584 
z
M 3366 4563 
L 3366 3988 
Q 3128 4100 2886 4159 
Q 2644 4219 2406 4219 
Q 1781 4219 1451 3797 
Q 1122 3375 1075 2522 
Q 1259 2794 1537 2939 
Q 1816 3084 2150 3084 
Q 2853 3084 3261 2657 
Q 3669 2231 3669 1497 
Q 3669 778 3244 343 
Q 2819 -91 2113 -91 
Q 1303 -91 875 529 
Q 447 1150 447 2328 
Q 447 3434 972 4092 
Q 1497 4750 2381 4750 
Q 2619 4750 2861 4703 
Q 3103 4656 3366 4563 
z
" transform="scale(0.015625)"/>
       </defs>
       <use xlink:href="#DejaVuSans-30"/>
       <use xlink:href="#DejaVuSans-2e" x="63.623047"/>
       <use xlink:href="#DejaVuSans-36" x="95.410156"/>
      </g>
     </g>
    </g>
    <g id="xtick_5">
     <g id="line2d_5">
      <g>
       <use xlink:href="#m63412f41e3" x="333.556364" y="307.584" style="stroke: #000000; stroke-width: 0.8"/>
      </g>
     </g>
     <g id="text_5">
      <!-- 0.8 -->
      <g transform="translate(325.604801 322.182437) scale(0.1 -0.1)">
       <defs>
        <path id="DejaVuSans-38" d="M 2034 2216 
Q 1584 2216 1326 1975 
Q 1069 1734 1069 1313 
Q 1069 891 1326 650 
Q 1584 409 2034 409 
Q 2484 409 2743 651 
Q 3003 894 3003 1313 
Q 3003 1734 2745 1975 
Q 2488 2216 2034 2216 
z
M 1403 2484 
Q 997 2584 770 2862 
Q 544 3141 544 3541 
Q 544 4100 942 4425 
Q 1341 4750 2034 4750 
Q 2731 4750 3128 4425 
Q 3525 4100 3525 3541 
Q 3525 3141 3298 2862 
Q 3072 2584 2669 2484 
Q 3125 2378 3379 2068 
Q 3634 1759 3634 1313 
Q 3634 634 3220 271 
Q 2806 -91 2034 -91 
Q 1263 -91 848 271 
Q 434 634 434 1313 
Q 434 1759 690 2068 
Q 947 2378 1403 2484 
z
M 1172 3481 
Q 1172 3119 1398 2916 
Q 1625 2713 2034 2713 
Q 2441 2713 2670 2916 
Q 2900 3119 2900 3481 
Q 2900 3844 2670 4047 
Q 2441 4250 2034 4250 
Q 1625 4250 1398 4047 
Q 1172 3844 1172 3481 
z
" transform="scale(0.015625)"/>
       </defs>
       <use xlink:href="#DejaVuSans-30"/>
       <use xlink:href="#DejaVuSans-2e" x="63.623047"/>
       <use xlink:href="#DejaVuSans-38" x="95.410156"/>
      </g>
     </g>
    </g>
    <g id="xtick_6">
     <g id="line2d_6">
      <g>
       <use xlink:href="#m63412f41e3" x="398.487273" y="307.584" style="stroke: #000000; stroke-width: 0.8"/>
      </g>
     </g>
     <g id="text_6">
      <!-- 1.0 -->
      <g transform="translate(390.53571 322.182437) scale(0.1 -0.1)">
       <defs>
        <path id="DejaVuSans-31" d="M 794 531 
L 1825 531 
L 1825 4091 
L 703 3866 
L 703 4441 
L 1819 4666 
L 2450 4666 
L 2450 531 
L 3481 531 
L 3481 0 
L 794 0 
L 794 531 
z
" transform="scale(0.015625)"/>
       </defs>
       <use xlink:href="#DejaVuSans-31"/>
       <use xlink:href="#DejaVuSans-2e" x="63.623047"/>
       <use xlink:href="#DejaVuSans-30" x="95.410156"/>
      </g>
     </g>
    </g>
   </g>
   <g id="matplotlib.axis_2">
    <g id="ytick_1">
     <g id="line2d_7">
      <defs>
       <path id="m031652b466" d="M 0 0 
L -3.5 0 
" style="stroke: #000000; stroke-width: 0.8"/>
      </defs>
      <g>
       <use xlink:href="#m031652b466" x="57.6" y="295.488" style="stroke: #000000; stroke-width: 0.8"/>
      </g>
     </g>
     <g id="text_7">
      <!-- 0.0 -->
      <g transform="translate(34.696875 299.287219) scale(0.1 -0.1)">
       <use xlink:href="#DejaVuSans-30"/>
       <use xlink:href="#DejaVuSans-2e" x="63.623047"/>
       <use xlink:href="#DejaVuSans-30" x="95.410156"/>
      </g>
     </g>
    </g>
    <g id="ytick_2">
     <g id="line2d_8">
      <g>
       <use xlink:href="#m031652b466" x="57.6" y="247.104" style="stroke: #000000; stroke-width: 0.8"/>
      </g>
     </g>
     <g id="text_8">
      <!-- 0.2 -->
      <g transform="translate(34.696875 250.903219) scale(0.1 -0.1)">
       <use xlink:href="#DejaVuSans-30"/>
       <use xlink:href="#DejaVuSans-2e" x="63.623047"/>
       <use xlink:href="#DejaVuSans-32" x="95.410156"/>
      </g>
     </g>
    </g>
    <g id="ytick_3">
     <g id="line2d_9">
      <g>
       <use xlink:href="#m031652b466" x="57.6" y="198.72" style="stroke: #000000; stroke-width: 0.8"/>
      </g>
     </g>
     <g id="text_9">
      <!-- 0.4 -->
      <g transform="translate(34.696875 202.519219) scale(0.1 -0.1)">
       <use xlink:href="#DejaVuSans-30"/>
       <use xlink:href="#DejaVuSans-2e" x="63.623047"/>
       <use xlink:href="#DejaVuSans-34" x="95.410156"/>
      </g>
     </g>
    </g>
    <g id="ytick_4">
     <g id="line2d_10">
      <g>
       <use xlink:href="#m031652b466" x="57.6" y="150.336" style="stroke: #000000; stroke-width: 0.8"/>
      </g>
     </g>
     <g id="text_10">
      <!-- 0.6 -->
      <g transform="translate(34.696875 154.135219) scale(0.1 -0.1)">
       <use xlink:href="#DejaVuSans-30"/>
       <use xlink:href="#DejaVuSans-2e" x="63.623047"/>
       <use xlink:href="#DejaVuSans-36" x="95.410156"/>
      </g>
     </g>
    </g>
    <g id="ytick_5">
     <g id="line2d_11">
      <g>
       <use xlink:href="#m031652b466" x="57.6" y="101.952" style="stroke: #000000; stroke-width: 0.8"/>
      </g>
     </g>
     <g id="text_11">
      <!-- 0.8 -->
      <g transform="translate(34.696875 105.751219) scale(0.1 -0.1)">
       <use xlink:href="#DejaVuSans-30"/>
       <use xlink:href="#DejaVuSans-2e" x="63.623047"/>
       <use xlink:href="#DejaVuSans-38" x="95.410156"/>
      </g>
     </g>
    </g>
    <g id="ytick_6">
     <g id="line2d_12">
      <g>
       <use xlink:href="#m031652b466" x="57.6" y="53.568" style="stroke: #000000; stroke-width: 0.8"/>
      </g>
     </g>
     <g id="text_12">
      <!-- 1.0 -->
      <g transform="translate(34.696875 57.367219) scale(0.1 -0.1)">
       <use xlink:href="#DejaVuSans-31"/>
       <use xlink:href="#DejaVuSans-2e" x="63.623047"/>
       <use xlink:href="#DejaVuSans-30" x="95.410156"/>
      </g>
     </g>
    </g>
   </g>
   <g id="line2d_13">
    <path d="M 73.832727 295.488 
L 77.112066 275.981345 
L 80.391405 256.726702 
L 83.670744 237.963224 
L 86.950083 219.905722 
L 90.229421 202.735665 
L 93.50876 186.595384 
L 96.788099 171.585668 
L 100.067438 157.766498 
L 103.346777 145.160331 
L 106.626116 133.757143 
L 109.905455 123.52046 
L 113.184793 114.393641 
L 116.464132 106.30588 
L 119.743471 99.177569 
L 123.02281 92.924793 
L 126.302149 87.46293 
L 129.581488 82.709357 
L 132.860826 78.585378 
L 136.140165 75.017478 
L 139.419504 71.938047 
L 142.698843 69.285691 
L 145.978182 67.005238 
L 149.257521 65.047537 
L 152.53686 63.369114 
L 155.816198 61.931747 
L 159.095537 60.702001 
L 162.374876 59.650754 
L 165.654215 58.75273 
L 168.933554 57.986058 
L 172.212893 57.331862 
L 175.492231 56.773886 
L 178.77157 56.298156 
L 182.050909 55.892678 
L 185.330248 55.547172 
L 188.609587 55.252836 
L 191.888926 55.002141 
L 195.168264 54.788653 
L 198.447603 54.606875 
L 201.726942 54.452116 
L 205.006281 54.320375 
L 208.28562 54.208237 
L 211.564959 54.112792 
L 214.844298 54.031561 
L 218.123636 53.962431 
L 221.402975 53.903602 
L 224.682314 53.853541 
L 227.961653 53.810942 
L 231.240992 53.774695 
L 234.520331 53.743852 
L 237.799669 53.717609 
L 241.079008 53.695281 
L 244.358347 53.676282 
L 247.637686 53.660118 
L 250.917025 53.646365 
L 254.196364 53.634664 
L 257.475702 53.624709 
L 260.755041 53.616239 
L 264.03438 53.609032 
L 267.313719 53.602901 
L 270.593058 53.597685 
L 273.872397 53.593247 
L 277.151736 53.589472 
L 280.431074 53.586259 
L 283.710413 53.583526 
L 286.989752 53.581201 
L 290.269091 53.579223 
L 293.54843 53.57754 
L 296.827769 53.576108 
L 300.107107 53.57489 
L 303.386446 53.573854 
L 306.665785 53.572972 
L 309.945124 53.572222 
L 313.224463 53.571584 
L 316.503802 53.571041 
L 319.78314 53.570579 
L 323.062479 53.570186 
L 326.341818 53.569852 
L 329.621157 53.569567 
L 332.900496 53.569325 
L 336.179835 53.569119 
L 339.459174 53.568944 
L 342.738512 53.568795 
L 346.017851 53.568668 
L 349.29719 53.56856 
L 352.576529 53.568469 
L 355.855868 53.568391 
L 359.135207 53.568324 
L 362.414545 53.568268 
L 365.693884 53.56822 
L 368.973223 53.568179 
L 372.252562 53.568144 
L 375.531901 53.568114 
L 378.81124 53.568089 
L 382.090579 53.568068 
L 385.369917 53.568049 
L 388.649256 53.568034 
L 391.928595 53.568021 
L 395.207934 53.56801 
L 398.487273 53.568 
" clip-path="url(#p3f2bea1ffe)" style="fill: none; stroke: #1f77b4; stroke-width: 1.5; stroke-linecap: square"/>
   </g>
   <g id="line2d_14">
    <path d="M 73.832727 295.488 
L 77.112066 293.83734 
L 80.391405 291.925709 
L 83.670744 289.717291 
L 86.950083 287.173251 
L 90.229421 284.252168 
L 93.50876 280.910744 
L 96.788099 277.104891 
L 100.067438 272.791225 
L 103.346777 267.929032 
L 106.626116 262.482705 
L 109.905455 256.424609 
L 113.184793 249.738255 
L 116.464132 242.421567 
L 119.743471 234.489949 
L 123.02281 225.978762 
L 126.302149 216.944797 
L 129.581488 207.466349 
L 132.860826 197.64162 
L 136.140165 187.58535 
L 139.419504 177.423839 
L 142.698843 167.288775 
L 145.978182 157.310484 
L 149.257521 147.61133 
L 152.53686 138.299949 
L 155.816198 129.466887 
L 159.095537 121.181931 
L 162.374876 113.493205 
L 165.654215 106.427845 
L 168.933554 99.993923 
L 172.212893 94.183211 
L 175.492231 88.974368 
L 178.77157 84.336204 
L 182.050909 80.230748 
L 185.330248 76.615952 
L 188.609587 73.447939 
L 191.888926 70.682784 
L 195.168264 68.277832 
L 198.447603 66.192626 
L 201.726942 64.389504 
L 205.006281 62.833922 
L 208.28562 61.494583 
L 211.564959 60.343414 
L 214.844298 59.355447 
L 218.123636 58.508621 
L 221.402975 57.783565 
L 224.682314 57.163349 
L 227.961653 56.633238 
L 231.240992 56.18045 
L 234.520331 55.793933 
L 237.799669 55.464152 
L 241.079008 55.182897 
L 244.358347 54.943116 
L 247.637686 54.738756 
L 250.917025 54.56463 
L 254.196364 54.416299 
L 257.475702 54.289965 
L 260.755041 54.182384 
L 264.03438 54.090785 
L 267.313719 54.012803 
L 270.593058 53.946421 
L 273.872397 53.889917 
L 277.151736 53.841825 
L 280.431074 53.800896 
L 283.710413 53.766064 
L 286.989752 53.736423 
L 290.269091 53.711199 
L 293.54843 53.689736 
L 296.827769 53.671473 
L 300.107107 53.655933 
L 303.386446 53.642711 
L 306.665785 53.631461 
L 309.945124 53.621889 
L 313.224463 53.613745 
L 316.503802 53.606815 
L 319.78314 53.60092 
L 323.062479 53.595904 
L 326.341818 53.591637 
L 329.621157 53.588006 
L 332.900496 53.584917 
L 336.179835 53.582289 
L 339.459174 53.580053 
L 342.738512 53.57815 
L 346.017851 53.576532 
L 349.29719 53.575155 
L 352.576529 53.573984 
L 355.855868 53.572987 
L 359.135207 53.572139 
L 362.414545 53.571418 
L 365.693884 53.570804 
L 368.973223 53.570282 
L 372.252562 53.569837 
L 375.531901 53.56946 
L 378.81124 53.569138 
L 382.090579 53.568864 
L 385.369917 53.568632 
L 388.649256 53.568434 
L 391.928595 53.568265 
L 395.207934 53.568122 
L 398.487273 53.568 
" clip-path="url(#p3f2bea1ffe)" style="fill: none; stroke: #ff7f0e; stroke-width: 1.5; stroke-linecap: square"/>
   </g>
   <g id="line2d_15">
    <path d="M 73.832727 295.488 
L 77.112066 295.417625 
L 80.391405 295.334957 
L 83.670744 295.237861 
L 86.950083 295.123833 
L 90.229421 294.989941 
L 93.50876 294.832753 
L 96.788099 294.648254 
L 100.067438 294.431753 
L 103.346777 294.177772 
L 106.626116 293.879925 
L 109.905455 293.530774 
L 113.184793 293.121673 
L 116.464132 292.642592 
L 119.743471 292.08192 
L 123.02281 291.426254 
L 126.302149 290.660172 
L 129.581488 289.765996 
L 132.860826 288.723559 
L 136.140165 287.509971 
L 139.419504 286.099426 
L 142.698843 284.463051 
L 145.978182 282.568842 
L 149.257521 280.381725 
L 152.53686 277.863783 
L 155.816198 274.974721 
L 159.095537 271.672618 
L 162.374876 267.915045 
L 165.654215 263.660594 
L 168.933554 258.870859 
L 172.212893 253.512871 
L 175.492231 247.561926 
L 178.77157 241.004678 
L 182.050909 233.84227 
L 185.330248 226.093205 
L 188.609587 217.795567 
L 191.888926 209.008199 
L 195.168264 199.81047 
L 198.447603 190.300394 
L 201.726942 180.591061 
L 205.006281 170.805573 
L 208.28562 161.070942 
L 211.564959 151.511566 
L 214.844298 142.242983 
L 218.123636 133.366558 
L 221.402975 124.965596 
L 224.682314 117.103115 
L 227.961653 109.821296 
L 231.240992 103.142407 
L 234.520331 97.07085 
L 237.799669 91.595929 
L 241.079008 86.694959 
L 244.358347 82.336388 
L 247.637686 78.482687 
L 250.917025 75.092877 
L 254.196364 72.124595 
L 257.475702 69.535717 
L 260.755041 67.285553 
L 264.03438 65.335664 
L 267.313719 63.650383 
L 270.593058 62.197081 
L 273.872397 60.946263 
L 277.151736 59.871517 
L 280.431074 58.949387 
L 283.710413 58.159177 
L 286.989752 57.48273 
L 290.269091 56.904192 
L 293.54843 56.409776 
L 296.827769 55.98753 
L 300.107107 55.627122 
L 303.386446 55.319645 
L 306.665785 55.057433 
L 309.945124 54.833902 
L 313.224463 54.643401 
L 316.503802 54.481092 
L 319.78314 54.342833 
L 323.062479 54.225082 
L 326.341818 54.124813 
L 329.621157 54.039441 
L 332.900496 53.966762 
L 336.179835 53.904895 
L 339.459174 53.852236 
L 342.738512 53.807417 
L 346.017851 53.769273 
L 349.29719 53.736812 
L 352.576529 53.709189 
L 355.855868 53.685683 
L 359.135207 53.665681 
L 362.414545 53.648661 
L 365.693884 53.63418 
L 368.973223 53.621858 
L 372.252562 53.611374 
L 375.531901 53.602454 
L 378.81124 53.594864 
L 382.090579 53.588407 
L 385.369917 53.582913 
L 388.649256 53.578239 
L 391.928595 53.574262 
L 395.207934 53.570879 
L 398.487273 53.568 
" clip-path="url(#p3f2bea1ffe)" style="fill: none; stroke: #2ca02c; stroke-width: 1.5; stroke-linecap: square"/>
   </g>
   <g id="line2d_16">
    <path d="M 73.832727 295.488 
L 77.112066 295.485121 
L 80.391405 295.481738 
L 83.670744 295.477761 
L 86.950083 295.473087 
L 90.229421 295.467593 
L 93.50876 295.461136 
L 96.788099 295.453546 
L 100.067438 295.444626 
L 103.346777 295.434142 
L 106.626116 295.42182 
L 109.905455 295.407339 
L 113.184793 295.390319 
L 116.464132 295.370317 
L 119.743471 295.346811 
L 123.02281 295.319188 
L 126.302149 295.286727 
L 129.581488 295.248583 
L 132.860826 295.203764 
L 136.140165 295.151105 
L 139.419504 295.089238 
L 142.698843 295.016559 
L 145.978182 294.931187 
L 149.257521 294.830918 
L 152.53686 294.713167 
L 155.816198 294.574908 
L 159.095537 294.412599 
L 162.374876 294.222098 
L 165.654215 293.998567 
L 168.933554 293.736355 
L 172.212893 293.428878 
L 175.492231 293.06847 
L 178.77157 292.646224 
L 182.050909 292.151808 
L 185.330248 291.57327 
L 188.609587 290.896823 
L 191.888926 290.106613 
L 195.168264 289.184483 
L 198.447603 288.109737 
L 201.726942 286.858919 
L 205.006281 285.405617 
L 208.28562 283.720336 
L 211.564959 281.770447 
L 214.844298 279.520283 
L 218.123636 276.931405 
L 221.402975 273.963123 
L 224.682314 270.573313 
L 227.961653 266.719612 
L 231.240992 262.361041 
L 234.520331 257.460071 
L 237.799669 251.98515 
L 241.079008 245.913593 
L 244.358347 239.234704 
L 247.637686 231.952885 
L 250.917025 224.090404 
L 254.196364 215.689442 
L 257.475702 206.813017 
L 260.755041 197.544434 
L 264.03438 187.985058 
L 267.313719 178.250427 
L 270.593058 168.464939 
L 273.872397 158.755606 
L 277.151736 149.24553 
L 280.431074 140.047801 
L 283.710413 131.260433 
L 286.989752 122.962795 
L 290.269091 115.21373 
L 293.54843 108.051322 
L 296.827769 101.494074 
L 300.107107 95.543129 
L 303.386446 90.185141 
L 306.665785 85.395406 
L 309.945124 81.140955 
L 313.224463 77.383382 
L 316.503802 74.081279 
L 319.78314 71.192217 
L 323.062479 68.674275 
L 326.341818 66.487158 
L 329.621157 64.592949 
L 332.900496 62.956574 
L 336.179835 61.546029 
L 339.459174 60.332441 
L 342.738512 59.290004 
L 346.017851 58.395828 
L 349.29719 57.629746 
L 352.576529 56.97408 
L 355.855868 56.413408 
L 359.135207 55.934327 
L 362.414545 55.525226 
L 365.693884 55.176075 
L 368.973223 54.878228 
L 372.252562 54.624247 
L 375.531901 54.407746 
L 378.81124 54.223247 
L 382.090579 54.066059 
L 385.369917 53.932167 
L 388.649256 53.818139 
L 391.928595 53.721043 
L 395.207934 53.638375 
L 398.487273 53.568 
" clip-path="url(#p3f2bea1ffe)" style="fill: none; stroke: #d62728; stroke-width: 1.5; stroke-linecap: square"/>
   </g>
   <g id="line2d_17">
    <path d="M 73.832727 295.488 
L 77.112066 295.487878 
L 80.391405 295.487735 
L 83.670744 295.487566 
L 86.950083 295.487368 
L 90.229421 295.487136 
L 93.50876 295.486862 
L 96.788099 295.48654 
L 100.067438 295.486163 
L 103.346777 295.485718 
L 106.626116 295.485196 
L 109.905455 295.484582 
L 113.184793 295.483861 
L 116.464132 295.483013 
L 119.743471 295.482016 
L 123.02281 295.480845 
L 126.302149 295.479468 
L 129.581488 295.47785 
L 132.860826 295.475947 
L 136.140165 295.473711 
L 139.419504 295.471083 
L 142.698843 295.467994 
L 145.978182 295.464363 
L 149.257521 295.460096 
L 152.53686 295.45508 
L 155.816198 295.449185 
L 159.095537 295.442255 
L 162.374876 295.434111 
L 165.654215 295.424539 
L 168.933554 295.413289 
L 172.212893 295.400067 
L 175.492231 295.384527 
L 178.77157 295.366264 
L 182.050909 295.344801 
L 185.330248 295.319577 
L 188.609587 295.289936 
L 191.888926 295.255104 
L 195.168264 295.214175 
L 198.447603 295.166083 
L 201.726942 295.109579 
L 205.006281 295.043197 
L 208.28562 294.965215 
L 211.564959 294.873616 
L 214.844298 294.766035 
L 218.123636 294.639701 
L 221.402975 294.49137 
L 224.682314 294.317244 
L 227.961653 294.112884 
L 231.240992 293.873103 
L 234.520331 293.591848 
L 237.799669 293.262067 
L 241.079008 292.87555 
L 244.358347 292.422762 
L 247.637686 291.892651 
L 250.917025 291.272435 
L 254.196364 290.547379 
L 257.475702 289.700553 
L 260.755041 288.712586 
L 264.03438 287.561417 
L 267.313719 286.222078 
L 270.593058 284.666496 
L 273.872397 282.863374 
L 277.151736 280.778168 
L 280.431074 278.373216 
L 283.710413 275.608061 
L 286.989752 272.440048 
L 290.269091 268.825252 
L 293.54843 264.719796 
L 296.827769 260.081632 
L 300.107107 254.872789 
L 303.386446 249.062077 
L 306.665785 242.628155 
L 309.945124 235.562795 
L 313.224463 227.874069 
L 316.503802 219.589113 
L 319.78314 210.756051 
L 323.062479 201.44467 
L 326.341818 191.745516 
L 329.621157 181.767225 
L 332.900496 171.632161 
L 336.179835 161.47065 
L 339.459174 151.41438 
L 342.738512 141.589651 
L 346.017851 132.111203 
L 349.29719 123.077238 
L 352.576529 114.566051 
L 355.855868 106.634433 
L 359.135207 99.317745 
L 362.414545 92.631391 
L 365.693884 86.573295 
L 368.973223 81.126968 
L 372.252562 76.264775 
L 375.531901 71.951109 
L 378.81124 68.145256 
L 382.090579 64.803832 
L 385.369917 61.882749 
L 388.649256 59.338709 
L 391.928595 57.130291 
L 395.207934 55.21866 
L 398.487273 53.568 
" clip-path="url(#p3f2bea1ffe)" style="fill: none; stroke: #9467bd; stroke-width: 1.5; stroke-linecap: square"/>
   </g>
   <g id="line2d_18">
    <path d="M 73.832727 295.488 
L 77.112066 295.48799 
L 80.391405 295.487979 
L 83.670744 295.487966 
L 86.950083 295.487951 
L 90.229421 295.487932 
L 93.50876 295.487911 
L 96.788099 295.487886 
L 100.067438 295.487856 
L 103.346777 295.487821 
L 106.626116 295.48778 
L 109.905455 295.487732 
L 113.184793 295.487676 
L 116.464132 295.487609 
L 119.743471 295.487531 
L 123.02281 295.48744 
L 126.302149 295.487332 
L 129.581488 295.487205 
L 132.860826 295.487056 
L 136.140165 295.486881 
L 139.419504 295.486675 
L 142.698843 295.486433 
L 145.978182 295.486148 
L 149.257521 295.485814 
L 152.53686 295.485421 
L 155.816198 295.484959 
L 159.095537 295.484416 
L 162.374876 295.483778 
L 165.654215 295.483028 
L 168.933554 295.482146 
L 172.212893 295.48111 
L 175.492231 295.479892 
L 178.77157 295.47846 
L 182.050909 295.476777 
L 185.330248 295.474799 
L 188.609587 295.472474 
L 191.888926 295.469741 
L 195.168264 295.466528 
L 198.447603 295.462753 
L 201.726942 295.458315 
L 205.006281 295.453099 
L 208.28562 295.446968 
L 211.564959 295.439761 
L 214.844298 295.431291 
L 218.123636 295.421336 
L 221.402975 295.409635 
L 224.682314 295.395882 
L 227.961653 295.379718 
L 231.240992 295.360719 
L 234.520331 295.338391 
L 237.799669 295.312148 
L 241.079008 295.281305 
L 244.358347 295.245058 
L 247.637686 295.202459 
L 250.917025 295.152398 
L 254.196364 295.093569 
L 257.475702 295.024439 
L 260.755041 294.943208 
L 264.03438 294.847763 
L 267.313719 294.735625 
L 270.593058 294.603884 
L 273.872397 294.449125 
L 277.151736 294.267347 
L 280.431074 294.053859 
L 283.710413 293.803164 
L 286.989752 293.508828 
L 290.269091 293.163322 
L 293.54843 292.757844 
L 296.827769 292.282114 
L 300.107107 291.724138 
L 303.386446 291.069942 
L 306.665785 290.30327 
L 309.945124 289.405246 
L 313.224463 288.353999 
L 316.503802 287.124253 
L 319.78314 285.686886 
L 323.062479 284.008463 
L 326.341818 282.050762 
L 329.621157 279.770309 
L 332.900496 277.117953 
L 336.179835 274.038522 
L 339.459174 270.470622 
L 342.738512 266.346643 
L 346.017851 261.59307 
L 349.29719 256.131207 
L 352.576529 249.878431 
L 355.855868 242.75012 
L 359.135207 234.662359 
L 362.414545 225.53554 
L 365.693884 215.298857 
L 368.973223 203.895669 
L 372.252562 191.289502 
L 375.531901 177.470332 
L 378.81124 162.460616 
L 382.090579 146.320335 
L 385.369917 129.150278 
L 388.649256 111.092776 
L 391.928595 92.329298 
L 395.207934 73.074655 
L 398.487273 53.568 
" clip-path="url(#p3f2bea1ffe)" style="fill: none; stroke: #8c564b; stroke-width: 1.5; stroke-linecap: square"/>
   </g>
   <g id="patch_3">
    <path d="M 57.6 307.584 
L 57.6 41.472 
" style="fill: none; stroke: #000000; stroke-width: 0.8; stroke-linejoin: miter; stroke-linecap: square"/>
   </g>
   <g id="patch_4">
    <path d="M 414.72 307.584 
L 414.72 41.472 
" style="fill: none; stroke: #000000; stroke-width: 0.8; stroke-linejoin: miter; stroke-linecap: square"/>
   </g>
   <g id="patch_5">
    <path d="M 57.6 307.584 
L 414.72 307.584 
" style="fill: none; stroke: #000000; stroke-width: 0.8; stroke-linejoin: miter; stroke-linecap: square"/>
   </g>
   <g id="patch_6">
    <path d="M 57.6 41.472 
L 414.72 41.472 
" style="fill: none; stroke: #000000; stroke-width: 0.8; stroke-linejoin: miter; stroke-linecap: square"/>
   </g>
   <g id="legend_1">
    <g id="patch_7">
     <path d="M 64.6 137.54075 
L 131.2 137.54075 
Q 133.2 137.54075 133.2 135.54075 
L 133.2 48.472 
Q 133.2 46.472 131.2 46.472 
L 64.6 46.472 
Q 62.6 46.472 62.6 48.472 
L 62.6 135.54075 
Q 62.6 137.54075 64.6 137.54075 
z
" style="fill: #ffffff; opacity: 0.8; stroke: #cccccc; stroke-linejoin: miter"/>
    </g>
    <g id="line2d_19">
     <path d="M 66.6 54.570438 
L 76.6 54.570438 
L 86.6 54.570438 
" style="fill: none; stroke: #1f77b4; stroke-width: 1.5; stroke-linecap: square"/>
    </g>
    <g id="text_13">
     <!-- $b=0.0$ -->
     <g transform="translate(94.6 58.070438) scale(0.1 -0.1)">
      <defs>
       <path id="DejaVuSans-Oblique-62" d="M 3169 2138 
Q 3169 2591 2961 2847 
Q 2753 3103 2388 3103 
Q 2122 3103 1889 2973 
Q 1656 2844 1484 2597 
Q 1303 2338 1198 1995 
Q 1094 1653 1094 1313 
Q 1094 881 1298 636 
Q 1503 391 1863 391 
Q 2134 391 2365 517 
Q 2597 644 2772 891 
Q 2950 1147 3059 1487 
Q 3169 1828 3169 2138 
z
M 1381 2969 
Q 1594 3256 1914 3420 
Q 2234 3584 2584 3584 
Q 3122 3584 3439 3221 
Q 3756 2859 3756 2241 
Q 3756 1734 3570 1259 
Q 3384 784 3041 416 
Q 2816 172 2522 40 
Q 2228 -91 1906 -91 
Q 1566 -91 1316 65 
Q 1066 222 909 531 
L 806 0 
L 231 0 
L 1178 4863 
L 1753 4863 
L 1381 2969 
z
" transform="scale(0.015625)"/>
       <path id="DejaVuSans-3d" d="M 678 2906 
L 4684 2906 
L 4684 2381 
L 678 2381 
L 678 2906 
z
M 678 1631 
L 4684 1631 
L 4684 1100 
L 678 1100 
L 678 1631 
z
" transform="scale(0.015625)"/>
      </defs>
      <use xlink:href="#DejaVuSans-Oblique-62" transform="translate(0 0.015625)"/>
      <use xlink:href="#DejaVuSans-3d" transform="translate(82.958984 0.015625)"/>
      <use xlink:href="#DejaVuSans-30" transform="translate(186.230469 0.015625)"/>
      <use xlink:href="#DejaVuSans-2e" transform="translate(249.853516 0.015625)"/>
      <use xlink:href="#DejaVuSans-30" transform="translate(281.640625 0.015625)"/>
     </g>
    </g>
    <g id="line2d_20">
     <path d="M 66.6 69.248563 
L 76.6 69.248563 
L 86.6 69.248563 
" style="fill: none; stroke: #ff7f0e; stroke-width: 1.5; stroke-linecap: square"/>
    </g>
    <g id="text_14">
     <!-- $b=0.2$ -->
     <g transform="translate(94.6 72.748563) scale(0.1 -0.1)">
      <use xlink:href="#DejaVuSans-Oblique-62" transform="translate(0 0.015625)"/>
      <use xlink:href="#DejaVuSans-3d" transform="translate(82.958984 0.015625)"/>
      <use xlink:href="#DejaVuSans-30" transform="translate(186.230469 0.015625)"/>
      <use xlink:href="#DejaVuSans-2e" transform="translate(249.853516 0.015625)"/>
      <use xlink:href="#DejaVuSans-32" transform="translate(276.140625 0.015625)"/>
     </g>
    </g>
    <g id="line2d_21">
     <path d="M 66.6 83.926688 
L 76.6 83.926688 
L 86.6 83.926688 
" style="fill: none; stroke: #2ca02c; stroke-width: 1.5; stroke-linecap: square"/>
    </g>
    <g id="text_15">
     <!-- $b=0.4$ -->
     <g transform="translate(94.6 87.426688) scale(0.1 -0.1)">
      <use xlink:href="#DejaVuSans-Oblique-62" transform="translate(0 0.015625)"/>
      <use xlink:href="#DejaVuSans-3d" transform="translate(82.958984 0.015625)"/>
      <use xlink:href="#DejaVuSans-30" transform="translate(186.230469 0.015625)"/>
      <use xlink:href="#DejaVuSans-2e" transform="translate(249.853516 0.015625)"/>
      <use xlink:href="#DejaVuSans-34" transform="translate(281.640625 0.015625)"/>
     </g>
    </g>
    <g id="line2d_22">
     <path d="M 66.6 98.604813 
L 76.6 98.604813 
L 86.6 98.604813 
" style="fill: none; stroke: #d62728; stroke-width: 1.5; stroke-linecap: square"/>
    </g>
    <g id="text_16">
     <!-- $b=0.6$ -->
     <g transform="translate(94.6 102.104813) scale(0.1 -0.1)">
      <use xlink:href="#DejaVuSans-Oblique-62" transform="translate(0 0.015625)"/>
      <use xlink:href="#DejaVuSans-3d" transform="translate(82.958984 0.015625)"/>
      <use xlink:href="#DejaVuSans-30" transform="translate(186.230469 0.015625)"/>
      <use xlink:href="#DejaVuSans-2e" transform="translate(249.853516 0.015625)"/>
      <use xlink:href="#DejaVuSans-36" transform="translate(281.640625 0.015625)"/>
     </g>
    </g>
    <g id="line2d_23">
     <path d="M 66.6 113.282938 
L 76.6 113.282938 
L 86.6 113.282938 
" style="fill: none; stroke: #9467bd; stroke-width: 1.5; stroke-linecap: square"/>
    </g>
    <g id="text_17">
     <!-- $b=0.8$ -->
     <g transform="translate(94.6 116.782938) scale(0.1 -0.1)">
      <use xlink:href="#DejaVuSans-Oblique-62" transform="translate(0 0.015625)"/>
      <use xlink:href="#DejaVuSans-3d" transform="translate(82.958984 0.015625)"/>
      <use xlink:href="#DejaVuSans-30" transform="translate(186.230469 0.015625)"/>
      <use xlink:href="#DejaVuSans-2e" transform="translate(249.853516 0.015625)"/>
      <use xlink:href="#DejaVuSans-38" transform="translate(279.015625 0.015625)"/>
     </g>
    </g>
    <g id="line2d_24">
     <path d="M 66.6 127.961063 
L 76.6 127.961063 
L 86.6 127.961063 
" style="fill: none; stroke: #8c564b; stroke-width: 1.5; stroke-linecap: square"/>
    </g>
    <g id="text_18">
     <!-- $b=1.0$ -->
     <g transform="translate(94.6 131.461063) scale(0.1 -0.1)">
      <use xlink:href="#DejaVuSans-Oblique-62" transform="translate(0 0.015625)"/>
      <use xlink:href="#DejaVuSans-3d" transform="translate(82.958984 0.015625)"/>
      <use xlink:href="#DejaVuSans-31" transform="translate(186.230469 0.015625)"/>
      <use xlink:href="#DejaVuSans-2e" transform="translate(249.853516 0.015625)"/>
      <use xlink:href="#DejaVuSans-30" transform="translate(281.640625 0.015625)"/>
     </g>
    </g>
   </g>
  </g>
 </g>
 <defs>
  <clipPath id="p3f2bea1ffe">
   <rect x="57.6" y="41.472" width="357.12" height="266.112"/>
  </clipPath>
 </defs>
</svg>
