<?xml version="1.0" encoding="utf-8" standalone="no"?>
<!DOCTYPE svg PUBLIC "-//W3C//DTD SVG 1.1//EN"
  "http://www.w3.org/Graphics/SVG/1.1/DTD/svg11.dtd">
<svg xmlns:xlink="http://www.w3.org/1999/xlink" width="460.8pt" height="345.6pt" viewBox="0 0 460.8 345.6" xmlns="http://www.w3.org/2000/svg" version="1.1">
 <metadata>
  <rdf:RDF xmlns:dc="http://purl.org/dc/elements/1.1/" xmlns:cc="http://creativecommons.org/ns#" xmlns:rdf="http://www.w3.org/1999/02/22-rdf-syntax-ns#">
   <cc:Work>
    <dc:type rdf:resource="http://purl.org/dc/dcmitype/StillImage"/>
    <dc:date>2023-09-03T14:33:42.826968</dc:date>
    <dc:format>image/svg+xml</dc:format>
    <dc:creator>
     <cc:Agent>
      <dc:title>Matplotlib v3.7.2, https://matplotlib.org/</dc:title>
     </cc:Agent>
    </dc:creator>
   </cc:Work>
  </rdf:RDF>
 </metadata>
 <defs>
  <style type="text/css">*{stroke-linejoin: round; stroke-linecap: butt}</style>
 </defs>
 <g id="figure_1">
  <g id="patch_1">
   <path d="M 0 345.6 
L 460.8 345.6 
L 460.8 0 
L 0 0 
z
" style="fill: #ffffff"/>
  </g>
  <g id="axes_1">
   <g id="patch_2">
    <path d="M 57.6 307.584 
L 414.72 307.584 
L 414.72 41.472 
L 57.6 41.472 
z
" style="fill: #ffffff"/>
   </g>
   <g id="matplotlib.axis_1">
    <g id="xtick_1">
     <g id="line2d_1">
      <defs>
       <path id="m3842356360" d="M 0 0 
L 0 3.5 
" style="stroke: #000000; stroke-width: 0.8"/>
      </defs>
      <g>
       <use xlink:href="#m3842356360" x="73.832727" y="307.584" style="stroke: #000000; stroke-width: 0.8"/>
      </g>
     </g>
     <g id="text_1">
      <!-- −1.00 -->
      <g transform="translate(58.510071 322.182437) scale(0.1 -0.1)">
       <defs>
        <path id="DejaVuSans-2212" d="M 678 2272 
L 4684 2272 
L 4684 1741 
L 678 1741 
L 678 2272 
z
" transform="scale(0.015625)"/>
        <path id="DejaVuSans-31" d="M 794 531 
L 1825 531 
L 1825 4091 
L 703 3866 
L 703 4441 
L 1819 4666 
L 2450 4666 
L 2450 531 
L 3481 531 
L 3481 0 
L 794 0 
L 794 531 
z
" transform="scale(0.015625)"/>
        <path id="DejaVuSans-2e" d="M 684 794 
L 1344 794 
L 1344 0 
L 684 0 
L 684 794 
z
" transform="scale(0.015625)"/>
        <path id="DejaVuSans-30" d="M 2034 4250 
Q 1547 4250 1301 3770 
Q 1056 3291 1056 2328 
Q 1056 1369 1301 889 
Q 1547 409 2034 409 
Q 2525 409 2770 889 
Q 3016 1369 3016 2328 
Q 3016 3291 2770 3770 
Q 2525 4250 2034 4250 
z
M 2034 4750 
Q 2819 4750 3233 4129 
Q 3647 3509 3647 2328 
Q 3647 1150 3233 529 
Q 2819 -91 2034 -91 
Q 1250 -91 836 529 
Q 422 1150 422 2328 
Q 422 3509 836 4129 
Q 1250 4750 2034 4750 
z
" transform="scale(0.015625)"/>
       </defs>
       <use xlink:href="#DejaVuSans-2212"/>
       <use xlink:href="#DejaVuSans-31" x="83.789062"/>
       <use xlink:href="#DejaVuSans-2e" x="147.412109"/>
       <use xlink:href="#DejaVuSans-30" x="179.199219"/>
       <use xlink:href="#DejaVuSans-30" x="242.822266"/>
      </g>
     </g>
    </g>
    <g id="xtick_2">
     <g id="line2d_2">
      <g>
       <use xlink:href="#m3842356360" x="114.414545" y="307.584" style="stroke: #000000; stroke-width: 0.8"/>
      </g>
     </g>
     <g id="text_2">
      <!-- −0.75 -->
      <g transform="translate(99.091889 322.182437) scale(0.1 -0.1)">
       <defs>
        <path id="DejaVuSans-37" d="M 525 4666 
L 3525 4666 
L 3525 4397 
L 1831 0 
L 1172 0 
L 2766 4134 
L 525 4134 
L 525 4666 
z
" transform="scale(0.015625)"/>
        <path id="DejaVuSans-35" d="M 691 4666 
L 3169 4666 
L 3169 4134 
L 1269 4134 
L 1269 2991 
Q 1406 3038 1543 3061 
Q 1681 3084 1819 3084 
Q 2600 3084 3056 2656 
Q 3513 2228 3513 1497 
Q 3513 744 3044 326 
Q 2575 -91 1722 -91 
Q 1428 -91 1123 -41 
Q 819 9 494 109 
L 494 744 
Q 775 591 1075 516 
Q 1375 441 1709 441 
Q 2250 441 2565 725 
Q 2881 1009 2881 1497 
Q 2881 1984 2565 2268 
Q 2250 2553 1709 2553 
Q 1456 2553 1204 2497 
Q 953 2441 691 2322 
L 691 4666 
z
" transform="scale(0.015625)"/>
       </defs>
       <use xlink:href="#DejaVuSans-2212"/>
       <use xlink:href="#DejaVuSans-30" x="83.789062"/>
       <use xlink:href="#DejaVuSans-2e" x="147.412109"/>
       <use xlink:href="#DejaVuSans-37" x="179.199219"/>
       <use xlink:href="#DejaVuSans-35" x="242.822266"/>
      </g>
     </g>
    </g>
    <g id="xtick_3">
     <g id="line2d_3">
      <g>
       <use xlink:href="#m3842356360" x="154.996364" y="307.584" style="stroke: #000000; stroke-width: 0.8"/>
      </g>
     </g>
     <g id="text_3">
      <!-- −0.50 -->
      <g transform="translate(139.673707 322.182437) scale(0.1 -0.1)">
       <use xlink:href="#DejaVuSans-2212"/>
       <use xlink:href="#DejaVuSans-30" x="83.789062"/>
       <use xlink:href="#DejaVuSans-2e" x="147.412109"/>
       <use xlink:href="#DejaVuSans-35" x="179.199219"/>
       <use xlink:href="#DejaVuSans-30" x="242.822266"/>
      </g>
     </g>
    </g>
    <g id="xtick_4">
     <g id="line2d_4">
      <g>
       <use xlink:href="#m3842356360" x="195.578182" y="307.584" style="stroke: #000000; stroke-width: 0.8"/>
      </g>
     </g>
     <g id="text_4">
      <!-- −0.25 -->
      <g transform="translate(180.255526 322.182437) scale(0.1 -0.1)">
       <defs>
        <path id="DejaVuSans-32" d="M 1228 531 
L 3431 531 
L 3431 0 
L 469 0 
L 469 531 
Q 828 903 1448 1529 
Q 2069 2156 2228 2338 
Q 2531 2678 2651 2914 
Q 2772 3150 2772 3378 
Q 2772 3750 2511 3984 
Q 2250 4219 1831 4219 
Q 1534 4219 1204 4116 
Q 875 4013 500 3803 
L 500 4441 
Q 881 4594 1212 4672 
Q 1544 4750 1819 4750 
Q 2544 4750 2975 4387 
Q 3406 4025 3406 3419 
Q 3406 3131 3298 2873 
Q 3191 2616 2906 2266 
Q 2828 2175 2409 1742 
Q 1991 1309 1228 531 
z
" transform="scale(0.015625)"/>
       </defs>
       <use xlink:href="#DejaVuSans-2212"/>
       <use xlink:href="#DejaVuSans-30" x="83.789062"/>
       <use xlink:href="#DejaVuSans-2e" x="147.412109"/>
       <use xlink:href="#DejaVuSans-32" x="179.199219"/>
       <use xlink:href="#DejaVuSans-35" x="242.822266"/>
      </g>
     </g>
    </g>
    <g id="xtick_5">
     <g id="line2d_5">
      <g>
       <use xlink:href="#m3842356360" x="236.16" y="307.584" style="stroke: #000000; stroke-width: 0.8"/>
      </g>
     </g>
     <g id="text_5">
      <!-- 0.00 -->
      <g transform="translate(225.027187 322.182437) scale(0.1 -0.1)">
       <use xlink:href="#DejaVuSans-30"/>
       <use xlink:href="#DejaVuSans-2e" x="63.623047"/>
       <use xlink:href="#DejaVuSans-30" x="95.410156"/>
       <use xlink:href="#DejaVuSans-30" x="159.033203"/>
      </g>
     </g>
    </g>
    <g id="xtick_6">
     <g id="line2d_6">
      <g>
       <use xlink:href="#m3842356360" x="276.741818" y="307.584" style="stroke: #000000; stroke-width: 0.8"/>
      </g>
     </g>
     <g id="text_6">
      <!-- 0.25 -->
      <g transform="translate(265.609006 322.182437) scale(0.1 -0.1)">
       <use xlink:href="#DejaVuSans-30"/>
       <use xlink:href="#DejaVuSans-2e" x="63.623047"/>
       <use xlink:href="#DejaVuSans-32" x="95.410156"/>
       <use xlink:href="#DejaVuSans-35" x="159.033203"/>
      </g>
     </g>
    </g>
    <g id="xtick_7">
     <g id="line2d_7">
      <g>
       <use xlink:href="#m3842356360" x="317.323636" y="307.584" style="stroke: #000000; stroke-width: 0.8"/>
      </g>
     </g>
     <g id="text_7">
      <!-- 0.50 -->
      <g transform="translate(306.190824 322.182437) scale(0.1 -0.1)">
       <use xlink:href="#DejaVuSans-30"/>
       <use xlink:href="#DejaVuSans-2e" x="63.623047"/>
       <use xlink:href="#DejaVuSans-35" x="95.410156"/>
       <use xlink:href="#DejaVuSans-30" x="159.033203"/>
      </g>
     </g>
    </g>
    <g id="xtick_8">
     <g id="line2d_8">
      <g>
       <use xlink:href="#m3842356360" x="357.905455" y="307.584" style="stroke: #000000; stroke-width: 0.8"/>
      </g>
     </g>
     <g id="text_8">
      <!-- 0.75 -->
      <g transform="translate(346.772642 322.182437) scale(0.1 -0.1)">
       <use xlink:href="#DejaVuSans-30"/>
       <use xlink:href="#DejaVuSans-2e" x="63.623047"/>
       <use xlink:href="#DejaVuSans-37" x="95.410156"/>
       <use xlink:href="#DejaVuSans-35" x="159.033203"/>
      </g>
     </g>
    </g>
    <g id="xtick_9">
     <g id="line2d_9">
      <g>
       <use xlink:href="#m3842356360" x="398.487273" y="307.584" style="stroke: #000000; stroke-width: 0.8"/>
      </g>
     </g>
     <g id="text_9">
      <!-- 1.00 -->
      <g transform="translate(387.35446 322.182437) scale(0.1 -0.1)">
       <use xlink:href="#DejaVuSans-31"/>
       <use xlink:href="#DejaVuSans-2e" x="63.623047"/>
       <use xlink:href="#DejaVuSans-30" x="95.410156"/>
       <use xlink:href="#DejaVuSans-30" x="159.033203"/>
      </g>
     </g>
    </g>
    <g id="text_10">
     <!-- VMC -->
     <g transform="translate(224.934219 335.860562) scale(0.1 -0.1)">
      <defs>
       <path id="DejaVuSans-56" d="M 1831 0 
L 50 4666 
L 709 4666 
L 2188 738 
L 3669 4666 
L 4325 4666 
L 2547 0 
L 1831 0 
z
" transform="scale(0.015625)"/>
       <path id="DejaVuSans-4d" d="M 628 4666 
L 1569 4666 
L 2759 1491 
L 3956 4666 
L 4897 4666 
L 4897 0 
L 4281 0 
L 4281 4097 
L 3078 897 
L 2444 897 
L 1241 4097 
L 1241 0 
L 628 0 
L 628 4666 
z
" transform="scale(0.015625)"/>
       <path id="DejaVuSans-43" d="M 4122 4306 
L 4122 3641 
Q 3803 3938 3442 4084 
Q 3081 4231 2675 4231 
Q 1875 4231 1450 3742 
Q 1025 3253 1025 2328 
Q 1025 1406 1450 917 
Q 1875 428 2675 428 
Q 3081 428 3442 575 
Q 3803 722 4122 1019 
L 4122 359 
Q 3791 134 3420 21 
Q 3050 -91 2638 -91 
Q 1578 -91 968 557 
Q 359 1206 359 2328 
Q 359 3453 968 4101 
Q 1578 4750 2638 4750 
Q 3056 4750 3426 4639 
Q 3797 4528 4122 4306 
z
" transform="scale(0.015625)"/>
      </defs>
      <use xlink:href="#DejaVuSans-56"/>
      <use xlink:href="#DejaVuSans-4d" x="68.408203"/>
      <use xlink:href="#DejaVuSans-43" x="154.6875"/>
     </g>
    </g>
   </g>
   <g id="matplotlib.axis_2">
    <g id="ytick_1">
     <g id="line2d_10">
      <defs>
       <path id="m8d62154d56" d="M 0 0 
L -3.5 0 
" style="stroke: #000000; stroke-width: 0.8"/>
      </defs>
      <g>
       <use xlink:href="#m8d62154d56" x="57.6" y="295.488" style="stroke: #000000; stroke-width: 0.8"/>
      </g>
     </g>
     <g id="text_11">
      <!-- −1.00 -->
      <g transform="translate(19.954687 299.287219) scale(0.1 -0.1)">
       <use xlink:href="#DejaVuSans-2212"/>
       <use xlink:href="#DejaVuSans-31" x="83.789062"/>
       <use xlink:href="#DejaVuSans-2e" x="147.412109"/>
       <use xlink:href="#DejaVuSans-30" x="179.199219"/>
       <use xlink:href="#DejaVuSans-30" x="242.822266"/>
      </g>
     </g>
    </g>
    <g id="ytick_2">
     <g id="line2d_11">
      <g>
       <use xlink:href="#m8d62154d56" x="57.6" y="265.248" style="stroke: #000000; stroke-width: 0.8"/>
      </g>
     </g>
     <g id="text_12">
      <!-- −0.75 -->
      <g transform="translate(19.954687 269.047219) scale(0.1 -0.1)">
       <use xlink:href="#DejaVuSans-2212"/>
       <use xlink:href="#DejaVuSans-30" x="83.789062"/>
       <use xlink:href="#DejaVuSans-2e" x="147.412109"/>
       <use xlink:href="#DejaVuSans-37" x="179.199219"/>
       <use xlink:href="#DejaVuSans-35" x="242.822266"/>
      </g>
     </g>
    </g>
    <g id="ytick_3">
     <g id="line2d_12">
      <g>
       <use xlink:href="#m8d62154d56" x="57.6" y="235.008" style="stroke: #000000; stroke-width: 0.8"/>
      </g>
     </g>
     <g id="text_13">
      <!-- −0.50 -->
      <g transform="translate(19.954687 238.807219) scale(0.1 -0.1)">
       <use xlink:href="#DejaVuSans-2212"/>
       <use xlink:href="#DejaVuSans-30" x="83.789062"/>
       <use xlink:href="#DejaVuSans-2e" x="147.412109"/>
       <use xlink:href="#DejaVuSans-35" x="179.199219"/>
       <use xlink:href="#DejaVuSans-30" x="242.822266"/>
      </g>
     </g>
    </g>
    <g id="ytick_4">
     <g id="line2d_13">
      <g>
       <use xlink:href="#m8d62154d56" x="57.6" y="204.768" style="stroke: #000000; stroke-width: 0.8"/>
      </g>
     </g>
     <g id="text_14">
      <!-- −0.25 -->
      <g transform="translate(19.954687 208.567219) scale(0.1 -0.1)">
       <use xlink:href="#DejaVuSans-2212"/>
       <use xlink:href="#DejaVuSans-30" x="83.789062"/>
       <use xlink:href="#DejaVuSans-2e" x="147.412109"/>
       <use xlink:href="#DejaVuSans-32" x="179.199219"/>
       <use xlink:href="#DejaVuSans-35" x="242.822266"/>
      </g>
     </g>
    </g>
    <g id="ytick_5">
     <g id="line2d_14">
      <g>
       <use xlink:href="#m8d62154d56" x="57.6" y="174.528" style="stroke: #000000; stroke-width: 0.8"/>
      </g>
     </g>
     <g id="text_15">
      <!-- 0.00 -->
      <g transform="translate(28.334375 178.327219) scale(0.1 -0.1)">
       <use xlink:href="#DejaVuSans-30"/>
       <use xlink:href="#DejaVuSans-2e" x="63.623047"/>
       <use xlink:href="#DejaVuSans-30" x="95.410156"/>
       <use xlink:href="#DejaVuSans-30" x="159.033203"/>
      </g>
     </g>
    </g>
    <g id="ytick_6">
     <g id="line2d_15">
      <g>
       <use xlink:href="#m8d62154d56" x="57.6" y="144.288" style="stroke: #000000; stroke-width: 0.8"/>
      </g>
     </g>
     <g id="text_16">
      <!-- 0.25 -->
      <g transform="translate(28.334375 148.087219) scale(0.1 -0.1)">
       <use xlink:href="#DejaVuSans-30"/>
       <use xlink:href="#DejaVuSans-2e" x="63.623047"/>
       <use xlink:href="#DejaVuSans-32" x="95.410156"/>
       <use xlink:href="#DejaVuSans-35" x="159.033203"/>
      </g>
     </g>
    </g>
    <g id="ytick_7">
     <g id="line2d_16">
      <g>
       <use xlink:href="#m8d62154d56" x="57.6" y="114.048" style="stroke: #000000; stroke-width: 0.8"/>
      </g>
     </g>
     <g id="text_17">
      <!-- 0.50 -->
      <g transform="translate(28.334375 117.847219) scale(0.1 -0.1)">
       <use xlink:href="#DejaVuSans-30"/>
       <use xlink:href="#DejaVuSans-2e" x="63.623047"/>
       <use xlink:href="#DejaVuSans-35" x="95.410156"/>
       <use xlink:href="#DejaVuSans-30" x="159.033203"/>
      </g>
     </g>
    </g>
    <g id="ytick_8">
     <g id="line2d_17">
      <g>
       <use xlink:href="#m8d62154d56" x="57.6" y="83.808" style="stroke: #000000; stroke-width: 0.8"/>
      </g>
     </g>
     <g id="text_18">
      <!-- 0.75 -->
      <g transform="translate(28.334375 87.607219) scale(0.1 -0.1)">
       <use xlink:href="#DejaVuSans-30"/>
       <use xlink:href="#DejaVuSans-2e" x="63.623047"/>
       <use xlink:href="#DejaVuSans-37" x="95.410156"/>
       <use xlink:href="#DejaVuSans-35" x="159.033203"/>
      </g>
     </g>
    </g>
    <g id="ytick_9">
     <g id="line2d_18">
      <g>
       <use xlink:href="#m8d62154d56" x="57.6" y="53.568" style="stroke: #000000; stroke-width: 0.8"/>
      </g>
     </g>
     <g id="text_19">
      <!-- 1.00 -->
      <g transform="translate(28.334375 57.367219) scale(0.1 -0.1)">
       <use xlink:href="#DejaVuSans-31"/>
       <use xlink:href="#DejaVuSans-2e" x="63.623047"/>
       <use xlink:href="#DejaVuSans-30" x="95.410156"/>
       <use xlink:href="#DejaVuSans-30" x="159.033203"/>
      </g>
     </g>
    </g>
    <g id="text_20">
     <!-- Reward -->
     <g transform="translate(13.875 193.149094) rotate(-90) scale(0.1 -0.1)">
      <defs>
       <path id="DejaVuSans-52" d="M 2841 2188 
Q 3044 2119 3236 1894 
Q 3428 1669 3622 1275 
L 4263 0 
L 3584 0 
L 2988 1197 
Q 2756 1666 2539 1819 
Q 2322 1972 1947 1972 
L 1259 1972 
L 1259 0 
L 628 0 
L 628 4666 
L 2053 4666 
Q 2853 4666 3247 4331 
Q 3641 3997 3641 3322 
Q 3641 2881 3436 2590 
Q 3231 2300 2841 2188 
z
M 1259 4147 
L 1259 2491 
L 2053 2491 
Q 2509 2491 2742 2702 
Q 2975 2913 2975 3322 
Q 2975 3731 2742 3939 
Q 2509 4147 2053 4147 
L 1259 4147 
z
" transform="scale(0.015625)"/>
       <path id="DejaVuSans-65" d="M 3597 1894 
L 3597 1613 
L 953 1613 
Q 991 1019 1311 708 
Q 1631 397 2203 397 
Q 2534 397 2845 478 
Q 3156 559 3463 722 
L 3463 178 
Q 3153 47 2828 -22 
Q 2503 -91 2169 -91 
Q 1331 -91 842 396 
Q 353 884 353 1716 
Q 353 2575 817 3079 
Q 1281 3584 2069 3584 
Q 2775 3584 3186 3129 
Q 3597 2675 3597 1894 
z
M 3022 2063 
Q 3016 2534 2758 2815 
Q 2500 3097 2075 3097 
Q 1594 3097 1305 2825 
Q 1016 2553 972 2059 
L 3022 2063 
z
" transform="scale(0.015625)"/>
       <path id="DejaVuSans-77" d="M 269 3500 
L 844 3500 
L 1563 769 
L 2278 3500 
L 2956 3500 
L 3675 769 
L 4391 3500 
L 4966 3500 
L 4050 0 
L 3372 0 
L 2619 2869 
L 1863 0 
L 1184 0 
L 269 3500 
z
" transform="scale(0.015625)"/>
       <path id="DejaVuSans-61" d="M 2194 1759 
Q 1497 1759 1228 1600 
Q 959 1441 959 1056 
Q 959 750 1161 570 
Q 1363 391 1709 391 
Q 2188 391 2477 730 
Q 2766 1069 2766 1631 
L 2766 1759 
L 2194 1759 
z
M 3341 1997 
L 3341 0 
L 2766 0 
L 2766 531 
Q 2569 213 2275 61 
Q 1981 -91 1556 -91 
Q 1019 -91 701 211 
Q 384 513 384 1019 
Q 384 1609 779 1909 
Q 1175 2209 1959 2209 
L 2766 2209 
L 2766 2266 
Q 2766 2663 2505 2880 
Q 2244 3097 1772 3097 
Q 1472 3097 1187 3025 
Q 903 2953 641 2809 
L 641 3341 
Q 956 3463 1253 3523 
Q 1550 3584 1831 3584 
Q 2591 3584 2966 3190 
Q 3341 2797 3341 1997 
z
" transform="scale(0.015625)"/>
       <path id="DejaVuSans-72" d="M 2631 2963 
Q 2534 3019 2420 3045 
Q 2306 3072 2169 3072 
Q 1681 3072 1420 2755 
Q 1159 2438 1159 1844 
L 1159 0 
L 581 0 
L 581 3500 
L 1159 3500 
L 1159 2956 
Q 1341 3275 1631 3429 
Q 1922 3584 2338 3584 
Q 2397 3584 2469 3576 
Q 2541 3569 2628 3553 
L 2631 2963 
z
" transform="scale(0.015625)"/>
       <path id="DejaVuSans-64" d="M 2906 2969 
L 2906 4863 
L 3481 4863 
L 3481 0 
L 2906 0 
L 2906 525 
Q 2725 213 2448 61 
Q 2172 -91 1784 -91 
Q 1150 -91 751 415 
Q 353 922 353 1747 
Q 353 2572 751 3078 
Q 1150 3584 1784 3584 
Q 2172 3584 2448 3432 
Q 2725 3281 2906 2969 
z
M 947 1747 
Q 947 1113 1208 752 
Q 1469 391 1925 391 
Q 2381 391 2643 752 
Q 2906 1113 2906 1747 
Q 2906 2381 2643 2742 
Q 2381 3103 1925 3103 
Q 1469 3103 1208 2742 
Q 947 2381 947 1747 
z
" transform="scale(0.015625)"/>
      </defs>
      <use xlink:href="#DejaVuSans-52"/>
      <use xlink:href="#DejaVuSans-65" x="64.982422"/>
      <use xlink:href="#DejaVuSans-77" x="126.505859"/>
      <use xlink:href="#DejaVuSans-61" x="208.292969"/>
      <use xlink:href="#DejaVuSans-72" x="269.572266"/>
      <use xlink:href="#DejaVuSans-64" x="308.935547"/>
     </g>
    </g>
   </g>
   <g id="line2d_19">
    <path d="M 73.832727 295.488 
L 77.112066 293.398985 
L 80.391405 291.290717 
L 83.670744 289.163365 
L 86.950083 287.017108 
L 90.229421 284.852136 
L 93.50876 282.668652 
L 96.788099 280.466868 
L 100.067438 278.247009 
L 103.346777 276.009308 
L 106.626116 273.754013 
L 109.905455 271.48138 
L 113.184793 269.191678 
L 116.464132 266.885186 
L 119.743471 264.562196 
L 123.02281 262.223007 
L 126.302149 259.867933 
L 129.581488 257.497296 
L 132.860826 255.111431 
L 136.140165 252.710681 
L 139.419504 250.295401 
L 142.698843 247.865957 
L 145.978182 245.422722 
L 149.257521 242.966083 
L 152.53686 240.496434 
L 155.816198 238.014179 
L 159.095537 235.519732 
L 162.374876 233.013515 
L 165.654215 230.49596 
L 168.933554 227.967508 
L 172.212893 225.428605 
L 175.492231 222.87971 
L 178.77157 220.321284 
L 182.050909 217.753801 
L 185.330248 215.177738 
L 188.609587 212.593581 
L 191.888926 210.001821 
L 195.168264 207.402955 
L 198.447603 204.797488 
L 201.726942 202.185926 
L 205.006281 199.568784 
L 208.28562 196.946579 
L 211.564959 194.319834 
L 214.844298 191.689072 
L 218.123636 189.054825 
L 221.402975 186.417622 
L 224.682314 183.777998 
L 227.961653 181.136489 
L 231.240992 178.493633 
L 234.520331 175.849968 
L 237.799669 173.206032 
L 241.079008 170.562367 
L 244.358347 167.919511 
L 247.637686 165.278002 
L 250.917025 162.638378 
L 254.196364 160.001175 
L 257.475702 157.366928 
L 260.755041 154.736166 
L 264.03438 152.109421 
L 267.313719 149.487216 
L 270.593058 146.870074 
L 273.872397 144.258512 
L 277.151736 141.653045 
L 280.431074 139.054179 
L 283.710413 136.462419 
L 286.989752 133.878262 
L 290.269091 131.302199 
L 293.54843 128.734716 
L 296.827769 126.17629 
L 300.107107 123.627395 
L 303.386446 121.088492 
L 306.665785 118.56004 
L 309.945124 116.042485 
L 313.224463 113.536268 
L 316.503802 111.041821 
L 319.78314 108.559566 
L 323.062479 106.089917 
L 326.341818 103.633278 
L 329.621157 101.190043 
L 332.900496 98.760599 
L 336.179835 96.345319 
L 339.459174 93.944569 
L 342.738512 91.558704 
L 346.017851 89.188067 
L 349.29719 86.832993 
L 352.576529 84.493804 
L 355.855868 82.170814 
L 359.135207 79.864322 
L 362.414545 77.57462 
L 365.693884 75.301987 
L 368.973223 73.046692 
L 372.252562 70.808991 
L 375.531901 68.589132 
L 378.81124 66.387348 
L 382.090579 64.203864 
L 385.369917 62.038892 
L 388.649256 59.892635 
L 391.928595 57.765283 
L 395.207934 55.657015 
L 398.487273 53.568 
" clip-path="url(#p92bb966468)" style="fill: none; stroke: #1f77b4; stroke-width: 1.5; stroke-linecap: square"/>
   </g>
   <g id="line2d_20">
    <path d="M 73.832727 295.488 
L 77.112066 294.852109 
L 80.391405 294.176604 
L 83.670744 293.459263 
L 86.950083 292.697767 
L 90.229421 291.889708 
L 93.50876 291.032588 
L 96.788099 290.123818 
L 100.067438 289.160728 
L 103.346777 288.140563 
L 106.626116 287.060495 
L 109.905455 285.917627 
L 113.184793 284.709002 
L 116.464132 283.431612 
L 119.743471 282.082411 
L 123.02281 280.658329 
L 126.302149 279.156284 
L 129.581488 277.573203 
L 132.860826 275.906041 
L 136.140165 274.151802 
L 139.419504 272.307564 
L 142.698843 270.370506 
L 145.978182 268.337935 
L 149.257521 266.207318 
L 152.53686 263.976315 
L 155.816198 261.642812 
L 159.095537 259.204961 
L 162.374876 256.661211 
L 165.654215 254.010353 
L 168.933554 251.251551 
L 172.212893 248.384386 
L 175.492231 245.40889 
L 178.77157 242.325581 
L 182.050909 239.135496 
L 185.330248 235.840222 
L 188.609587 232.44192 
L 191.888926 228.943342 
L 195.168264 225.347855 
L 198.447603 221.659437 
L 201.726942 217.882691 
L 205.006281 214.022827 
L 208.28562 210.085656 
L 211.564959 206.07756 
L 214.844298 202.005465 
L 218.123636 197.8768 
L 221.402975 193.699449 
L 224.682314 189.481692 
L 227.961653 185.232149 
L 231.240992 180.959705 
L 234.520331 176.673442 
L 237.799669 172.382558 
L 241.079008 168.096295 
L 244.358347 163.823851 
L 247.637686 159.574308 
L 250.917025 155.356551 
L 254.196364 151.1792 
L 257.475702 147.050535 
L 260.755041 142.97844 
L 264.03438 138.970344 
L 267.313719 135.033173 
L 270.593058 131.173309 
L 273.872397 127.396563 
L 277.151736 123.708145 
L 280.431074 120.112658 
L 283.710413 116.61408 
L 286.989752 113.215778 
L 290.269091 109.920504 
L 293.54843 106.730419 
L 296.827769 103.64711 
L 300.107107 100.671614 
L 303.386446 97.804449 
L 306.665785 95.045647 
L 309.945124 92.394789 
L 313.224463 89.851039 
L 316.503802 87.413188 
L 319.78314 85.079685 
L 323.062479 82.848682 
L 326.341818 80.718065 
L 329.621157 78.685494 
L 332.900496 76.748436 
L 336.179835 74.904198 
L 339.459174 73.149959 
L 342.738512 71.482797 
L 346.017851 69.899716 
L 349.29719 68.397671 
L 352.576529 66.973589 
L 355.855868 65.624388 
L 359.135207 64.346998 
L 362.414545 63.138373 
L 365.693884 61.995505 
L 368.973223 60.915437 
L 372.252562 59.895272 
L 375.531901 58.932182 
L 378.81124 58.023412 
L 382.090579 57.166292 
L 385.369917 56.358233 
L 388.649256 55.596737 
L 391.928595 54.879396 
L 395.207934 54.203891 
L 398.487273 53.568 
" clip-path="url(#p92bb966468)" style="fill: none; stroke: #ff7f0e; stroke-width: 1.5; stroke-linecap: square"/>
   </g>
   <g id="line2d_21">
    <path d="M 73.832727 295.488 
L 77.112066 295.371866 
L 80.391405 295.242215 
L 83.670744 295.097491 
L 86.950083 294.935964 
L 90.229421 294.755709 
L 93.50876 294.554587 
L 96.788099 294.330224 
L 100.067438 294.079987 
L 103.346777 293.800954 
L 106.626116 293.489891 
L 109.905455 293.14322 
L 113.184793 292.756987 
L 116.464132 292.326829 
L 119.743471 291.847939 
L 123.02281 291.315028 
L 126.302149 290.722292 
L 129.581488 290.063371 
L 132.860826 289.331316 
L 136.140165 288.518551 
L 139.419504 287.616848 
L 142.698843 286.617298 
L 145.978182 285.510293 
L 149.257521 284.285519 
L 152.53686 282.931961 
L 155.816198 281.437923 
L 159.095537 279.791073 
L 162.374876 277.978505 
L 165.654215 275.986839 
L 168.933554 273.802352 
L 172.212893 271.411144 
L 175.492231 268.799356 
L 178.77157 265.953424 
L 182.050909 262.860396 
L 185.330248 259.508284 
L 188.609587 255.886468 
L 191.888926 251.986148 
L 195.168264 247.80081 
L 198.447603 243.326722 
L 201.726942 238.56342 
L 205.006281 233.514167 
L 208.28562 228.186357 
L 211.564959 222.591835 
L 214.844298 216.747102 
L 218.123636 210.673379 
L 221.402975 204.396499 
L 224.682314 197.94663 
L 227.961653 191.357802 
L 231.240992 184.667268 
L 234.520331 177.914705 
L 237.799669 171.141295 
L 241.079008 164.388732 
L 244.358347 157.698198 
L 247.637686 151.10937 
L 250.917025 144.659501 
L 254.196364 138.382621 
L 257.475702 132.308898 
L 260.755041 126.464165 
L 264.03438 120.869643 
L 267.313719 115.541833 
L 270.593058 110.49258 
L 273.872397 105.729278 
L 277.151736 101.25519 
L 280.431074 97.069852 
L 283.710413 93.169532 
L 286.989752 89.547716 
L 290.269091 86.195604 
L 293.54843 83.102576 
L 296.827769 80.256644 
L 300.107107 77.644856 
L 303.386446 75.253648 
L 306.665785 73.069161 
L 309.945124 71.077495 
L 313.224463 69.264927 
L 316.503802 67.618077 
L 319.78314 66.124039 
L 323.062479 64.770481 
L 326.341818 63.545707 
L 329.621157 62.438702 
L 332.900496 61.439152 
L 336.179835 60.537449 
L 339.459174 59.724684 
L 342.738512 58.992629 
L 346.017851 58.333708 
L 349.29719 57.740972 
L 352.576529 57.208061 
L 355.855868 56.729171 
L 359.135207 56.299013 
L 362.414545 55.91278 
L 365.693884 55.566109 
L 368.973223 55.255046 
L 372.252562 54.976013 
L 375.531901 54.725776 
L 378.81124 54.501413 
L 382.090579 54.300291 
L 385.369917 54.120036 
L 388.649256 53.958509 
L 391.928595 53.813785 
L 395.207934 53.684134 
L 398.487273 53.568 
" clip-path="url(#p92bb966468)" style="fill: none; stroke: #2ca02c; stroke-width: 1.5; stroke-linecap: square"/>
   </g>
   <g id="line2d_22">
    <path d="M 73.832727 295.488 
L 77.112066 295.47034 
L 80.391405 295.44969 
L 83.670744 295.425544 
L 86.950083 295.397312 
L 90.229421 295.364304 
L 93.50876 295.325712 
L 96.788099 295.280596 
L 100.067438 295.227853 
L 103.346777 295.166201 
L 106.626116 295.09414 
L 109.905455 295.00992 
L 113.184793 294.911499 
L 116.464132 294.7965 
L 119.743471 294.662148 
L 123.02281 294.505215 
L 126.302149 294.321943 
L 129.581488 294.107961 
L 132.860826 293.858195 
L 136.140165 293.566752 
L 139.419504 293.22681 
L 142.698843 292.83047 
L 145.978182 292.368614 
L 149.257521 291.830736 
L 152.53686 291.204759 
L 155.816198 290.476844 
L 159.095537 289.631191 
L 162.374876 288.649835 
L 165.654215 287.512446 
L 168.933554 286.196163 
L 172.212893 284.675444 
L 175.492231 282.922003 
L 178.77157 280.904818 
L 182.050909 278.590279 
L 185.330248 275.942513 
L 188.609587 272.923921 
L 191.888926 269.496007 
L 195.168264 265.620516 
L 198.447603 261.260948 
L 201.726942 256.384445 
L 205.006281 250.964035 
L 208.28562 244.981163 
L 211.564959 238.428374 
L 214.844298 231.311931 
L 218.123636 223.654116 
L 221.402975 215.49488 
L 224.682314 206.892533 
L 227.961653 197.923201 
L 231.240992 188.678898 
L 234.520331 179.264207 
L 237.799669 169.791793 
L 241.079008 160.377102 
L 244.358347 151.132799 
L 247.637686 142.163467 
L 250.917025 133.56112 
L 254.196364 125.401884 
L 257.475702 117.744069 
L 260.755041 110.627626 
L 264.03438 104.074837 
L 267.313719 98.091965 
L 270.593058 92.671555 
L 273.872397 87.795052 
L 277.151736 83.435484 
L 280.431074 79.559993 
L 283.710413 76.132079 
L 286.989752 73.113487 
L 290.269091 70.465721 
L 293.54843 68.151182 
L 296.827769 66.133997 
L 300.107107 64.380556 
L 303.386446 62.859837 
L 306.665785 61.543554 
L 309.945124 60.406165 
L 313.224463 59.424809 
L 316.503802 58.579156 
L 319.78314 57.851241 
L 323.062479 57.225264 
L 326.341818 56.687386 
L 329.621157 56.22553 
L 332.900496 55.82919 
L 336.179835 55.489248 
L 339.459174 55.197805 
L 342.738512 54.948039 
L 346.017851 54.734057 
L 349.29719 54.550785 
L 352.576529 54.393852 
L 355.855868 54.2595 
L 359.135207 54.144501 
L 362.414545 54.04608 
L 365.693884 53.96186 
L 368.973223 53.889799 
L 372.252562 53.828147 
L 375.531901 53.775404 
L 378.81124 53.730288 
L 382.090579 53.691696 
L 385.369917 53.658688 
L 388.649256 53.630456 
L 391.928595 53.60631 
L 395.207934 53.58566 
L 398.487273 53.568 
" clip-path="url(#p92bb966468)" style="fill: none; stroke: #d62728; stroke-width: 1.5; stroke-linecap: square"/>
   </g>
   <g id="line2d_23">
    <path d="M 73.832727 295.488 
L 77.112066 295.485541 
L 80.391405 295.482532 
L 83.670744 295.478849 
L 86.950083 295.474342 
L 90.229421 295.468826 
L 93.50876 295.462076 
L 96.788099 295.453815 
L 100.067438 295.443705 
L 103.346777 295.431333 
L 106.626116 295.416193 
L 109.905455 295.397666 
L 113.184793 295.374996 
L 116.464132 295.347256 
L 119.743471 295.313314 
L 123.02281 295.271787 
L 126.302149 295.220982 
L 129.581488 295.158833 
L 132.860826 295.082813 
L 136.140165 294.98984 
L 139.419504 294.87615 
L 142.698843 294.737153 
L 145.978182 294.567257 
L 149.257521 294.359651 
L 152.53686 294.106055 
L 155.816198 293.79641 
L 159.095537 293.418528 
L 162.374876 292.957663 
L 165.654215 292.396027 
L 168.933554 291.712232 
L 172.212893 290.880664 
L 175.492231 289.8708 
L 178.77157 288.64649 
L 182.050909 287.165245 
L 185.330248 285.377598 
L 188.609587 283.226632 
L 191.888926 280.647834 
L 195.168264 277.569454 
L 198.447603 273.913633 
L 201.726942 269.598577 
L 205.006281 264.542096 
L 208.28562 258.666749 
L 211.564959 251.906704 
L 214.844298 244.216158 
L 218.123636 235.578716 
L 221.402975 226.016662 
L 224.682314 215.598513 
L 227.961653 204.443031 
L 231.240992 192.717955 
L 234.520331 180.632456 
L 237.799669 168.423544 
L 241.079008 156.338045 
L 244.358347 144.612969 
L 247.637686 133.457487 
L 250.917025 123.039338 
L 254.196364 113.477284 
L 257.475702 104.839842 
L 260.755041 97.149296 
L 264.03438 90.389251 
L 267.313719 84.513904 
L 270.593058 79.457423 
L 273.872397 75.142367 
L 277.151736 71.486546 
L 280.431074 68.408166 
L 283.710413 65.829368 
L 286.989752 63.678402 
L 290.269091 61.890755 
L 293.54843 60.40951 
L 296.827769 59.1852 
L 300.107107 58.175336 
L 303.386446 57.343768 
L 306.665785 56.659973 
L 309.945124 56.098337 
L 313.224463 55.637472 
L 316.503802 55.25959 
L 319.78314 54.949945 
L 323.062479 54.696349 
L 326.341818 54.488743 
L 329.621157 54.318847 
L 332.900496 54.17985 
L 336.179835 54.06616 
L 339.459174 53.973187 
L 342.738512 53.897167 
L 346.017851 53.835018 
L 349.29719 53.784213 
L 352.576529 53.742686 
L 355.855868 53.708744 
L 359.135207 53.681004 
L 362.414545 53.658334 
L 365.693884 53.639807 
L 368.973223 53.624667 
L 372.252562 53.612295 
L 375.531901 53.602185 
L 378.81124 53.593924 
L 382.090579 53.587174 
L 385.369917 53.581658 
L 388.649256 53.577151 
L 391.928595 53.573468 
L 395.207934 53.570459 
L 398.487273 53.568 
" clip-path="url(#p92bb966468)" style="fill: none; stroke: #9467bd; stroke-width: 1.5; stroke-linecap: square"/>
   </g>
   <g id="patch_3">
    <path d="M 57.6 307.584 
L 57.6 41.472 
" style="fill: none; stroke: #000000; stroke-width: 0.8; stroke-linejoin: miter; stroke-linecap: square"/>
   </g>
   <g id="patch_4">
    <path d="M 414.72 307.584 
L 414.72 41.472 
" style="fill: none; stroke: #000000; stroke-width: 0.8; stroke-linejoin: miter; stroke-linecap: square"/>
   </g>
   <g id="patch_5">
    <path d="M 57.6 307.584 
L 414.72 307.584 
" style="fill: none; stroke: #000000; stroke-width: 0.8; stroke-linejoin: miter; stroke-linecap: square"/>
   </g>
   <g id="patch_6">
    <path d="M 57.6 41.472 
L 414.72 41.472 
" style="fill: none; stroke: #000000; stroke-width: 0.8; stroke-linejoin: miter; stroke-linecap: square"/>
   </g>
   <g id="legend_1">
    <g id="patch_7">
     <path d="M 64.6 122.862625 
L 123.832812 122.862625 
Q 125.832812 122.862625 125.832812 120.862625 
L 125.832812 48.472 
Q 125.832812 46.472 123.832812 46.472 
L 64.6 46.472 
Q 62.6 46.472 62.6 48.472 
L 62.6 120.862625 
Q 62.6 122.862625 64.6 122.862625 
z
" style="fill: #ffffff; opacity: 0.8; stroke: #cccccc; stroke-linejoin: miter"/>
    </g>
    <g id="line2d_24">
     <path d="M 66.6 54.570438 
L 76.6 54.570438 
L 86.6 54.570438 
" style="fill: none; stroke: #1f77b4; stroke-width: 1.5; stroke-linecap: square"/>
    </g>
    <g id="text_21">
     <!-- a=1 -->
     <g transform="translate(94.6 58.070438) scale(0.1 -0.1)">
      <defs>
       <path id="DejaVuSans-3d" d="M 678 2906 
L 4684 2906 
L 4684 2381 
L 678 2381 
L 678 2906 
z
M 678 1631 
L 4684 1631 
L 4684 1100 
L 678 1100 
L 678 1631 
z
" transform="scale(0.015625)"/>
      </defs>
      <use xlink:href="#DejaVuSans-61"/>
      <use xlink:href="#DejaVuSans-3d" x="61.279297"/>
      <use xlink:href="#DejaVuSans-31" x="145.068359"/>
     </g>
    </g>
    <g id="line2d_25">
     <path d="M 66.6 69.248563 
L 76.6 69.248563 
L 86.6 69.248563 
" style="fill: none; stroke: #ff7f0e; stroke-width: 1.5; stroke-linecap: square"/>
    </g>
    <g id="text_22">
     <!-- a=3 -->
     <g transform="translate(94.6 72.748563) scale(0.1 -0.1)">
      <defs>
       <path id="DejaVuSans-33" d="M 2597 2516 
Q 3050 2419 3304 2112 
Q 3559 1806 3559 1356 
Q 3559 666 3084 287 
Q 2609 -91 1734 -91 
Q 1441 -91 1130 -33 
Q 819 25 488 141 
L 488 750 
Q 750 597 1062 519 
Q 1375 441 1716 441 
Q 2309 441 2620 675 
Q 2931 909 2931 1356 
Q 2931 1769 2642 2001 
Q 2353 2234 1838 2234 
L 1294 2234 
L 1294 2753 
L 1863 2753 
Q 2328 2753 2575 2939 
Q 2822 3125 2822 3475 
Q 2822 3834 2567 4026 
Q 2313 4219 1838 4219 
Q 1578 4219 1281 4162 
Q 984 4106 628 3988 
L 628 4550 
Q 988 4650 1302 4700 
Q 1616 4750 1894 4750 
Q 2613 4750 3031 4423 
Q 3450 4097 3450 3541 
Q 3450 3153 3228 2886 
Q 3006 2619 2597 2516 
z
" transform="scale(0.015625)"/>
      </defs>
      <use xlink:href="#DejaVuSans-61"/>
      <use xlink:href="#DejaVuSans-3d" x="61.279297"/>
      <use xlink:href="#DejaVuSans-33" x="145.068359"/>
     </g>
    </g>
    <g id="line2d_26">
     <path d="M 66.6 83.926688 
L 76.6 83.926688 
L 86.6 83.926688 
" style="fill: none; stroke: #2ca02c; stroke-width: 1.5; stroke-linecap: square"/>
    </g>
    <g id="text_23">
     <!-- a=6 -->
     <g transform="translate(94.6 87.426688) scale(0.1 -0.1)">
      <defs>
       <path id="DejaVuSans-36" d="M 2113 2584 
Q 1688 2584 1439 2293 
Q 1191 2003 1191 1497 
Q 1191 994 1439 701 
Q 1688 409 2113 409 
Q 2538 409 2786 701 
Q 3034 994 3034 1497 
Q 3034 2003 2786 2293 
Q 2538 2584 2113 2584 
z
M 3366 4563 
L 3366 3988 
Q 3128 4100 2886 4159 
Q 2644 4219 2406 4219 
Q 1781 4219 1451 3797 
Q 1122 3375 1075 2522 
Q 1259 2794 1537 2939 
Q 1816 3084 2150 3084 
Q 2853 3084 3261 2657 
Q 3669 2231 3669 1497 
Q 3669 778 3244 343 
Q 2819 -91 2113 -91 
Q 1303 -91 875 529 
Q 447 1150 447 2328 
Q 447 3434 972 4092 
Q 1497 4750 2381 4750 
Q 2619 4750 2861 4703 
Q 3103 4656 3366 4563 
z
" transform="scale(0.015625)"/>
      </defs>
      <use xlink:href="#DejaVuSans-61"/>
      <use xlink:href="#DejaVuSans-3d" x="61.279297"/>
      <use xlink:href="#DejaVuSans-36" x="145.068359"/>
     </g>
    </g>
    <g id="line2d_27">
     <path d="M 66.6 98.604813 
L 76.6 98.604813 
L 86.6 98.604813 
" style="fill: none; stroke: #d62728; stroke-width: 1.5; stroke-linecap: square"/>
    </g>
    <g id="text_24">
     <!-- a=8 -->
     <g transform="translate(94.6 102.104813) scale(0.1 -0.1)">
      <defs>
       <path id="DejaVuSans-38" d="M 2034 2216 
Q 1584 2216 1326 1975 
Q 1069 1734 1069 1313 
Q 1069 891 1326 650 
Q 1584 409 2034 409 
Q 2484 409 2743 651 
Q 3003 894 3003 1313 
Q 3003 1734 2745 1975 
Q 2488 2216 2034 2216 
z
M 1403 2484 
Q 997 2584 770 2862 
Q 544 3141 544 3541 
Q 544 4100 942 4425 
Q 1341 4750 2034 4750 
Q 2731 4750 3128 4425 
Q 3525 4100 3525 3541 
Q 3525 3141 3298 2862 
Q 3072 2584 2669 2484 
Q 3125 2378 3379 2068 
Q 3634 1759 3634 1313 
Q 3634 634 3220 271 
Q 2806 -91 2034 -91 
Q 1263 -91 848 271 
Q 434 634 434 1313 
Q 434 1759 690 2068 
Q 947 2378 1403 2484 
z
M 1172 3481 
Q 1172 3119 1398 2916 
Q 1625 2713 2034 2713 
Q 2441 2713 2670 2916 
Q 2900 3119 2900 3481 
Q 2900 3844 2670 4047 
Q 2441 4250 2034 4250 
Q 1625 4250 1398 4047 
Q 1172 3844 1172 3481 
z
" transform="scale(0.015625)"/>
      </defs>
      <use xlink:href="#DejaVuSans-61"/>
      <use xlink:href="#DejaVuSans-3d" x="61.279297"/>
      <use xlink:href="#DejaVuSans-38" x="145.068359"/>
     </g>
    </g>
    <g id="line2d_28">
     <path d="M 66.6 113.282938 
L 76.6 113.282938 
L 86.6 113.282938 
" style="fill: none; stroke: #9467bd; stroke-width: 1.5; stroke-linecap: square"/>
    </g>
    <g id="text_25">
     <!-- a=10 -->
     <g transform="translate(94.6 116.782938) scale(0.1 -0.1)">
      <use xlink:href="#DejaVuSans-61"/>
      <use xlink:href="#DejaVuSans-3d" x="61.279297"/>
      <use xlink:href="#DejaVuSans-31" x="145.068359"/>
      <use xlink:href="#DejaVuSans-30" x="208.691406"/>
     </g>
    </g>
   </g>
  </g>
 </g>
 <defs>
  <clipPath id="p92bb966468">
   <rect x="57.6" y="41.472" width="357.12" height="266.112"/>
  </clipPath>
 </defs>
</svg>
