<?xml version="1.0" encoding="utf-8" standalone="no"?>
<!DOCTYPE svg PUBLIC "-//W3C//DTD SVG 1.1//EN"
  "http://www.w3.org/Graphics/SVG/1.1/DTD/svg11.dtd">
<svg xmlns:xlink="http://www.w3.org/1999/xlink" width="460.8pt" height="345.6pt" viewBox="0 0 460.8 345.6" xmlns="http://www.w3.org/2000/svg" version="1.1">
 <metadata>
  <rdf:RDF xmlns:dc="http://purl.org/dc/elements/1.1/" xmlns:cc="http://creativecommons.org/ns#" xmlns:rdf="http://www.w3.org/1999/02/22-rdf-syntax-ns#">
   <cc:Work>
    <dc:type rdf:resource="http://purl.org/dc/dcmitype/StillImage"/>
    <dc:date>2023-09-03T14:33:43.111550</dc:date>
    <dc:format>image/svg+xml</dc:format>
    <dc:creator>
     <cc:Agent>
      <dc:title>Matplotlib v3.7.2, https://matplotlib.org/</dc:title>
     </cc:Agent>
    </dc:creator>
   </cc:Work>
  </rdf:RDF>
 </metadata>
 <defs>
  <style type="text/css">*{stroke-linejoin: round; stroke-linecap: butt}</style>
 </defs>
 <g id="figure_1">
  <g id="patch_1">
   <path d="M 0 345.6 
L 460.8 345.6 
L 460.8 0 
L 0 0 
z
" style="fill: #ffffff"/>
  </g>
  <g id="axes_1">
   <g id="patch_2">
    <path d="M 57.6 307.584 
L 414.72 307.584 
L 414.72 41.472 
L 57.6 41.472 
z
" style="fill: #ffffff"/>
   </g>
   <g id="matplotlib.axis_1">
    <g id="xtick_1">
     <g id="line2d_1">
      <defs>
       <path id="m200a09abc5" d="M 0 0 
L 0 3.5 
" style="stroke: #000000; stroke-width: 0.8"/>
      </defs>
      <g>
       <use xlink:href="#m200a09abc5" x="73.832727" y="307.584" style="stroke: #000000; stroke-width: 0.8"/>
      </g>
     </g>
     <g id="text_1">
      <!-- −1.00 -->
      <g transform="translate(58.510071 322.182437) scale(0.1 -0.1)">
       <defs>
        <path id="DejaVuSans-2212" d="M 678 2272 
L 4684 2272 
L 4684 1741 
L 678 1741 
L 678 2272 
z
" transform="scale(0.015625)"/>
        <path id="DejaVuSans-31" d="M 794 531 
L 1825 531 
L 1825 4091 
L 703 3866 
L 703 4441 
L 1819 4666 
L 2450 4666 
L 2450 531 
L 3481 531 
L 3481 0 
L 794 0 
L 794 531 
z
" transform="scale(0.015625)"/>
        <path id="DejaVuSans-2e" d="M 684 794 
L 1344 794 
L 1344 0 
L 684 0 
L 684 794 
z
" transform="scale(0.015625)"/>
        <path id="DejaVuSans-30" d="M 2034 4250 
Q 1547 4250 1301 3770 
Q 1056 3291 1056 2328 
Q 1056 1369 1301 889 
Q 1547 409 2034 409 
Q 2525 409 2770 889 
Q 3016 1369 3016 2328 
Q 3016 3291 2770 3770 
Q 2525 4250 2034 4250 
z
M 2034 4750 
Q 2819 4750 3233 4129 
Q 3647 3509 3647 2328 
Q 3647 1150 3233 529 
Q 2819 -91 2034 -91 
Q 1250 -91 836 529 
Q 422 1150 422 2328 
Q 422 3509 836 4129 
Q 1250 4750 2034 4750 
z
" transform="scale(0.015625)"/>
       </defs>
       <use xlink:href="#DejaVuSans-2212"/>
       <use xlink:href="#DejaVuSans-31" x="83.789062"/>
       <use xlink:href="#DejaVuSans-2e" x="147.412109"/>
       <use xlink:href="#DejaVuSans-30" x="179.199219"/>
       <use xlink:href="#DejaVuSans-30" x="242.822266"/>
      </g>
     </g>
    </g>
    <g id="xtick_2">
     <g id="line2d_2">
      <g>
       <use xlink:href="#m200a09abc5" x="114.414545" y="307.584" style="stroke: #000000; stroke-width: 0.8"/>
      </g>
     </g>
     <g id="text_2">
      <!-- −0.75 -->
      <g transform="translate(99.091889 322.182437) scale(0.1 -0.1)">
       <defs>
        <path id="DejaVuSans-37" d="M 525 4666 
L 3525 4666 
L 3525 4397 
L 1831 0 
L 1172 0 
L 2766 4134 
L 525 4134 
L 525 4666 
z
" transform="scale(0.015625)"/>
        <path id="DejaVuSans-35" d="M 691 4666 
L 3169 4666 
L 3169 4134 
L 1269 4134 
L 1269 2991 
Q 1406 3038 1543 3061 
Q 1681 3084 1819 3084 
Q 2600 3084 3056 2656 
Q 3513 2228 3513 1497 
Q 3513 744 3044 326 
Q 2575 -91 1722 -91 
Q 1428 -91 1123 -41 
Q 819 9 494 109 
L 494 744 
Q 775 591 1075 516 
Q 1375 441 1709 441 
Q 2250 441 2565 725 
Q 2881 1009 2881 1497 
Q 2881 1984 2565 2268 
Q 2250 2553 1709 2553 
Q 1456 2553 1204 2497 
Q 953 2441 691 2322 
L 691 4666 
z
" transform="scale(0.015625)"/>
       </defs>
       <use xlink:href="#DejaVuSans-2212"/>
       <use xlink:href="#DejaVuSans-30" x="83.789062"/>
       <use xlink:href="#DejaVuSans-2e" x="147.412109"/>
       <use xlink:href="#DejaVuSans-37" x="179.199219"/>
       <use xlink:href="#DejaVuSans-35" x="242.822266"/>
      </g>
     </g>
    </g>
    <g id="xtick_3">
     <g id="line2d_3">
      <g>
       <use xlink:href="#m200a09abc5" x="154.996364" y="307.584" style="stroke: #000000; stroke-width: 0.8"/>
      </g>
     </g>
     <g id="text_3">
      <!-- −0.50 -->
      <g transform="translate(139.673707 322.182437) scale(0.1 -0.1)">
       <use xlink:href="#DejaVuSans-2212"/>
       <use xlink:href="#DejaVuSans-30" x="83.789062"/>
       <use xlink:href="#DejaVuSans-2e" x="147.412109"/>
       <use xlink:href="#DejaVuSans-35" x="179.199219"/>
       <use xlink:href="#DejaVuSans-30" x="242.822266"/>
      </g>
     </g>
    </g>
    <g id="xtick_4">
     <g id="line2d_4">
      <g>
       <use xlink:href="#m200a09abc5" x="195.578182" y="307.584" style="stroke: #000000; stroke-width: 0.8"/>
      </g>
     </g>
     <g id="text_4">
      <!-- −0.25 -->
      <g transform="translate(180.255526 322.182437) scale(0.1 -0.1)">
       <defs>
        <path id="DejaVuSans-32" d="M 1228 531 
L 3431 531 
L 3431 0 
L 469 0 
L 469 531 
Q 828 903 1448 1529 
Q 2069 2156 2228 2338 
Q 2531 2678 2651 2914 
Q 2772 3150 2772 3378 
Q 2772 3750 2511 3984 
Q 2250 4219 1831 4219 
Q 1534 4219 1204 4116 
Q 875 4013 500 3803 
L 500 4441 
Q 881 4594 1212 4672 
Q 1544 4750 1819 4750 
Q 2544 4750 2975 4387 
Q 3406 4025 3406 3419 
Q 3406 3131 3298 2873 
Q 3191 2616 2906 2266 
Q 2828 2175 2409 1742 
Q 1991 1309 1228 531 
z
" transform="scale(0.015625)"/>
       </defs>
       <use xlink:href="#DejaVuSans-2212"/>
       <use xlink:href="#DejaVuSans-30" x="83.789062"/>
       <use xlink:href="#DejaVuSans-2e" x="147.412109"/>
       <use xlink:href="#DejaVuSans-32" x="179.199219"/>
       <use xlink:href="#DejaVuSans-35" x="242.822266"/>
      </g>
     </g>
    </g>
    <g id="xtick_5">
     <g id="line2d_5">
      <g>
       <use xlink:href="#m200a09abc5" x="236.16" y="307.584" style="stroke: #000000; stroke-width: 0.8"/>
      </g>
     </g>
     <g id="text_5">
      <!-- 0.00 -->
      <g transform="translate(225.027187 322.182437) scale(0.1 -0.1)">
       <use xlink:href="#DejaVuSans-30"/>
       <use xlink:href="#DejaVuSans-2e" x="63.623047"/>
       <use xlink:href="#DejaVuSans-30" x="95.410156"/>
       <use xlink:href="#DejaVuSans-30" x="159.033203"/>
      </g>
     </g>
    </g>
    <g id="xtick_6">
     <g id="line2d_6">
      <g>
       <use xlink:href="#m200a09abc5" x="276.741818" y="307.584" style="stroke: #000000; stroke-width: 0.8"/>
      </g>
     </g>
     <g id="text_6">
      <!-- 0.25 -->
      <g transform="translate(265.609006 322.182437) scale(0.1 -0.1)">
       <use xlink:href="#DejaVuSans-30"/>
       <use xlink:href="#DejaVuSans-2e" x="63.623047"/>
       <use xlink:href="#DejaVuSans-32" x="95.410156"/>
       <use xlink:href="#DejaVuSans-35" x="159.033203"/>
      </g>
     </g>
    </g>
    <g id="xtick_7">
     <g id="line2d_7">
      <g>
       <use xlink:href="#m200a09abc5" x="317.323636" y="307.584" style="stroke: #000000; stroke-width: 0.8"/>
      </g>
     </g>
     <g id="text_7">
      <!-- 0.50 -->
      <g transform="translate(306.190824 322.182437) scale(0.1 -0.1)">
       <use xlink:href="#DejaVuSans-30"/>
       <use xlink:href="#DejaVuSans-2e" x="63.623047"/>
       <use xlink:href="#DejaVuSans-35" x="95.410156"/>
       <use xlink:href="#DejaVuSans-30" x="159.033203"/>
      </g>
     </g>
    </g>
    <g id="xtick_8">
     <g id="line2d_8">
      <g>
       <use xlink:href="#m200a09abc5" x="357.905455" y="307.584" style="stroke: #000000; stroke-width: 0.8"/>
      </g>
     </g>
     <g id="text_8">
      <!-- 0.75 -->
      <g transform="translate(346.772642 322.182437) scale(0.1 -0.1)">
       <use xlink:href="#DejaVuSans-30"/>
       <use xlink:href="#DejaVuSans-2e" x="63.623047"/>
       <use xlink:href="#DejaVuSans-37" x="95.410156"/>
       <use xlink:href="#DejaVuSans-35" x="159.033203"/>
      </g>
     </g>
    </g>
    <g id="xtick_9">
     <g id="line2d_9">
      <g>
       <use xlink:href="#m200a09abc5" x="398.487273" y="307.584" style="stroke: #000000; stroke-width: 0.8"/>
      </g>
     </g>
     <g id="text_9">
      <!-- 1.00 -->
      <g transform="translate(387.35446 322.182437) scale(0.1 -0.1)">
       <use xlink:href="#DejaVuSans-31"/>
       <use xlink:href="#DejaVuSans-2e" x="63.623047"/>
       <use xlink:href="#DejaVuSans-30" x="95.410156"/>
       <use xlink:href="#DejaVuSans-30" x="159.033203"/>
      </g>
     </g>
    </g>
    <g id="text_10">
     <!-- VMC -->
     <g transform="translate(224.934219 335.860562) scale(0.1 -0.1)">
      <defs>
       <path id="DejaVuSans-56" d="M 1831 0 
L 50 4666 
L 709 4666 
L 2188 738 
L 3669 4666 
L 4325 4666 
L 2547 0 
L 1831 0 
z
" transform="scale(0.015625)"/>
       <path id="DejaVuSans-4d" d="M 628 4666 
L 1569 4666 
L 2759 1491 
L 3956 4666 
L 4897 4666 
L 4897 0 
L 4281 0 
L 4281 4097 
L 3078 897 
L 2444 897 
L 1241 4097 
L 1241 0 
L 628 0 
L 628 4666 
z
" transform="scale(0.015625)"/>
       <path id="DejaVuSans-43" d="M 4122 4306 
L 4122 3641 
Q 3803 3938 3442 4084 
Q 3081 4231 2675 4231 
Q 1875 4231 1450 3742 
Q 1025 3253 1025 2328 
Q 1025 1406 1450 917 
Q 1875 428 2675 428 
Q 3081 428 3442 575 
Q 3803 722 4122 1019 
L 4122 359 
Q 3791 134 3420 21 
Q 3050 -91 2638 -91 
Q 1578 -91 968 557 
Q 359 1206 359 2328 
Q 359 3453 968 4101 
Q 1578 4750 2638 4750 
Q 3056 4750 3426 4639 
Q 3797 4528 4122 4306 
z
" transform="scale(0.015625)"/>
      </defs>
      <use xlink:href="#DejaVuSans-56"/>
      <use xlink:href="#DejaVuSans-4d" x="68.408203"/>
      <use xlink:href="#DejaVuSans-43" x="154.6875"/>
     </g>
    </g>
   </g>
   <g id="matplotlib.axis_2">
    <g id="ytick_1">
     <g id="line2d_10">
      <defs>
       <path id="m511a4c33f0" d="M 0 0 
L -3.5 0 
" style="stroke: #000000; stroke-width: 0.8"/>
      </defs>
      <g>
       <use xlink:href="#m511a4c33f0" x="57.6" y="295.488" style="stroke: #000000; stroke-width: 0.8"/>
      </g>
     </g>
     <g id="text_11">
      <!-- −1.00 -->
      <g transform="translate(19.954687 299.287219) scale(0.1 -0.1)">
       <use xlink:href="#DejaVuSans-2212"/>
       <use xlink:href="#DejaVuSans-31" x="83.789062"/>
       <use xlink:href="#DejaVuSans-2e" x="147.412109"/>
       <use xlink:href="#DejaVuSans-30" x="179.199219"/>
       <use xlink:href="#DejaVuSans-30" x="242.822266"/>
      </g>
     </g>
    </g>
    <g id="ytick_2">
     <g id="line2d_11">
      <g>
       <use xlink:href="#m511a4c33f0" x="57.6" y="265.248" style="stroke: #000000; stroke-width: 0.8"/>
      </g>
     </g>
     <g id="text_12">
      <!-- −0.75 -->
      <g transform="translate(19.954687 269.047219) scale(0.1 -0.1)">
       <use xlink:href="#DejaVuSans-2212"/>
       <use xlink:href="#DejaVuSans-30" x="83.789062"/>
       <use xlink:href="#DejaVuSans-2e" x="147.412109"/>
       <use xlink:href="#DejaVuSans-37" x="179.199219"/>
       <use xlink:href="#DejaVuSans-35" x="242.822266"/>
      </g>
     </g>
    </g>
    <g id="ytick_3">
     <g id="line2d_12">
      <g>
       <use xlink:href="#m511a4c33f0" x="57.6" y="235.008" style="stroke: #000000; stroke-width: 0.8"/>
      </g>
     </g>
     <g id="text_13">
      <!-- −0.50 -->
      <g transform="translate(19.954687 238.807219) scale(0.1 -0.1)">
       <use xlink:href="#DejaVuSans-2212"/>
       <use xlink:href="#DejaVuSans-30" x="83.789062"/>
       <use xlink:href="#DejaVuSans-2e" x="147.412109"/>
       <use xlink:href="#DejaVuSans-35" x="179.199219"/>
       <use xlink:href="#DejaVuSans-30" x="242.822266"/>
      </g>
     </g>
    </g>
    <g id="ytick_4">
     <g id="line2d_13">
      <g>
       <use xlink:href="#m511a4c33f0" x="57.6" y="204.768" style="stroke: #000000; stroke-width: 0.8"/>
      </g>
     </g>
     <g id="text_14">
      <!-- −0.25 -->
      <g transform="translate(19.954687 208.567219) scale(0.1 -0.1)">
       <use xlink:href="#DejaVuSans-2212"/>
       <use xlink:href="#DejaVuSans-30" x="83.789062"/>
       <use xlink:href="#DejaVuSans-2e" x="147.412109"/>
       <use xlink:href="#DejaVuSans-32" x="179.199219"/>
       <use xlink:href="#DejaVuSans-35" x="242.822266"/>
      </g>
     </g>
    </g>
    <g id="ytick_5">
     <g id="line2d_14">
      <g>
       <use xlink:href="#m511a4c33f0" x="57.6" y="174.528" style="stroke: #000000; stroke-width: 0.8"/>
      </g>
     </g>
     <g id="text_15">
      <!-- 0.00 -->
      <g transform="translate(28.334375 178.327219) scale(0.1 -0.1)">
       <use xlink:href="#DejaVuSans-30"/>
       <use xlink:href="#DejaVuSans-2e" x="63.623047"/>
       <use xlink:href="#DejaVuSans-30" x="95.410156"/>
       <use xlink:href="#DejaVuSans-30" x="159.033203"/>
      </g>
     </g>
    </g>
    <g id="ytick_6">
     <g id="line2d_15">
      <g>
       <use xlink:href="#m511a4c33f0" x="57.6" y="144.288" style="stroke: #000000; stroke-width: 0.8"/>
      </g>
     </g>
     <g id="text_16">
      <!-- 0.25 -->
      <g transform="translate(28.334375 148.087219) scale(0.1 -0.1)">
       <use xlink:href="#DejaVuSans-30"/>
       <use xlink:href="#DejaVuSans-2e" x="63.623047"/>
       <use xlink:href="#DejaVuSans-32" x="95.410156"/>
       <use xlink:href="#DejaVuSans-35" x="159.033203"/>
      </g>
     </g>
    </g>
    <g id="ytick_7">
     <g id="line2d_16">
      <g>
       <use xlink:href="#m511a4c33f0" x="57.6" y="114.048" style="stroke: #000000; stroke-width: 0.8"/>
      </g>
     </g>
     <g id="text_17">
      <!-- 0.50 -->
      <g transform="translate(28.334375 117.847219) scale(0.1 -0.1)">
       <use xlink:href="#DejaVuSans-30"/>
       <use xlink:href="#DejaVuSans-2e" x="63.623047"/>
       <use xlink:href="#DejaVuSans-35" x="95.410156"/>
       <use xlink:href="#DejaVuSans-30" x="159.033203"/>
      </g>
     </g>
    </g>
    <g id="ytick_8">
     <g id="line2d_17">
      <g>
       <use xlink:href="#m511a4c33f0" x="57.6" y="83.808" style="stroke: #000000; stroke-width: 0.8"/>
      </g>
     </g>
     <g id="text_18">
      <!-- 0.75 -->
      <g transform="translate(28.334375 87.607219) scale(0.1 -0.1)">
       <use xlink:href="#DejaVuSans-30"/>
       <use xlink:href="#DejaVuSans-2e" x="63.623047"/>
       <use xlink:href="#DejaVuSans-37" x="95.410156"/>
       <use xlink:href="#DejaVuSans-35" x="159.033203"/>
      </g>
     </g>
    </g>
    <g id="ytick_9">
     <g id="line2d_18">
      <g>
       <use xlink:href="#m511a4c33f0" x="57.6" y="53.568" style="stroke: #000000; stroke-width: 0.8"/>
      </g>
     </g>
     <g id="text_19">
      <!-- 1.00 -->
      <g transform="translate(28.334375 57.367219) scale(0.1 -0.1)">
       <use xlink:href="#DejaVuSans-31"/>
       <use xlink:href="#DejaVuSans-2e" x="63.623047"/>
       <use xlink:href="#DejaVuSans-30" x="95.410156"/>
       <use xlink:href="#DejaVuSans-30" x="159.033203"/>
      </g>
     </g>
    </g>
    <g id="text_20">
     <!-- Reward -->
     <g transform="translate(13.875 193.149094) rotate(-90) scale(0.1 -0.1)">
      <defs>
       <path id="DejaVuSans-52" d="M 2841 2188 
Q 3044 2119 3236 1894 
Q 3428 1669 3622 1275 
L 4263 0 
L 3584 0 
L 2988 1197 
Q 2756 1666 2539 1819 
Q 2322 1972 1947 1972 
L 1259 1972 
L 1259 0 
L 628 0 
L 628 4666 
L 2053 4666 
Q 2853 4666 3247 4331 
Q 3641 3997 3641 3322 
Q 3641 2881 3436 2590 
Q 3231 2300 2841 2188 
z
M 1259 4147 
L 1259 2491 
L 2053 2491 
Q 2509 2491 2742 2702 
Q 2975 2913 2975 3322 
Q 2975 3731 2742 3939 
Q 2509 4147 2053 4147 
L 1259 4147 
z
" transform="scale(0.015625)"/>
       <path id="DejaVuSans-65" d="M 3597 1894 
L 3597 1613 
L 953 1613 
Q 991 1019 1311 708 
Q 1631 397 2203 397 
Q 2534 397 2845 478 
Q 3156 559 3463 722 
L 3463 178 
Q 3153 47 2828 -22 
Q 2503 -91 2169 -91 
Q 1331 -91 842 396 
Q 353 884 353 1716 
Q 353 2575 817 3079 
Q 1281 3584 2069 3584 
Q 2775 3584 3186 3129 
Q 3597 2675 3597 1894 
z
M 3022 2063 
Q 3016 2534 2758 2815 
Q 2500 3097 2075 3097 
Q 1594 3097 1305 2825 
Q 1016 2553 972 2059 
L 3022 2063 
z
" transform="scale(0.015625)"/>
       <path id="DejaVuSans-77" d="M 269 3500 
L 844 3500 
L 1563 769 
L 2278 3500 
L 2956 3500 
L 3675 769 
L 4391 3500 
L 4966 3500 
L 4050 0 
L 3372 0 
L 2619 2869 
L 1863 0 
L 1184 0 
L 269 3500 
z
" transform="scale(0.015625)"/>
       <path id="DejaVuSans-61" d="M 2194 1759 
Q 1497 1759 1228 1600 
Q 959 1441 959 1056 
Q 959 750 1161 570 
Q 1363 391 1709 391 
Q 2188 391 2477 730 
Q 2766 1069 2766 1631 
L 2766 1759 
L 2194 1759 
z
M 3341 1997 
L 3341 0 
L 2766 0 
L 2766 531 
Q 2569 213 2275 61 
Q 1981 -91 1556 -91 
Q 1019 -91 701 211 
Q 384 513 384 1019 
Q 384 1609 779 1909 
Q 1175 2209 1959 2209 
L 2766 2209 
L 2766 2266 
Q 2766 2663 2505 2880 
Q 2244 3097 1772 3097 
Q 1472 3097 1187 3025 
Q 903 2953 641 2809 
L 641 3341 
Q 956 3463 1253 3523 
Q 1550 3584 1831 3584 
Q 2591 3584 2966 3190 
Q 3341 2797 3341 1997 
z
" transform="scale(0.015625)"/>
       <path id="DejaVuSans-72" d="M 2631 2963 
Q 2534 3019 2420 3045 
Q 2306 3072 2169 3072 
Q 1681 3072 1420 2755 
Q 1159 2438 1159 1844 
L 1159 0 
L 581 0 
L 581 3500 
L 1159 3500 
L 1159 2956 
Q 1341 3275 1631 3429 
Q 1922 3584 2338 3584 
Q 2397 3584 2469 3576 
Q 2541 3569 2628 3553 
L 2631 2963 
z
" transform="scale(0.015625)"/>
       <path id="DejaVuSans-64" d="M 2906 2969 
L 2906 4863 
L 3481 4863 
L 3481 0 
L 2906 0 
L 2906 525 
Q 2725 213 2448 61 
Q 2172 -91 1784 -91 
Q 1150 -91 751 415 
Q 353 922 353 1747 
Q 353 2572 751 3078 
Q 1150 3584 1784 3584 
Q 2172 3584 2448 3432 
Q 2725 3281 2906 2969 
z
M 947 1747 
Q 947 1113 1208 752 
Q 1469 391 1925 391 
Q 2381 391 2643 752 
Q 2906 1113 2906 1747 
Q 2906 2381 2643 2742 
Q 2381 3103 1925 3103 
Q 1469 3103 1208 2742 
Q 947 2381 947 1747 
z
" transform="scale(0.015625)"/>
      </defs>
      <use xlink:href="#DejaVuSans-52"/>
      <use xlink:href="#DejaVuSans-65" x="64.982422"/>
      <use xlink:href="#DejaVuSans-77" x="126.505859"/>
      <use xlink:href="#DejaVuSans-61" x="208.292969"/>
      <use xlink:href="#DejaVuSans-72" x="269.572266"/>
      <use xlink:href="#DejaVuSans-64" x="308.935547"/>
     </g>
    </g>
   </g>
   <g id="line2d_19">
    <path d="M 73.832727 295.488 
L 77.112066 295.485541 
L 80.391405 295.482532 
L 83.670744 295.478849 
L 86.950083 295.474342 
L 90.229421 295.468826 
L 93.50876 295.462076 
L 96.788099 295.453815 
L 100.067438 295.443705 
L 103.346777 295.431333 
L 106.626116 295.416193 
L 109.905455 295.397666 
L 113.184793 295.374996 
L 116.464132 295.347256 
L 119.743471 295.313314 
L 123.02281 295.271787 
L 126.302149 295.220982 
L 129.581488 295.158833 
L 132.860826 295.082813 
L 136.140165 294.98984 
L 139.419504 294.87615 
L 142.698843 294.737153 
L 145.978182 294.567257 
L 149.257521 294.359651 
L 152.53686 294.106055 
L 155.816198 293.79641 
L 159.095537 293.418528 
L 162.374876 292.957663 
L 165.654215 292.396027 
L 168.933554 291.712232 
L 172.212893 290.880664 
L 175.492231 289.8708 
L 178.77157 288.64649 
L 182.050909 287.165245 
L 185.330248 285.377598 
L 188.609587 283.226632 
L 191.888926 280.647834 
L 195.168264 277.569454 
L 198.447603 273.913633 
L 201.726942 269.598577 
L 205.006281 264.542096 
L 208.28562 258.666749 
L 211.564959 251.906704 
L 214.844298 244.216158 
L 218.123636 235.578716 
L 221.402975 226.016662 
L 224.682314 215.598513 
L 227.961653 204.443031 
L 231.240992 192.717955 
L 234.520331 180.632456 
L 237.799669 168.423544 
L 241.079008 156.338045 
L 244.358347 144.612969 
L 247.637686 133.457487 
L 250.917025 123.039338 
L 254.196364 113.477284 
L 257.475702 104.839842 
L 260.755041 97.149296 
L 264.03438 90.389251 
L 267.313719 84.513904 
L 270.593058 79.457423 
L 273.872397 75.142367 
L 277.151736 71.486546 
L 280.431074 68.408166 
L 283.710413 65.829368 
L 286.989752 63.678402 
L 290.269091 61.890755 
L 293.54843 60.40951 
L 296.827769 59.1852 
L 300.107107 58.175336 
L 303.386446 57.343768 
L 306.665785 56.659973 
L 309.945124 56.098337 
L 313.224463 55.637472 
L 316.503802 55.25959 
L 319.78314 54.949945 
L 323.062479 54.696349 
L 326.341818 54.488743 
L 329.621157 54.318847 
L 332.900496 54.17985 
L 336.179835 54.06616 
L 339.459174 53.973187 
L 342.738512 53.897167 
L 346.017851 53.835018 
L 349.29719 53.784213 
L 352.576529 53.742686 
L 355.855868 53.708744 
L 359.135207 53.681004 
L 362.414545 53.658334 
L 365.693884 53.639807 
L 368.973223 53.624667 
L 372.252562 53.612295 
L 375.531901 53.602185 
L 378.81124 53.593924 
L 382.090579 53.587174 
L 385.369917 53.581658 
L 388.649256 53.577151 
L 391.928595 53.573468 
L 395.207934 53.570459 
L 398.487273 53.568 
" clip-path="url(#p04dfbb789a)" style="fill: none; stroke: #1f77b4; stroke-width: 1.5; stroke-linecap: square"/>
   </g>
   <g id="line2d_20">
    <path d="M 73.832727 295.488 
L 77.112066 295.487798 
L 80.391405 295.487551 
L 83.670744 295.487248 
L 86.950083 295.486878 
L 90.229421 295.486425 
L 93.50876 295.485871 
L 96.788099 295.485192 
L 100.067438 295.484361 
L 103.346777 295.483345 
L 106.626116 295.482101 
L 109.905455 295.480578 
L 113.184793 295.478715 
L 116.464132 295.476434 
L 119.743471 295.473644 
L 123.02281 295.470228 
L 126.302149 295.466048 
L 129.581488 295.460932 
L 132.860826 295.454671 
L 136.140165 295.447009 
L 139.419504 295.437632 
L 142.698843 295.426157 
L 145.978182 295.412114 
L 149.257521 295.39493 
L 152.53686 295.373902 
L 155.816198 295.348172 
L 159.095537 295.316689 
L 162.374876 295.278169 
L 165.654215 295.231042 
L 168.933554 295.173389 
L 172.212893 295.102867 
L 175.492231 295.016613 
L 178.77157 294.911132 
L 182.050909 294.782163 
L 185.330248 294.624508 
L 188.609587 294.431839 
L 191.888926 294.196455 
L 195.168264 293.909 
L 198.447603 293.558124 
L 201.726942 293.130088 
L 205.006281 292.608299 
L 208.28562 291.972778 
L 211.564959 291.199562 
L 214.844298 290.26004 
L 218.123636 289.12024 
L 221.402975 287.740112 
L 224.682314 286.072852 
L 227.961653 284.064349 
L 231.240992 281.652899 
L 234.520331 278.769351 
L 237.799669 275.337907 
L 241.079008 271.277878 
L 244.358347 266.506672 
L 247.637686 260.944317 
L 250.917025 254.519683 
L 254.196364 247.178366 
L 257.475702 238.891807 
L 260.755041 229.666773 
L 264.03438 219.553764 
L 267.313719 208.652581 
L 270.593058 197.113203 
L 273.872397 185.130645 
L 277.151736 172.933508 
L 280.431074 160.767336 
L 283.710413 148.875202 
L 286.989752 137.478701 
L 290.269091 126.762423 
L 293.54843 116.864034 
L 296.827769 107.870716 
L 300.107107 99.821372 
L 303.386446 92.713076 
L 306.665785 86.509914 
L 309.945124 81.152482 
L 313.224463 76.566763 
L 316.503802 72.671614 
L 319.78314 69.384558 
L 323.062479 66.625902 
L 326.341818 64.321389 
L 329.621157 62.403683 
L 332.900496 60.812986 
L 336.179835 59.497054 
L 339.459174 58.410828 
L 342.738512 57.515846 
L 346.017851 56.779543 
L 349.29719 56.174535 
L 352.576529 55.677914 
L 355.855868 55.270604 
L 359.135207 54.936771 
L 362.414545 54.663313 
L 365.693884 54.439415 
L 368.973223 54.256164 
L 372.252562 54.106226 
L 375.531901 53.983576 
L 378.81124 53.883269 
L 382.090579 53.801249 
L 385.369917 53.734191 
L 388.649256 53.679371 
L 391.928595 53.63456 
L 395.207934 53.597935 
L 398.487273 53.568 
" clip-path="url(#p04dfbb789a)" style="fill: none; stroke: #ff7f0e; stroke-width: 1.5; stroke-linecap: square"/>
   </g>
   <g id="line2d_21">
    <path d="M 73.832727 295.488 
L 77.112066 295.487983 
L 80.391405 295.487963 
L 83.670744 295.487938 
L 86.950083 295.487907 
L 90.229421 295.48787 
L 93.50876 295.487824 
L 96.788099 295.487768 
L 100.067438 295.487699 
L 103.346777 295.487616 
L 106.626116 295.487513 
L 109.905455 295.487387 
L 113.184793 295.487233 
L 116.464132 295.487045 
L 119.743471 295.486814 
L 123.02281 295.486532 
L 126.302149 295.486187 
L 129.581488 295.485764 
L 132.860826 295.485247 
L 136.140165 295.484614 
L 139.419504 295.483839 
L 142.698843 295.482891 
L 145.978182 295.481731 
L 149.257521 295.48031 
L 152.53686 295.478572 
L 155.816198 295.476445 
L 159.095537 295.473842 
L 162.374876 295.470656 
L 165.654215 295.466756 
L 168.933554 295.461984 
L 172.212893 295.456144 
L 175.492231 295.448997 
L 178.77157 295.44025 
L 182.050909 295.429547 
L 185.330248 295.416448 
L 188.609587 295.400418 
L 191.888926 295.380803 
L 195.168264 295.356801 
L 198.447603 295.327431 
L 201.726942 295.291497 
L 205.006281 295.247532 
L 208.28562 295.193746 
L 211.564959 295.127951 
L 214.844298 295.047475 
L 218.123636 294.949055 
L 221.402975 294.82871 
L 224.682314 294.681585 
L 227.961653 294.501766 
L 231.240992 294.282051 
L 234.520331 294.01369 
L 237.799669 293.686058 
L 241.079008 293.286283 
L 244.358347 292.798804 
L 247.637686 292.204866 
L 250.917025 291.481935 
L 254.196364 290.603059 
L 257.475702 289.536163 
L 260.755041 288.243329 
L 264.03438 286.680084 
L 267.313719 284.794792 
L 270.593058 282.528244 
L 273.872397 279.813617 
L 277.151736 276.577005 
L 280.431074 272.738787 
L 283.710413 268.216134 
L 286.989752 262.926949 
L 290.269091 256.795485 
L 293.54843 249.759667 
L 296.827769 241.779884 
L 300.107107 232.84853 
L 303.386446 222.999063 
L 306.665785 212.312905 
L 309.945124 200.922291 
L 313.224463 189.007464 
L 316.503802 176.787489 
L 319.78314 164.50524 
L 323.062479 152.408558 
L 326.341818 140.730591 
L 329.621157 129.672535 
L 332.900496 119.391377 
L 336.179835 109.993909 
L 339.459174 101.536921 
L 342.738512 94.032297 
L 346.017851 87.455231 
L 349.29719 81.753711 
L 352.576529 76.85781 
L 355.855868 72.687793 
L 359.135207 69.160605 
L 362.414545 66.194625 
L 365.693884 63.712854 
L 368.973223 61.644816 
L 372.252562 59.927469 
L 375.531901 58.505423 
L 378.81124 57.330692 
L 382.090579 56.362163 
L 385.369917 55.564932 
L 388.649256 54.909575 
L 391.928595 54.371433 
L 395.207934 53.929938 
L 398.487273 53.568 
" clip-path="url(#p04dfbb789a)" style="fill: none; stroke: #2ca02c; stroke-width: 1.5; stroke-linecap: square"/>
   </g>
   <g id="line2d_22">
    <path d="M 73.832727 295.488 
L 77.112066 295.487999 
L 80.391405 295.487997 
L 83.670744 295.487995 
L 86.950083 295.487992 
L 90.229421 295.487989 
L 93.50876 295.487984 
L 96.788099 295.48798 
L 100.067438 295.487973 
L 103.346777 295.487966 
L 106.626116 295.487957 
L 109.905455 295.487946 
L 113.184793 295.487932 
L 116.464132 295.487916 
L 119.743471 295.487895 
L 123.02281 295.48787 
L 126.302149 295.48784 
L 129.581488 295.487803 
L 132.860826 295.487757 
L 136.140165 295.487701 
L 139.419504 295.487633 
L 142.698843 295.487549 
L 145.978182 295.487447 
L 149.257521 295.487322 
L 152.53686 295.487168 
L 155.816198 295.48698 
L 159.095537 295.486751 
L 162.374876 295.48647 
L 165.654215 295.486126 
L 168.933554 295.485704 
L 172.212893 295.485189 
L 175.492231 295.484558 
L 178.77157 295.483786 
L 182.050909 295.482842 
L 185.330248 295.481685 
L 188.609587 295.48027 
L 191.888926 295.478538 
L 195.168264 295.476419 
L 198.447603 295.473825 
L 201.726942 295.47065 
L 205.006281 295.466765 
L 208.28562 295.46201 
L 211.564959 295.45619 
L 214.844298 295.449069 
L 218.123636 295.440353 
L 221.402975 295.429687 
L 224.682314 295.416634 
L 227.961653 295.400661 
L 231.240992 295.381115 
L 234.520331 295.357197 
L 237.799669 295.32793 
L 241.079008 295.29212 
L 244.358347 295.248307 
L 247.637686 295.194705 
L 250.917025 295.129133 
L 254.196364 295.048925 
L 257.475702 294.950829 
L 260.755041 294.830871 
L 264.03438 294.684208 
L 267.313719 294.504935 
L 270.593058 294.285863 
L 273.872397 294.018247 
L 277.151736 293.691466 
L 280.431074 293.292643 
L 283.710413 292.806195 
L 286.989752 292.213322 
L 290.269091 291.491401 
L 293.54843 290.613332 
L 296.827769 289.546793 
L 300.107107 288.253475 
L 303.386446 286.688304 
L 306.665785 284.798733 
L 309.945124 282.524205 
L 313.224463 279.795935 
L 316.503802 276.537226 
L 319.78314 272.664556 
L 323.062479 268.089783 
L 326.341818 262.723766 
L 329.621157 256.481703 
L 332.900496 249.290327 
L 336.179835 241.096829 
L 339.459174 231.878927 
L 342.738512 221.654996 
L 346.017851 210.492583 
L 349.29719 198.513334 
L 352.576529 185.892419 
L 355.855868 172.851236 
L 359.135207 159.643455 
L 362.414545 146.53597 
L 365.693884 133.787685 
L 368.973223 121.629614 
L 372.252562 110.249437 
L 375.531901 99.782488 
L 378.81124 90.309561 
L 382.090579 81.860629 
L 385.369917 74.422659 
L 388.649256 67.949501 
L 391.928595 62.37211 
L 395.207934 57.607819 
L 398.487273 53.568 
" clip-path="url(#p04dfbb789a)" style="fill: none; stroke: #d62728; stroke-width: 1.5; stroke-linecap: square"/>
   </g>
   <g id="line2d_23">
    <path d="M 73.832727 295.488 
L 77.112066 295.488 
L 80.391405 295.488 
L 83.670744 295.487999 
L 86.950083 295.487999 
L 90.229421 295.487998 
L 93.50876 295.487998 
L 96.788099 295.487997 
L 100.067438 295.487996 
L 103.346777 295.487995 
L 106.626116 295.487993 
L 109.905455 295.487992 
L 113.184793 295.48799 
L 116.464132 295.487987 
L 119.743471 295.487984 
L 123.02281 295.48798 
L 126.302149 295.487976 
L 129.581488 295.48797 
L 132.860826 295.487963 
L 136.140165 295.487955 
L 139.419504 295.487944 
L 142.698843 295.487932 
L 145.978182 295.487916 
L 149.257521 295.487897 
L 152.53686 295.487874 
L 155.816198 295.487845 
L 159.095537 295.48781 
L 162.374876 295.487768 
L 165.654215 295.487716 
L 168.933554 295.487652 
L 172.212893 295.487574 
L 175.492231 295.487478 
L 178.77157 295.487361 
L 182.050909 295.487217 
L 185.330248 295.487042 
L 188.609587 295.486827 
L 191.888926 295.486564 
L 195.168264 295.486243 
L 198.447603 295.485849 
L 201.726942 295.485368 
L 205.006281 295.484778 
L 208.28562 295.484056 
L 211.564959 295.483173 
L 214.844298 295.482093 
L 218.123636 295.48077 
L 221.402975 295.479151 
L 224.682314 295.47717 
L 227.961653 295.474745 
L 231.240992 295.471778 
L 234.520331 295.468146 
L 237.799669 295.463701 
L 241.079008 295.458261 
L 244.358347 295.451604 
L 247.637686 295.443457 
L 250.917025 295.433485 
L 254.196364 295.421282 
L 257.475702 295.406349 
L 260.755041 295.388073 
L 264.03438 295.365707 
L 267.313719 295.338337 
L 270.593058 295.304844 
L 273.872397 295.263859 
L 277.151736 295.213709 
L 280.431074 295.152344 
L 283.710413 295.077264 
L 286.989752 294.985407 
L 290.269091 294.873032 
L 293.54843 294.735572 
L 296.827769 294.567444 
L 300.107107 294.361836 
L 303.386446 294.110436 
L 306.665785 293.803111 
L 309.945124 293.427517 
L 313.224463 292.968632 
L 316.503802 292.408204 
L 319.78314 291.724086 
L 323.062479 290.889456 
L 326.341818 289.871917 
L 329.621157 288.632443 
L 332.900496 287.124202 
L 336.179835 285.291236 
L 339.459174 283.067061 
L 342.738512 280.373218 
L 346.017851 277.117903 
L 349.29719 273.194828 
L 352.576529 268.482557 
L 355.855868 262.844666 
L 359.135207 256.131162 
L 362.414545 248.181706 
L 365.693884 238.831255 
L 368.973223 227.918688 
L 372.252562 215.298821 
L 375.531901 200.857766 
L 378.81124 184.530937 
L 382.090579 166.322034 
L 385.369917 146.320315 
L 388.649256 124.712632 
L 391.928595 101.786538 
L 395.207934 77.921593 
L 398.487273 53.568 
" clip-path="url(#p04dfbb789a)" style="fill: none; stroke: #9467bd; stroke-width: 1.5; stroke-linecap: square"/>
   </g>
   <g id="patch_3">
    <path d="M 57.6 307.584 
L 57.6 41.472 
" style="fill: none; stroke: #000000; stroke-width: 0.8; stroke-linejoin: miter; stroke-linecap: square"/>
   </g>
   <g id="patch_4">
    <path d="M 414.72 307.584 
L 414.72 41.472 
" style="fill: none; stroke: #000000; stroke-width: 0.8; stroke-linejoin: miter; stroke-linecap: square"/>
   </g>
   <g id="patch_5">
    <path d="M 57.6 307.584 
L 414.72 307.584 
" style="fill: none; stroke: #000000; stroke-width: 0.8; stroke-linejoin: miter; stroke-linecap: square"/>
   </g>
   <g id="patch_6">
    <path d="M 57.6 41.472 
L 414.72 41.472 
" style="fill: none; stroke: #000000; stroke-width: 0.8; stroke-linejoin: miter; stroke-linecap: square"/>
   </g>
   <g id="legend_1">
    <g id="patch_7">
     <path d="M 64.6 122.862625 
L 127.23125 122.862625 
Q 129.23125 122.862625 129.23125 120.862625 
L 129.23125 48.472 
Q 129.23125 46.472 127.23125 46.472 
L 64.6 46.472 
Q 62.6 46.472 62.6 48.472 
L 62.6 120.862625 
Q 62.6 122.862625 64.6 122.862625 
z
" style="fill: #ffffff; opacity: 0.8; stroke: #cccccc; stroke-linejoin: miter"/>
    </g>
    <g id="line2d_24">
     <path d="M 66.6 54.570438 
L 76.6 54.570438 
L 86.6 54.570438 
" style="fill: none; stroke: #1f77b4; stroke-width: 1.5; stroke-linecap: square"/>
    </g>
    <g id="text_21">
     <!-- b=0.0 -->
     <g transform="translate(94.6 58.070438) scale(0.1 -0.1)">
      <defs>
       <path id="DejaVuSans-62" d="M 3116 1747 
Q 3116 2381 2855 2742 
Q 2594 3103 2138 3103 
Q 1681 3103 1420 2742 
Q 1159 2381 1159 1747 
Q 1159 1113 1420 752 
Q 1681 391 2138 391 
Q 2594 391 2855 752 
Q 3116 1113 3116 1747 
z
M 1159 2969 
Q 1341 3281 1617 3432 
Q 1894 3584 2278 3584 
Q 2916 3584 3314 3078 
Q 3713 2572 3713 1747 
Q 3713 922 3314 415 
Q 2916 -91 2278 -91 
Q 1894 -91 1617 61 
Q 1341 213 1159 525 
L 1159 0 
L 581 0 
L 581 4863 
L 1159 4863 
L 1159 2969 
z
" transform="scale(0.015625)"/>
       <path id="DejaVuSans-3d" d="M 678 2906 
L 4684 2906 
L 4684 2381 
L 678 2381 
L 678 2906 
z
M 678 1631 
L 4684 1631 
L 4684 1100 
L 678 1100 
L 678 1631 
z
" transform="scale(0.015625)"/>
      </defs>
      <use xlink:href="#DejaVuSans-62"/>
      <use xlink:href="#DejaVuSans-3d" x="63.476562"/>
      <use xlink:href="#DejaVuSans-30" x="147.265625"/>
      <use xlink:href="#DejaVuSans-2e" x="210.888672"/>
      <use xlink:href="#DejaVuSans-30" x="242.675781"/>
     </g>
    </g>
    <g id="line2d_25">
     <path d="M 66.6 69.248563 
L 76.6 69.248563 
L 86.6 69.248563 
" style="fill: none; stroke: #ff7f0e; stroke-width: 1.5; stroke-linecap: square"/>
    </g>
    <g id="text_22">
     <!-- b=0.2 -->
     <g transform="translate(94.6 72.748563) scale(0.1 -0.1)">
      <use xlink:href="#DejaVuSans-62"/>
      <use xlink:href="#DejaVuSans-3d" x="63.476562"/>
      <use xlink:href="#DejaVuSans-30" x="147.265625"/>
      <use xlink:href="#DejaVuSans-2e" x="210.888672"/>
      <use xlink:href="#DejaVuSans-32" x="242.675781"/>
     </g>
    </g>
    <g id="line2d_26">
     <path d="M 66.6 83.926688 
L 76.6 83.926688 
L 86.6 83.926688 
" style="fill: none; stroke: #2ca02c; stroke-width: 1.5; stroke-linecap: square"/>
    </g>
    <g id="text_23">
     <!-- b=0.5 -->
     <g transform="translate(94.6 87.426688) scale(0.1 -0.1)">
      <use xlink:href="#DejaVuSans-62"/>
      <use xlink:href="#DejaVuSans-3d" x="63.476562"/>
      <use xlink:href="#DejaVuSans-30" x="147.265625"/>
      <use xlink:href="#DejaVuSans-2e" x="210.888672"/>
      <use xlink:href="#DejaVuSans-35" x="242.675781"/>
     </g>
    </g>
    <g id="line2d_27">
     <path d="M 66.6 98.604813 
L 76.6 98.604813 
L 86.6 98.604813 
" style="fill: none; stroke: #d62728; stroke-width: 1.5; stroke-linecap: square"/>
    </g>
    <g id="text_24">
     <!-- b=0.8 -->
     <g transform="translate(94.6 102.104813) scale(0.1 -0.1)">
      <defs>
       <path id="DejaVuSans-38" d="M 2034 2216 
Q 1584 2216 1326 1975 
Q 1069 1734 1069 1313 
Q 1069 891 1326 650 
Q 1584 409 2034 409 
Q 2484 409 2743 651 
Q 3003 894 3003 1313 
Q 3003 1734 2745 1975 
Q 2488 2216 2034 2216 
z
M 1403 2484 
Q 997 2584 770 2862 
Q 544 3141 544 3541 
Q 544 4100 942 4425 
Q 1341 4750 2034 4750 
Q 2731 4750 3128 4425 
Q 3525 4100 3525 3541 
Q 3525 3141 3298 2862 
Q 3072 2584 2669 2484 
Q 3125 2378 3379 2068 
Q 3634 1759 3634 1313 
Q 3634 634 3220 271 
Q 2806 -91 2034 -91 
Q 1263 -91 848 271 
Q 434 634 434 1313 
Q 434 1759 690 2068 
Q 947 2378 1403 2484 
z
M 1172 3481 
Q 1172 3119 1398 2916 
Q 1625 2713 2034 2713 
Q 2441 2713 2670 2916 
Q 2900 3119 2900 3481 
Q 2900 3844 2670 4047 
Q 2441 4250 2034 4250 
Q 1625 4250 1398 4047 
Q 1172 3844 1172 3481 
z
" transform="scale(0.015625)"/>
      </defs>
      <use xlink:href="#DejaVuSans-62"/>
      <use xlink:href="#DejaVuSans-3d" x="63.476562"/>
      <use xlink:href="#DejaVuSans-30" x="147.265625"/>
      <use xlink:href="#DejaVuSans-2e" x="210.888672"/>
      <use xlink:href="#DejaVuSans-38" x="242.675781"/>
     </g>
    </g>
    <g id="line2d_28">
     <path d="M 66.6 113.282938 
L 76.6 113.282938 
L 86.6 113.282938 
" style="fill: none; stroke: #9467bd; stroke-width: 1.5; stroke-linecap: square"/>
    </g>
    <g id="text_25">
     <!-- b=1.0 -->
     <g transform="translate(94.6 116.782938) scale(0.1 -0.1)">
      <use xlink:href="#DejaVuSans-62"/>
      <use xlink:href="#DejaVuSans-3d" x="63.476562"/>
      <use xlink:href="#DejaVuSans-31" x="147.265625"/>
      <use xlink:href="#DejaVuSans-2e" x="210.888672"/>
      <use xlink:href="#DejaVuSans-30" x="242.675781"/>
     </g>
    </g>
   </g>
  </g>
 </g>
 <defs>
  <clipPath id="p04dfbb789a">
   <rect x="57.6" y="41.472" width="357.12" height="266.112"/>
  </clipPath>
 </defs>
</svg>
