<?xml version="1.0" encoding="utf-8" standalone="no"?>
<!DOCTYPE svg PUBLIC "-//W3C//DTD SVG 1.1//EN"
  "http://www.w3.org/Graphics/SVG/1.1/DTD/svg11.dtd">
<svg xmlns:xlink="http://www.w3.org/1999/xlink" width="460.8pt" height="345.6pt" viewBox="0 0 460.8 345.6" xmlns="http://www.w3.org/2000/svg" version="1.1">
 <metadata>
  <rdf:RDF xmlns:dc="http://purl.org/dc/elements/1.1/" xmlns:cc="http://creativecommons.org/ns#" xmlns:rdf="http://www.w3.org/1999/02/22-rdf-syntax-ns#">
   <cc:Work>
    <dc:type rdf:resource="http://purl.org/dc/dcmitype/StillImage"/>
    <dc:date>2023-09-03T14:33:42.130959</dc:date>
    <dc:format>image/svg+xml</dc:format>
    <dc:creator>
     <cc:Agent>
      <dc:title>Matplotlib v3.7.2, https://matplotlib.org/</dc:title>
     </cc:Agent>
    </dc:creator>
   </cc:Work>
  </rdf:RDF>
 </metadata>
 <defs>
  <style type="text/css">*{stroke-linejoin: round; stroke-linecap: butt}</style>
 </defs>
 <g id="figure_1">
  <g id="patch_1">
   <path d="M 0 345.6 
L 460.8 345.6 
L 460.8 0 
L 0 0 
z
" style="fill: #ffffff"/>
  </g>
  <g id="axes_1">
   <g id="patch_2">
    <path d="M 57.6 307.584 
L 414.72 307.584 
L 414.72 41.472 
L 57.6 41.472 
z
" style="fill: #ffffff"/>
   </g>
   <g id="matplotlib.axis_1">
    <g id="xtick_1">
     <g id="line2d_1">
      <defs>
       <path id="mb51a94c8e8" d="M 0 0 
L 0 3.5 
" style="stroke: #000000; stroke-width: 0.8"/>
      </defs>
      <g>
       <use xlink:href="#mb51a94c8e8" x="73.832727" y="307.584" style="stroke: #000000; stroke-width: 0.8"/>
      </g>
     </g>
     <g id="text_1">
      <!-- −2.0 -->
      <g transform="translate(61.691321 322.182437) scale(0.1 -0.1)">
       <defs>
        <path id="DejaVuSans-2212" d="M 678 2272 
L 4684 2272 
L 4684 1741 
L 678 1741 
L 678 2272 
z
" transform="scale(0.015625)"/>
        <path id="DejaVuSans-32" d="M 1228 531 
L 3431 531 
L 3431 0 
L 469 0 
L 469 531 
Q 828 903 1448 1529 
Q 2069 2156 2228 2338 
Q 2531 2678 2651 2914 
Q 2772 3150 2772 3378 
Q 2772 3750 2511 3984 
Q 2250 4219 1831 4219 
Q 1534 4219 1204 4116 
Q 875 4013 500 3803 
L 500 4441 
Q 881 4594 1212 4672 
Q 1544 4750 1819 4750 
Q 2544 4750 2975 4387 
Q 3406 4025 3406 3419 
Q 3406 3131 3298 2873 
Q 3191 2616 2906 2266 
Q 2828 2175 2409 1742 
Q 1991 1309 1228 531 
z
" transform="scale(0.015625)"/>
        <path id="DejaVuSans-2e" d="M 684 794 
L 1344 794 
L 1344 0 
L 684 0 
L 684 794 
z
" transform="scale(0.015625)"/>
        <path id="DejaVuSans-30" d="M 2034 4250 
Q 1547 4250 1301 3770 
Q 1056 3291 1056 2328 
Q 1056 1369 1301 889 
Q 1547 409 2034 409 
Q 2525 409 2770 889 
Q 3016 1369 3016 2328 
Q 3016 3291 2770 3770 
Q 2525 4250 2034 4250 
z
M 2034 4750 
Q 2819 4750 3233 4129 
Q 3647 3509 3647 2328 
Q 3647 1150 3233 529 
Q 2819 -91 2034 -91 
Q 1250 -91 836 529 
Q 422 1150 422 2328 
Q 422 3509 836 4129 
Q 1250 4750 2034 4750 
z
" transform="scale(0.015625)"/>
       </defs>
       <use xlink:href="#DejaVuSans-2212"/>
       <use xlink:href="#DejaVuSans-32" x="83.789062"/>
       <use xlink:href="#DejaVuSans-2e" x="147.412109"/>
       <use xlink:href="#DejaVuSans-30" x="179.199219"/>
      </g>
     </g>
    </g>
    <g id="xtick_2">
     <g id="line2d_2">
      <g>
       <use xlink:href="#mb51a94c8e8" x="114.414545" y="307.584" style="stroke: #000000; stroke-width: 0.8"/>
      </g>
     </g>
     <g id="text_2">
      <!-- −1.5 -->
      <g transform="translate(102.273139 322.182437) scale(0.1 -0.1)">
       <defs>
        <path id="DejaVuSans-31" d="M 794 531 
L 1825 531 
L 1825 4091 
L 703 3866 
L 703 4441 
L 1819 4666 
L 2450 4666 
L 2450 531 
L 3481 531 
L 3481 0 
L 794 0 
L 794 531 
z
" transform="scale(0.015625)"/>
        <path id="DejaVuSans-35" d="M 691 4666 
L 3169 4666 
L 3169 4134 
L 1269 4134 
L 1269 2991 
Q 1406 3038 1543 3061 
Q 1681 3084 1819 3084 
Q 2600 3084 3056 2656 
Q 3513 2228 3513 1497 
Q 3513 744 3044 326 
Q 2575 -91 1722 -91 
Q 1428 -91 1123 -41 
Q 819 9 494 109 
L 494 744 
Q 775 591 1075 516 
Q 1375 441 1709 441 
Q 2250 441 2565 725 
Q 2881 1009 2881 1497 
Q 2881 1984 2565 2268 
Q 2250 2553 1709 2553 
Q 1456 2553 1204 2497 
Q 953 2441 691 2322 
L 691 4666 
z
" transform="scale(0.015625)"/>
       </defs>
       <use xlink:href="#DejaVuSans-2212"/>
       <use xlink:href="#DejaVuSans-31" x="83.789062"/>
       <use xlink:href="#DejaVuSans-2e" x="147.412109"/>
       <use xlink:href="#DejaVuSans-35" x="179.199219"/>
      </g>
     </g>
    </g>
    <g id="xtick_3">
     <g id="line2d_3">
      <g>
       <use xlink:href="#mb51a94c8e8" x="154.996364" y="307.584" style="stroke: #000000; stroke-width: 0.8"/>
      </g>
     </g>
     <g id="text_3">
      <!-- −1.0 -->
      <g transform="translate(142.854957 322.182437) scale(0.1 -0.1)">
       <use xlink:href="#DejaVuSans-2212"/>
       <use xlink:href="#DejaVuSans-31" x="83.789062"/>
       <use xlink:href="#DejaVuSans-2e" x="147.412109"/>
       <use xlink:href="#DejaVuSans-30" x="179.199219"/>
      </g>
     </g>
    </g>
    <g id="xtick_4">
     <g id="line2d_4">
      <g>
       <use xlink:href="#mb51a94c8e8" x="195.578182" y="307.584" style="stroke: #000000; stroke-width: 0.8"/>
      </g>
     </g>
     <g id="text_4">
      <!-- −0.5 -->
      <g transform="translate(183.436776 322.182437) scale(0.1 -0.1)">
       <use xlink:href="#DejaVuSans-2212"/>
       <use xlink:href="#DejaVuSans-30" x="83.789062"/>
       <use xlink:href="#DejaVuSans-2e" x="147.412109"/>
       <use xlink:href="#DejaVuSans-35" x="179.199219"/>
      </g>
     </g>
    </g>
    <g id="xtick_5">
     <g id="line2d_5">
      <g>
       <use xlink:href="#mb51a94c8e8" x="236.16" y="307.584" style="stroke: #000000; stroke-width: 0.8"/>
      </g>
     </g>
     <g id="text_5">
      <!-- 0.0 -->
      <g transform="translate(228.208438 322.182437) scale(0.1 -0.1)">
       <use xlink:href="#DejaVuSans-30"/>
       <use xlink:href="#DejaVuSans-2e" x="63.623047"/>
       <use xlink:href="#DejaVuSans-30" x="95.410156"/>
      </g>
     </g>
    </g>
    <g id="xtick_6">
     <g id="line2d_6">
      <g>
       <use xlink:href="#mb51a94c8e8" x="276.741818" y="307.584" style="stroke: #000000; stroke-width: 0.8"/>
      </g>
     </g>
     <g id="text_6">
      <!-- 0.5 -->
      <g transform="translate(268.790256 322.182437) scale(0.1 -0.1)">
       <use xlink:href="#DejaVuSans-30"/>
       <use xlink:href="#DejaVuSans-2e" x="63.623047"/>
       <use xlink:href="#DejaVuSans-35" x="95.410156"/>
      </g>
     </g>
    </g>
    <g id="xtick_7">
     <g id="line2d_7">
      <g>
       <use xlink:href="#mb51a94c8e8" x="317.323636" y="307.584" style="stroke: #000000; stroke-width: 0.8"/>
      </g>
     </g>
     <g id="text_7">
      <!-- 1.0 -->
      <g transform="translate(309.372074 322.182437) scale(0.1 -0.1)">
       <use xlink:href="#DejaVuSans-31"/>
       <use xlink:href="#DejaVuSans-2e" x="63.623047"/>
       <use xlink:href="#DejaVuSans-30" x="95.410156"/>
      </g>
     </g>
    </g>
    <g id="xtick_8">
     <g id="line2d_8">
      <g>
       <use xlink:href="#mb51a94c8e8" x="357.905455" y="307.584" style="stroke: #000000; stroke-width: 0.8"/>
      </g>
     </g>
     <g id="text_8">
      <!-- 1.5 -->
      <g transform="translate(349.953892 322.182437) scale(0.1 -0.1)">
       <use xlink:href="#DejaVuSans-31"/>
       <use xlink:href="#DejaVuSans-2e" x="63.623047"/>
       <use xlink:href="#DejaVuSans-35" x="95.410156"/>
      </g>
     </g>
    </g>
    <g id="xtick_9">
     <g id="line2d_9">
      <g>
       <use xlink:href="#mb51a94c8e8" x="398.487273" y="307.584" style="stroke: #000000; stroke-width: 0.8"/>
      </g>
     </g>
     <g id="text_9">
      <!-- 2.0 -->
      <g transform="translate(390.53571 322.182437) scale(0.1 -0.1)">
       <use xlink:href="#DejaVuSans-32"/>
       <use xlink:href="#DejaVuSans-2e" x="63.623047"/>
       <use xlink:href="#DejaVuSans-30" x="95.410156"/>
      </g>
     </g>
    </g>
    <g id="text_10">
     <!-- XTE -->
     <g transform="translate(226.609219 335.860562) scale(0.1 -0.1)">
      <defs>
       <path id="DejaVuSans-58" d="M 403 4666 
L 1081 4666 
L 2241 2931 
L 3406 4666 
L 4084 4666 
L 2584 2425 
L 4184 0 
L 3506 0 
L 2194 1984 
L 872 0 
L 191 0 
L 1856 2491 
L 403 4666 
z
" transform="scale(0.015625)"/>
       <path id="DejaVuSans-54" d="M -19 4666 
L 3928 4666 
L 3928 4134 
L 2272 4134 
L 2272 0 
L 1638 0 
L 1638 4134 
L -19 4134 
L -19 4666 
z
" transform="scale(0.015625)"/>
       <path id="DejaVuSans-45" d="M 628 4666 
L 3578 4666 
L 3578 4134 
L 1259 4134 
L 1259 2753 
L 3481 2753 
L 3481 2222 
L 1259 2222 
L 1259 531 
L 3634 531 
L 3634 0 
L 628 0 
L 628 4666 
z
" transform="scale(0.015625)"/>
      </defs>
      <use xlink:href="#DejaVuSans-58"/>
      <use xlink:href="#DejaVuSans-54" x="66.755859"/>
      <use xlink:href="#DejaVuSans-45" x="127.839844"/>
     </g>
    </g>
   </g>
   <g id="matplotlib.axis_2">
    <g id="ytick_1">
     <g id="line2d_10">
      <defs>
       <path id="ma962d1880a" d="M 0 0 
L -3.5 0 
" style="stroke: #000000; stroke-width: 0.8"/>
      </defs>
      <g>
       <use xlink:href="#ma962d1880a" x="57.6" y="295.488" style="stroke: #000000; stroke-width: 0.8"/>
      </g>
     </g>
     <g id="text_11">
      <!-- −1.0 -->
      <g transform="translate(26.317187 299.287219) scale(0.1 -0.1)">
       <use xlink:href="#DejaVuSans-2212"/>
       <use xlink:href="#DejaVuSans-31" x="83.789062"/>
       <use xlink:href="#DejaVuSans-2e" x="147.412109"/>
       <use xlink:href="#DejaVuSans-30" x="179.199219"/>
      </g>
     </g>
    </g>
    <g id="ytick_2">
     <g id="line2d_11">
      <g>
       <use xlink:href="#ma962d1880a" x="57.6" y="247.103956" style="stroke: #000000; stroke-width: 0.8"/>
      </g>
     </g>
     <g id="text_12">
      <!-- −0.8 -->
      <g transform="translate(26.317187 250.903174) scale(0.1 -0.1)">
       <defs>
        <path id="DejaVuSans-38" d="M 2034 2216 
Q 1584 2216 1326 1975 
Q 1069 1734 1069 1313 
Q 1069 891 1326 650 
Q 1584 409 2034 409 
Q 2484 409 2743 651 
Q 3003 894 3003 1313 
Q 3003 1734 2745 1975 
Q 2488 2216 2034 2216 
z
M 1403 2484 
Q 997 2584 770 2862 
Q 544 3141 544 3541 
Q 544 4100 942 4425 
Q 1341 4750 2034 4750 
Q 2731 4750 3128 4425 
Q 3525 4100 3525 3541 
Q 3525 3141 3298 2862 
Q 3072 2584 2669 2484 
Q 3125 2378 3379 2068 
Q 3634 1759 3634 1313 
Q 3634 634 3220 271 
Q 2806 -91 2034 -91 
Q 1263 -91 848 271 
Q 434 634 434 1313 
Q 434 1759 690 2068 
Q 947 2378 1403 2484 
z
M 1172 3481 
Q 1172 3119 1398 2916 
Q 1625 2713 2034 2713 
Q 2441 2713 2670 2916 
Q 2900 3119 2900 3481 
Q 2900 3844 2670 4047 
Q 2441 4250 2034 4250 
Q 1625 4250 1398 4047 
Q 1172 3844 1172 3481 
z
" transform="scale(0.015625)"/>
       </defs>
       <use xlink:href="#DejaVuSans-2212"/>
       <use xlink:href="#DejaVuSans-30" x="83.789062"/>
       <use xlink:href="#DejaVuSans-2e" x="147.412109"/>
       <use xlink:href="#DejaVuSans-38" x="179.199219"/>
      </g>
     </g>
    </g>
    <g id="ytick_3">
     <g id="line2d_12">
      <g>
       <use xlink:href="#ma962d1880a" x="57.6" y="198.719911" style="stroke: #000000; stroke-width: 0.8"/>
      </g>
     </g>
     <g id="text_13">
      <!-- −0.6 -->
      <g transform="translate(26.317187 202.51913) scale(0.1 -0.1)">
       <defs>
        <path id="DejaVuSans-36" d="M 2113 2584 
Q 1688 2584 1439 2293 
Q 1191 2003 1191 1497 
Q 1191 994 1439 701 
Q 1688 409 2113 409 
Q 2538 409 2786 701 
Q 3034 994 3034 1497 
Q 3034 2003 2786 2293 
Q 2538 2584 2113 2584 
z
M 3366 4563 
L 3366 3988 
Q 3128 4100 2886 4159 
Q 2644 4219 2406 4219 
Q 1781 4219 1451 3797 
Q 1122 3375 1075 2522 
Q 1259 2794 1537 2939 
Q 1816 3084 2150 3084 
Q 2853 3084 3261 2657 
Q 3669 2231 3669 1497 
Q 3669 778 3244 343 
Q 2819 -91 2113 -91 
Q 1303 -91 875 529 
Q 447 1150 447 2328 
Q 447 3434 972 4092 
Q 1497 4750 2381 4750 
Q 2619 4750 2861 4703 
Q 3103 4656 3366 4563 
z
" transform="scale(0.015625)"/>
       </defs>
       <use xlink:href="#DejaVuSans-2212"/>
       <use xlink:href="#DejaVuSans-30" x="83.789062"/>
       <use xlink:href="#DejaVuSans-2e" x="147.412109"/>
       <use xlink:href="#DejaVuSans-36" x="179.199219"/>
      </g>
     </g>
    </g>
    <g id="ytick_4">
     <g id="line2d_13">
      <g>
       <use xlink:href="#ma962d1880a" x="57.6" y="150.335867" style="stroke: #000000; stroke-width: 0.8"/>
      </g>
     </g>
     <g id="text_14">
      <!-- −0.4 -->
      <g transform="translate(26.317187 154.135085) scale(0.1 -0.1)">
       <defs>
        <path id="DejaVuSans-34" d="M 2419 4116 
L 825 1625 
L 2419 1625 
L 2419 4116 
z
M 2253 4666 
L 3047 4666 
L 3047 1625 
L 3713 1625 
L 3713 1100 
L 3047 1100 
L 3047 0 
L 2419 0 
L 2419 1100 
L 313 1100 
L 313 1709 
L 2253 4666 
z
" transform="scale(0.015625)"/>
       </defs>
       <use xlink:href="#DejaVuSans-2212"/>
       <use xlink:href="#DejaVuSans-30" x="83.789062"/>
       <use xlink:href="#DejaVuSans-2e" x="147.412109"/>
       <use xlink:href="#DejaVuSans-34" x="179.199219"/>
      </g>
     </g>
    </g>
    <g id="ytick_5">
     <g id="line2d_14">
      <g>
       <use xlink:href="#ma962d1880a" x="57.6" y="101.951822" style="stroke: #000000; stroke-width: 0.8"/>
      </g>
     </g>
     <g id="text_15">
      <!-- −0.2 -->
      <g transform="translate(26.317187 105.751041) scale(0.1 -0.1)">
       <use xlink:href="#DejaVuSans-2212"/>
       <use xlink:href="#DejaVuSans-30" x="83.789062"/>
       <use xlink:href="#DejaVuSans-2e" x="147.412109"/>
       <use xlink:href="#DejaVuSans-32" x="179.199219"/>
      </g>
     </g>
    </g>
    <g id="ytick_6">
     <g id="line2d_15">
      <g>
       <use xlink:href="#ma962d1880a" x="57.6" y="53.567778" style="stroke: #000000; stroke-width: 0.8"/>
      </g>
     </g>
     <g id="text_16">
      <!-- 0.0 -->
      <g transform="translate(34.696875 57.366997) scale(0.1 -0.1)">
       <use xlink:href="#DejaVuSans-30"/>
       <use xlink:href="#DejaVuSans-2e" x="63.623047"/>
       <use xlink:href="#DejaVuSans-30" x="95.410156"/>
      </g>
     </g>
    </g>
    <g id="text_17">
     <!-- Reward -->
     <g transform="translate(20.2375 193.149094) rotate(-90) scale(0.1 -0.1)">
      <defs>
       <path id="DejaVuSans-52" d="M 2841 2188 
Q 3044 2119 3236 1894 
Q 3428 1669 3622 1275 
L 4263 0 
L 3584 0 
L 2988 1197 
Q 2756 1666 2539 1819 
Q 2322 1972 1947 1972 
L 1259 1972 
L 1259 0 
L 628 0 
L 628 4666 
L 2053 4666 
Q 2853 4666 3247 4331 
Q 3641 3997 3641 3322 
Q 3641 2881 3436 2590 
Q 3231 2300 2841 2188 
z
M 1259 4147 
L 1259 2491 
L 2053 2491 
Q 2509 2491 2742 2702 
Q 2975 2913 2975 3322 
Q 2975 3731 2742 3939 
Q 2509 4147 2053 4147 
L 1259 4147 
z
" transform="scale(0.015625)"/>
       <path id="DejaVuSans-65" d="M 3597 1894 
L 3597 1613 
L 953 1613 
Q 991 1019 1311 708 
Q 1631 397 2203 397 
Q 2534 397 2845 478 
Q 3156 559 3463 722 
L 3463 178 
Q 3153 47 2828 -22 
Q 2503 -91 2169 -91 
Q 1331 -91 842 396 
Q 353 884 353 1716 
Q 353 2575 817 3079 
Q 1281 3584 2069 3584 
Q 2775 3584 3186 3129 
Q 3597 2675 3597 1894 
z
M 3022 2063 
Q 3016 2534 2758 2815 
Q 2500 3097 2075 3097 
Q 1594 3097 1305 2825 
Q 1016 2553 972 2059 
L 3022 2063 
z
" transform="scale(0.015625)"/>
       <path id="DejaVuSans-77" d="M 269 3500 
L 844 3500 
L 1563 769 
L 2278 3500 
L 2956 3500 
L 3675 769 
L 4391 3500 
L 4966 3500 
L 4050 0 
L 3372 0 
L 2619 2869 
L 1863 0 
L 1184 0 
L 269 3500 
z
" transform="scale(0.015625)"/>
       <path id="DejaVuSans-61" d="M 2194 1759 
Q 1497 1759 1228 1600 
Q 959 1441 959 1056 
Q 959 750 1161 570 
Q 1363 391 1709 391 
Q 2188 391 2477 730 
Q 2766 1069 2766 1631 
L 2766 1759 
L 2194 1759 
z
M 3341 1997 
L 3341 0 
L 2766 0 
L 2766 531 
Q 2569 213 2275 61 
Q 1981 -91 1556 -91 
Q 1019 -91 701 211 
Q 384 513 384 1019 
Q 384 1609 779 1909 
Q 1175 2209 1959 2209 
L 2766 2209 
L 2766 2266 
Q 2766 2663 2505 2880 
Q 2244 3097 1772 3097 
Q 1472 3097 1187 3025 
Q 903 2953 641 2809 
L 641 3341 
Q 956 3463 1253 3523 
Q 1550 3584 1831 3584 
Q 2591 3584 2966 3190 
Q 3341 2797 3341 1997 
z
" transform="scale(0.015625)"/>
       <path id="DejaVuSans-72" d="M 2631 2963 
Q 2534 3019 2420 3045 
Q 2306 3072 2169 3072 
Q 1681 3072 1420 2755 
Q 1159 2438 1159 1844 
L 1159 0 
L 581 0 
L 581 3500 
L 1159 3500 
L 1159 2956 
Q 1341 3275 1631 3429 
Q 1922 3584 2338 3584 
Q 2397 3584 2469 3576 
Q 2541 3569 2628 3553 
L 2631 2963 
z
" transform="scale(0.015625)"/>
       <path id="DejaVuSans-64" d="M 2906 2969 
L 2906 4863 
L 3481 4863 
L 3481 0 
L 2906 0 
L 2906 525 
Q 2725 213 2448 61 
Q 2172 -91 1784 -91 
Q 1150 -91 751 415 
Q 353 922 353 1747 
Q 353 2572 751 3078 
Q 1150 3584 1784 3584 
Q 2172 3584 2448 3432 
Q 2725 3281 2906 2969 
z
M 947 1747 
Q 947 1113 1208 752 
Q 1469 391 1925 391 
Q 2381 391 2643 752 
Q 2906 1113 2906 1747 
Q 2906 2381 2643 2742 
Q 2381 3103 1925 3103 
Q 1469 3103 1208 2742 
Q 947 2381 947 1747 
z
" transform="scale(0.015625)"/>
      </defs>
      <use xlink:href="#DejaVuSans-52"/>
      <use xlink:href="#DejaVuSans-65" x="64.982422"/>
      <use xlink:href="#DejaVuSans-77" x="126.505859"/>
      <use xlink:href="#DejaVuSans-61" x="208.292969"/>
      <use xlink:href="#DejaVuSans-72" x="269.572266"/>
      <use xlink:href="#DejaVuSans-64" x="308.935547"/>
     </g>
    </g>
   </g>
   <g id="line2d_16">
    <path d="M 73.832727 295.488 
L 168.07679 295.377955 
L 177.501196 295.13673 
L 183.025848 294.794654 
L 187.250581 294.322307 
L 190.500377 293.750354 
L 193.425192 293.000359 
L 195.700049 292.201072 
L 197.649926 291.316188 
L 199.599803 290.195704 
L 201.224701 289.038317 
L 202.849599 287.631974 
L 204.474496 285.925122 
L 206.099394 283.85649 
L 207.724292 281.353711 
L 209.02421 278.982354 
L 210.324128 276.229459 
L 211.624046 273.039478 
L 212.923964 269.350836 
L 214.223882 265.096016 
L 215.5238 260.20196 
L 216.823718 254.590888 
L 218.448616 246.444973 
L 220.073514 236.89119 
L 221.698411 225.774692 
L 223.323309 212.958558 
L 224.948206 198.339015 
L 226.573104 181.862967 
L 228.522981 159.668996 
L 230.797838 130.696194 
L 233.397674 94.342557 
L 235.99751 55.989321 
L 236.32249 55.989321 
L 240.547224 117.404792 
L 242.82208 147.631465 
L 244.771957 171.089363 
L 246.721835 191.972229 
L 248.346732 207.331455 
L 249.97163 220.85893 
L 251.596527 232.640336 
L 253.221425 242.80132 
L 254.846323 251.491197 
L 256.47122 258.869538 
L 258.096118 265.096016 
L 259.721016 270.323339 
L 261.345913 274.692811 
L 262.970811 278.331967 
L 264.595708 281.353711 
L 266.220606 283.85649 
L 267.845504 285.925122 
L 269.470401 287.631974 
L 271.095299 289.038317 
L 273.045176 290.401238 
L 274.995053 291.478571 
L 277.26991 292.452439 
L 279.544767 293.190893 
L 282.469582 293.883636 
L 285.719378 294.411816 
L 289.944111 294.847942 
L 295.468763 295.163745 
L 303.268272 295.363914 
L 317.242391 295.465815 
L 366.964259 295.487953 
L 398.487273 295.488 
L 398.487273 295.488 
" clip-path="url(#pb86541a987)" style="fill: none; stroke: #1f77b4; stroke-width: 1.5; stroke-linecap: square"/>
   </g>
   <g id="line2d_17">
    <path d="M 73.832727 295.488 
L 152.802752 295.377557 
L 161.902179 295.14941 
L 167.75181 294.79283 
L 171.976544 294.32021 
L 175.226339 293.748981 
L 178.151155 293.001677 
L 180.426011 292.207428 
L 182.700868 291.16369 
L 184.650745 290.013957 
L 186.275643 288.831501 
L 187.900541 287.401679 
L 189.525438 285.676542 
L 191.150336 283.60061 
L 192.775233 281.110511 
L 194.400131 278.135023 
L 196.025029 274.595746 
L 197.649926 270.408672 
L 199.274824 265.486966 
L 200.899722 259.745248 
L 202.524619 253.105596 
L 204.149517 245.505285 
L 205.774414 236.905959 
L 207.724292 225.265167 
L 209.674169 212.258702 
L 211.949025 195.607043 
L 215.198821 170.000393 
L 220.398493 128.99623 
L 222.67335 112.736648 
L 224.623227 100.142558 
L 226.573104 88.948862 
L 228.198002 80.726706 
L 229.822899 73.492658 
L 231.447797 67.198085 
L 233.072695 61.773555 
L 234.697592 57.137533 
L 235.99751 53.938312 
L 236.32249 53.938312 
L 237.947387 58.005787 
L 239.572285 62.79266 
L 241.197183 68.384949 
L 242.82208 74.862394 
L 244.446978 82.291006 
L 246.071876 90.71411 
L 248.021753 102.146989 
L 249.97163 114.963015 
L 252.246486 131.435714 
L 255.496282 156.910309 
L 261.020934 200.504642 
L 263.29579 216.736966 
L 265.245667 229.303016 
L 267.195545 240.466718 
L 268.820442 248.663803 
L 270.44534 255.873665 
L 272.070238 262.145573 
L 273.695135 267.549363 
L 275.320033 272.166773 
L 276.94493 276.084388 
L 278.569828 279.388335 
L 280.194726 282.160638 
L 281.819623 284.476956 
L 283.444521 286.405411 
L 285.069419 288.006197 
L 286.694316 289.331722 
L 288.644193 290.622026 
L 290.59407 291.645959 
L 292.868927 292.574611 
L 295.468763 293.366654 
L 298.393579 294.004886 
L 301.968354 294.531313 
L 306.193088 294.918684 
L 312.042719 295.210778 
L 320.817166 295.393897 
L 337.716102 295.47627 
L 398.487273 295.488 
L 398.487273 295.488 
" clip-path="url(#pb86541a987)" style="fill: none; stroke: #ff7f0e; stroke-width: 1.5; stroke-linecap: square"/>
   </g>
   <g id="line2d_18">
    <path d="M 73.832727 295.488 
L 132.979001 295.37923 
L 142.403407 295.140805 
L 148.253038 294.775192 
L 152.477772 294.290755 
L 155.727568 293.705484 
L 158.327404 293.039201 
L 160.60226 292.257496 
L 162.877117 291.230671 
L 164.826994 290.10013 
L 166.776871 288.67792 
L 168.401769 287.219713 
L 170.026667 285.462493 
L 171.651564 283.351087 
L 173.276462 280.82294 
L 174.90136 277.80841 
L 176.526257 274.231768 
L 178.151155 270.013168 
L 179.776052 265.071889 
L 181.40095 259.331078 
L 183.025848 252.724138 
L 184.650745 245.202639 
L 186.600622 234.942058 
L 188.5505 223.369102 
L 190.825356 208.382692 
L 193.750172 187.368647 
L 200.574742 137.370142 
L 202.849599 122.541666 
L 204.799476 111.127888 
L 206.749353 101.035435 
L 208.374251 93.653246 
L 209.999148 87.179854 
L 211.624046 81.563552 
L 213.248943 76.735733 
L 214.873841 72.618598 
L 216.498739 69.131291 
L 218.123636 66.194415 
L 219.748534 63.733052 
L 221.373432 61.678583 
L 222.998329 59.969552 
L 224.623227 58.551888 
L 226.573104 57.169706 
L 228.522981 56.071324 
L 230.797838 55.073968 
L 233.072695 54.314866 
L 235.672531 53.667961 
L 236.32249 53.600515 
L 239.247305 54.314866 
L 241.522162 55.073968 
L 243.797019 56.071324 
L 245.746896 57.169706 
L 247.696773 58.551888 
L 249.321671 59.969552 
L 250.946568 61.678583 
L 252.571466 63.733052 
L 254.196364 66.194415 
L 255.821261 69.131291 
L 257.446159 72.618598 
L 259.071057 76.735733 
L 260.695954 81.563552 
L 262.320852 87.179854 
L 263.945749 93.653246 
L 265.570647 101.035435 
L 267.195545 109.352393 
L 269.145422 120.55122 
L 271.420278 135.162825 
L 274.020115 153.484348 
L 282.794562 217.125998 
L 285.069419 231.226034 
L 287.019296 241.932066 
L 288.969173 251.294134 
L 290.59407 258.080846 
L 292.218968 263.990015 
L 293.843866 269.085278 
L 295.468763 273.442 
L 297.093661 277.140563 
L 298.718559 280.26129 
L 300.343456 282.880928 
L 301.968354 285.070442 
L 303.593251 286.89385 
L 305.218149 288.407797 
L 307.168026 289.885083 
L 309.117903 291.059908 
L 311.067781 291.992017 
L 313.342637 292.837251 
L 315.942473 293.55804 
L 318.867289 294.138785 
L 322.442064 294.617748 
L 326.991777 294.990452 
L 333.166388 295.255277 
L 342.915774 295.417994 
L 363.389484 295.482449 
L 398.487273 295.488 
L 398.487273 295.488 
" clip-path="url(#pb86541a987)" style="fill: none; stroke: #2ca02c; stroke-width: 1.5; stroke-linecap: square"/>
   </g>
   <g id="line2d_19">
    <path d="M 73.832727 295.488 
L 113.15525 295.37432 
L 122.254676 295.137675 
L 127.779328 294.79613 
L 132.004062 294.325309 
L 135.253857 293.75643 
L 138.178673 293.012494 
L 140.45353 292.222186 
L 142.728387 291.184195 
L 144.678264 290.041539 
L 146.628141 288.604356 
L 148.253038 287.131103 
L 149.877936 285.356167 
L 151.502834 283.224072 
L 153.127731 280.67201 
L 154.752629 277.630188 
L 156.377527 274.022887 
L 158.002424 269.770528 
L 159.627322 264.79301 
L 161.252219 259.014566 
L 162.877117 252.370255 
L 164.502015 244.813939 
L 166.451892 234.519103 
L 168.401769 222.925811 
L 170.676626 207.941816 
L 173.601441 186.985612 
L 180.426011 137.378733 
L 182.700868 122.73475 
L 184.650745 111.484159 
L 186.600622 101.551311 
L 188.22552 94.294944 
L 189.850418 87.938188 
L 191.475315 82.427841 
L 193.100213 77.694637 
L 194.725111 73.660766 
L 196.350008 70.245842 
L 197.974906 67.371241 
L 199.599803 64.963 
L 201.224701 62.953517 
L 202.849599 61.282358 
L 204.474496 59.896418 
L 206.424373 58.545436 
L 208.374251 57.472037 
L 210.649107 56.497514 
L 212.923964 55.755882 
L 215.84878 55.058045 
L 219.098575 54.5246 
L 222.998329 54.109673 
L 228.198002 53.790508 
L 235.672531 53.576055 
L 238.922326 53.621983 
L 246.396855 53.905622 
L 251.271548 54.292511 
L 255.171302 54.81907 
L 258.096118 55.415069 
L 260.695954 56.154661 
L 262.970811 57.021759 
L 264.920688 57.97775 
L 266.870565 59.18233 
L 268.495463 60.419667 
L 270.12036 61.913784 
L 271.745258 63.713492 
L 273.370156 65.874815 
L 274.995053 68.461105 
L 276.619951 71.542649 
L 278.244848 75.195539 
L 279.869746 79.499527 
L 281.494644 84.534578 
L 283.119541 90.375893 
L 284.744439 97.087293 
L 286.369337 104.713155 
L 288.319214 115.091195 
L 290.269091 126.762268 
L 292.543948 141.821873 
L 295.468763 162.836831 
L 301.968354 210.166747 
L 304.24321 224.943804 
L 306.193088 236.327223 
L 308.142965 246.399519 
L 309.767862 253.770943 
L 311.39276 260.237662 
L 313.017658 265.850273 
L 314.642555 270.676476 
L 316.267453 274.793372 
L 317.892351 278.281296 
L 319.517248 281.219276 
L 321.142146 283.681974 
L 322.767043 285.737846 
L 324.391941 287.448242 
L 326.016839 288.867175 
L 327.966716 290.250716 
L 329.916593 291.350262 
L 332.19145 292.348738 
L 334.466306 293.108735 
L 337.066143 293.75643 
L 340.315938 294.325309 
L 344.215692 294.767913 
L 349.415364 295.108438 
L 356.564914 295.331086 
L 368.589156 295.453012 
L 398.487273 295.488 
L 398.487273 295.488 
" clip-path="url(#pb86541a987)" style="fill: none; stroke: #d62728; stroke-width: 1.5; stroke-linecap: square"/>
   </g>
   <g id="line2d_20">
    <path d="M 73.832727 295.488 
L 94.956396 295.350801 
L 103.080885 295.096203 
L 108.280557 294.735769 
L 112.180311 294.267376 
L 115.430106 293.665502 
L 118.029943 292.980442 
L 120.304799 292.176879 
L 122.579656 291.12162 
L 124.529533 289.96014 
L 126.154431 288.766632 
L 127.779328 287.32484 
L 129.404226 285.587286 
L 131.029124 283.499345 
L 132.654021 280.999056 
L 134.278919 278.017405 
L 135.903817 274.479294 
L 137.528714 270.305475 
L 139.153612 265.415729 
L 140.778509 259.733544 
L 142.403407 253.192419 
L 144.028305 245.743686 
L 145.978182 235.578661 
L 147.928059 224.108346 
L 150.202916 209.246749 
L 153.127731 188.392303 
L 160.277281 136.504963 
L 162.552138 121.962534 
L 164.502015 110.810806 
L 166.451892 100.980254 
L 168.07679 93.807502 
L 169.701687 87.530146 
L 171.326585 82.09327 
L 172.951482 77.426611 
L 174.57638 73.45196 
L 176.201278 70.088968 
L 177.826175 67.259362 
L 179.451073 64.889715 
L 181.075971 62.913062 
L 182.700868 61.269641 
L 184.325766 59.907004 
L 186.275643 58.578997 
L 188.22552 57.524037 
L 190.500377 56.566394 
L 193.100213 55.748986 
L 196.025029 55.089887 
L 199.274824 54.586198 
L 203.499558 54.169535 
L 209.02421 53.867396 
L 217.148698 53.671037 
L 232.097756 53.574912 
L 252.571466 53.639736 
L 262.970811 53.855221 
L 269.145422 54.194501 
L 273.370156 54.628065 
L 276.94493 55.21683 
L 279.869746 55.929965 
L 282.144603 56.687752 
L 284.419459 57.683344 
L 286.369337 58.779737 
L 288.319214 60.159346 
L 289.944111 61.574288 
L 291.569009 63.279928 
L 293.193907 65.330163 
L 294.818804 67.786223 
L 296.443702 70.716447 
L 298.0686 74.195394 
L 299.693497 78.302017 
L 301.318395 83.116622 
L 302.943292 88.716349 
L 304.56819 95.169028 
L 306.193088 102.525499 
L 307.817985 110.810806 
L 309.767862 121.962534 
L 312.042719 136.504963 
L 314.642555 154.727401 
L 323.417002 217.918348 
L 325.691859 231.896189 
L 327.641736 242.504037 
L 329.591613 251.776426 
L 331.216511 258.495902 
L 332.841409 264.345005 
L 334.466306 269.387337 
L 336.091204 273.697965 
L 337.716102 277.356792 
L 339.340999 280.443559 
L 340.965897 283.034386 
L 342.590794 285.199606 
L 344.215692 287.002633 
L 345.84059 288.499556 
L 347.790467 289.96014 
L 349.740344 291.12162 
L 351.690221 292.043102 
L 353.965078 292.878668 
L 356.564914 293.59119 
L 359.48973 294.165259 
L 363.064505 294.638705 
L 367.614218 295.00711 
L 373.788829 295.268876 
L 383.538215 295.429714 
L 398.487273 295.488 
L 398.487273 295.488 
" clip-path="url(#pb86541a987)" style="fill: none; stroke: #9467bd; stroke-width: 1.5; stroke-linecap: square"/>
   </g>
   <g id="patch_3">
    <path d="M 57.6 307.584 
L 57.6 41.472 
" style="fill: none; stroke: #000000; stroke-width: 0.8; stroke-linejoin: miter; stroke-linecap: square"/>
   </g>
   <g id="patch_4">
    <path d="M 414.72 307.584 
L 414.72 41.472 
" style="fill: none; stroke: #000000; stroke-width: 0.8; stroke-linejoin: miter; stroke-linecap: square"/>
   </g>
   <g id="patch_5">
    <path d="M 57.6 307.584 
L 414.72 307.584 
" style="fill: none; stroke: #000000; stroke-width: 0.8; stroke-linejoin: miter; stroke-linecap: square"/>
   </g>
   <g id="patch_6">
    <path d="M 57.6 41.472 
L 414.72 41.472 
" style="fill: none; stroke: #000000; stroke-width: 0.8; stroke-linejoin: miter; stroke-linecap: square"/>
   </g>
   <g id="legend_1">
    <g id="patch_7">
     <path d="M 345.08875 122.862625 
L 407.72 122.862625 
Q 409.72 122.862625 409.72 120.862625 
L 409.72 48.472 
Q 409.72 46.472 407.72 46.472 
L 345.08875 46.472 
Q 343.08875 46.472 343.08875 48.472 
L 343.08875 120.862625 
Q 343.08875 122.862625 345.08875 122.862625 
z
" style="fill: #ffffff; opacity: 0.8; stroke: #cccccc; stroke-linejoin: miter"/>
    </g>
    <g id="line2d_21">
     <path d="M 347.08875 54.570438 
L 357.08875 54.570438 
L 367.08875 54.570438 
" style="fill: none; stroke: #1f77b4; stroke-width: 1.5; stroke-linecap: square"/>
    </g>
    <g id="text_18">
     <!-- b=0.0 -->
     <g transform="translate(375.08875 58.070438) scale(0.1 -0.1)">
      <defs>
       <path id="DejaVuSans-62" d="M 3116 1747 
Q 3116 2381 2855 2742 
Q 2594 3103 2138 3103 
Q 1681 3103 1420 2742 
Q 1159 2381 1159 1747 
Q 1159 1113 1420 752 
Q 1681 391 2138 391 
Q 2594 391 2855 752 
Q 3116 1113 3116 1747 
z
M 1159 2969 
Q 1341 3281 1617 3432 
Q 1894 3584 2278 3584 
Q 2916 3584 3314 3078 
Q 3713 2572 3713 1747 
Q 3713 922 3314 415 
Q 2916 -91 2278 -91 
Q 1894 -91 1617 61 
Q 1341 213 1159 525 
L 1159 0 
L 581 0 
L 581 4863 
L 1159 4863 
L 1159 2969 
z
" transform="scale(0.015625)"/>
       <path id="DejaVuSans-3d" d="M 678 2906 
L 4684 2906 
L 4684 2381 
L 678 2381 
L 678 2906 
z
M 678 1631 
L 4684 1631 
L 4684 1100 
L 678 1100 
L 678 1631 
z
" transform="scale(0.015625)"/>
      </defs>
      <use xlink:href="#DejaVuSans-62"/>
      <use xlink:href="#DejaVuSans-3d" x="63.476562"/>
      <use xlink:href="#DejaVuSans-30" x="147.265625"/>
      <use xlink:href="#DejaVuSans-2e" x="210.888672"/>
      <use xlink:href="#DejaVuSans-30" x="242.675781"/>
     </g>
    </g>
    <g id="line2d_22">
     <path d="M 347.08875 69.248563 
L 357.08875 69.248563 
L 367.08875 69.248563 
" style="fill: none; stroke: #ff7f0e; stroke-width: 1.5; stroke-linecap: square"/>
    </g>
    <g id="text_19">
     <!-- b=0.2 -->
     <g transform="translate(375.08875 72.748563) scale(0.1 -0.1)">
      <use xlink:href="#DejaVuSans-62"/>
      <use xlink:href="#DejaVuSans-3d" x="63.476562"/>
      <use xlink:href="#DejaVuSans-30" x="147.265625"/>
      <use xlink:href="#DejaVuSans-2e" x="210.888672"/>
      <use xlink:href="#DejaVuSans-32" x="242.675781"/>
     </g>
    </g>
    <g id="line2d_23">
     <path d="M 347.08875 83.926688 
L 357.08875 83.926688 
L 367.08875 83.926688 
" style="fill: none; stroke: #2ca02c; stroke-width: 1.5; stroke-linecap: square"/>
    </g>
    <g id="text_20">
     <!-- b=0.5 -->
     <g transform="translate(375.08875 87.426688) scale(0.1 -0.1)">
      <use xlink:href="#DejaVuSans-62"/>
      <use xlink:href="#DejaVuSans-3d" x="63.476562"/>
      <use xlink:href="#DejaVuSans-30" x="147.265625"/>
      <use xlink:href="#DejaVuSans-2e" x="210.888672"/>
      <use xlink:href="#DejaVuSans-35" x="242.675781"/>
     </g>
    </g>
    <g id="line2d_24">
     <path d="M 347.08875 98.604813 
L 357.08875 98.604813 
L 367.08875 98.604813 
" style="fill: none; stroke: #d62728; stroke-width: 1.5; stroke-linecap: square"/>
    </g>
    <g id="text_21">
     <!-- b=0.8 -->
     <g transform="translate(375.08875 102.104813) scale(0.1 -0.1)">
      <use xlink:href="#DejaVuSans-62"/>
      <use xlink:href="#DejaVuSans-3d" x="63.476562"/>
      <use xlink:href="#DejaVuSans-30" x="147.265625"/>
      <use xlink:href="#DejaVuSans-2e" x="210.888672"/>
      <use xlink:href="#DejaVuSans-38" x="242.675781"/>
     </g>
    </g>
    <g id="line2d_25">
     <path d="M 347.08875 113.282938 
L 357.08875 113.282938 
L 367.08875 113.282938 
" style="fill: none; stroke: #9467bd; stroke-width: 1.5; stroke-linecap: square"/>
    </g>
    <g id="text_22">
     <!-- b=1.0 -->
     <g transform="translate(375.08875 116.782938) scale(0.1 -0.1)">
      <use xlink:href="#DejaVuSans-62"/>
      <use xlink:href="#DejaVuSans-3d" x="63.476562"/>
      <use xlink:href="#DejaVuSans-31" x="147.265625"/>
      <use xlink:href="#DejaVuSans-2e" x="210.888672"/>
      <use xlink:href="#DejaVuSans-30" x="242.675781"/>
     </g>
    </g>
   </g>
  </g>
 </g>
 <defs>
  <clipPath id="pb86541a987">
   <rect x="57.6" y="41.472" width="357.12" height="266.112"/>
  </clipPath>
 </defs>
</svg>
