<?xml version="1.0" encoding="utf-8" standalone="no"?>
<!DOCTYPE svg PUBLIC "-//W3C//DTD SVG 1.1//EN"
  "http://www.w3.org/Graphics/SVG/1.1/DTD/svg11.dtd">
<svg xmlns:xlink="http://www.w3.org/1999/xlink" width="460.8pt" height="345.6pt" viewBox="0 0 460.8 345.6" xmlns="http://www.w3.org/2000/svg" version="1.1">
 <metadata>
  <rdf:RDF xmlns:dc="http://purl.org/dc/elements/1.1/" xmlns:cc="http://creativecommons.org/ns#" xmlns:rdf="http://www.w3.org/1999/02/22-rdf-syntax-ns#">
   <cc:Work>
    <dc:type rdf:resource="http://purl.org/dc/dcmitype/StillImage"/>
    <dc:date>2023-09-03T13:48:09.825242</dc:date>
    <dc:format>image/svg+xml</dc:format>
    <dc:creator>
     <cc:Agent>
      <dc:title>Matplotlib v3.7.2, https://matplotlib.org/</dc:title>
     </cc:Agent>
    </dc:creator>
   </cc:Work>
  </rdf:RDF>
 </metadata>
 <defs>
  <style type="text/css">*{stroke-linejoin: round; stroke-linecap: butt}</style>
 </defs>
 <g id="figure_1">
  <g id="patch_1">
   <path d="M 0 345.6 
L 460.8 345.6 
L 460.8 0 
L 0 0 
z
" style="fill: #ffffff"/>
  </g>
  <g id="axes_1">
   <g id="patch_2">
    <path d="M 57.6 307.584 
L 414.72 307.584 
L 414.72 41.472 
L 57.6 41.472 
z
" style="fill: #ffffff"/>
   </g>
   <g id="matplotlib.axis_1">
    <g id="xtick_1">
     <g id="line2d_1">
      <defs>
       <path id="m74d42c43a2" d="M 0 0 
L 0 3.5 
" style="stroke: #000000; stroke-width: 0.8"/>
      </defs>
      <g>
       <use xlink:href="#m74d42c43a2" x="73.832727" y="307.584" style="stroke: #000000; stroke-width: 0.8"/>
      </g>
     </g>
     <g id="text_1">
      <!-- −2.0 -->
      <g transform="translate(61.691321 322.182437) scale(0.1 -0.1)">
       <defs>
        <path id="DejaVuSans-2212" d="M 678 2272 
L 4684 2272 
L 4684 1741 
L 678 1741 
L 678 2272 
z
" transform="scale(0.015625)"/>
        <path id="DejaVuSans-32" d="M 1228 531 
L 3431 531 
L 3431 0 
L 469 0 
L 469 531 
Q 828 903 1448 1529 
Q 2069 2156 2228 2338 
Q 2531 2678 2651 2914 
Q 2772 3150 2772 3378 
Q 2772 3750 2511 3984 
Q 2250 4219 1831 4219 
Q 1534 4219 1204 4116 
Q 875 4013 500 3803 
L 500 4441 
Q 881 4594 1212 4672 
Q 1544 4750 1819 4750 
Q 2544 4750 2975 4387 
Q 3406 4025 3406 3419 
Q 3406 3131 3298 2873 
Q 3191 2616 2906 2266 
Q 2828 2175 2409 1742 
Q 1991 1309 1228 531 
z
" transform="scale(0.015625)"/>
        <path id="DejaVuSans-2e" d="M 684 794 
L 1344 794 
L 1344 0 
L 684 0 
L 684 794 
z
" transform="scale(0.015625)"/>
        <path id="DejaVuSans-30" d="M 2034 4250 
Q 1547 4250 1301 3770 
Q 1056 3291 1056 2328 
Q 1056 1369 1301 889 
Q 1547 409 2034 409 
Q 2525 409 2770 889 
Q 3016 1369 3016 2328 
Q 3016 3291 2770 3770 
Q 2525 4250 2034 4250 
z
M 2034 4750 
Q 2819 4750 3233 4129 
Q 3647 3509 3647 2328 
Q 3647 1150 3233 529 
Q 2819 -91 2034 -91 
Q 1250 -91 836 529 
Q 422 1150 422 2328 
Q 422 3509 836 4129 
Q 1250 4750 2034 4750 
z
" transform="scale(0.015625)"/>
       </defs>
       <use xlink:href="#DejaVuSans-2212"/>
       <use xlink:href="#DejaVuSans-32" x="83.789062"/>
       <use xlink:href="#DejaVuSans-2e" x="147.412109"/>
       <use xlink:href="#DejaVuSans-30" x="179.199219"/>
      </g>
     </g>
    </g>
    <g id="xtick_2">
     <g id="line2d_2">
      <g>
       <use xlink:href="#m74d42c43a2" x="114.414545" y="307.584" style="stroke: #000000; stroke-width: 0.8"/>
      </g>
     </g>
     <g id="text_2">
      <!-- −1.5 -->
      <g transform="translate(102.273139 322.182437) scale(0.1 -0.1)">
       <defs>
        <path id="DejaVuSans-31" d="M 794 531 
L 1825 531 
L 1825 4091 
L 703 3866 
L 703 4441 
L 1819 4666 
L 2450 4666 
L 2450 531 
L 3481 531 
L 3481 0 
L 794 0 
L 794 531 
z
" transform="scale(0.015625)"/>
        <path id="DejaVuSans-35" d="M 691 4666 
L 3169 4666 
L 3169 4134 
L 1269 4134 
L 1269 2991 
Q 1406 3038 1543 3061 
Q 1681 3084 1819 3084 
Q 2600 3084 3056 2656 
Q 3513 2228 3513 1497 
Q 3513 744 3044 326 
Q 2575 -91 1722 -91 
Q 1428 -91 1123 -41 
Q 819 9 494 109 
L 494 744 
Q 775 591 1075 516 
Q 1375 441 1709 441 
Q 2250 441 2565 725 
Q 2881 1009 2881 1497 
Q 2881 1984 2565 2268 
Q 2250 2553 1709 2553 
Q 1456 2553 1204 2497 
Q 953 2441 691 2322 
L 691 4666 
z
" transform="scale(0.015625)"/>
       </defs>
       <use xlink:href="#DejaVuSans-2212"/>
       <use xlink:href="#DejaVuSans-31" x="83.789062"/>
       <use xlink:href="#DejaVuSans-2e" x="147.412109"/>
       <use xlink:href="#DejaVuSans-35" x="179.199219"/>
      </g>
     </g>
    </g>
    <g id="xtick_3">
     <g id="line2d_3">
      <g>
       <use xlink:href="#m74d42c43a2" x="154.996364" y="307.584" style="stroke: #000000; stroke-width: 0.8"/>
      </g>
     </g>
     <g id="text_3">
      <!-- −1.0 -->
      <g transform="translate(142.854957 322.182437) scale(0.1 -0.1)">
       <use xlink:href="#DejaVuSans-2212"/>
       <use xlink:href="#DejaVuSans-31" x="83.789062"/>
       <use xlink:href="#DejaVuSans-2e" x="147.412109"/>
       <use xlink:href="#DejaVuSans-30" x="179.199219"/>
      </g>
     </g>
    </g>
    <g id="xtick_4">
     <g id="line2d_4">
      <g>
       <use xlink:href="#m74d42c43a2" x="195.578182" y="307.584" style="stroke: #000000; stroke-width: 0.8"/>
      </g>
     </g>
     <g id="text_4">
      <!-- −0.5 -->
      <g transform="translate(183.436776 322.182437) scale(0.1 -0.1)">
       <use xlink:href="#DejaVuSans-2212"/>
       <use xlink:href="#DejaVuSans-30" x="83.789062"/>
       <use xlink:href="#DejaVuSans-2e" x="147.412109"/>
       <use xlink:href="#DejaVuSans-35" x="179.199219"/>
      </g>
     </g>
    </g>
    <g id="xtick_5">
     <g id="line2d_5">
      <g>
       <use xlink:href="#m74d42c43a2" x="236.16" y="307.584" style="stroke: #000000; stroke-width: 0.8"/>
      </g>
     </g>
     <g id="text_5">
      <!-- 0.0 -->
      <g transform="translate(228.208438 322.182437) scale(0.1 -0.1)">
       <use xlink:href="#DejaVuSans-30"/>
       <use xlink:href="#DejaVuSans-2e" x="63.623047"/>
       <use xlink:href="#DejaVuSans-30" x="95.410156"/>
      </g>
     </g>
    </g>
    <g id="xtick_6">
     <g id="line2d_6">
      <g>
       <use xlink:href="#m74d42c43a2" x="276.741818" y="307.584" style="stroke: #000000; stroke-width: 0.8"/>
      </g>
     </g>
     <g id="text_6">
      <!-- 0.5 -->
      <g transform="translate(268.790256 322.182437) scale(0.1 -0.1)">
       <use xlink:href="#DejaVuSans-30"/>
       <use xlink:href="#DejaVuSans-2e" x="63.623047"/>
       <use xlink:href="#DejaVuSans-35" x="95.410156"/>
      </g>
     </g>
    </g>
    <g id="xtick_7">
     <g id="line2d_7">
      <g>
       <use xlink:href="#m74d42c43a2" x="317.323636" y="307.584" style="stroke: #000000; stroke-width: 0.8"/>
      </g>
     </g>
     <g id="text_7">
      <!-- 1.0 -->
      <g transform="translate(309.372074 322.182437) scale(0.1 -0.1)">
       <use xlink:href="#DejaVuSans-31"/>
       <use xlink:href="#DejaVuSans-2e" x="63.623047"/>
       <use xlink:href="#DejaVuSans-30" x="95.410156"/>
      </g>
     </g>
    </g>
    <g id="xtick_8">
     <g id="line2d_8">
      <g>
       <use xlink:href="#m74d42c43a2" x="357.905455" y="307.584" style="stroke: #000000; stroke-width: 0.8"/>
      </g>
     </g>
     <g id="text_8">
      <!-- 1.5 -->
      <g transform="translate(349.953892 322.182437) scale(0.1 -0.1)">
       <use xlink:href="#DejaVuSans-31"/>
       <use xlink:href="#DejaVuSans-2e" x="63.623047"/>
       <use xlink:href="#DejaVuSans-35" x="95.410156"/>
      </g>
     </g>
    </g>
    <g id="xtick_9">
     <g id="line2d_9">
      <g>
       <use xlink:href="#m74d42c43a2" x="398.487273" y="307.584" style="stroke: #000000; stroke-width: 0.8"/>
      </g>
     </g>
     <g id="text_9">
      <!-- 2.0 -->
      <g transform="translate(390.53571 322.182437) scale(0.1 -0.1)">
       <use xlink:href="#DejaVuSans-32"/>
       <use xlink:href="#DejaVuSans-2e" x="63.623047"/>
       <use xlink:href="#DejaVuSans-30" x="95.410156"/>
      </g>
     </g>
    </g>
    <g id="text_10">
     <!-- XTE -->
     <g transform="translate(226.609219 335.860562) scale(0.1 -0.1)">
      <defs>
       <path id="DejaVuSans-58" d="M 403 4666 
L 1081 4666 
L 2241 2931 
L 3406 4666 
L 4084 4666 
L 2584 2425 
L 4184 0 
L 3506 0 
L 2194 1984 
L 872 0 
L 191 0 
L 1856 2491 
L 403 4666 
z
" transform="scale(0.015625)"/>
       <path id="DejaVuSans-54" d="M -19 4666 
L 3928 4666 
L 3928 4134 
L 2272 4134 
L 2272 0 
L 1638 0 
L 1638 4134 
L -19 4134 
L -19 4666 
z
" transform="scale(0.015625)"/>
       <path id="DejaVuSans-45" d="M 628 4666 
L 3578 4666 
L 3578 4134 
L 1259 4134 
L 1259 2753 
L 3481 2753 
L 3481 2222 
L 1259 2222 
L 1259 531 
L 3634 531 
L 3634 0 
L 628 0 
L 628 4666 
z
" transform="scale(0.015625)"/>
      </defs>
      <use xlink:href="#DejaVuSans-58"/>
      <use xlink:href="#DejaVuSans-54" x="66.755859"/>
      <use xlink:href="#DejaVuSans-45" x="127.839844"/>
     </g>
    </g>
   </g>
   <g id="matplotlib.axis_2">
    <g id="ytick_1">
     <g id="line2d_10">
      <defs>
       <path id="me02d4f66a5" d="M 0 0 
L -3.5 0 
" style="stroke: #000000; stroke-width: 0.8"/>
      </defs>
      <g>
       <use xlink:href="#me02d4f66a5" x="57.6" y="295.488" style="stroke: #000000; stroke-width: 0.8"/>
      </g>
     </g>
     <g id="text_11">
      <!-- −1.0 -->
      <g transform="translate(26.317187 299.287219) scale(0.1 -0.1)">
       <use xlink:href="#DejaVuSans-2212"/>
       <use xlink:href="#DejaVuSans-31" x="83.789062"/>
       <use xlink:href="#DejaVuSans-2e" x="147.412109"/>
       <use xlink:href="#DejaVuSans-30" x="179.199219"/>
      </g>
     </g>
    </g>
    <g id="ytick_2">
     <g id="line2d_11">
      <g>
       <use xlink:href="#me02d4f66a5" x="57.6" y="247.103508" style="stroke: #000000; stroke-width: 0.8"/>
      </g>
     </g>
     <g id="text_12">
      <!-- −0.8 -->
      <g transform="translate(26.317187 250.902727) scale(0.1 -0.1)">
       <defs>
        <path id="DejaVuSans-38" d="M 2034 2216 
Q 1584 2216 1326 1975 
Q 1069 1734 1069 1313 
Q 1069 891 1326 650 
Q 1584 409 2034 409 
Q 2484 409 2743 651 
Q 3003 894 3003 1313 
Q 3003 1734 2745 1975 
Q 2488 2216 2034 2216 
z
M 1403 2484 
Q 997 2584 770 2862 
Q 544 3141 544 3541 
Q 544 4100 942 4425 
Q 1341 4750 2034 4750 
Q 2731 4750 3128 4425 
Q 3525 4100 3525 3541 
Q 3525 3141 3298 2862 
Q 3072 2584 2669 2484 
Q 3125 2378 3379 2068 
Q 3634 1759 3634 1313 
Q 3634 634 3220 271 
Q 2806 -91 2034 -91 
Q 1263 -91 848 271 
Q 434 634 434 1313 
Q 434 1759 690 2068 
Q 947 2378 1403 2484 
z
M 1172 3481 
Q 1172 3119 1398 2916 
Q 1625 2713 2034 2713 
Q 2441 2713 2670 2916 
Q 2900 3119 2900 3481 
Q 2900 3844 2670 4047 
Q 2441 4250 2034 4250 
Q 1625 4250 1398 4047 
Q 1172 3844 1172 3481 
z
" transform="scale(0.015625)"/>
       </defs>
       <use xlink:href="#DejaVuSans-2212"/>
       <use xlink:href="#DejaVuSans-30" x="83.789062"/>
       <use xlink:href="#DejaVuSans-2e" x="147.412109"/>
       <use xlink:href="#DejaVuSans-38" x="179.199219"/>
      </g>
     </g>
    </g>
    <g id="ytick_3">
     <g id="line2d_12">
      <g>
       <use xlink:href="#me02d4f66a5" x="57.6" y="198.719016" style="stroke: #000000; stroke-width: 0.8"/>
      </g>
     </g>
     <g id="text_13">
      <!-- −0.6 -->
      <g transform="translate(26.317187 202.518235) scale(0.1 -0.1)">
       <defs>
        <path id="DejaVuSans-36" d="M 2113 2584 
Q 1688 2584 1439 2293 
Q 1191 2003 1191 1497 
Q 1191 994 1439 701 
Q 1688 409 2113 409 
Q 2538 409 2786 701 
Q 3034 994 3034 1497 
Q 3034 2003 2786 2293 
Q 2538 2584 2113 2584 
z
M 3366 4563 
L 3366 3988 
Q 3128 4100 2886 4159 
Q 2644 4219 2406 4219 
Q 1781 4219 1451 3797 
Q 1122 3375 1075 2522 
Q 1259 2794 1537 2939 
Q 1816 3084 2150 3084 
Q 2853 3084 3261 2657 
Q 3669 2231 3669 1497 
Q 3669 778 3244 343 
Q 2819 -91 2113 -91 
Q 1303 -91 875 529 
Q 447 1150 447 2328 
Q 447 3434 972 4092 
Q 1497 4750 2381 4750 
Q 2619 4750 2861 4703 
Q 3103 4656 3366 4563 
z
" transform="scale(0.015625)"/>
       </defs>
       <use xlink:href="#DejaVuSans-2212"/>
       <use xlink:href="#DejaVuSans-30" x="83.789062"/>
       <use xlink:href="#DejaVuSans-2e" x="147.412109"/>
       <use xlink:href="#DejaVuSans-36" x="179.199219"/>
      </g>
     </g>
    </g>
    <g id="ytick_4">
     <g id="line2d_13">
      <g>
       <use xlink:href="#me02d4f66a5" x="57.6" y="150.334525" style="stroke: #000000; stroke-width: 0.8"/>
      </g>
     </g>
     <g id="text_14">
      <!-- −0.4 -->
      <g transform="translate(26.317187 154.133743) scale(0.1 -0.1)">
       <defs>
        <path id="DejaVuSans-34" d="M 2419 4116 
L 825 1625 
L 2419 1625 
L 2419 4116 
z
M 2253 4666 
L 3047 4666 
L 3047 1625 
L 3713 1625 
L 3713 1100 
L 3047 1100 
L 3047 0 
L 2419 0 
L 2419 1100 
L 313 1100 
L 313 1709 
L 2253 4666 
z
" transform="scale(0.015625)"/>
       </defs>
       <use xlink:href="#DejaVuSans-2212"/>
       <use xlink:href="#DejaVuSans-30" x="83.789062"/>
       <use xlink:href="#DejaVuSans-2e" x="147.412109"/>
       <use xlink:href="#DejaVuSans-34" x="179.199219"/>
      </g>
     </g>
    </g>
    <g id="ytick_5">
     <g id="line2d_14">
      <g>
       <use xlink:href="#me02d4f66a5" x="57.6" y="101.950033" style="stroke: #000000; stroke-width: 0.8"/>
      </g>
     </g>
     <g id="text_15">
      <!-- −0.2 -->
      <g transform="translate(26.317187 105.749252) scale(0.1 -0.1)">
       <use xlink:href="#DejaVuSans-2212"/>
       <use xlink:href="#DejaVuSans-30" x="83.789062"/>
       <use xlink:href="#DejaVuSans-2e" x="147.412109"/>
       <use xlink:href="#DejaVuSans-32" x="179.199219"/>
      </g>
     </g>
    </g>
    <g id="ytick_6">
     <g id="line2d_15">
      <g>
       <use xlink:href="#me02d4f66a5" x="57.6" y="53.565541" style="stroke: #000000; stroke-width: 0.8"/>
      </g>
     </g>
     <g id="text_16">
      <!-- 0.0 -->
      <g transform="translate(34.696875 57.36476) scale(0.1 -0.1)">
       <use xlink:href="#DejaVuSans-30"/>
       <use xlink:href="#DejaVuSans-2e" x="63.623047"/>
       <use xlink:href="#DejaVuSans-30" x="95.410156"/>
      </g>
     </g>
    </g>
    <g id="text_17">
     <!-- Reward -->
     <g transform="translate(20.2375 193.149094) rotate(-90) scale(0.1 -0.1)">
      <defs>
       <path id="DejaVuSans-52" d="M 2841 2188 
Q 3044 2119 3236 1894 
Q 3428 1669 3622 1275 
L 4263 0 
L 3584 0 
L 2988 1197 
Q 2756 1666 2539 1819 
Q 2322 1972 1947 1972 
L 1259 1972 
L 1259 0 
L 628 0 
L 628 4666 
L 2053 4666 
Q 2853 4666 3247 4331 
Q 3641 3997 3641 3322 
Q 3641 2881 3436 2590 
Q 3231 2300 2841 2188 
z
M 1259 4147 
L 1259 2491 
L 2053 2491 
Q 2509 2491 2742 2702 
Q 2975 2913 2975 3322 
Q 2975 3731 2742 3939 
Q 2509 4147 2053 4147 
L 1259 4147 
z
" transform="scale(0.015625)"/>
       <path id="DejaVuSans-65" d="M 3597 1894 
L 3597 1613 
L 953 1613 
Q 991 1019 1311 708 
Q 1631 397 2203 397 
Q 2534 397 2845 478 
Q 3156 559 3463 722 
L 3463 178 
Q 3153 47 2828 -22 
Q 2503 -91 2169 -91 
Q 1331 -91 842 396 
Q 353 884 353 1716 
Q 353 2575 817 3079 
Q 1281 3584 2069 3584 
Q 2775 3584 3186 3129 
Q 3597 2675 3597 1894 
z
M 3022 2063 
Q 3016 2534 2758 2815 
Q 2500 3097 2075 3097 
Q 1594 3097 1305 2825 
Q 1016 2553 972 2059 
L 3022 2063 
z
" transform="scale(0.015625)"/>
       <path id="DejaVuSans-77" d="M 269 3500 
L 844 3500 
L 1563 769 
L 2278 3500 
L 2956 3500 
L 3675 769 
L 4391 3500 
L 4966 3500 
L 4050 0 
L 3372 0 
L 2619 2869 
L 1863 0 
L 1184 0 
L 269 3500 
z
" transform="scale(0.015625)"/>
       <path id="DejaVuSans-61" d="M 2194 1759 
Q 1497 1759 1228 1600 
Q 959 1441 959 1056 
Q 959 750 1161 570 
Q 1363 391 1709 391 
Q 2188 391 2477 730 
Q 2766 1069 2766 1631 
L 2766 1759 
L 2194 1759 
z
M 3341 1997 
L 3341 0 
L 2766 0 
L 2766 531 
Q 2569 213 2275 61 
Q 1981 -91 1556 -91 
Q 1019 -91 701 211 
Q 384 513 384 1019 
Q 384 1609 779 1909 
Q 1175 2209 1959 2209 
L 2766 2209 
L 2766 2266 
Q 2766 2663 2505 2880 
Q 2244 3097 1772 3097 
Q 1472 3097 1187 3025 
Q 903 2953 641 2809 
L 641 3341 
Q 956 3463 1253 3523 
Q 1550 3584 1831 3584 
Q 2591 3584 2966 3190 
Q 3341 2797 3341 1997 
z
" transform="scale(0.015625)"/>
       <path id="DejaVuSans-72" d="M 2631 2963 
Q 2534 3019 2420 3045 
Q 2306 3072 2169 3072 
Q 1681 3072 1420 2755 
Q 1159 2438 1159 1844 
L 1159 0 
L 581 0 
L 581 3500 
L 1159 3500 
L 1159 2956 
Q 1341 3275 1631 3429 
Q 1922 3584 2338 3584 
Q 2397 3584 2469 3576 
Q 2541 3569 2628 3553 
L 2631 2963 
z
" transform="scale(0.015625)"/>
       <path id="DejaVuSans-64" d="M 2906 2969 
L 2906 4863 
L 3481 4863 
L 3481 0 
L 2906 0 
L 2906 525 
Q 2725 213 2448 61 
Q 2172 -91 1784 -91 
Q 1150 -91 751 415 
Q 353 922 353 1747 
Q 353 2572 751 3078 
Q 1150 3584 1784 3584 
Q 2172 3584 2448 3432 
Q 2725 3281 2906 2969 
z
M 947 1747 
Q 947 1113 1208 752 
Q 1469 391 1925 391 
Q 2381 391 2643 752 
Q 2906 1113 2906 1747 
Q 2906 2381 2643 2742 
Q 2381 3103 1925 3103 
Q 1469 3103 1208 2742 
Q 947 2381 947 1747 
z
" transform="scale(0.015625)"/>
      </defs>
      <use xlink:href="#DejaVuSans-52"/>
      <use xlink:href="#DejaVuSans-65" x="64.982422"/>
      <use xlink:href="#DejaVuSans-77" x="126.505859"/>
      <use xlink:href="#DejaVuSans-61" x="208.292969"/>
      <use xlink:href="#DejaVuSans-72" x="269.572266"/>
      <use xlink:href="#DejaVuSans-64" x="308.935547"/>
     </g>
    </g>
   </g>
   <g id="line2d_16">
    <path d="M 73.832727 295.488 
L 77.112066 291.290675 
L 80.391405 287.017022 
L 83.670744 282.668522 
L 86.950083 278.246833 
L 90.229421 273.753792 
L 93.50876 269.191411 
L 96.788099 264.561881 
L 100.067438 259.867571 
L 103.346777 255.11102 
L 106.626116 250.294942 
L 109.905455 245.422213 
L 113.184793 240.495875 
L 116.464132 235.519122 
L 119.743471 230.4953 
L 123.02281 225.427893 
L 126.302149 220.32052 
L 129.581488 215.176922 
L 132.860826 210.000952 
L 136.140165 204.796566 
L 139.419504 199.567809 
L 142.698843 194.318805 
L 145.978182 189.053743 
L 149.257521 183.776863 
L 152.53686 178.492444 
L 155.816198 173.20479 
L 159.095537 167.918214 
L 162.374876 162.637028 
L 165.654215 157.365524 
L 168.933554 152.107964 
L 172.212893 146.868563 
L 175.492231 141.651481 
L 178.77157 136.460803 
L 182.050909 131.30053 
L 185.330248 126.17457 
L 188.609587 121.08672 
L 191.888926 116.040661 
L 195.168264 111.039946 
L 198.447603 106.087992 
L 201.726942 101.188069 
L 205.006281 96.343295 
L 208.28562 91.556631 
L 211.564959 86.830872 
L 214.844298 82.168645 
L 218.123636 77.572405 
L 221.402975 73.044431 
L 224.682314 68.586826 
L 227.961653 64.201513 
L 231.240992 59.89024 
L 234.520331 55.654577 
L 237.799669 55.654577 
L 241.079008 59.89024 
L 244.358347 64.201513 
L 247.637686 68.586826 
L 250.917025 73.044431 
L 254.196364 77.572405 
L 257.475702 82.168645 
L 260.755041 86.830872 
L 264.03438 91.556631 
L 267.313719 96.343295 
L 270.593058 101.188069 
L 273.872397 106.087992 
L 277.151736 111.039946 
L 280.431074 116.040661 
L 283.710413 121.08672 
L 286.989752 126.17457 
L 290.269091 131.30053 
L 293.54843 136.460803 
L 296.827769 141.651481 
L 300.107107 146.868563 
L 303.386446 152.107964 
L 306.665785 157.365524 
L 309.945124 162.637028 
L 313.224463 167.918214 
L 316.503802 173.20479 
L 319.78314 178.492444 
L 323.062479 183.776863 
L 326.341818 189.053743 
L 329.621157 194.318805 
L 332.900496 199.567809 
L 336.179835 204.796566 
L 339.459174 210.000952 
L 342.738512 215.176922 
L 346.017851 220.32052 
L 349.29719 225.427893 
L 352.576529 230.4953 
L 355.855868 235.519122 
L 359.135207 240.495875 
L 362.414545 245.422213 
L 365.693884 250.294942 
L 368.973223 255.11102 
L 372.252562 259.867571 
L 375.531901 264.561881 
L 378.81124 269.191411 
L 382.090579 273.753792 
L 385.369917 278.246833 
L 388.649256 282.668522 
L 391.928595 287.017022 
L 395.207934 291.290675 
L 398.487273 295.488 
" clip-path="url(#p0304e9316d)" style="fill: none; stroke: #1f77b4; stroke-width: 1.5; stroke-linecap: square"/>
   </g>
   <g id="line2d_17">
    <path d="M 73.832727 295.488 
L 77.112066 294.176591 
L 80.391405 292.697738 
L 83.670744 291.032542 
L 86.950083 289.160664 
L 90.229421 287.060409 
L 93.50876 284.708892 
L 96.788099 282.082275 
L 100.067438 279.156118 
L 103.346777 275.905842 
L 106.626116 272.307329 
L 109.905455 268.337659 
L 113.184793 263.975995 
L 116.464132 259.204592 
L 119.743471 254.009931 
L 123.02281 248.383907 
L 126.302149 242.32504 
L 129.581488 235.839616 
L 132.860826 228.942666 
L 136.140165 221.658687 
L 139.419504 214.021999 
L 142.698843 206.076651 
L 145.978182 197.875808 
L 149.257521 189.480615 
L 152.53686 180.958541 
L 155.816198 172.381307 
L 159.095537 163.822513 
L 162.374876 155.355127 
L 165.654215 147.049026 
L 168.933554 138.968753 
L 172.212893 131.171639 
L 175.492231 123.7064 
L 178.77157 116.612262 
L 182.050909 109.918618 
L 185.330248 103.645161 
L 188.609587 97.80244 
L 191.888926 92.392724 
L 195.168264 87.411073 
L 198.447603 82.846521 
L 201.726942 78.68329 
L 205.006281 74.901956 
L 208.28562 71.48052 
L 211.564959 68.395363 
L 214.844298 65.622052 
L 218.123636 63.136012 
L 221.402975 60.913053 
L 224.682314 58.929777 
L 227.961653 57.16387 
L 231.240992 55.594299 
L 234.520331 54.201439 
L 237.799669 54.201439 
L 241.079008 55.594299 
L 244.358347 57.16387 
L 247.637686 58.929777 
L 250.917025 60.913053 
L 254.196364 63.136012 
L 257.475702 65.622052 
L 260.755041 68.395363 
L 264.03438 71.48052 
L 267.313719 74.901956 
L 270.593058 78.68329 
L 273.872397 82.846521 
L 277.151736 87.411073 
L 280.431074 92.392724 
L 283.710413 97.80244 
L 286.989752 103.645161 
L 290.269091 109.918618 
L 293.54843 116.612262 
L 296.827769 123.7064 
L 300.107107 131.171639 
L 303.386446 138.968753 
L 306.665785 147.049026 
L 309.945124 155.355127 
L 313.224463 163.822513 
L 316.503802 172.381307 
L 319.78314 180.958541 
L 323.062479 189.480615 
L 326.341818 197.875808 
L 329.621157 206.076651 
L 332.900496 214.021999 
L 336.179835 221.658687 
L 339.459174 228.942666 
L 342.738512 235.839616 
L 346.017851 242.32504 
L 349.29719 248.383907 
L 352.576529 254.009931 
L 355.855868 259.204592 
L 359.135207 263.975995 
L 362.414545 268.337659 
L 365.693884 272.307329 
L 368.973223 275.905842 
L 372.252562 279.156118 
L 375.531901 282.082275 
L 378.81124 284.708892 
L 382.090579 287.060409 
L 385.369917 289.160664 
L 388.649256 291.032542 
L 391.928595 292.697738 
L 395.207934 294.176591 
L 398.487273 295.488 
" clip-path="url(#p0304e9316d)" style="fill: none; stroke: #ff7f0e; stroke-width: 1.5; stroke-linecap: square"/>
   </g>
   <g id="line2d_18">
    <path d="M 73.832727 295.488 
L 77.112066 295.242212 
L 80.391405 294.935959 
L 83.670744 294.554578 
L 86.950083 294.079972 
L 90.229421 293.48987 
L 93.50876 292.756959 
L 96.788099 291.847902 
L 100.067438 290.722244 
L 103.346777 289.331253 
L 106.626116 287.616768 
L 109.905455 285.510192 
L 113.184793 282.931833 
L 116.464132 279.790913 
L 119.743471 275.986641 
L 123.02281 271.410899 
L 126.302149 265.953124 
L 129.581488 259.507918 
L 132.860826 251.985706 
L 136.140165 243.326191 
L 139.419504 233.513537 
L 142.698843 222.591094 
L 145.978182 210.672517 
L 149.257521 197.945638 
L 152.53686 184.666141 
L 155.816198 171.140031 
L 159.095537 157.696798 
L 162.374876 144.657968 
L 165.654215 132.307239 
L 168.933554 120.867869 
L 172.212893 110.4907 
L 175.492231 101.253216 
L 178.77157 93.167475 
L 182.050909 86.193476 
L 185.330248 80.254457 
L 188.609587 75.25141 
L 191.888926 71.075214 
L 195.168264 67.615761 
L 198.447603 64.768136 
L 201.726942 62.436333 
L 205.006281 60.535061 
L 208.28562 58.990225 
L 211.564959 57.738555 
L 214.844298 56.726745 
L 218.123636 55.910345 
L 221.402975 55.252605 
L 224.682314 54.723328 
L 227.961653 54.29784 
L 231.240992 53.956054 
L 234.520331 53.681677 
L 237.799669 53.681677 
L 241.079008 53.956054 
L 244.358347 54.29784 
L 247.637686 54.723328 
L 250.917025 55.252605 
L 254.196364 55.910345 
L 257.475702 56.726745 
L 260.755041 57.738555 
L 264.03438 58.990225 
L 267.313719 60.535061 
L 270.593058 62.436333 
L 273.872397 64.768136 
L 277.151736 67.615761 
L 280.431074 71.075214 
L 283.710413 75.25141 
L 286.989752 80.254457 
L 290.269091 86.193476 
L 293.54843 93.167475 
L 296.827769 101.253216 
L 300.107107 110.4907 
L 303.386446 120.867869 
L 306.665785 132.307239 
L 309.945124 144.657968 
L 313.224463 157.696798 
L 316.503802 171.140031 
L 319.78314 184.666141 
L 323.062479 197.945638 
L 326.341818 210.672517 
L 329.621157 222.591094 
L 332.900496 233.513537 
L 336.179835 243.326191 
L 339.459174 251.985706 
L 342.738512 259.507918 
L 346.017851 265.953124 
L 349.29719 271.410899 
L 352.576529 275.986641 
L 355.855868 279.790913 
L 359.135207 282.931833 
L 362.414545 285.510192 
L 365.693884 287.616768 
L 368.973223 289.331253 
L 372.252562 290.722244 
L 375.531901 291.847902 
L 378.81124 292.756959 
L 382.090579 293.48987 
L 385.369917 294.079972 
L 388.649256 294.554578 
L 391.928595 294.935959 
L 395.207934 295.242212 
L 398.487273 295.488 
" clip-path="url(#p0304e9316d)" style="fill: none; stroke: #2ca02c; stroke-width: 1.5; stroke-linecap: square"/>
   </g>
   <g id="line2d_19">
    <path d="M 73.832727 295.488 
L 77.112066 295.449689 
L 80.391405 295.397311 
L 83.670744 295.325711 
L 86.950083 295.227851 
L 90.229421 295.094136 
L 93.50876 294.911494 
L 96.788099 294.66214 
L 100.067438 294.321931 
L 103.346777 293.858178 
L 106.626116 293.226787 
L 109.905455 292.368583 
L 113.184793 291.204715 
L 116.464132 289.631132 
L 119.743471 287.512365 
L 123.02281 284.675334 
L 126.302149 280.90467 
L 129.581488 275.942314 
L 132.860826 269.495743 
L 136.140165 261.2606 
L 139.419504 250.963582 
L 142.698843 238.427794 
L 145.978182 223.653386 
L 149.257521 206.891632 
L 152.53686 188.677812 
L 155.816198 169.790515 
L 159.095537 151.131332 
L 162.374876 133.559474 
L 165.654215 117.742262 
L 168.933554 104.072891 
L 172.212893 92.669494 
L 175.492231 83.433329 
L 178.77157 76.129849 
L 182.050909 70.463434 
L 185.330248 66.131665 
L 188.609587 62.857473 
L 191.888926 60.403776 
L 195.168264 58.576748 
L 198.447603 57.222842 
L 201.726942 56.223098 
L 205.006281 55.486808 
L 208.28562 54.945594 
L 211.564959 54.548336 
L 214.844298 54.257048 
L 218.123636 54.043626 
L 221.402975 53.887343 
L 224.682314 53.772948 
L 227.961653 53.689239 
L 231.240992 53.627998 
L 234.520331 53.583202 
L 237.799669 53.583202 
L 241.079008 53.627998 
L 244.358347 53.689239 
L 247.637686 53.772948 
L 250.917025 53.887343 
L 254.196364 54.043626 
L 257.475702 54.257048 
L 260.755041 54.548336 
L 264.03438 54.945594 
L 267.313719 55.486808 
L 270.593058 56.223098 
L 273.872397 57.222842 
L 277.151736 58.576748 
L 280.431074 60.403776 
L 283.710413 62.857473 
L 286.989752 66.131665 
L 290.269091 70.463434 
L 293.54843 76.129849 
L 296.827769 83.433329 
L 300.107107 92.669494 
L 303.386446 104.072891 
L 306.665785 117.742262 
L 309.945124 133.559474 
L 313.224463 151.131332 
L 316.503802 169.790515 
L 319.78314 188.677812 
L 323.062479 206.891632 
L 326.341818 223.653386 
L 329.621157 238.427794 
L 332.900496 250.963582 
L 336.179835 261.2606 
L 339.459174 269.495743 
L 342.738512 275.942314 
L 346.017851 280.90467 
L 349.29719 284.675334 
L 352.576529 287.512365 
L 355.855868 289.631132 
L 359.135207 291.204715 
L 362.414545 292.368583 
L 365.693884 293.226787 
L 368.973223 293.858178 
L 372.252562 294.321931 
L 375.531901 294.66214 
L 378.81124 294.911494 
L 382.090579 295.094136 
L 385.369917 295.227851 
L 388.649256 295.325711 
L 391.928595 295.397311 
L 395.207934 295.449689 
L 398.487273 295.488 
" clip-path="url(#p0304e9316d)" style="fill: none; stroke: #d62728; stroke-width: 1.5; stroke-linecap: square"/>
   </g>
   <g id="line2d_20">
    <path d="M 73.832727 295.488 
L 77.112066 295.482532 
L 80.391405 295.474342 
L 83.670744 295.462076 
L 86.950083 295.443705 
L 90.229421 295.416192 
L 93.50876 295.374995 
L 96.788099 295.313312 
L 100.067438 295.220979 
L 103.346777 295.082809 
L 106.626116 294.876144 
L 109.905455 294.567248 
L 113.184793 294.10604 
L 116.464132 293.418507 
L 119.743471 292.395996 
L 123.02281 290.880617 
L 126.302149 288.64642 
L 129.581488 285.377495 
L 132.860826 280.647683 
L 136.140165 273.913413 
L 139.419504 264.541782 
L 142.698843 251.906261 
L 145.978182 235.578107 
L 149.257521 215.597701 
L 152.53686 192.71691 
L 155.816198 168.422252 
L 159.095537 144.611435 
L 162.374876 123.037586 
L 165.654215 104.837905 
L 168.933554 90.387166 
L 172.212893 79.455228 
L 175.492231 71.484269 
L 178.77157 65.827034 
L 182.050909 61.888381 
L 185.330248 59.182798 
L 188.609587 57.341347 
L 191.888926 56.095904 
L 195.168264 55.257148 
L 198.447603 54.693901 
L 201.726942 54.316395 
L 205.006281 54.063706 
L 208.28562 53.894712 
L 211.564959 53.781757 
L 214.844298 53.706287 
L 218.123636 53.655876 
L 221.402975 53.622209 
L 224.682314 53.599727 
L 227.961653 53.584715 
L 231.240992 53.574692 
L 234.520331 53.568 
L 237.799669 53.568 
L 241.079008 53.574692 
L 244.358347 53.584715 
L 247.637686 53.599727 
L 250.917025 53.622209 
L 254.196364 53.655876 
L 257.475702 53.706287 
L 260.755041 53.781757 
L 264.03438 53.894712 
L 267.313719 54.063706 
L 270.593058 54.316395 
L 273.872397 54.693901 
L 277.151736 55.257148 
L 280.431074 56.095904 
L 283.710413 57.341347 
L 286.989752 59.182798 
L 290.269091 61.888381 
L 293.54843 65.827034 
L 296.827769 71.484269 
L 300.107107 79.455228 
L 303.386446 90.387166 
L 306.665785 104.837905 
L 309.945124 123.037586 
L 313.224463 144.611435 
L 316.503802 168.422252 
L 319.78314 192.71691 
L 323.062479 215.597701 
L 326.341818 235.578107 
L 329.621157 251.906261 
L 332.900496 264.541782 
L 336.179835 273.913413 
L 339.459174 280.647683 
L 342.738512 285.377495 
L 346.017851 288.64642 
L 349.29719 290.880617 
L 352.576529 292.395996 
L 355.855868 293.418507 
L 359.135207 294.10604 
L 362.414545 294.567248 
L 365.693884 294.876144 
L 368.973223 295.082809 
L 372.252562 295.220979 
L 375.531901 295.313312 
L 378.81124 295.374995 
L 382.090579 295.416192 
L 385.369917 295.443705 
L 388.649256 295.462076 
L 391.928595 295.474342 
L 395.207934 295.482532 
L 398.487273 295.488 
" clip-path="url(#p0304e9316d)" style="fill: none; stroke: #9467bd; stroke-width: 1.5; stroke-linecap: square"/>
   </g>
   <g id="patch_3">
    <path d="M 57.6 307.584 
L 57.6 41.472 
" style="fill: none; stroke: #000000; stroke-width: 0.8; stroke-linejoin: miter; stroke-linecap: square"/>
   </g>
   <g id="patch_4">
    <path d="M 414.72 307.584 
L 414.72 41.472 
" style="fill: none; stroke: #000000; stroke-width: 0.8; stroke-linejoin: miter; stroke-linecap: square"/>
   </g>
   <g id="patch_5">
    <path d="M 57.6 307.584 
L 414.72 307.584 
" style="fill: none; stroke: #000000; stroke-width: 0.8; stroke-linejoin: miter; stroke-linecap: square"/>
   </g>
   <g id="patch_6">
    <path d="M 57.6 41.472 
L 414.72 41.472 
" style="fill: none; stroke: #000000; stroke-width: 0.8; stroke-linejoin: miter; stroke-linecap: square"/>
   </g>
   <g id="legend_1">
    <g id="patch_7">
     <path d="M 348.487188 122.862625 
L 407.72 122.862625 
Q 409.72 122.862625 409.72 120.862625 
L 409.72 48.472 
Q 409.72 46.472 407.72 46.472 
L 348.487188 46.472 
Q 346.487188 46.472 346.487188 48.472 
L 346.487188 120.862625 
Q 346.487188 122.862625 348.487188 122.862625 
z
" style="fill: #ffffff; opacity: 0.8; stroke: #cccccc; stroke-linejoin: miter"/>
    </g>
    <g id="line2d_21">
     <path d="M 350.487188 54.570438 
L 360.487188 54.570438 
L 370.487188 54.570438 
" style="fill: none; stroke: #1f77b4; stroke-width: 1.5; stroke-linecap: square"/>
    </g>
    <g id="text_18">
     <!-- a=1 -->
     <g transform="translate(378.487188 58.070438) scale(0.1 -0.1)">
      <defs>
       <path id="DejaVuSans-3d" d="M 678 2906 
L 4684 2906 
L 4684 2381 
L 678 2381 
L 678 2906 
z
M 678 1631 
L 4684 1631 
L 4684 1100 
L 678 1100 
L 678 1631 
z
" transform="scale(0.015625)"/>
      </defs>
      <use xlink:href="#DejaVuSans-61"/>
      <use xlink:href="#DejaVuSans-3d" x="61.279297"/>
      <use xlink:href="#DejaVuSans-31" x="145.068359"/>
     </g>
    </g>
    <g id="line2d_22">
     <path d="M 350.487188 69.248563 
L 360.487188 69.248563 
L 370.487188 69.248563 
" style="fill: none; stroke: #ff7f0e; stroke-width: 1.5; stroke-linecap: square"/>
    </g>
    <g id="text_19">
     <!-- a=3 -->
     <g transform="translate(378.487188 72.748563) scale(0.1 -0.1)">
      <defs>
       <path id="DejaVuSans-33" d="M 2597 2516 
Q 3050 2419 3304 2112 
Q 3559 1806 3559 1356 
Q 3559 666 3084 287 
Q 2609 -91 1734 -91 
Q 1441 -91 1130 -33 
Q 819 25 488 141 
L 488 750 
Q 750 597 1062 519 
Q 1375 441 1716 441 
Q 2309 441 2620 675 
Q 2931 909 2931 1356 
Q 2931 1769 2642 2001 
Q 2353 2234 1838 2234 
L 1294 2234 
L 1294 2753 
L 1863 2753 
Q 2328 2753 2575 2939 
Q 2822 3125 2822 3475 
Q 2822 3834 2567 4026 
Q 2313 4219 1838 4219 
Q 1578 4219 1281 4162 
Q 984 4106 628 3988 
L 628 4550 
Q 988 4650 1302 4700 
Q 1616 4750 1894 4750 
Q 2613 4750 3031 4423 
Q 3450 4097 3450 3541 
Q 3450 3153 3228 2886 
Q 3006 2619 2597 2516 
z
" transform="scale(0.015625)"/>
      </defs>
      <use xlink:href="#DejaVuSans-61"/>
      <use xlink:href="#DejaVuSans-3d" x="61.279297"/>
      <use xlink:href="#DejaVuSans-33" x="145.068359"/>
     </g>
    </g>
    <g id="line2d_23">
     <path d="M 350.487188 83.926688 
L 360.487188 83.926688 
L 370.487188 83.926688 
" style="fill: none; stroke: #2ca02c; stroke-width: 1.5; stroke-linecap: square"/>
    </g>
    <g id="text_20">
     <!-- a=6 -->
     <g transform="translate(378.487188 87.426688) scale(0.1 -0.1)">
      <use xlink:href="#DejaVuSans-61"/>
      <use xlink:href="#DejaVuSans-3d" x="61.279297"/>
      <use xlink:href="#DejaVuSans-36" x="145.068359"/>
     </g>
    </g>
    <g id="line2d_24">
     <path d="M 350.487188 98.604813 
L 360.487188 98.604813 
L 370.487188 98.604813 
" style="fill: none; stroke: #d62728; stroke-width: 1.5; stroke-linecap: square"/>
    </g>
    <g id="text_21">
     <!-- a=8 -->
     <g transform="translate(378.487188 102.104813) scale(0.1 -0.1)">
      <use xlink:href="#DejaVuSans-61"/>
      <use xlink:href="#DejaVuSans-3d" x="61.279297"/>
      <use xlink:href="#DejaVuSans-38" x="145.068359"/>
     </g>
    </g>
    <g id="line2d_25">
     <path d="M 350.487188 113.282938 
L 360.487188 113.282938 
L 370.487188 113.282938 
" style="fill: none; stroke: #9467bd; stroke-width: 1.5; stroke-linecap: square"/>
    </g>
    <g id="text_22">
     <!-- a=10 -->
     <g transform="translate(378.487188 116.782938) scale(0.1 -0.1)">
      <use xlink:href="#DejaVuSans-61"/>
      <use xlink:href="#DejaVuSans-3d" x="61.279297"/>
      <use xlink:href="#DejaVuSans-31" x="145.068359"/>
      <use xlink:href="#DejaVuSans-30" x="208.691406"/>
     </g>
    </g>
   </g>
  </g>
 </g>
 <defs>
  <clipPath id="p0304e9316d">
   <rect x="57.6" y="41.472" width="357.12" height="266.112"/>
  </clipPath>
 </defs>
</svg>
